<?xml version="1.0" encoding="utf-8"?>
<!-- Generator: Adobe Illustrator 15.1.0, SVG Export Plug-In . SVG Version: 6.00 Build 0)  -->
<!DOCTYPE svg PUBLIC "-//W3C//DTD SVG 1.1//EN" "http://www.w3.org/Graphics/SVG/1.1/DTD/svg11.dtd">
<svg version="1.1" id="Capa_1" xmlns="http://www.w3.org/2000/svg" xmlns:xlink="http://www.w3.org/1999/xlink" x="0px" y="0px"
	 width="226.77px" height="226.77px" viewBox="0 0 226.77 226.77" enable-background="new 0 0 226.77 226.77" xml:space="preserve">
<g>
	<path d="M207.465,30.47c0.53-1.051,0.61-2.262,0.226-3.378c-0.394-1.108-1.212-2.014-2.279-2.513l-36.51-16.854
		c-7.771-2.632-15.682-4.711-23.669-6.228c-2.295-0.45-4.526,1.002-5.031,3.283c-2.915,12.849-14.286,22.464-28.027,22.464
		c-13.74,0-25.113-9.615-28.027-22.464C83.633,2.5,81.41,1.048,79.115,1.498c-7.986,1.516-15.898,3.595-23.676,6.228L18.938,24.579
		c-1.076,0.499-1.903,1.405-2.28,2.513c-0.385,1.117-0.313,2.328,0.233,3.378l15.851,31.286c0.931,1.87,3.082,2.793,5.089,2.191
		l17.609-5.216c0,0-0.103,92.537-0.479,119.758c-0.03,2.211,1.609,4.093,3.805,4.358c10.003,1.209,20.276,8.008,26.965,15.255
		c7.592,8.225,13.95,17.706,16.534,25.552c0.333,1.014,1.281,1.7,2.347,1.7h7.563h7.563c1.067,0,2.014-0.687,2.347-1.7
		c2.585-7.845,8.943-17.327,16.534-25.552c6.689-7.247,16.961-14.046,26.966-15.254c2.199-0.267,3.835-2.145,3.805-4.359
		c-0.378-27.218-0.485-119.758-0.485-119.758l17.616,5.216c2.006,0.602,4.143-0.321,5.088-2.191L207.465,30.47z"/>
</g>
</svg>
