<?xml version="1.0" encoding="utf-8"?>
<!-- Generator: Adobe Illustrator 15.1.0, SVG Export Plug-In . SVG Version: 6.00 Build 0)  -->
<!DOCTYPE svg PUBLIC "-//W3C//DTD SVG 1.1//EN" "http://www.w3.org/Graphics/SVG/1.1/DTD/svg11.dtd">
<svg version="1.1" id="Layer_1" xmlns="http://www.w3.org/2000/svg" xmlns:xlink="http://www.w3.org/1999/xlink" x="0px" y="0px"
	 width="518.5px" height="130px" viewBox="0 0 518.5 130" enable-background="new 0 0 518.5 130" xml:space="preserve">
<g>
	<path fill="#446278" d="M359.604,48.827h-8.627c-0.485,0-0.97,0.216-1.401,0.594c-0.431,0.377-0.701,0.861-0.81,1.401
		l-2.372,11.915h-5.066c-0.485,0-0.972,0.161-1.456,0.538c-0.485,0.378-0.755,0.863-0.809,1.403l-1.456,7.384
		c-0.107,0.539,0,1.025,0.27,1.402s0.646,0.539,1.187,0.592h5.067L341.65,86.35c-0.162,0.916-0.27,1.834-0.27,2.803
		c0,2.318,0.593,4.367,1.726,6.146c1.185,1.779,2.749,3.127,4.636,4.043c1.887,0.918,3.882,1.402,6.038,1.402h5.822
		c0.539,0,1.024-0.215,1.455-0.592c0.378-0.379,0.647-0.865,0.81-1.404l1.509-7.385c0.054-0.539-0.054-1.025-0.323-1.402
		c-0.323-0.377-0.7-0.539-1.186-0.539h-5.499c-1.564,0-2.372-0.754-2.372-2.264c0-0.27,0.054-0.648,0.161-1.24l2.318-11.861h7.764
		c0.485-0.053,0.97-0.215,1.456-0.592c0.431-0.377,0.7-0.863,0.808-1.402l1.456-7.384c0.055-0.54,0-1.025-0.271-1.403
		c-0.27-0.377-0.7-0.538-1.186-0.538h-7.763l2.371-11.915c0.108-0.54,0-1.024-0.269-1.401
		C360.573,49.042,360.142,48.827,359.604,48.827L359.604,48.827z"/>
	<path fill="#446278" d="M464.461,49.366l-1.51,7.387c-0.108,0.539,0,0.97,0.27,1.348c0.27,0.377,0.701,0.539,1.24,0.593h8.625
		c0.486-0.054,0.972-0.216,1.402-0.593c0.431-0.378,0.7-0.809,0.809-1.348l1.51-7.387c0.054-0.539-0.054-1.023-0.323-1.401
		c-0.27-0.377-0.647-0.594-1.133-0.594h-8.626c-0.539,0-1.023,0.217-1.455,0.594C464.784,48.342,464.515,48.827,464.461,49.366
		L464.461,49.366z"/>
	<path fill="#446278" d="M515.516,78.693c0.323-1.563,0.484-3.018,0.484-4.42c0-3.99-1.187-7.008-3.559-9.111
		c-2.371-2.103-5.444-3.182-9.218-3.127c-3.828-0.055-7.117,1.401-9.866,4.312l0.323-1.669c0.107-0.54,0-1.025-0.27-1.403
		c-0.27-0.377-0.646-0.538-1.132-0.538h-8.357c-0.484,0-0.97,0.161-1.4,0.538c-0.485,0.378-0.756,0.863-0.81,1.403l-6.847,34.07
		c-0.054,0.539,0.054,1.025,0.323,1.404c0.27,0.377,0.702,0.592,1.241,0.592h8.625c0.485,0,0.971-0.215,1.402-0.592
		c0.431-0.379,0.7-0.865,0.809-1.404l3.666-18.436c0.431-2.211,1.24-3.936,2.479-5.178c1.24-1.238,2.803-1.832,4.798-1.832
		c3.182,0,4.799,1.617,4.799,4.799c0,0.592-0.054,1.348-0.162,2.211l-3.72,18.436c-0.107,0.539,0,1.025,0.27,1.404
		c0.323,0.377,0.754,0.592,1.24,0.592h8.626c0.484,0,0.97-0.215,1.4-0.592c0.433-0.379,0.702-0.865,0.81-1.404L515.516,78.693
		L515.516,78.693z"/>
	<path fill="#446278" d="M453.355,64.678c0.054-0.54-0.054-1.025-0.323-1.403c-0.27-0.377-0.648-0.538-1.133-0.538h-7.979
		c-0.484,0-0.97,0.161-1.4,0.538c-0.486,0.378-0.756,0.863-0.863,1.403l-0.323,1.669c-0.432-1.078-1.564-2.048-3.344-2.964
		c-1.777-0.917-3.936-1.402-6.361-1.348c-4.852,0-8.733,1.294-11.59,3.828c-2.858,2.588-4.961,6.686-6.308,12.236
		c-0.486,2.051-0.863,3.775-1.025,5.176c-0.161,0.918-0.27,1.996-0.27,3.127c0,2.859,0.647,5.34,1.888,7.387
		c1.294,2.047,2.965,3.613,4.959,4.637c1.995,1.023,4.044,1.563,6.2,1.619c2.103-0.057,3.72-0.219,4.96-0.596
		c1.186-0.377,2.049-0.809,2.588-1.348c0.593-0.539,1.294-1.346,2.103-2.48l-0.97,5.123c-0.324,1.67-1.187,2.91-2.643,3.773
		c-1.455,0.863-3.072,1.295-4.96,1.295c-1.455,0-2.479-0.217-3.073-0.646c-0.646-0.432-1.077-1.027-1.239-1.727
		c-0.323-0.971-0.917-1.455-1.833-1.455h-8.949c-0.485,0-0.971,0.215-1.456,0.592c-0.484,0.377-0.754,0.863-0.808,1.402
		c-0.056,0.16-0.056,0.539-0.056,1.025c0,1.67,0.54,3.451,1.564,5.283c1.024,1.777,2.75,3.342,5.122,4.635
		c2.317,1.24,5.391,1.889,9.11,1.889c6.038,0,10.836-1.35,14.395-4.098c3.505-2.75,5.822-6.9,6.954-12.4L453.355,64.678
		L453.355,64.678z M433.192,73.303c1.617,0,2.856,0.432,3.72,1.348c0.862,0.918,1.293,2.049,1.293,3.449
		c0,1.781-0.323,3.506-0.97,5.176c-0.485,1.564-1.349,2.857-2.588,3.883c-1.24,1.025-2.75,1.51-4.475,1.51s-3.02-0.432-3.827-1.295
		c-0.863-0.863-1.295-2.047-1.295-3.502c0-0.488,0-0.865,0.055-1.135c0.107-1.131,0.323-2.316,0.701-3.559
		c0.485-1.832,1.401-3.287,2.642-4.313C429.688,73.842,431.305,73.303,433.192,73.303L433.192,73.303z"/>
	<path fill="#446278" d="M463.599,62.737c-0.485,0-0.971,0.161-1.402,0.538c-0.484,0.378-0.754,0.863-0.809,1.403l-6.847,34.07
		c-0.055,0.539,0.054,1.025,0.324,1.404c0.27,0.377,0.7,0.592,1.186,0.592h8.68c0.484,0,0.971-0.215,1.401-0.592
		c0.432-0.379,0.701-0.865,0.809-1.404l6.739-34.07c0.108-0.54,0-1.025-0.271-1.403c-0.269-0.377-0.646-0.538-1.131-0.538H463.599
		L463.599,62.737z"/>
	<path fill="#446278" d="M409.902,64.678c0.054-0.54-0.054-1.025-0.323-1.403c-0.27-0.377-0.701-0.538-1.187-0.538h-8.68
		c-0.485,0-0.971,0.161-1.402,0.538c-0.431,0.378-0.7,0.863-0.754,1.403l-0.377,1.669c-0.486-1.131-1.51-2.102-3.02-3.018
		c-1.564-0.917-3.504-1.349-5.931-1.294c-4.367-0.055-8.087,1.294-11.214,4.042c-3.181,2.75-5.391,6.848-6.738,12.346
		c-0.54,2.318-0.917,4.313-1.133,5.932c-0.161,1.131-0.27,2.371-0.27,3.666c0,2.855,0.539,5.283,1.672,7.33
		c1.132,1.996,2.642,3.506,4.528,4.529c1.887,1.025,3.882,1.564,5.984,1.564c2.856,0,5.014-0.377,6.577-1.133
		c1.563-0.809,2.695-1.834,3.45-3.18l-0.323,1.615c-0.107,0.539,0,1.025,0.323,1.404c0.27,0.377,0.646,0.592,1.132,0.592h8.734
		c0.485,0,0.97-0.215,1.401-0.592c0.431-0.379,0.7-0.865,0.81-1.404L409.902,64.678L409.902,64.678z M389.793,73.303
		c1.672,0,2.858,0.484,3.666,1.455c0.755,0.973,1.132,2.211,1.132,3.666c0,0.754-0.107,1.727-0.27,2.857
		c-0.27,1.133-0.485,2.156-0.754,3.02c-0.593,1.672-1.456,3.018-2.588,4.152c-1.187,1.131-2.696,1.67-4.528,1.67
		c-3.289,0-4.961-1.67-4.961-5.014c0-0.592,0-1.023,0.055-1.293c0.107-1.512,0.377-2.912,0.809-4.15
		c0.539-1.889,1.401-3.451,2.642-4.586C386.181,73.895,387.798,73.303,389.793,73.303L389.793,73.303z"/>
	<path fill="#446278" d="M234.042,49.528h-18.977c-0.485,0-0.971,0.215-1.402,0.646c-0.431,0.378-0.7,0.81-0.808,1.401
		l-9.436,47.172c-0.107,0.539,0,1.025,0.324,1.404c0.271,0.377,0.701,0.592,1.187,0.592h9.002c0.486,0,0.917-0.215,1.402-0.592
		c0.378-0.379,0.646-0.865,0.755-1.404l3.073-14.877h9.434c6.417,0,11.376-1.297,14.772-3.936c3.396-2.643,5.66-6.795,6.847-12.508
		c0.27-1.35,0.432-2.588,0.432-3.721c0-2.965-0.755-5.499-2.21-7.602c-1.456-2.103-3.506-3.721-6.039-4.852
		C239.865,50.121,237.061,49.528,234.042,49.528L234.042,49.528z M232.102,60.903c1.726,0,3.127,0.378,4.151,1.133
		c1.024,0.701,1.51,1.778,1.563,3.289c0,0.214-0.054,0.646-0.161,1.345c-0.432,1.943-1.349,3.398-2.697,4.367
		c-1.455,0.918-3.126,1.404-5.121,1.404h-8.464l2.318-11.539H232.102L232.102,60.903z"/>
	<path fill="#446278" d="M331.892,78.693c0.323-1.563,0.485-3.018,0.485-4.42c0-3.99-1.186-7.008-3.558-9.111
		c-2.372-2.103-5.445-3.182-9.166-3.127c-3.827-0.055-7.169,1.401-9.919,4.312l0.324-1.669c0.107-0.54,0-1.025-0.27-1.403
		c-0.271-0.377-0.648-0.538-1.133-0.538H300.3c-0.485,0-0.97,0.161-1.402,0.538c-0.484,0.378-0.754,0.863-0.808,1.403l-6.847,34.07
		c-0.054,0.539,0.054,1.025,0.323,1.404c0.27,0.377,0.7,0.592,1.239,0.592h8.627c0.484,0,0.97-0.215,1.4-0.592
		c0.432-0.379,0.702-0.865,0.81-1.404l3.72-18.436c0.378-2.211,1.186-3.936,2.427-5.178c1.239-1.238,2.803-1.832,4.798-1.832
		c3.18,0,4.798,1.617,4.798,4.799c0,0.592-0.055,1.348-0.162,2.211l-3.72,18.436c-0.108,0.539,0,1.025,0.323,1.404
		c0.271,0.377,0.701,0.592,1.187,0.592h8.625c0.485,0,0.972-0.215,1.402-0.592c0.431-0.379,0.7-0.865,0.809-1.404L331.892,78.693
		L331.892,78.693z"/>
	<path fill="#446278" d="M287.253,85.326c0.432-0.432,0.701-0.918,0.809-1.402l0.432-1.996c0.215-1.023,0.323-2.316,0.323-3.828
		c-0.054-2.857-0.647-5.498-1.778-7.924c-1.241-2.426-3.02-4.367-5.338-5.93c-2.318-1.509-5.121-2.265-8.464-2.21
		c-6.093-0.055-10.944,1.617-14.503,5.015c-3.559,3.34-5.93,7.977-7.116,13.961c-0.323,1.563-0.485,3.129-0.485,4.744
		c0,3.127,0.647,5.879,1.94,8.303c1.349,2.373,3.236,4.205,5.554,5.445c2.372,1.295,5.067,1.941,8.087,1.941
		c4.259,0,7.817-0.701,10.674-2.051c2.857-1.4,4.96-2.963,6.416-4.689c1.402-1.777,2.211-3.182,2.372-4.205
		c0.108-0.484,0.054-0.861-0.161-1.131c-0.217-0.324-0.539-0.486-0.971-0.486h-8.95c-0.539,0-0.916,0.055-1.186,0.217
		c-0.27,0.053-0.701,0.322-1.294,0.809c-1.456,1.131-3.289,1.67-5.606,1.67c-1.455,0-2.642-0.324-3.666-0.971
		s-1.51-1.725-1.51-3.234c0-0.646,0.055-1.131,0.162-1.455h22.858c0.484-0.055,0.971-0.215,1.401-0.594V85.326z M276.902,77.777
		h-12.346c0.484-1.67,1.4-3.074,2.749-4.205c1.294-1.131,2.856-1.725,4.637-1.725c1.778,0,3.073,0.594,3.936,1.779
		C276.688,74.758,277.064,76.16,276.902,77.777L276.902,77.777z"/>
	<polygon fill="#14345B" points="176.681,61.874 193.177,50.607 145.465,50.607 140.29,27.963 132.635,46.023 136.247,61.874 
		176.681,61.874 	"/>
	<polygon fill="#A8B8C0" points="106.381,61.874 121.745,61.874 138.835,21.602 134.737,3.649 114.789,50.607 91.984,50.607 
		106.381,61.874 	"/>
	<polygon fill="#446278" points="84.815,50.607 66,50.607 102.605,79.285 93.387,100.906 109.722,89.691 116.084,75.08 
		84.815,50.607 	"/>
	<polygon fill="#6C8194" points="139.157,74.703 148.377,115.139 162.718,126.352 151.881,78.855 170.695,65.971 151.935,65.971 
		139.157,74.703 	"/>
	<polygon fill="#97A9B2" points="125.304,97.023 143.04,110.934 139.05,93.412 126.381,83.438 90.314,108.129 82.658,126.244 
		125.304,97.025 	"/>
</g>
<rect y="48.827" fill="#446278" width="47.5" height="9.907"/>
<rect y="70.924" fill="#446278" width="47.5" height="9.907"/>
<rect y="92.208" fill="#446278" width="47.5" height="9.906"/>
</svg>
