<?xml version="1.0" encoding="utf-8"?>
<!-- Generator: Adobe Illustrator 15.1.0, SVG Export Plug-In . SVG Version: 6.00 Build 0)  -->
<!DOCTYPE svg PUBLIC "-//W3C//DTD SVG 1.1//EN" "http://www.w3.org/Graphics/SVG/1.1/DTD/svg11.dtd">
<svg version="1.1" id="Capa_1" xmlns="http://www.w3.org/2000/svg" xmlns:xlink="http://www.w3.org/1999/xlink" x="0px" y="0px"
	 width="226.77px" height="226.77px" viewBox="0 0 226.77 226.77" enable-background="new 0 0 226.77 226.77" xml:space="preserve">
<g>
	<path d="M113.385,34.815c9.7,0,18.078-6.186,21.089-15.283c-5.742,1.581-13.062,2.534-21.089,2.534
		c-8.026,0-15.346-0.954-21.087-2.534C95.306,28.628,103.684,34.815,113.385,34.815z"/>
	<path d="M225.074,46.002c-0.461-1.292-1.419-2.356-2.668-2.935l-42.694-19.709c-9.081-3.076-18.333-5.506-27.676-7.282
		c-0.329-0.065-0.657-0.096-0.979-0.096c-2.313,0-4.384,1.596-4.898,3.938c-3.412,15.019-16.707,26.263-32.774,26.263
		c-16.066,0-29.362-11.243-32.773-26.263c-0.521-2.341-2.588-3.938-4.899-3.938c-0.323,0-0.65,0.031-0.979,0.096
		c-9.342,1.775-18.594,4.206-27.69,7.282L4.364,43.067c-1.257,0.58-2.222,1.643-2.661,2.935c-0.454,1.309-0.373,2.721,0.268,3.954
		l18.534,36.578c0.868,1.736,2.633,2.777,4.5,2.777c0.481,0,0.971-0.069,1.452-0.214l20.586-6.102v122.733
		c0,2.787,2.274,5.061,5.068,5.061h122.547c2.787,0,5.054-2.273,5.054-5.061V82.997l20.6,6.101c0.482,0.145,0.971,0.214,1.452,0.214
		c1.863,0,3.621-1.042,4.501-2.778l18.542-36.578C225.432,48.722,225.521,47.31,225.074,46.002z"/>
</g>
</svg>
