<?xml version="1.0" encoding="utf-8"?>
<!-- Generator: Adobe Illustrator 15.1.0, SVG Export Plug-In . SVG Version: 6.00 Build 0)  -->
<!DOCTYPE svg PUBLIC "-//W3C//DTD SVG 1.1//EN" "http://www.w3.org/Graphics/SVG/1.1/DTD/svg11.dtd">
<svg version="1.1" id="Layer_1" xmlns="http://www.w3.org/2000/svg" xmlns:xlink="http://www.w3.org/1999/xlink" x="0px" y="0px"
	 width="226.77px" height="226.77px" viewBox="0 0 226.77 226.77" enable-background="new 0 0 226.77 226.77" xml:space="preserve">
<g id="Capa_1" display="none">
	<g display="inline">
		<path d="M113.385,34.815c9.7,0,18.078-6.186,21.089-15.282c-5.742,1.58-13.062,2.533-21.089,2.533
			c-8.026,0-15.346-0.954-21.087-2.533C95.306,28.628,103.684,34.815,113.385,34.815z"/>
		<path d="M225.074,46.002c-0.462-1.292-1.42-2.356-2.669-2.936l-42.693-19.709c-9.081-3.075-18.333-5.506-27.676-7.281
			c-0.329-0.065-0.657-0.097-0.979-0.097c-2.313,0-4.384,1.597-4.897,3.938c-3.412,15.019-16.707,26.263-32.774,26.263
			c-16.066,0-29.362-11.243-32.773-26.263c-0.521-2.341-2.588-3.938-4.898-3.938c-0.323,0-0.65,0.031-0.979,0.097
			c-9.342,1.774-18.594,4.206-27.689,7.281L4.364,43.067c-1.257,0.58-2.222,1.644-2.66,2.936c-0.454,1.309-0.373,2.721,0.268,3.954
			l18.534,36.578c0.868,1.735,2.633,2.776,4.5,2.776c0.48,0,0.971-0.068,1.452-0.214l20.586-6.102v122.732
			c0,2.787,2.273,5.062,5.067,5.062h122.548c2.786,0,5.054-2.273,5.054-5.062V82.997l20.6,6.101
			c0.482,0.146,0.972,0.214,1.452,0.214c1.863,0,3.621-1.042,4.501-2.777l18.542-36.578
			C225.432,48.722,225.521,47.31,225.074,46.002z"/>
	</g>
</g>
<g id="Layer_2">
	<g>
		<path d="M209.592,34.433c-0.873-0.334-1.745-0.667-2.593-0.976c-27.955-10.653-46.335-16.814-55.114-18.483
			c-0.359-0.077-0.693-0.103-1.001-0.103c-1.181-0.026-2.233,0.358-3.157,1.104c-0.95,0.744-1.541,1.694-1.823,2.9
			c-1.744,7.676-5.673,14.016-11.808,18.997c-5.956,4.852-12.759,7.393-20.409,7.598c-7.649-0.206-14.453-2.747-20.408-7.598
			c-6.135-4.98-10.063-11.321-11.809-18.997c-0.282-1.207-0.873-2.156-1.797-2.9c-0.95-0.745-2.002-1.13-3.157-1.104
			c-0.334,0-0.668,0.024-1.001,0.103c-8.805,1.668-27.185,7.83-55.141,18.483c-0.848,0.308-1.721,0.642-2.567,0.976
			c-0.847,0.462-1.643,1.052-2.387,1.797c-1.258,1.258-2.105,2.669-2.593,4.262L1.763,212.151h29.136l16.558-129.38v124.374
			c0,1.412,0.514,2.645,1.515,3.646c1.001,1.001,2.208,1.515,3.62,1.515h122.192c1.41,0,2.644-0.514,3.646-1.515
			c1.001-1.002,1.488-2.233,1.514-3.646V82.771l16.532,129.38h29.136L214.547,40.491c-0.488-1.593-1.335-3.004-2.593-4.262
			C211.209,35.486,210.439,34.895,209.592,34.433L209.592,34.433z"/>
		<path d="M115.381,33.817c3.825-0.437,7.342-1.797,10.551-4.133c3.902-2.849,6.623-6.597,8.138-11.218
			c-5.725,1.566-12.244,2.438-19.51,2.567h-1.617c-7.315-0.128-13.861-0.976-19.638-2.567c1.515,4.621,4.236,8.369,8.164,11.218
			c3.183,2.336,6.7,3.697,10.55,4.133C113.122,33.817,114.252,33.817,115.381,33.817L115.381,33.817z"/>
	</g>
</g>
</svg>
