<?xml version="1.0" encoding="utf-8"?>
<!-- Generator: Adobe Illustrator 15.1.0, SVG Export Plug-In . SVG Version: 6.00 Build 0)  -->
<!DOCTYPE svg PUBLIC "-//W3C//DTD SVG 1.1//EN" "http://www.w3.org/Graphics/SVG/1.1/DTD/svg11.dtd">
<svg version="1.1" xmlns="http://www.w3.org/2000/svg" xmlns:xlink="http://www.w3.org/1999/xlink" x="0px" y="0px"
	 width="226.77px" height="226.77px" viewBox="0 0 226.77 226.77" enable-background="new 0 0 226.77 226.77" xml:space="preserve">
<g id="Capa_1" display="none">
	<g display="inline">
		<path d="M113.385,34.815c9.7,0,18.078-6.186,21.089-15.283c-5.742,1.581-13.062,2.534-21.089,2.534
			c-8.026,0-15.346-0.954-21.087-2.534C95.306,28.628,103.684,34.815,113.385,34.815z"/>
		<path d="M225.074,46.002c-0.461-1.292-1.419-2.356-2.668-2.935l-42.694-19.709c-9.081-3.076-18.333-5.506-27.676-7.282
			c-0.329-0.065-0.657-0.096-0.979-0.096c-2.313,0-4.384,1.596-4.898,3.938c-3.412,15.019-16.707,26.263-32.774,26.263
			c-16.066,0-29.362-11.243-32.773-26.263c-0.521-2.341-2.588-3.938-4.899-3.938c-0.323,0-0.65,0.031-0.979,0.096
			c-9.342,1.775-18.594,4.206-27.69,7.282L4.364,43.067c-1.257,0.58-2.222,1.643-2.661,2.935c-0.454,1.309-0.373,2.721,0.268,3.954
			l18.534,36.578c0.868,1.736,2.633,2.777,4.5,2.777c0.481,0,0.971-0.069,1.452-0.214l20.586-6.102v122.733
			c0,2.787,2.274,5.061,5.068,5.061h122.547c2.787,0,5.054-2.273,5.054-5.061V82.997l20.6,6.101
			c0.482,0.145,0.971,0.214,1.452,0.214c1.863,0,3.621-1.042,4.501-2.778l18.542-36.578
			C225.432,48.722,225.521,47.31,225.074,46.002z"/>
	</g>
</g>
<g id="Layer_2" display="none">
	<g display="inline">
		<path d="M209.592,34.433c-0.873-0.334-1.745-0.667-2.593-0.976c-27.955-10.653-46.335-16.814-55.114-18.483
			c-0.359-0.077-0.693-0.103-1.001-0.103c-1.181-0.026-2.233,0.359-3.157,1.104c-0.95,0.744-1.541,1.694-1.823,2.9
			c-1.745,7.676-5.673,14.016-11.808,18.997c-5.956,4.852-12.759,7.393-20.409,7.598c-7.65-0.206-14.453-2.747-20.408-7.598
			c-6.135-4.98-10.063-11.321-11.809-18.997c-0.282-1.207-0.873-2.156-1.797-2.9c-0.95-0.745-2.002-1.13-3.157-1.104
			c-0.334,0-0.668,0.025-1.001,0.103c-8.805,1.668-27.185,7.83-55.141,18.483c-0.847,0.308-1.72,0.642-2.567,0.976
			c-0.847,0.462-1.643,1.052-2.387,1.797c-1.258,1.258-2.105,2.669-2.593,4.261L1.763,212.151h29.136l16.557-129.38v124.374
			c0,1.412,0.514,2.644,1.515,3.646c1.001,1.001,2.208,1.515,3.62,1.515h122.192c1.411,0,2.644-0.514,3.646-1.515
			c1.001-1.002,1.488-2.233,1.514-3.646V82.771l16.532,129.38h29.136L214.547,40.491c-0.488-1.592-1.335-3.003-2.593-4.261
			C211.209,35.486,210.439,34.895,209.592,34.433L209.592,34.433z"/>
		<path d="M115.381,33.817c3.825-0.437,7.342-1.797,10.551-4.133c3.902-2.849,6.623-6.597,8.138-11.218
			c-5.725,1.566-12.245,2.438-19.51,2.567h-1.617c-7.316-0.128-13.862-0.975-19.638-2.567c1.515,4.621,4.236,8.369,8.164,11.218
			c3.183,2.336,6.7,3.697,10.55,4.133C113.122,33.817,114.252,33.817,115.381,33.817L115.381,33.817z"/>
	</g>
</g>
<g id="Layer_3">
	<g>
		<path d="M113.385,59.031c4.1-0.035,9.187-4.904,13.288-12.718c5.165-9.845,8.397-23.104,9.216-37.615
			c-5.449,3.643-13.501,5.952-22.504,5.952c-9.001,0-17.054-2.31-22.502-5.952c0.819,14.518,4.051,27.772,9.216,37.615
			C104.199,54.128,109.287,58.996,113.385,59.031z"/>
		<path d="M197.245,80.661c-8.21-4.75-31.17-22.709-31.233-75.014c-0.004-2.353-1.985-4.23-4.336-4.23h-9.679
			c-2.351,0-4.267,1.863-4.336,4.208c-1.08,36.245-16.008,64.988-34.277,65.035l0,0c-18.268-0.047-33.197-28.79-34.277-65.035
			c-0.066-2.344-1.982-4.208-4.334-4.208h-9.678c-2.351,0-4.333,1.877-4.335,4.23C60.695,57.952,37.735,75.91,29.525,80.661
			c-1.743,1.008-2.771,2.912-2.662,4.921c1.04,19.167,5.453,111.82,6.513,134.673c0.132,2.852,2.481,5.099,5.335,5.099h74.672l0,0
			h74.672c2.858,0,5.204-2.243,5.337-5.099c1.06-22.853,5.472-115.506,6.513-134.673C200.017,83.574,198.986,81.668,197.245,80.661z
			"/>
	</g>
</g>
</svg>
