<?xml version="1.0" encoding="utf-8"?>
<!-- Generator: Adobe Illustrator 15.1.0, SVG Export Plug-In . SVG Version: 6.00 Build 0)  -->
<!DOCTYPE svg PUBLIC "-//W3C//DTD SVG 1.1//EN" "http://www.w3.org/Graphics/SVG/1.1/DTD/svg11.dtd">
<svg version="1.1" id="Capa_1" xmlns="http://www.w3.org/2000/svg" xmlns:xlink="http://www.w3.org/1999/xlink" x="0px" y="0px"
	 width="512px" height="512px" viewBox="620 0 512 512" enable-background="new 620 0 512 512" xml:space="preserve">
<g>
	<path d="M641.116,266.755c2.47,60.074,25.394,111.684,68.655,154.944c45.965,45.849,101.337,68.772,166.229,68.89
		c0.117,0,0.117,0,0.234,0V21.411c-61.249,5.41-121.677,22.924-166.463,67.713C662.275,136.619,644.29,200.924,641.116,266.755
		L641.116,266.755z"/>
	<path fill="none" stroke="#000000" stroke-width="33" stroke-linecap="round" stroke-linejoin="round" stroke-miterlimit="10" d="
		M641.116,267.285c2.47,60.073,25.394,111.683,68.655,154.943c45.965,45.849,101.337,68.773,166.229,68.89c0.117,0,0.117,0,0.234,0
		c0.589-0.116,1.177-0.116,1.764,0c64.07-0.588,118.851-23.512,164.349-68.89c45.848-45.965,68.771-101.336,68.771-166.229
		c0-65.009-22.924-120.378-68.771-166.346c-42.911-42.791-93.931-65.597-153.181-68.538c-3.645-0.115-7.405-0.234-11.168-0.234
		c-0.587,0-1.175,0-1.764,0c-0.117,0-0.117,0-0.234,0c-64.892-0.118-120.264,22.807-166.229,68.771
		c-45.966,45.968-68.89,101.337-68.89,166.346C640.882,259.764,640.998,263.523,641.116,267.285L641.116,267.285z"/>
</g>
</svg>
