<svg xmlns="http://www.w3.org/2000/svg" viewBox="0 0 293 165" width="293" height="165">
	<style>
		tspan { white-space:pre }
		.shp0 { fill: #cdd1d6 } 
	</style>
	<path class="shp0" d="M287 159.6C286.16 160.47 285.24 161.25 284.24 161.93C283.24 162.62 282.18 163.19 281.06 163.66C279.95 164.12 278.79 164.47 277.6 164.69C276.41 164.92 275.21 165.02 274 165L18.4 165C13.4 165 9.1 163.2 5.5 159.6C4.63 158.78 3.85 157.87 3.17 156.89C2.48 155.91 1.9 154.86 1.43 153.77C0.96 152.67 0.6 151.53 0.36 150.36C0.12 149.19 0 147.99 0 146.8C0 141.8 1.8 137.5 5.4 133.9L133.4 6C137 2.4 141.2 0.6 146.2 0.6C151.2 0.6 155.4 2.4 159 6L287 134C290.5 137.5 292.4 141.8 292.4 146.8C292.4 151.8 290.5 156 286.9 159.6L287 159.6Z" />
</svg>