<svg xmlns="http://www.w3.org/2000/svg" viewBox="0 0 293 165" width="293" height="165">
	<style>
		tspan { white-space:pre }
		.shp0 { fill: #cdd1d6 } 
	</style>
	<path id="Layer" class="shp0" d="M287 5.4C286.16 4.53 285.24 3.75 284.24 3.07C283.24 2.38 282.18 1.81 281.06 1.34C279.95 0.88 278.79 0.53 277.6 0.31C276.41 0.08 275.21 -0.02 274 0L18.4 0C13.4 0 9.1 1.8 5.5 5.4C4.63 6.22 3.85 7.13 3.17 8.11C2.48 9.09 1.9 10.14 1.43 11.23C0.96 12.33 0.6 13.47 0.36 14.64C0.12 15.81 0 17.01 0 18.2C0 23.2 1.8 27.5 5.4 31.1L133.4 159C137 162.6 141.2 164.4 146.2 164.4C151.2 164.4 155.4 162.6 159 159L287 31C290.5 27.5 292.4 23.2 292.4 18.2C292.4 13.2 290.5 9 286.9 5.4L287 5.4Z" />
</svg>