<svg xmlns="http://www.w3.org/2000/svg" width="226.77" height="226.77" viewBox="0 0 226.77 226.77"><path d="M207.465 30.47c.53-1.051.61-2.262.226-3.378a4.397 4.397 0 00-2.279-2.513l-36.51-16.854a176.402 176.402 0 00-23.669-6.228 4.296 4.296 0 00-5.031 3.283c-2.915 12.849-14.286 22.464-28.027 22.464-13.74 0-25.113-9.615-28.027-22.464a4.304 4.304 0 00-5.033-3.282 176.514 176.514 0 00-23.676 6.228L18.938 24.579a4.314 4.314 0 00-2.28 2.513 4.27 4.27 0 00.233 3.378l15.851 31.286a4.301 4.301 0 005.089 2.191l17.609-5.216s-.103 92.537-.479 119.758a4.328 4.328 0 003.805 4.358c10.003 1.209 20.276 8.008 26.965 15.255 7.592 8.225 13.95 17.706 16.534 25.552a2.472 2.472 0 002.347 1.7h15.126a2.472 2.472 0 002.347-1.7c2.585-7.845 8.943-17.327 16.534-25.552 6.689-7.247 16.961-14.046 26.966-15.254a4.326 4.326 0 003.805-4.359c-.378-27.218-.485-119.758-.485-119.758l17.616 5.216a4.307 4.307 0 005.088-2.191l15.856-31.286z"/></svg>