<svg xmlns="http://www.w3.org/2000/svg" width="518.5" height="130" viewBox="0 0 518.5 130"><path fill="#446278" d="M359.604 48.827h-8.627c-.485 0-.97.216-1.401.594a2.49 2.49 0 00-.81 1.401l-2.372 11.915h-5.066c-.485 0-.972.161-1.456.538-.485.378-.755.863-.809 1.403l-1.456 7.384c-.107.539 0 1.025.27 1.402s.646.539 1.187.592h5.067L341.65 86.35a15.92 15.92 0 00-.27 2.803c0 2.318.593 4.367 1.726 6.146a11.553 11.553 0 004.636 4.043 13.589 13.589 0 006.038 1.402h5.822c.539 0 1.024-.215 1.455-.592a3.34 3.34 0 00.81-1.404l1.509-7.385c.054-.539-.054-1.025-.323-1.402-.323-.377-.7-.539-1.186-.539h-5.499c-1.564 0-2.372-.754-2.372-2.264 0-.27.054-.648.161-1.24l2.318-11.861h7.764c.485-.053.97-.215 1.456-.592.431-.377.7-.863.808-1.402l1.456-7.384c.055-.54 0-1.025-.271-1.403-.27-.377-.7-.538-1.186-.538h-7.763l2.371-11.915c.108-.54 0-1.024-.269-1.401-.268-.38-.699-.595-1.237-.595zm104.857.539l-1.51 7.387c-.108.539 0 .97.27 1.348.27.377.701.539 1.24.593h8.625c.486-.054.972-.216 1.402-.593.431-.378.7-.809.809-1.348l1.51-7.387c.054-.539-.054-1.023-.323-1.401-.27-.377-.647-.594-1.133-.594h-8.626c-.539 0-1.023.217-1.455.594-.486.377-.755.862-.809 1.401zm51.055 29.327c.323-1.563.484-3.018.484-4.42 0-3.99-1.187-7.008-3.559-9.111-2.371-2.103-5.444-3.182-9.218-3.127-3.828-.055-7.117 1.401-9.866 4.312l.323-1.669c.107-.54 0-1.025-.27-1.403-.27-.377-.646-.538-1.132-.538h-8.357c-.484 0-.97.161-1.4.538-.485.378-.756.863-.81 1.403l-6.847 34.07c-.054.539.054 1.025.323 1.404.27.377.702.592 1.241.592h8.625c.485 0 .971-.215 1.402-.592.431-.379.7-.865.809-1.404l3.666-18.436c.431-2.211 1.24-3.936 2.479-5.178 1.24-1.238 2.803-1.832 4.798-1.832 3.182 0 4.799 1.617 4.799 4.799 0 .592-.054 1.348-.162 2.211l-3.72 18.436c-.107.539 0 1.025.27 1.404.323.377.754.592 1.24.592h8.626c.484 0 .97-.215 1.4-.592a2.49 2.49 0 00.81-1.404l4.046-20.055zm-62.161-14.015c.054-.54-.054-1.025-.323-1.403-.27-.377-.648-.538-1.133-.538h-7.979c-.484 0-.97.161-1.4.538a2.293 2.293 0 00-.863 1.403l-.323 1.669c-.432-1.078-1.564-2.048-3.344-2.964-1.777-.917-3.936-1.402-6.361-1.348-4.852 0-8.733 1.294-11.59 3.828-2.858 2.588-4.961 6.686-6.308 12.236-.486 2.051-.863 3.775-1.025 5.176-.161.918-.27 1.996-.27 3.127 0 2.859.647 5.34 1.888 7.387 1.294 2.047 2.965 3.613 4.959 4.637 1.995 1.023 4.044 1.563 6.2 1.619 2.103-.057 3.72-.219 4.96-.596 1.186-.377 2.049-.809 2.588-1.348.593-.539 1.294-1.346 2.103-2.48l-.97 5.123c-.324 1.67-1.187 2.91-2.643 3.773-1.455.863-3.072 1.295-4.96 1.295-1.455 0-2.479-.217-3.073-.646-.646-.432-1.077-1.027-1.239-1.727-.323-.971-.917-1.455-1.833-1.455h-8.949c-.485 0-.971.215-1.456.592-.484.377-.754.863-.808 1.402-.056.16-.056.539-.056 1.025 0 1.67.54 3.451 1.564 5.283 1.024 1.777 2.75 3.342 5.122 4.635 2.317 1.24 5.391 1.889 9.11 1.889 6.038 0 10.836-1.35 14.395-4.098 3.505-2.75 5.822-6.9 6.954-12.4l7.063-35.634zm-20.163 8.625c1.617 0 2.856.432 3.72 1.348.862.918 1.293 2.049 1.293 3.449 0 1.781-.323 3.506-.97 5.176a8.014 8.014 0 01-2.588 3.883c-1.24 1.025-2.75 1.51-4.475 1.51s-3.02-.432-3.827-1.295c-.863-.863-1.295-2.047-1.295-3.502 0-.488 0-.865.055-1.135.107-1.131.323-2.316.701-3.559.485-1.832 1.401-3.287 2.642-4.313 1.24-1.023 2.857-1.562 4.744-1.562zm30.407-10.566a2.09 2.09 0 00-1.402.538c-.484.378-.754.863-.809 1.403l-6.847 34.07c-.055.539.054 1.025.324 1.404.27.377.7.592 1.186.592h8.68c.484 0 .971-.215 1.401-.592.432-.379.701-.865.809-1.404l6.739-34.07c.108-.54 0-1.025-.271-1.403-.269-.377-.646-.538-1.131-.538h-8.679zm-53.697 1.941c.054-.54-.054-1.025-.323-1.403-.27-.377-.701-.538-1.187-.538h-8.68a2.09 2.09 0 00-1.402.538c-.431.378-.7.863-.754 1.403l-.377 1.669c-.486-1.131-1.51-2.102-3.02-3.018-1.564-.917-3.504-1.349-5.931-1.294-4.367-.055-8.087 1.294-11.214 4.042-3.181 2.75-5.391 6.848-6.738 12.346-.54 2.318-.917 4.313-1.133 5.932a26.102 26.102 0 00-.27 3.666c0 2.855.539 5.283 1.672 7.33 1.132 1.996 2.642 3.506 4.528 4.529 1.887 1.025 3.882 1.564 5.984 1.564 2.856 0 5.014-.377 6.577-1.133 1.563-.809 2.695-1.834 3.45-3.18l-.323 1.615c-.107.539 0 1.025.323 1.404.27.377.646.592 1.132.592h8.734c.485 0 .97-.215 1.401-.592.431-.379.7-.865.81-1.404l6.741-34.068zm-20.109 8.625c1.672 0 2.858.484 3.666 1.455.755.973 1.132 2.211 1.132 3.666 0 .754-.107 1.727-.27 2.857-.27 1.133-.485 2.156-.754 3.02-.593 1.672-1.456 3.018-2.588 4.152-1.187 1.131-2.696 1.67-4.528 1.67-3.289 0-4.961-1.67-4.961-5.014 0-.592 0-1.023.055-1.293.107-1.512.377-2.912.809-4.15.539-1.889 1.401-3.451 2.642-4.586 1.185-1.185 2.802-1.777 4.797-1.777zM234.042 49.528h-18.977c-.485 0-.971.215-1.402.646-.431.378-.7.81-.808 1.401l-9.436 47.172c-.107.539 0 1.025.324 1.404.271.377.701.592 1.187.592h9.002c.486 0 .917-.215 1.402-.592.378-.379.646-.865.755-1.404l3.073-14.877h9.434c6.417 0 11.376-1.297 14.772-3.936 3.396-2.643 5.66-6.795 6.847-12.508.27-1.35.432-2.588.432-3.721 0-2.965-.755-5.499-2.21-7.602-1.456-2.103-3.506-3.721-6.039-4.852-2.533-1.13-5.337-1.723-8.356-1.723zm-1.94 11.375c1.726 0 3.127.378 4.151 1.133 1.024.701 1.51 1.778 1.563 3.289 0 .214-.054.646-.161 1.345-.432 1.943-1.349 3.398-2.697 4.367-1.455.918-3.126 1.404-5.121 1.404h-8.464l2.318-11.539h8.411v.001zm99.79 17.79c.323-1.563.485-3.018.485-4.42 0-3.99-1.186-7.008-3.558-9.111-2.372-2.103-5.445-3.182-9.166-3.127-3.827-.055-7.169 1.401-9.919 4.312l.324-1.669c.107-.54 0-1.025-.27-1.403-.271-.377-.648-.538-1.133-.538H300.3c-.485 0-.97.161-1.402.538-.484.378-.754.863-.808 1.403l-6.847 34.07c-.054.539.054 1.025.323 1.404.27.377.7.592 1.239.592h8.627c.484 0 .97-.215 1.4-.592.432-.379.702-.865.81-1.404l3.72-18.436c.378-2.211 1.186-3.936 2.427-5.178 1.239-1.238 2.803-1.832 4.798-1.832 3.18 0 4.798 1.617 4.798 4.799a18.7 18.7 0 01-.162 2.211l-3.72 18.436c-.108.539 0 1.025.323 1.404.271.377.701.592 1.187.592h8.625c.485 0 .972-.215 1.402-.592.431-.379.7-.865.809-1.404l4.043-20.055zm-44.639 6.633c.432-.432.701-.918.809-1.402l.432-1.996c.215-1.023.323-2.316.323-3.828-.054-2.857-.647-5.498-1.778-7.924-1.241-2.426-3.02-4.367-5.338-5.93-2.318-1.509-5.121-2.265-8.464-2.21-6.093-.055-10.944 1.617-14.503 5.015-3.559 3.34-5.93 7.977-7.116 13.961a23.27 23.27 0 00-.485 4.744c0 3.127.647 5.879 1.94 8.303 1.349 2.373 3.236 4.205 5.554 5.445 2.372 1.295 5.067 1.941 8.087 1.941 4.259 0 7.817-.701 10.674-2.051 2.857-1.4 4.96-2.963 6.416-4.689 1.402-1.777 2.211-3.182 2.372-4.205.108-.484.054-.861-.161-1.131-.217-.324-.539-.486-.971-.486h-8.95c-.539 0-.916.055-1.186.217-.27.053-.701.322-1.294.809-1.456 1.131-3.289 1.67-5.606 1.67-1.455 0-2.642-.324-3.666-.971s-1.51-1.725-1.51-3.234c0-.646.055-1.131.162-1.455h22.858c.484-.055.971-.215 1.401-.594v.001zm-10.351-7.549h-12.346a8.448 8.448 0 012.749-4.205c1.294-1.131 2.856-1.725 4.637-1.725 1.778 0 3.073.594 3.936 1.779.81 1.132 1.186 2.534 1.024 4.151z"/><path fill="#14345B" d="M176.681 61.874l16.496-11.267h-47.712l-5.175-22.644-7.655 18.06 3.612 15.851h40.434z"/><path fill="#A8B8C0" d="M106.381 61.874h15.364l17.09-40.272-4.098-17.953-19.948 46.958H91.984l14.397 11.267z"/><path fill="#446278" d="M84.815 50.607H66l36.605 28.678-9.218 21.621 16.335-11.215 6.362-14.611-31.269-24.473z"/><path fill="#6C8194" d="M139.157 74.703l9.22 40.436 14.341 11.213-10.837-47.497 18.814-12.884h-18.76l-12.778 8.732z"/><path fill="#97A9B2" d="M125.304 97.023l17.736 13.911-3.99-17.522-12.669-9.974-36.067 24.691-7.656 18.115 42.646-29.219z"/><path fill="#446278" d="M0 48.827h47.5v9.907H0zm0 22.097h47.5v9.907H0zm0 21.284h47.5v9.906H0z"/></svg>