<svg xmlns="http://www.w3.org/2000/svg" width="226.77" height="226.77" viewBox="0 0 226.77 226.77"><path d="M209.592 34.433c-.873-.334-1.745-.667-2.593-.976-27.955-10.653-46.335-16.814-55.114-18.483a4.733 4.733 0 00-1.001-.103c-1.181-.026-2.233.358-3.157 1.104-.95.744-1.541 1.694-1.823 2.9-1.744 7.676-5.673 14.016-11.808 18.997-5.956 4.852-12.759 7.393-20.409 7.598-7.649-.206-14.453-2.747-20.408-7.598-6.135-4.98-10.063-11.321-11.809-18.997-.282-1.207-.873-2.156-1.797-2.9-.95-.745-2.002-1.13-3.157-1.104-.334 0-.668.024-1.001.103-8.805 1.668-27.185 7.83-55.141 18.483-.848.308-1.721.642-2.567.976a10.38 10.38 0 00-2.387 1.797c-1.258 1.258-2.105 2.669-2.593 4.262L1.763 212.151h29.136l16.558-129.38v124.374c0 1.412.514 2.645 1.515 3.646s2.208 1.515 3.62 1.515h122.192c1.41 0 2.644-.514 3.646-1.515 1.001-1.002 1.488-2.233 1.514-3.646V82.771l16.532 129.38h29.136l-11.065-171.66c-.488-1.593-1.335-3.004-2.593-4.262-.745-.743-1.515-1.334-2.362-1.796z"/><path d="M115.381 33.817c3.825-.437 7.342-1.797 10.551-4.133 3.902-2.849 6.623-6.597 8.138-11.218-5.725 1.566-12.244 2.438-19.51 2.567h-1.617c-7.315-.128-13.861-.976-19.638-2.567 1.515 4.621 4.236 8.369 8.164 11.218 3.183 2.336 6.7 3.697 10.55 4.133h3.362z"/></svg>