<svg xmlns="http://www.w3.org/2000/svg" width="226.77" height="226.77" viewBox="0 0 226.77 226.77"><path d="M113.385 34.815c9.7 0 18.078-6.186 21.089-15.283-5.742 1.581-13.062 2.534-21.089 2.534-8.026 0-15.346-.954-21.087-2.534 3.008 9.096 11.386 15.283 21.087 15.283z"/><path d="M225.074 46.002a5.134 5.134 0 00-2.668-2.935l-42.694-19.709a206.457 206.457 0 00-27.676-7.282 5.013 5.013 0 00-5.877 3.842c-3.412 15.019-16.707 26.263-32.774 26.263-16.066 0-29.362-11.243-32.773-26.263a5.022 5.022 0 00-5.878-3.842 207.134 207.134 0 00-27.69 7.282L4.364 43.067a5.028 5.028 0 00-2.661 2.935c-.454 1.309-.373 2.721.268 3.954l18.534 36.578a5.03 5.03 0 005.952 2.563l20.586-6.102v122.733c0 2.787 2.274 5.061 5.068 5.061h122.547c2.787 0 5.054-2.273 5.054-5.061V82.997l20.6 6.101c.482.145.971.214 1.452.214a5.051 5.051 0 004.501-2.778l18.542-36.578a5.073 5.073 0 00.267-3.954z"/></svg>