<svg xmlns="http://www.w3.org/2000/svg" width="226.77" height="226.77" viewBox="0 0 226.77 226.77"><path d="M113.385 59.031c4.1-.035 9.187-4.904 13.288-12.718 5.165-9.845 8.397-23.104 9.216-37.615-5.449 3.643-13.501 5.952-22.504 5.952-9.001 0-17.054-2.31-22.502-5.952.819 14.518 4.051 27.772 9.216 37.615 4.1 7.815 9.188 12.683 13.286 12.718z"/><path d="M197.245 80.661c-8.21-4.75-31.17-22.709-31.233-75.014-.004-2.353-1.985-4.23-4.336-4.23h-9.679a4.333 4.333 0 00-4.336 4.208c-1.08 36.245-16.008 64.988-34.277 65.035-18.268-.047-33.197-28.79-34.277-65.035a4.329 4.329 0 00-4.334-4.208h-9.678c-2.351 0-4.333 1.877-4.335 4.23-.065 52.305-23.025 70.263-31.235 75.014a5.351 5.351 0 00-2.662 4.921c1.04 19.167 5.453 111.82 6.513 134.673a5.344 5.344 0 005.335 5.099h149.344a5.34 5.34 0 005.337-5.099c1.06-22.853 5.472-115.506 6.513-134.673a5.347 5.347 0 00-2.66-4.921z"/></svg>