<?xml version="1.0" encoding="utf-8"?>
<!-- Generator: Adobe Illustrator 15.1.0, SVG Export Plug-In . SVG Version: 6.00 Build 0)  -->
<!DOCTYPE svg PUBLIC "-//W3C//DTD SVG 1.1//EN" "http://www.w3.org/Graphics/SVG/1.1/DTD/svg11.dtd">
<svg version="1.1" id="Layer_1" xmlns="http://www.w3.org/2000/svg" xmlns:xlink="http://www.w3.org/1999/xlink" x="0px" y="0px"
	 width="100px" height="100px" viewBox="0 0 100 100" enable-background="new 0 0 100 100" xml:space="preserve">
<g>
	<path fill="#446278" d="M48.624,5.894h-0.143C37.86,5.748,30.596,10.257,26.664,19.421c-3.924,8.436-5.094,18.032-3.775,28.65
		c1.155,9.745,5.079,18.179,11.919,25.6C27.245,79.924,19.54,83.85,11.544,85.45c-0.881,0.146-1.455,0.436-1.894,1.16
		c-0.442,0.584-0.583,1.312-0.442,2.185c0.151,0.728,0.442,1.454,1.173,1.892c0.573,0.436,1.304,0.581,2.178,0.436
		c9.743-1.745,19.341-6.833,28.502-15.127c0.439-0.438,0.591-0.873,0.731-1.306c0.148-0.585,0.291-1.167,0.148-1.601
		c-0.148-0.439-0.44-0.871-0.88-1.313c-7.116-6.832-11.346-14.979-12.361-24.433c-1.153-9.6-0.142-18.178,3.2-25.596h0.151
		c2.908-6.836,8.435-10.182,16.431-10.036c0.143,0,0.723-0.017,0.925-0.009c0.863,0.033-0.703-0.016,0,0
		c0.21,0.005,3.083,0.032,3.233,0.032l-1.682-0.022c7.996-0.146,13.525,3.199,16.866,10.182c3.349,7.417,4.504,15.996,3.349,25.45
		c-1.312,9.454-5.526,17.601-12.799,24.433c-0.433,0.295-0.724,0.729-0.875,1.313c-0.147,0.434-0.147,1.016,0,1.601
		c0.151,0.433,0.442,0.868,0.875,1.306c9.45,8.581,19.049,13.672,29.089,15.272c0.724,0.142,1.447-0.146,2.179-0.581
		c0.583-0.438,1.021-1.02,1.164-1.751c0.148-0.867-0.143-1.595-0.581-2.177c-0.44-0.729-1.166-1.019-1.897-1.163
		c-8.144-1.456-15.999-5.378-23.704-11.925c6.841-7.421,11.056-15.854,12.359-25.6c1.314-10.763,0-20.36-3.923-28.65
		C68.846,10.257,61.424,5.748,50.81,5.894"/>
</g>
<path fill="#446278" d="M633.116,22.621c-0.572-0.436-1.155-0.582-1.746-0.582h-78.378l-1.024-14.4
	c-0.148-0.728-0.292-1.164-0.581-1.601c-0.442-0.436-0.874-0.872-1.454-1.018c-0.583-0.145-1.164-0.145-1.596,0l-13.823,3.928
	c-0.724,0.145-1.314,0.727-1.746,1.454c-0.432,0.728-0.432,1.455-0.289,2.182c0.148,0.728,0.721,1.309,1.455,1.747
	c0.721,0.291,1.452,0.291,2.176,0.145l10.332-2.909l0.873,13.382v0.291l2.758,43.777v0.146l0.731,11.196
	c0,0.727,0.292,1.458,0.872,2.036c0.583,0.436,1.316,0.728,2.037,0.728h8.139c-0.575,1.018-0.863,2.328-0.863,3.637
	c0,2.181,0.721,4.073,2.318,5.672c1.604,1.601,3.64,2.474,5.824,2.474c2.179,0,4.065-0.727,5.671-2.327c0-0.146,0-0.146,0.147-0.146
	c1.595-1.599,2.319-3.495,2.319-5.672c0-1.309-0.282-2.619-0.871-3.637h21.377c-0.572,1.018-0.864,2.328-0.864,3.637
	c0,2.181,0.724,4.073,2.325,5.672c1.598,1.601,3.633,2.474,5.818,2.474c2.178,0,4.074-0.727,5.671-2.327c0-0.146,0-0.146,0.14-0.146
	c1.604-1.599,2.337-3.495,2.337-5.672c0-1.309-0.292-2.619-0.872-3.637h6.1c0.73,0,1.462-0.292,2.037-0.873
	c0.589-0.582,0.878-1.31,0.878-2.031c0-0.728-0.289-1.459-0.878-2.042c-0.575-0.582-1.307-0.872-2.037-0.872h-61.955l-0.292-5.673
	l63.269-4.8c0.583-0.142,1.164-0.286,1.604-0.581c0.434-0.433,0.715-0.873,0.865-1.451l12.226-38.978
	c0.141-0.582,0.141-1.164,0-1.747C633.994,23.493,633.556,23.057,633.116,22.621L633.116,22.621z M627.446,27.857l-10.472,33.306
	l-61.225,4.654l-2.326-37.96H627.446L627.446,27.857z M566.806,86.759c0-0.729,0.292-1.163,0.724-1.601
	c0.432-0.436,0.872-0.728,1.602-0.728c0.725,0,1.163,0.146,1.597,0.586c0.432,0.434,0.724,1.014,0.724,1.742
	c0,0.582-0.142,1.018-0.574,1.453c-0.149,0.146-0.149,0.146-0.291,0.292c-0.438,0.432-0.881,0.582-1.455,0.582
	c-0.729,0-1.313-0.291-1.745-0.728C566.946,87.922,566.806,87.486,566.806,86.759L566.806,86.759z M607.375,86.759
	c0,0.582-0.144,1.018-0.575,1.453c-0.148,0.146-0.148,0.146-0.292,0.292c-0.439,0.432-0.871,0.582-1.454,0.582
	c-0.73,0-1.311-0.291-1.742-0.728c-0.443-0.437-0.583-0.872-0.583-1.6c0-0.729,0.283-1.163,0.723-1.601
	c0.44-0.436,0.872-0.728,1.603-0.728c0.724,0,1.156,0.146,1.598,0.586C607.091,85.45,607.375,86.03,607.375,86.759L607.375,86.759z"
	/>
<g>
	<path fill="#446278" d="M190.551-141.294c-0.146,0-0.291,0-0.438,0h-0.725c-7.708,0.146-14.398,2.909-20.073,8.582
		c-4.213,4.218-6.976,9.163-7.999,14.836c-0.143,0.146-0.143,0.437-0.143,0.582v0.146c-0.146,21.668-4.36,36.938-12.798,46.105
		c-0.583,0.578-0.874,1.305-0.874,2.178c0,0.727,0.291,1.455,0.874,2.041c0.582,0.432,1.308,0.727,2.036,0.727h79.115
		c0.73,0,1.459-0.295,2.039-0.727c0.583-0.586,0.875-1.314,0.875-2.041c0-0.873-0.292-1.6-0.729-2.178
		c-8.58-9.168-12.799-24.583-12.944-46.251c0-0.146,0-0.437,0-0.582c-1.02-5.673-3.638-10.618-7.85-14.836h-0.15
		c-5.673-5.673-12.362-8.437-20.069-8.582H190.551L190.551-141.294z M190.551-135.476c6.25,0.146,11.634,2.327,16.144,6.836v0.146
		c3.346,3.346,5.381,7.127,6.26,11.491c0.14,19.924,3.63,35.05,10.468,45.083h-66.901c6.83-10.033,10.323-25.159,10.468-45.083
		c0.877-4.364,3.056-8.291,6.4-11.637c4.509-4.509,9.745-6.69,15.999-6.836h0.725C190.26-135.476,190.405-135.476,190.551-135.476
		L190.551-135.476z"/>
	<path fill="#446278" d="M173.535-55.047c0.288,0.727,0.726,1.309,1.454,1.742c9.451,4.799,18.763,4.799,28.072,0
		c0.727-0.434,1.163-1.016,1.455-1.742c0.141-0.732,0.141-1.455-0.151-2.182c-0.435-0.727-1.012-1.164-1.741-1.455
		s-1.456-0.291-2.185,0.145c-7.559,3.93-15.123,3.93-22.828,0c-0.729-0.436-1.456-0.436-2.182-0.145
		c-0.731,0.291-1.314,0.729-1.746,1.455C173.243-56.502,173.243-55.779,173.535-55.047L173.535-55.047z"/>
</g>
<g>
	<path fill="#446278" d="M-126.542-39.167c-0.728-1.311-1.601-2.184-2.905-2.621c-1.308-0.436-2.618-0.436-3.927,0.293
		c-1.31,0.582-2.181,1.6-2.617,2.904c-0.438,1.314-0.438,2.477,0.29,3.785l14.104,29.67c0.581,1.307,1.601,2.178,2.909,2.619
		c1.31,0.436,2.473,0.436,3.783-0.146c1.308-0.727,2.18-1.6,2.616-2.908c0.438-1.311,0.438-2.619-0.146-3.928L-126.542-39.167
		L-126.542-39.167z"/>
	<path fill="#446278" d="M-129.305-88.909h-0.143c-5.673-5.672-12.217-8.436-19.927-8.291h-0.146
		c-7.854-0.145-14.542,2.619-20.213,8.291c-5.528,5.673-8.291,12.364-8.291,20.073c0,7.705,2.763,14.396,8.291,20.069
		c5.672,5.672,12.359,8.436,20.213,8.436c3.346,0,6.692-0.582,9.745-1.602c0.146-0.145,0.438-0.145,0.582-0.291
		c0.146-0.145,0.146-0.145,0.291-0.145c0,0,0,0,0.146,0c0.727-0.436,1.454-0.727,2.037-1.018c0.437-0.145,0.728-0.438,1.164-0.582
		c0.144-0.145,0.435-0.291,0.726-0.436c0.146-0.146,0.436-0.146,0.582-0.293c0.291-0.289,0.581-0.582,1.019-0.725
		c0.145-0.146,0.436-0.293,0.728-0.438c0.871-0.873,1.891-1.746,3.054-2.764c0-0.145,0-0.145,0.143-0.145
		c5.384-5.673,8.149-12.365,8.149-20.069C-121.155-76.545-123.921-83.236-129.305-88.909L-129.305-88.909z M-133.52-84.835
		c4.363,4.509,6.545,9.744,6.545,16c0,6.104-2.182,11.341-6.399,15.852c-0.146,0-0.146,0-0.146,0.146
		c-1.022,0.871-1.892,1.744-2.763,2.472c-0.437,0.146-0.873,0.436-1.31,0.873c-0.438,0.145-0.874,0.435-1.164,0.728
		c-0.146,0-0.146,0-0.146,0c-0.146,0-0.291,0-0.436,0.145c-0.582,0.291-1.165,0.58-1.745,0.873c-0.29,0.145-0.581,0.291-0.873,0.432
		c-2.326,0.73-4.799,1.168-7.564,1.168c-6.254,0-11.632-2.182-16.141-6.689h0.146c-4.51-4.512-6.691-9.743-6.691-15.997
		c0-6.255,2.181-11.491,6.691-16h-0.146c4.509-4.51,9.887-6.691,16.141-6.546h0.146C-143.265-91.527-138.029-89.346-133.52-84.835
		L-133.52-84.835z"/>
</g>
<g>
	<path fill="#446278" d="M34.216-87.336c-0.148-11.928-4.371-22.105-12.799-30.688c-8.436-8.436-18.619-12.654-30.545-12.654
		c-11.918,0-22.108,4.218-30.544,12.654c-8.429,8.582-12.651,18.76-12.651,30.688c0,11.781,4.223,21.96,12.651,30.4
		c8.436,8.578,18.626,12.793,30.544,12.793c11.926,0,22.11-4.215,30.545-12.793C29.845-65.376,34.068-75.556,34.216-87.336
		L34.216-87.336z M17.335-113.951c7.281,7.418,10.916,16.287,11.055,26.614c-0.139,10.328-3.773,19.054-11.055,26.324
		C10.072-53.595,1.197-49.958-9.128-49.958c-10.322,0-19.2-3.637-26.465-11.055c-7.272-7.27-10.912-15.996-10.912-26.324
		s3.64-19.196,10.912-26.614c7.265-7.272,16.143-10.91,26.465-10.91C1.197-124.86,10.072-121.223,17.335-113.951L17.335-113.951z"/>
	<path fill="#446278" d="M6.582-98.1c0-2.182-0.582-4.364-1.896-6.4c-1.596-2.033-3.488-3.487-5.668-4.506
		c-2.184-1.308-4.795-2.036-7.855-1.891c-3.34-0.146-6.107,0.583-8.435,1.891c-2.47,1.451-4.215,3.201-5.237,5.236
		c-1.304,2.037-2.038,4.069-2.327,6.105c0,0.436,0.289,0.873,0.731,1.164c0.292,0.146,0.581,0.291,0.872,0.291h2.908
		c0.434,0,0.875-0.145,1.156-0.291c0.299-0.291,0.59-0.728,0.882-1.164c0.432-2.472,1.455-4.364,3.342-5.668
		c1.453-1.023,3.491-1.601,6.107-1.459c2.47-0.141,4.515,0.585,6.402,1.891c1.746,1.167,2.617,2.764,2.617,4.8
		c0,1.746-0.432,3.346-1.164,4.654c-1.021,1.164-2.326,2.472-4.07,4.072c-1.598,1.601-2.768,2.765-3.785,3.783
		c-0.729,0.727-1.595,1.891-2.325,3.49c-0.724,1.164-1.166,2.764-1.166,4.797v1.166c0,0.438,0.292,1.018,0.724,1.6
		c0.3,0.146,0.731,0.289,1.173,0.289h2.612c0.438,0,0.881-0.143,1.17-0.289c0.432-0.582,0.723-1.162,0.723-1.6v-0.727
		c0-2.035,0.584-3.635,1.605-4.945c0.721-1.309,2.035-2.764,4.072-4.51c1.596-1.309,2.758-2.327,3.482-3.345
		c1.021-1.018,1.744-2.181,2.184-3.489C6.15-94.754,6.582-96.354,6.582-98.1L6.582-98.1z"/>
	<path fill="#446278" d="M-5.928-69.591c-0.148-0.293-0.58-0.441-1.012-0.441h-3.783c-0.583,0-1.164,0.148-1.606,0.441
		c-0.289,0.436-0.439,1.014-0.289,1.455v3.777c-0.15,0.436,0,1.021,0.289,1.453c0.442,0.291,1.023,0.441,1.606,0.441h3.783
		c0.432,0,0.863-0.15,1.012-0.441c0.439-0.432,0.723-1.018,0.875-1.453v-3.777C-5.206-68.577-5.489-69.155-5.928-69.591
		L-5.928-69.591z"/>
</g>
</svg>
