<svg xmlns="http://www.w3.org/2000/svg" width="100" height="100" viewBox="0 0 100 100"><path fill="#446278" d="M-163.376 14.59h-.143c-10.621-.146-17.886 4.363-21.817 13.527-3.924 8.436-5.094 18.032-3.775 28.65 1.155 9.745 5.079 18.179 11.919 25.6-7.563 6.253-15.268 10.179-23.264 11.779-.881.146-1.455.436-1.894 1.16-.442.584-.583 1.312-.442 2.185.151.728.442 1.454 1.173 1.892.573.436 1.304.581 2.178.436 9.743-1.745 19.341-6.833 28.502-15.127.439-.438.591-.873.731-1.306.148-.585.291-1.167.148-1.601-.148-.439-.44-.871-.88-1.313-7.116-6.832-11.346-14.979-12.361-24.433-1.153-9.6-.142-18.178 3.2-25.596h.151c2.908-6.836 8.435-10.182 16.431-10.036.143 0 .723-.017.925-.009.863.033-.703-.016 0 0 .21.005 3.083.032 3.233.032l-1.682-.022c7.996-.146 13.525 3.199 16.866 10.182 3.349 7.417 4.504 15.996 3.349 25.45-1.312 9.454-5.526 17.601-12.799 24.433-.433.295-.724.729-.875 1.313-.147.434-.147 1.016 0 1.601.151.433.442.868.875 1.306 9.45 8.581 19.049 13.672 29.089 15.272.724.142 1.447-.146 2.179-.581.583-.438 1.021-1.02 1.164-1.751.148-.867-.143-1.595-.581-2.177-.44-.729-1.166-1.019-1.897-1.163-8.144-1.456-15.999-5.378-23.704-11.925 6.841-7.421 11.056-15.854 12.359-25.6 1.314-10.763 0-20.36-3.923-28.65-4.214-9.164-11.636-13.673-22.25-13.527M96.43 23.438a2.5 2.5 0 00-1.628-.566H21.719l-.955-14.017c-.138-.709-.272-1.134-.542-1.558-.412-.424-.815-.85-1.356-.991-.543-.141-1.085-.141-1.488 0l-12.89 3.823c-.674.141-1.226.708-1.627 1.415-.403.708-.403 1.417-.27 2.124.139.708.672 1.274 1.357 1.701.672.282 1.354.282 2.029.141l9.633-2.832.815 13.026v.283l2.571 42.614v.142l.682 10.898c0 .707.272 1.42.813 1.981.544.424 1.228.709 1.899.709h7.589c-.537.99-.805 2.265-.805 3.539 0 2.123.672 3.965 2.162 5.521 1.495 1.56 3.394 2.408 5.431 2.408 2.032 0 3.791-.707 5.288-2.265 0-.144 0-.144.138-.144 1.487-1.557 2.163-3.401 2.163-5.521 0-1.274-.263-2.549-.812-3.539h19.932c-.534.99-.806 2.265-.806 3.539 0 2.123.675 3.965 2.168 5.521 1.489 1.56 3.387 2.408 5.425 2.408 2.031 0 3.799-.707 5.288-2.265 0-.144 0-.144.129-.144 1.498-1.557 2.18-3.401 2.18-5.521 0-1.274-.272-2.549-.812-3.539h5.687c.682 0 1.362-.285 1.899-.85a2.83 2.83 0 00.818-1.979c0-.707-.269-1.42-.818-1.987-.537-.566-1.218-.849-1.899-.849h-57.77l-.271-5.521 58.994-4.673c.543-.138 1.084-.278 1.496-.566.403-.42.665-.85.807-1.411l11.398-37.942a3.671 3.671 0 000-1.7c-.141-.563-.55-.988-.959-1.413zm-5.287 5.097l-9.764 32.42-57.088 4.531-2.169-36.951h69.021zM34.599 85.87c0-.708.272-1.132.675-1.558.402-.424.813-.707 1.493-.707.676 0 1.085.141 1.489.569.403.421.675.987.675 1.695 0 .567-.132.991-.535 1.415-.14.143-.14.143-.272.285-.408.42-.821.565-1.356.565a2.19 2.19 0 01-1.627-.708c-.411-.423-.542-.846-.542-1.556zm37.829 0c0 .567-.134.991-.537 1.415-.139.143-.139.143-.272.285-.409.42-.812.565-1.355.565a2.18 2.18 0 01-1.624-.708c-.414-.425-.544-.848-.544-1.558 0-.708.265-1.132.675-1.558.41-.424.813-.707 1.493-.707.675 0 1.078.141 1.489.569.41.423.675.989.675 1.697zm118.123-227.164h-1.163c-7.708.146-14.398 2.909-20.073 8.582-4.213 4.218-6.976 9.163-7.999 14.836-.143.146-.143.437-.143.582v.146c-.146 21.668-4.36 36.938-12.798 46.105-.583.578-.874 1.305-.874 2.178 0 .727.291 1.455.874 2.041.582.432 1.308.727 2.036.727h79.115c.73 0 1.459-.295 2.039-.727.583-.586.875-1.314.875-2.041 0-.873-.292-1.6-.729-2.178-8.58-9.168-12.799-24.583-12.944-46.251v-.582c-1.02-5.673-3.638-10.618-7.85-14.836h-.15c-5.673-5.673-12.362-8.437-20.069-8.582h-.147zm0 5.818c6.25.146 11.634 2.327 16.144 6.836v.146c3.346 3.346 5.381 7.127 6.26 11.491.14 19.924 3.63 35.05 10.468 45.083h-66.901c6.83-10.033 10.323-25.159 10.468-45.083.877-4.364 3.056-8.291 6.4-11.637 4.509-4.509 9.745-6.69 15.999-6.836h1.162zm-17.016 80.429c.288.727.726 1.309 1.454 1.742 9.451 4.799 18.763 4.799 28.072 0 .727-.434 1.163-1.016 1.455-1.742.141-.732.141-1.455-.151-2.182-.435-.727-1.012-1.164-1.741-1.455s-1.456-.291-2.185.145c-7.559 3.93-15.123 3.93-22.828 0-.729-.436-1.456-.436-2.182-.145-.731.291-1.314.729-1.746 1.455-.44.727-.44 1.45-.148 2.182zm-300.077 15.88c-.728-1.311-1.601-2.184-2.905-2.621-1.308-.436-2.618-.436-3.927.293-1.31.582-2.181 1.6-2.617 2.904-.438 1.314-.438 2.477.29 3.785l14.104 29.67c.581 1.307 1.601 2.178 2.909 2.619 1.31.436 2.473.436 3.783-.146 1.308-.727 2.18-1.6 2.616-2.908.438-1.311.438-2.619-.146-3.928l-14.107-29.668zm-2.763-49.742h-.143c-5.673-5.672-12.217-8.436-19.927-8.291h-.146c-7.854-.145-14.542 2.619-20.213 8.291-5.528 5.673-8.291 12.364-8.291 20.073 0 7.705 2.763 14.396 8.291 20.069 5.672 5.672 12.359 8.436 20.213 8.436a31.04 31.04 0 009.745-1.602c.146-.145.438-.145.582-.291.146-.145.146-.145.291-.145h.146c.727-.436 1.454-.727 2.037-1.018.437-.145.728-.438 1.164-.582.144-.145.435-.291.726-.436.146-.146.436-.146.582-.293.291-.289.581-.582 1.019-.725.145-.146.436-.293.728-.438.871-.873 1.891-1.746 3.054-2.764 0-.145 0-.145.143-.145 5.384-5.673 8.149-12.365 8.149-20.069 0-7.706-2.766-14.397-8.15-20.07zm-4.215 4.074c4.363 4.509 6.545 9.744 6.545 16 0 6.104-2.182 11.341-6.399 15.852-.146 0-.146 0-.146.146-1.022.871-1.892 1.744-2.763 2.472-.437.146-.873.436-1.31.873a3.117 3.117 0 00-1.164.728h-.146c-.146 0-.291 0-.436.145-.582.291-1.165.58-1.745.873-.29.145-.581.291-.873.432a24.889 24.889 0 01-7.564 1.168c-6.254 0-11.632-2.182-16.141-6.689h.146c-4.51-4.512-6.691-9.743-6.691-15.997 0-6.255 2.181-11.491 6.691-16h-.146c4.509-4.51 9.887-6.691 16.141-6.546h.146c6.11-.149 11.346 2.032 15.855 6.543z"/><g fill="#446278"><path d="M34.216-87.336c-.148-11.928-4.371-22.105-12.799-30.688-8.436-8.436-18.619-12.654-30.545-12.654-11.918 0-22.108 4.218-30.544 12.654-8.429 8.582-12.651 18.76-12.651 30.688 0 11.781 4.223 21.96 12.651 30.4 8.436 8.578 18.626 12.793 30.544 12.793 11.926 0 22.11-4.215 30.545-12.793 8.428-8.44 12.651-18.62 12.799-30.4zm-16.881-26.615c7.281 7.418 10.916 16.287 11.055 26.614-.139 10.328-3.773 19.054-11.055 26.324-7.263 7.418-16.138 11.055-26.463 11.055-10.322 0-19.2-3.637-26.465-11.055-7.272-7.27-10.912-15.996-10.912-26.324s3.64-19.196 10.912-26.614c7.265-7.272 16.143-10.91 26.465-10.91 10.325.001 19.2 3.638 26.463 10.91z"/><path d="M6.582-98.1c0-2.182-.582-4.364-1.896-6.4a15.315 15.315 0 00-5.668-4.506c-2.184-1.308-4.795-2.036-7.855-1.891-3.34-.146-6.107.583-8.435 1.891-2.47 1.451-4.215 3.201-5.237 5.236-1.304 2.037-2.038 4.069-2.327 6.105 0 .436.289.873.731 1.164.292.146.581.291.872.291h2.908c.434 0 .875-.145 1.156-.291.299-.291.59-.728.882-1.164.432-2.472 1.455-4.364 3.342-5.668 1.453-1.023 3.491-1.601 6.107-1.459 2.47-.141 4.515.585 6.402 1.891 1.746 1.167 2.617 2.764 2.617 4.8 0 1.746-.432 3.346-1.164 4.654-1.021 1.164-2.326 2.472-4.07 4.072-1.598 1.601-2.768 2.765-3.785 3.783-.729.727-1.595 1.891-2.325 3.49-.724 1.164-1.166 2.764-1.166 4.797v1.166c0 .438.292 1.018.724 1.6.3.146.731.289 1.173.289h2.612c.438 0 .881-.143 1.17-.289.432-.582.723-1.162.723-1.6v-.727c0-2.035.584-3.635 1.605-4.945.721-1.309 2.035-2.764 4.072-4.51 1.596-1.309 2.758-2.327 3.482-3.345a8.858 8.858 0 002.184-3.489c.734-1.599 1.166-3.199 1.166-4.945zm-12.51 28.509c-.148-.293-.58-.441-1.012-.441h-3.783c-.583 0-1.164.148-1.606.441-.289.436-.439 1.014-.289 1.455v3.777c-.15.436 0 1.021.289 1.453.442.291 1.023.441 1.606.441h3.783c.432 0 .863-.15 1.012-.441.439-.432.723-1.018.875-1.453v-3.777c-.153-.441-.436-1.019-.875-1.455z"/></g></svg>