<svg xmlns="http://www.w3.org/2000/svg" width="512" height="512" viewBox="620 0 512 512"><path d="M641.116 266.755c2.47 60.074 25.394 111.684 68.655 154.944 45.965 45.849 101.337 68.772 166.229 68.89h.234V21.411c-61.249 5.41-121.677 22.924-166.463 67.713-47.496 47.495-65.481 111.8-68.655 177.631z"/><path fill="none" stroke="#000" stroke-width="33" stroke-linecap="round" stroke-linejoin="round" stroke-miterlimit="10" d="M641.116 267.285c2.47 60.073 25.394 111.683 68.655 154.943 45.965 45.849 101.337 68.773 166.229 68.89h.234a4.514 4.514 0 011.764 0c64.07-.588 118.851-23.512 164.349-68.89 45.848-45.965 68.771-101.336 68.771-166.229 0-65.009-22.924-120.378-68.771-166.346-42.911-42.791-93.931-65.597-153.181-68.538-3.645-.115-7.405-.234-11.168-.234H876c-64.892-.118-120.264 22.807-166.229 68.771-45.966 45.968-68.89 101.337-68.89 166.346.001 3.766.117 7.525.235 11.287h0z"/></svg>