<svg xmlns="http://www.w3.org/2000/svg" width="100" height="100" viewBox="0 0 100 100"><path fill="#446278" d="M428.339 48.071c1.314-10.763 0-20.36-3.923-28.65-4.214-9.164-11.636-13.673-22.25-13.527-.441 0-.724 0-1.162.145-.442-.145-.734-.145-1.023-.145h-.143c-10.621-.146-17.886 4.363-21.817 13.527-3.924 8.436-5.094 18.032-3.775 28.65 1.155 9.745 5.079 18.179 11.919 25.6-7.563 6.253-15.268 10.179-23.264 11.779-.881.146-1.455.436-1.894 1.16-.442.584-.583 1.312-.442 2.185.151.728.442 1.454 1.173 1.892.573.436 1.304.581 2.178.436 9.743-1.745 19.341-6.833 28.502-15.127.439-.438.591-.873.731-1.306.148-.585.291-1.167.148-1.601-.148-.439-.44-.871-.88-1.313-7.116-6.832-11.346-14.979-12.361-24.433-1.153-9.6-.142-18.178 3.2-25.596h.151c2.908-6.836 8.435-10.182 16.431-10.036.143 0 .291 0 .432.145a2.488 2.488 0 001.455 0c.151-.145.291-.145.441-.145h.148c7.996-.146 13.525 3.199 16.866 10.182 3.349 7.417 4.504 15.996 3.349 25.45-1.312 9.454-5.526 17.601-12.799 24.433-.433.295-.724.729-.875 1.313-.147.434-.147 1.016 0 1.601.151.433.442.868.875 1.306 9.45 8.581 19.049 13.672 29.089 15.272.724.142 1.447-.146 2.179-.581.583-.438 1.021-1.02 1.164-1.751.148-.867-.143-1.595-.581-2.177-.44-.729-1.166-1.019-1.897-1.163-8.144-1.456-15.999-5.378-23.704-11.925 6.84-7.421 11.055-15.855 12.359-25.6zm204.777-25.45a2.763 2.763 0 00-1.746-.582h-78.378l-1.024-14.4c-.148-.728-.292-1.164-.581-1.601-.442-.436-.874-.872-1.454-1.018-.583-.145-1.164-.145-1.596 0l-13.823 3.928c-.724.145-1.314.727-1.746 1.454-.432.728-.432 1.455-.289 2.182.148.728.721 1.309 1.455 1.747.721.291 1.452.291 2.176.145l10.332-2.909.873 13.382v.291l2.758 43.777v.146l.731 11.196c0 .727.292 1.458.872 2.036.583.436 1.316.728 2.037.728h8.139c-.575 1.018-.863 2.328-.863 3.637 0 2.181.721 4.073 2.318 5.672 1.604 1.601 3.64 2.474 5.824 2.474 2.179 0 4.065-.727 5.671-2.327 0-.146 0-.146.147-.146 1.595-1.599 2.319-3.495 2.319-5.672 0-1.309-.282-2.619-.871-3.637h21.377c-.572 1.018-.864 2.328-.864 3.637 0 2.181.724 4.073 2.325 5.672 1.598 1.601 3.633 2.474 5.818 2.474 2.178 0 4.074-.727 5.671-2.327 0-.146 0-.146.14-.146 1.604-1.599 2.337-3.495 2.337-5.672 0-1.309-.292-2.619-.872-3.637h6.1a2.86 2.86 0 002.037-.873c.589-.582.878-1.31.878-2.031 0-.728-.289-1.459-.878-2.042a2.855 2.855 0 00-2.037-.872h-61.955l-.292-5.673 63.269-4.8c.583-.142 1.164-.286 1.604-.581.434-.433.715-.873.865-1.451l12.226-38.978a3.66 3.66 0 000-1.747c-.152-.584-.59-1.02-1.03-1.456zm-5.67 5.236l-10.472 33.306-61.225 4.654-2.326-37.96h74.023zm-60.64 58.902c0-.729.292-1.163.724-1.601.432-.436.872-.728 1.602-.728.725 0 1.163.146 1.597.586a2.41 2.41 0 01.724 1.742c0 .582-.142 1.018-.574 1.453-.149.146-.149.146-.291.292-.438.432-.881.582-1.455.582a2.395 2.395 0 01-1.745-.728c-.442-.435-.582-.871-.582-1.598zm40.569 0c0 .582-.144 1.018-.575 1.453-.148.146-.148.146-.292.292-.439.432-.871.582-1.454.582-.73 0-1.311-.291-1.742-.728-.443-.437-.583-.872-.583-1.6 0-.729.283-1.163.723-1.601.44-.436.872-.728 1.603-.728.724 0 1.156.146 1.598.586a2.39 2.39 0 01.722 1.744zM190.551-141.294h-1.163c-7.708.146-14.398 2.909-20.073 8.582-4.213 4.218-6.976 9.163-7.999 14.836-.143.146-.143.437-.143.582v.146c-.146 21.668-4.36 36.938-12.798 46.105-.583.578-.874 1.305-.874 2.178 0 .727.291 1.455.874 2.041.582.432 1.308.727 2.036.727h79.115c.73 0 1.459-.295 2.039-.727.583-.586.875-1.314.875-2.041 0-.873-.292-1.6-.729-2.178-8.58-9.168-12.799-24.583-12.944-46.251v-.582c-1.02-5.673-3.638-10.618-7.85-14.836h-.15c-5.673-5.673-12.362-8.437-20.069-8.582h-.147zm0 5.818c6.25.146 11.634 2.327 16.144 6.836v.146c3.346 3.346 5.381 7.127 6.26 11.491.14 19.924 3.63 35.05 10.468 45.083h-66.901c6.83-10.033 10.323-25.159 10.468-45.083.877-4.364 3.056-8.291 6.4-11.637 4.509-4.509 9.745-6.69 15.999-6.836h1.162zm-17.016 80.429c.288.727.726 1.309 1.454 1.742 9.451 4.799 18.763 4.799 28.072 0 .727-.434 1.163-1.016 1.455-1.742.141-.732.141-1.455-.151-2.182-.435-.727-1.012-1.164-1.741-1.455s-1.456-.291-2.185.145c-7.559 3.93-15.123 3.93-22.828 0-.729-.436-1.456-.436-2.182-.145-.731.291-1.314.729-1.746 1.455-.44.727-.44 1.45-.148 2.182zM68.458 60.539c-.728-1.311-1.601-2.184-2.905-2.621-1.308-.436-2.618-.436-3.927.293-1.31.582-2.181 1.6-2.617 2.904-.438 1.314-.438 2.477.29 3.785l14.104 29.67c.581 1.307 1.601 2.178 2.909 2.619 1.31.436 2.473.436 3.783-.146 1.308-.727 2.18-1.6 2.616-2.908.438-1.311.438-2.619-.146-3.928L68.458 60.539zm-2.763-49.742h-.143C59.88 5.125 53.336 2.361 45.626 2.506h-.146c-7.854-.145-14.542 2.619-20.213 8.291-5.528 5.673-8.291 12.364-8.291 20.073 0 7.705 2.763 14.396 8.291 20.069 5.672 5.672 12.359 8.436 20.213 8.436a31.04 31.04 0 009.745-1.602c.146-.145.438-.145.582-.291.146-.145.146-.145.291-.145h.146c.727-.436 1.454-.727 2.037-1.018.437-.145.728-.438 1.164-.582.144-.145.435-.291.726-.436.146-.146.436-.146.582-.293.291-.289.581-.582 1.019-.725.145-.146.436-.293.728-.438.871-.873 1.891-1.746 3.054-2.764 0-.145 0-.145.143-.145 5.384-5.673 8.149-12.365 8.149-20.069-.001-7.706-2.767-14.397-8.151-20.07zm-4.215 4.074c4.363 4.509 6.545 9.744 6.545 16 0 6.104-2.182 11.341-6.399 15.852-.146 0-.146 0-.146.146-1.022.871-1.892 1.744-2.763 2.472-.437.146-.873.436-1.31.873a3.117 3.117 0 00-1.164.728h-.146c-.146 0-.291 0-.436.145-.582.291-1.165.58-1.745.873-.29.145-.581.291-.873.432a24.889 24.889 0 01-7.564 1.168c-6.254 0-11.632-2.182-16.141-6.689h.146c-4.51-4.512-6.691-9.743-6.691-15.997 0-6.255 2.181-11.491 6.691-16h-.146c4.509-4.51 9.887-6.691 16.141-6.546h.146c6.11-.149 11.346 2.032 15.855 6.543zm198.595 36.546c-.148-11.928-4.371-22.105-12.799-30.688-8.437-8.436-18.62-12.654-30.546-12.654-11.918 0-22.108 4.218-30.544 12.654-8.429 8.582-12.651 18.76-12.651 30.688 0 11.781 4.223 21.96 12.651 30.399 8.436 8.578 18.626 12.793 30.544 12.793 11.926 0 22.109-4.215 30.546-12.793 8.428-8.439 12.651-18.618 12.799-30.399zm-16.881-26.614c7.281 7.418 10.915 16.287 11.055 26.614-.14 10.328-3.773 19.054-11.055 26.323-7.265 7.418-16.14 11.055-26.464 11.055-10.322 0-19.2-3.637-26.465-11.055-7.272-7.27-10.912-15.995-10.912-26.323 0-10.328 3.64-19.196 10.912-26.614 7.265-7.272 16.143-10.91 26.465-10.91 10.325 0 19.2 3.637 26.464 10.91z"/><path fill="#446278" d="M232.44 40.653a11.65 11.65 0 00-1.897-6.4 15.312 15.312 0 00-5.667-4.506c-2.185-1.308-4.795-2.036-7.855-1.891-3.34-.146-6.107.583-8.435 1.891-2.47 1.451-4.215 3.201-5.237 5.236-1.304 2.037-2.038 4.069-2.327 6.105 0 .436.289.873.731 1.164.292.146.581.291.872.291h2.908c.434 0 .875-.145 1.156-.291.299-.291.59-.728.882-1.164.432-2.472 1.455-4.364 3.342-5.668 1.453-1.023 3.491-1.601 6.107-1.459 2.47-.141 4.515.585 6.401 1.891 1.746 1.167 2.618 2.764 2.618 4.8 0 1.746-.433 3.346-1.164 4.654-1.021 1.164-2.327 2.472-4.071 4.072-1.598 1.601-2.768 2.765-3.784 3.782-.729.727-1.595 1.892-2.325 3.491-.724 1.163-1.166 2.764-1.166 4.796v1.166c0 .438.292 1.019.724 1.601.3.146.731.288 1.173.288h2.611c.438 0 .881-.143 1.17-.288.432-.582.724-1.163.724-1.601v-.723c0-2.035.583-3.636 1.604-4.946.722-1.308 2.035-2.763 4.072-4.509 1.596-1.31 2.759-2.327 3.482-3.346a8.86 8.86 0 002.185-3.489c.734-1.601 1.166-3.201 1.166-4.947zm-12.509 28.509c-.148-.292-.581-.44-1.013-.44h-3.782c-.583 0-1.164.148-1.606.44-.289.436-.439 1.014-.289 1.455v3.778c-.15.436 0 1.021.289 1.453.442.291 1.023.44 1.606.44h3.782c.432 0 .864-.149 1.013-.44.439-.432.723-1.018.874-1.453v-3.778c-.152-.441-.435-1.019-.874-1.455z"/></svg>