<svg xmlns="http://www.w3.org/2000/svg" viewBox="0 0 293 165" width="293" height="165"><style/><path d="M287 159.6c-.84.87-1.76 1.65-2.76 2.33-1 .69-2.06 1.26-3.18 1.73-1.11.46-2.27.81-3.46 1.03a17.4 17.4 0 01-3.6.31H18.4c-5 0-9.3-1.8-12.9-5.4-.87-.82-1.65-1.73-2.33-2.71-.69-.98-1.27-2.03-1.74-3.12-.47-1.1-.83-2.24-1.07-3.41-.24-1.17-.36-2.37-.36-3.56 0-5 1.8-9.3 5.4-12.9L133.4 6C137 2.4 141.2.6 146.2.6c5 0 9.2 1.8 12.8 5.4l128 128c3.5 3.5 5.4 7.8 5.4 12.8 0 5-1.9 9.2-5.5 12.8h.1z" fill="#cdd1d6"/></svg>