<?xml version="1.0" standalone="no"?>
<!DOCTYPE svg PUBLIC "-//W3C//DTD SVG 1.1//EN" "http://www.w3.org/Graphics/SVG/1.1/DTD/svg11.dtd" >
<svg xmlns="http://www.w3.org/2000/svg" xmlns:xlink="http://www.w3.org/1999/xlink" version="1.1">
<metadata></metadata>
<defs>
<font id="rubikregular" horiz-adv-x="1140" >
<font-face units-per-em="2048" ascent="1638" descent="-410" />
<missing-glyph horiz-adv-x="499" />
<glyph unicode="&#xfb01;" horiz-adv-x="1161" d="M39 944v66q0 23 16.5 39t38.5 16h170v102q0 176 82 262.5t256 86.5h350q23 0 39.5 -16.5t16.5 -39.5v-65q0 -23 -16.5 -39.5t-39.5 -16.5h-329q-100 0 -136 -47t-36 -135v-92h501q23 0 39.5 -16.5t16.5 -38.5v-955q0 -22 -16.5 -38.5t-39.5 -16.5h-75q-23 0 -39.5 16.5 t-16.5 38.5v834h-370v-834q0 -23 -16.5 -39t-39.5 -16h-76q-23 0 -39 16.5t-16 38.5v834h-170q-23 0 -39 16.5t-16 38.5z" />
<glyph unicode="&#xfb02;" horiz-adv-x="1224" d="M39 944v66q0 23 16.5 39t38.5 16h172v102q0 176 82 262.5t256 86.5h129q23 0 39 -16.5t16 -39.5v-65q0 -23 -16 -39.5t-39 -16.5h-108q-100 0 -136 -47t-36 -135v-92h432v395q0 23 16.5 39.5t38.5 16.5h76q23 0 39 -16.5t16 -39.5v-1405q0 -22 -16.5 -38.5t-38.5 -16.5 h-76q-23 0 -39 16.5t-16 38.5v834h-432v-834q0 -23 -16.5 -39t-39.5 -16h-75q-23 0 -39.5 16.5t-16.5 38.5v834h-172q-23 0 -39 16.5t-16 38.5z" />
<glyph horiz-adv-x="0" />
<glyph unicode="&#xd;" horiz-adv-x="593" />
<glyph unicode=" "  horiz-adv-x="499" />
<glyph unicode="&#x09;" horiz-adv-x="499" />
<glyph unicode="&#xa0;" horiz-adv-x="499" />
<glyph unicode="!" horiz-adv-x="497" d="M135 55v117q0 23 16.5 39t38.5 16h117q23 0 39 -16t16 -39v-117q0 -22 -16 -38.5t-39 -16.5h-117q-23 0 -39 16.5t-16 38.5zM156 406v972q0 23 16 39.5t39 16.5h76q23 0 39 -16.5t16 -39.5v-972q0 -23 -16.5 -39.5t-38.5 -16.5h-76q-23 0 -39 16.5t-16 39.5z" />
<glyph unicode="&#x22;" horiz-adv-x="765" d="M111 1380q-4 33 10 53.5t45 20.5h110q31 0 45.5 -20.5t10.5 -53.5l-37 -323q-2 -27 -18.5 -42.5t-38.5 -15.5h-33q-23 0 -39 15.5t-19 42.5zM434 1380q-4 33 10.5 53.5t44.5 20.5h111q31 0 45 -20.5t10 -53.5l-37 -323q-2 -27 -18 -42.5t-39 -15.5h-33q-23 0 -39 15.5 t-18 42.5z" />
<glyph unicode="#" horiz-adv-x="1411" d="M94 418v65q0 23 16.5 39.5t39.5 16.5h206l52 344h-205q-23 0 -39.5 16t-16.5 39v66q0 23 16.5 39t39.5 16h231l37 239q4 18 17.5 30.5t31.5 12.5h88q18 0 31.5 -13t13.5 -32v-6l-35 -231h281l37 239q4 18 17.5 30.5t31.5 12.5h88q18 0 31.5 -13t13.5 -32v-6l-35 -231h179 q23 0 39 -16.5t16 -38.5v-66q0 -23 -16.5 -39t-38.5 -16h-205l-51 -344h202q23 0 39.5 -16.5t16.5 -39.5v-65q0 -23 -16.5 -39.5t-39.5 -16.5h-229l-35 -239q-4 -18 -17.5 -30.5t-33.5 -12.5h-88q-18 0 -31.5 13t-13.5 32v4l35 233h-281l-35 -239q-4 -18 -17 -30.5 t-34 -12.5h-88q-18 0 -31.5 13t-13.5 32v4l35 233h-180q-23 0 -39.5 16.5t-16.5 39.5zM541 539h280l51 344h-280z" />
<glyph unicode="$" horiz-adv-x="1253" d="M74 360q0 18 13 32t32 14h84q23 0 37 -9.5t26 -36.5q33 -74 120 -135t237 -61t253 64.5t103 168.5q0 68 -54.5 114t-148.5 78t-276 79q-199 51 -287 148t-88 241q0 94 44 177t132 140.5t215 73.5v135q0 23 16.5 39t38.5 16h84q23 0 39.5 -16t16.5 -39v-137 q125 -19 220 -80t146 -139t56 -144q2 -18 -12.5 -31.5t-33.5 -13.5h-83q-25 0 -37.5 9.5t-26.5 35.5q-33 63 -114 125t-214 62q-123 0 -208 -55.5t-85 -157.5q0 -70 42 -114t127 -75.5t257 -76.5q233 -61 331 -150.5t98 -243.5q0 -168 -126 -280.5t-337 -132.5v-134 q0 -23 -16.5 -39t-39.5 -16h-84q-23 0 -39 16.5t-16 38.5v138q-125 18 -225.5 77.5t-157.5 138.5t-59 156z" />
<glyph unicode="%" horiz-adv-x="1632" d="M90 1071q0 51 2 88q6 129 83 207t216 78t216 -78t83 -207q4 -74 4 -88q0 -12 -4 -82q-6 -129 -83 -205.5t-216 -76.5t-216 76.5t-83 205.5q-2 35 -2 82zM199 41q0 12 8 22l1012 1332q16 20 31.5 29.5t41.5 9.5h78q23 0 36 -11.5t13 -29.5q0 -12 -8 -23l-1012 -1331 q-16 -20 -31.5 -29.5t-41.5 -9.5h-78q-23 0 -36 11.5t-13 29.5zM248 1075q0 -41 2 -80q4 -61 39 -101t102 -40q68 0 102.5 40t38.5 101q4 78 5 80q0 8 -5 78q-4 61 -38.5 102t-102.5 41q-67 0 -102 -41t-39 -102q-2 -35 -2 -78zM940 354q0 51 2 88q6 129 83 207t216 78 t216 -78t83 -207q4 -74 4 -88q0 -12 -4 -82q-6 -129 -83 -205.5t-216 -76.5t-216 76.5t-83 205.5q-2 35 -2 82zM1098 358q0 -41 2 -79q4 -61 39 -101.5t102 -40.5q68 0 102.5 40t38.5 102q4 78 4 79q0 8 -4 78q-4 61 -38.5 102.5t-102.5 41.5q-67 0 -102 -41t-39 -103 q-2 -35 -2 -78z" />
<glyph unicode="&#x26;" horiz-adv-x="1425" d="M119 367q0 123 75.5 217t204.5 178q-111 119 -148.5 193.5t-37.5 162.5q0 104 58.5 180t147.5 116t181 40q90 0 177 -42t142.5 -117.5t55.5 -176.5q0 -117 -69.5 -210t-200.5 -181l311 -309q68 115 104 287q2 18 19.5 31.5t34.5 13.5h94q20 0 33.5 -14.5t11.5 -30.5 q-6 -98 -43 -214t-109 -219l213 -209q12 -12 12 -28q0 -14 -11 -24.5t-25 -10.5h-152q-18 0 -28.5 5t-22.5 15l-115 113q-180 -154 -438 -153q-133 0 -241.5 45t-171 133t-62.5 209zM313 367q0 -98 86 -150.5t195 -52.5q172 0 299 106l-356 355q-102 -66 -163 -127.5 t-61 -130.5zM408 1116q0 -57 32.5 -106t126.5 -148q99 58 156 116t57 138q0 57 -52 105.5t-128 48.5t-134 -45t-58 -109z" />
<glyph unicode="'" horiz-adv-x="442" d="M111 1380q-4 33 10 53.5t45 20.5h110q31 0 45.5 -20.5t10.5 -53.5l-37 -323q-2 -27 -18.5 -42.5t-38.5 -15.5h-33q-23 0 -39 15.5t-19 42.5z" />
<glyph unicode="(" horiz-adv-x="700" d="M117 633q0 346 39 549.5t142 305t296 101.5q23 0 39 -16.5t16 -38.5v-66q0 -23 -16.5 -39t-38.5 -16q-127 0 -189.5 -85t-82 -246.5t-19.5 -448.5t19.5 -450t82 -248t189.5 -85q23 0 39 -16t16 -39v-65q0 -23 -16.5 -39.5t-38.5 -16.5q-193 0 -296 101.5t-142 306.5 t-39 551z" />
<glyph unicode=")" horiz-adv-x="700" d="M51 -205q0 23 16.5 39t38.5 16q127 0 189.5 85t82 248t19.5 450t-19.5 448.5t-82 246.5t-189.5 85q-23 0 -39 16.5t-16 38.5v66q0 23 16.5 39t38.5 16q193 0 296.5 -101.5t142.5 -305t39 -549.5t-39 -551t-142.5 -306.5t-296.5 -101.5q-23 0 -39 16.5t-16 39.5v65z" />
<glyph unicode="*" horiz-adv-x="909" d="M109 1198l36 117q6 18 23.5 26.5t34.5 4.5q2 -2 5 -3.5t9 -5.5l176 -104l-43 201l-2 16q0 16 13.5 30.5t31.5 14.5h123q18 0 31.5 -14.5t13.5 -30.5l-2 -16l-45 -201l178 104q6 4 9.5 5t5.5 4q4 2 10 2q16 0 29.5 -9.5t17.5 -23.5l37 -117q2 -4 2 -12q0 -14 -9.5 -27.5 t-21.5 -15.5q-2 0 -16 -4l-205 -21l154 -135l12 -12q8 -12 8 -27q0 -25 -18 -37l-101 -71q-8 -8 -22 -9q-25 0 -39 19l-8 14l-82 184l-82 -184l-8 -14q-14 -18 -39 -19q-14 0 -23 9l-100 71q-18 12 -19 37q0 14 9 27l12 12l151 135l-202 21q-14 4 -17 4q-16 4 -25.5 21.5 t-2.5 33.5z" />
<glyph unicode="+" horiz-adv-x="1257" d="M78 586v63q0 23 16.5 39.5t38.5 16.5h402v401q0 23 16 39t39 16h76q23 0 39 -16.5t16 -38.5v-401h403q23 0 39.5 -16.5t16.5 -39.5v-63q0 -23 -16.5 -39.5t-39.5 -16.5h-403v-407q0 -23 -16.5 -39t-38.5 -16h-76q-23 0 -39 16t-16 39v407h-402q-23 0 -39 16.5t-16 39.5z " />
<glyph unicode="," horiz-adv-x="512" d="M96 -104l41 272q6 33 27.5 56.5t60.5 23.5h119q18 0 31.5 -13.5t13.5 -31.5q0 -8 -2 -15l-106 -276q-25 -66 -88 -66h-52q-18 0 -31.5 13.5t-13.5 31.5v5z" />
<glyph unicode="-" horiz-adv-x="993" d="M139 582v65q0 23 16.5 39t39.5 16h604q23 0 39 -16t16 -39v-65q0 -23 -16.5 -39.5t-38.5 -16.5h-604q-23 0 -39.5 16.5t-16.5 39.5z" />
<glyph unicode="." horiz-adv-x="505" d="M129 55v138q0 23 16.5 39t38.5 16h138q22 0 38.5 -16.5t16.5 -38.5v-138q0 -23 -16.5 -39t-38.5 -16h-138q-23 0 -39 16.5t-16 38.5z" />
<glyph unicode="/" horiz-adv-x="995" d="M51 -127q0 8 4 18l686 1657q27 62 90 62h68q18 0 31.5 -13.5t13.5 -31.5q0 -8 -4 -19l-692 -1657q-25 -61 -90 -61h-62q-18 0 -31.5 13.5t-13.5 31.5z" />
<glyph unicode="0" horiz-adv-x="1298" d="M125 717l2 172q4 254 134 409.5t388 155.5t388 -155.5t134 -409.5q2 -61 3 -172q0 -113 -3 -174q-4 -254 -134 -408.5t-388 -154.5t-388 154.5t-134 408.5zM317 717l2 -174q8 -379 330 -379t330 379q2 61 2 174q0 111 -2 172q-8 381 -330 381t-330 -381z" />
<glyph unicode="1" horiz-adv-x="862" d="M45 1038q0 27 23 43l438 336q23 16 65 17h84q23 0 39.5 -16.5t16.5 -39.5v-1323q0 -22 -16.5 -38.5t-39.5 -16.5h-84q-23 0 -39 16.5t-16 38.5v1129l-332 -252q-14 -12 -34 -12q-27 0 -44 20l-49 64q-12 16 -12 34z" />
<glyph unicode="2" horiz-adv-x="1191" d="M98 55v74q0 23 9.5 38t35.5 40l600 547q66 59 94.5 116.5t28.5 145.5q0 115 -65.5 184.5t-198.5 69.5q-131 0 -196.5 -68.5t-94.5 -185.5q-6 -23 -20.5 -35t-32.5 -12h-94q-18 0 -31.5 13t-13.5 32q4 104 62.5 206.5t167 168t253.5 65.5t248.5 -58.5t157 -157.5 t53.5 -222q0 -129 -44 -220t-151 -186l-456 -426h626q23 0 39.5 -16t16.5 -39v-74q0 -23 -16.5 -39t-39.5 -16h-882q-23 0 -39.5 16.5t-16.5 38.5z" />
<glyph unicode="3" horiz-adv-x="1218" d="M84 344q0 18 13.5 31.5t31.5 13.5h94q20 0 33.5 -13.5t19.5 -29.5q27 -84 97.5 -133t240.5 -49q138 0 227 66.5t89 193.5q0 125 -85 181.5t-231 56.5h-170q-23 0 -39 16t-16 39v74q0 16 8.5 29.5t24.5 31.5l369 397h-590q-23 0 -39.5 16.5t-16.5 39.5v73q0 23 16.5 39.5 t39.5 16.5h807q23 0 39 -16.5t16 -39.5v-73q0 -29 -37 -70l-362 -391q207 -4 333.5 -117t126.5 -303q0 -135 -68.5 -236.5t-184 -154.5t-257.5 -53q-174 0 -292.5 52t-176 135t-61.5 177z" />
<glyph unicode="4" horiz-adv-x="1249" d="M59 393v74q0 14 8.5 33.5t20.5 36.5l647 847q37 49 80 50h82q23 0 39 -16.5t16 -39.5v-856h176q23 0 39.5 -16.5t16.5 -38.5v-74q0 -23 -16.5 -39t-39.5 -16h-176v-283q0 -23 -16 -39t-39 -16h-84q-22 0 -38.5 16.5t-16.5 38.5v283h-643q-23 0 -39.5 16.5t-16.5 38.5z M313 522h445v578z" />
<glyph unicode="5" horiz-adv-x="1216" d="M88 373q0 18 13.5 31.5t31.5 13.5h94q18 0 32.5 -12.5t21.5 -32.5q27 -94 116.5 -151.5t208.5 -57.5q142 0 234 76.5t92 220.5q0 143 -92 220t-234 77q-84 0 -131 -19.5t-94 -52.5q-25 -18 -42 -27.5t-40 -9.5h-104q-18 0 -31.5 13.5t-13.5 31.5l61 684q0 23 16.5 39.5 t38.5 16.5h723q23 0 39 -16.5t16 -39.5v-73q0 -23 -16 -39.5t-39 -16.5h-596l-33 -354q104 47 246 47q145 0 263 -58.5t187.5 -168t69.5 -254.5t-69.5 -255t-187 -168t-263.5 -58q-135 0 -254 50t-190.5 140t-73.5 203z" />
<glyph unicode="6" horiz-adv-x="1224" d="M92 473q0 106 38 185t112 186l372 549q2 4 11.5 15t23 18.5t29.5 7.5h117q18 0 29.5 -13.5t11.5 -31.5q0 -10 -11 -27l-276 -406q31 11 74 11q152 0 272.5 -64.5t189 -178.5t68.5 -251t-68.5 -250.5t-189.5 -178t-272 -64.5q-152 0 -273 64.5t-189.5 178t-68.5 250.5z M287 473q0 -82 41 -152.5t117.5 -113.5t177.5 -43q100 0 177 43t117.5 113.5t40.5 152.5t-40.5 152.5t-117.5 113.5t-177 43t-177 -43t-118 -113.5t-41 -152.5z" />
<glyph unicode="7" horiz-adv-x="1054" d="M55 1305v73q0 23 16.5 39.5t39.5 16.5h833q23 0 39 -16.5t16 -39.5v-73q0 -29 -22 -82l-455 -1174q-20 -49 -59 -49h-94q-20 0 -35 14.5t-15 34.5q0 10 7 25l456 1175h-671q-23 0 -39.5 16.5t-16.5 39.5z" />
<glyph unicode="8" horiz-adv-x="1249" d="M111 408q0 104 52 193t146 149q-76 55 -117.5 134t-41.5 169q0 109 62 201t171 146t242 54t242.5 -54t172 -146.5t62.5 -200.5q0 -90 -43 -168t-119 -135q94 -61 146.5 -150.5t52.5 -191.5q0 -117 -65.5 -215.5t-183.5 -155.5t-265 -57t-265 57t-183.5 155.5t-65.5 215.5 zM305 408q0 -68 41 -123.5t113.5 -88t165.5 -32.5q92 0 164.5 32.5t113.5 88t41 123.5t-41 123t-113.5 87.5t-164.5 32.5t-165 -32.5t-114 -88t-41 -122.5zM344 1053q0 -90 81 -153.5t200 -63.5q118 0 200 63.5t82 153.5t-82 153.5t-200 63.5q-119 0 -200 -63.5t-81 -153.5z " />
<glyph unicode="9" horiz-adv-x="1185" d="M74 971q0 135 70.5 245.5t188.5 174t255 63.5q156 0 272.5 -62.5t179 -172t62.5 -248.5q0 -90 -45 -180.5t-119 -200.5l-373 -549q-2 -4 -11 -15.5t-22.5 -18.5t-29.5 -7h-117q-18 0 -29.5 13.5t-11.5 31.5q0 12 10 27l289 420q-24 -5 -55 -5q-133 0 -251 57.5 t-190.5 168t-72.5 258.5zM268 971q0 -129 89 -214t231 -85q141 0 230 85t89 214t-89 214t-230 85q-142 0 -231 -85t-89 -214z" />
<glyph unicode=":" horiz-adv-x="526" d="M139 55v138q0 23 16.5 39t39.5 16h137q22 0 38.5 -16.5t16.5 -38.5v-138q0 -23 -16.5 -39t-38.5 -16h-137q-23 0 -39.5 16.5t-16.5 38.5zM139 772v137q0 23 16.5 39.5t39.5 16.5h137q22 0 38.5 -16.5t16.5 -39.5v-137q0 -23 -16.5 -39t-38.5 -16h-137q-23 0 -39.5 16.5 t-16.5 38.5z" />
<glyph unicode=";" horiz-adv-x="573" d="M131 -102l41 270q6 33 27.5 56.5t60.5 23.5h119q18 0 31.5 -13.5t13.5 -31.5q0 -8 -2 -15l-107 -274q-25 -66 -88 -66h-51q-18 0 -31.5 13.5t-13.5 32.5v4zM176 772v137q0 23 16.5 39.5t38.5 16.5h138q22 0 38.5 -16.5t16.5 -39.5v-137q0 -23 -16.5 -39t-38.5 -16h-138 q-23 0 -39 16.5t-16 38.5z" />
<glyph unicode="&#x3c;" horiz-adv-x="1001" d="M72 674v86q0 26 14 45.5t45 40.5l676 457q10 6 22 6q18 0 30.5 -12.5t12.5 -30.5v-92q0 -47 -65 -91l-541 -366l541 -367q66 -43 65 -90v-92q0 -18 -12 -30.5t-31 -12.5q-12 0 -22 6l-676 457q-31 20 -45 39.5t-14 46.5z" />
<glyph unicode="=" horiz-adv-x="1165" d="M143 326v65q0 23 16.5 39t39.5 16h768q23 0 39 -16t16 -39v-65q0 -23 -16.5 -39.5t-38.5 -16.5h-768q-23 0 -39.5 16.5t-16.5 39.5zM143 838v65q0 23 16.5 39t39.5 16h768q23 0 39 -16t16 -39v-65q0 -23 -16.5 -39.5t-38.5 -16.5h-768q-23 0 -39.5 16.5t-16.5 39.5z" />
<glyph unicode="&#x3e;" horiz-adv-x="999" d="M127 168v92q0 47 66 90l540 367l-540 366q-66 43 -66 91v92q0 18 12.5 30.5t30.5 12.5q12 0 23 -6l675 -457q31 -20 45.5 -40t14.5 -46v-86q0 -27 -14.5 -46.5t-45.5 -39.5l-675 -457q-10 -6 -23 -6q-18 0 -30.5 12.5t-12.5 30.5z" />
<glyph unicode="?" horiz-adv-x="1069" d="M61 1055q6 96 60.5 188t160 151.5t253.5 59.5q133 0 238.5 -50t165.5 -139t60 -198q0 -82 -27.5 -144.5t-67.5 -106.5t-105 -99q-88 -76 -131 -135.5t-43 -147.5v-28q0 -23 -16.5 -39.5t-39.5 -16.5h-75q-23 0 -39.5 16.5t-16.5 39.5v43q0 82 29 144t68.5 105t107.5 105 q86 74 128 130t42 134q0 98 -82 155.5t-196 57.5q-111 0 -185 -55.5t-102 -169.5q-4 -20 -19.5 -32.5t-33.5 -12.5h-89q-18 0 -32.5 13t-12.5 32zM418 55v117q0 23 16.5 39t38.5 16h117q23 0 39 -16t16 -39v-117q0 -22 -16.5 -38.5t-38.5 -16.5h-117q-23 0 -39 16.5 t-16 38.5z" />
<glyph unicode="@" horiz-adv-x="1746" d="M113 537q0 115 4 192q12 195 115.5 340t266.5 223t351 78q344 0 548 -168t222 -473q4 -86 4 -131q0 -98 -4 -139q-8 -147 -91 -222t-208 -75q-84 0 -146.5 27.5t-95.5 66.5q-31 -39 -54.5 -60.5t-73.5 -38t-134 -16.5q-160 0 -246 118t-86 300t86 301t246 119 q129 0 205 -90v18q0 23 16.5 39.5t38.5 16.5h66q23 0 39 -16.5t16 -39.5v-436q0 -66 33 -104.5t90 -38.5q66 0 95.5 43t31.5 98q4 37 4 117q0 63 -6 133q-49 485 -596 485q-141 0 -262 -55t-201 -163.5t-94 -266.5q-6 -55 -6 -176q0 -100 6 -154q14 -156 94 -264.5 t201 -162.5t262 -54q156 0 242 25.5t170 82.5q6 4 20 13.5t25.5 13.5t25.5 4h90q25 0 41.5 -16.5t14.5 -40.5q0 -16 -15 -31q-98 -100 -244.5 -158.5t-369.5 -58.5q-188 0 -350 76t-264.5 220t-118.5 341q-4 70 -4 158zM659 559q0 -100 44.5 -176t136.5 -76q100 0 141 64.5 t41 187.5t-41 188.5t-141 65.5q-92 0 -136.5 -77t-44.5 -177z" />
<glyph unicode="A" horiz-adv-x="1392" d="M33 45q0 10 8 29l502 1292q27 68 92 68h123q66 0 92 -68l500 -1292q8 -18 8 -29q0 -18 -13.5 -31.5t-31.5 -13.5h-76q-61 0 -80 51l-106 273h-711l-107 -273q-18 -51 -79 -51h-76q-18 0 -31.5 13.5t-13.5 31.5zM412 508h567l-283 731z" />
<glyph unicode="B" horiz-adv-x="1366" d="M176 55v1323q0 23 16.5 39.5t38.5 16.5h549q162 0 262.5 -62.5t143.5 -150.5t43 -172q0 -115 -55.5 -185.5t-108.5 -103.5q86 -57 140.5 -146.5t54.5 -197.5q0 -106 -52.5 -201.5t-155 -155t-243.5 -59.5h-578q-23 0 -39 16.5t-16 38.5zM371 184h417q131 0 204 66.5 t73 165.5q0 100 -69.5 167.5t-207.5 67.5h-417v-467zM371 836h389q135 0 204.5 53t69.5 153t-69.5 153.5t-204.5 53.5h-389v-413z" />
<glyph unicode="C" horiz-adv-x="1366" d="M121 717q0 121 2 182q6 160 76.5 286t199.5 197.5t301 71.5q190 0 318.5 -73.5t190 -181t65.5 -208.5q0 -18 -13.5 -31.5t-31.5 -13.5h-94q-18 0 -34 12.5t-20 32.5q-29 123 -114.5 201t-266.5 78q-178 0 -277 -103.5t-106 -277.5q-2 -61 -2 -172t2 -172 q7 -174 106 -277.5t277 -103.5q180 0 266.5 77.5t114.5 200.5q4 20 19.5 32.5t34.5 12.5h94q18 0 31.5 -13t13.5 -32q-4 -100 -65.5 -207.5t-189.5 -181t-319 -73.5q-172 0 -301 71.5t-199.5 197.5t-76.5 286q-2 61 -2 182z" />
<glyph unicode="D" horiz-adv-x="1409" d="M176 55v1323q0 23 16.5 39.5t38.5 16.5h469q170 0 302.5 -67t208 -192.5t77.5 -295.5q2 -61 2 -162q0 -100 -2 -162q-2 -170 -75.5 -296t-202.5 -192.5t-297 -66.5h-482q-23 0 -39 16.5t-16 38.5zM371 184h331q205 0 296.5 106.5t95.5 274.5q2 61 2 152q0 90 -2 151 q-4 166 -100.5 273.5t-301.5 107.5h-321v-1065z" />
<glyph unicode="E" horiz-adv-x="1212" d="M176 55q0 -23 16.5 -39t38.5 -16h828q23 0 39 16.5t16 38.5v74q0 23 -16.5 39t-38.5 16h-688v449h626q23 0 39.5 16.5t16.5 38.5v74q0 23 -16.5 39t-39.5 16h-626v432h671q23 0 39.5 16.5t16.5 39.5v73q0 23 -16.5 39.5t-39.5 16.5h-811q-23 0 -39 -16.5t-16 -39.5v-1323 z" />
<glyph unicode="F" horiz-adv-x="1181" d="M176 55v1323q0 23 16.5 39.5t38.5 16.5h813q23 0 39.5 -16.5t16.5 -39.5v-73q0 -23 -16.5 -39.5t-39.5 -16.5h-673v-473h633q23 0 39 -16.5t16 -38.5v-74q0 -23 -16.5 -39t-38.5 -16h-633v-537q0 -23 -16.5 -39t-39.5 -16h-84q-23 0 -39 16.5t-16 38.5z" />
<glyph unicode="G" horiz-adv-x="1400" d="M121 723q0 119 2 180q6 158 70.5 282t194.5 196.5t321 72.5q174 0 301 -64.5t193.5 -157.5t70.5 -173q2 -18 -12.5 -31.5t-32.5 -13.5h-84q-47 0 -60 22q-59 115 -142 174.5t-234 59.5q-172 0 -278.5 -97.5t-113.5 -279.5q-2 -61 -2 -170t2 -170q6 -193 112 -291t280 -98 q178 0 284.5 93t106.5 294v57h-295q-23 0 -39 16.5t-16 39.5v73q0 23 16 39.5t39 16.5h434q23 0 39 -16.5t16 -39.5v-194q0 -164 -69.5 -292t-201.5 -199.5t-314 -71.5q-283 0 -430.5 156.5t-155.5 406.5q-2 61 -2 180z" />
<glyph unicode="H" horiz-adv-x="1462" d="M176 55v1323q0 23 16.5 39.5t38.5 16.5h84q23 0 39.5 -16.5t16.5 -39.5v-561h721v561q0 23 16 39.5t39 16.5h84q22 0 38.5 -16.5t16.5 -39.5v-1323q0 -23 -16.5 -39t-38.5 -16h-84q-23 0 -39 16.5t-16 38.5v578h-721v-578q0 -23 -16.5 -39t-39.5 -16h-84q-23 0 -39 15.5 t-16 39.5z" />
<glyph unicode="I" horiz-adv-x="546" d="M176 55v1323q0 23 16.5 39.5t38.5 16.5h84q23 0 39.5 -16.5t16.5 -39.5v-1323q0 -23 -16.5 -39t-39.5 -16h-84q-22 0 -38.5 16.5t-16.5 38.5z" />
<glyph unicode="J" horiz-adv-x="1288" d="M70 422q0 18 13 31.5t32 13.5h104q35 0 45 -45q23 -115 104 -186.5t230 -71.5q174 0 253 92t79 268v725h-707q-23 0 -39 16.5t-16 39.5v73q0 23 16.5 39.5t38.5 16.5h846q23 0 39 -16.5t16 -39.5v-876q0 -238 -137 -380t-389 -142q-160 0 -278.5 61t-182 162.5 t-67.5 218.5z" />
<glyph unicode="K" horiz-adv-x="1226" d="M176 55v1323q0 23 16.5 39.5t38.5 16.5h84q23 0 39.5 -16.5t16.5 -39.5v-477l547 502q31 31 73 31h119q18 0 31.5 -13.5t13.5 -31.5q0 -16 -20 -37l-658 -604l699 -666q20 -20 20 -37q0 -18 -13.5 -31.5t-31.5 -13.5h-127q-43 0 -74 31l-579 553v-529q0 -23 -16.5 -39 t-39.5 -16h-84q-23 0 -39 16.5t-16 38.5z" />
<glyph unicode="L" horiz-adv-x="1159" d="M176 55v1323q0 23 16.5 39.5t38.5 16.5h84q23 0 39.5 -16.5t16.5 -39.5v-1194h694q22 0 38.5 -16t16.5 -39v-74q0 -23 -16.5 -39t-38.5 -16h-834q-23 0 -39 16.5t-16 38.5z" />
<glyph unicode="M" horiz-adv-x="1626" d="M176 55v1323q0 23 16.5 39.5t38.5 16.5h78q57 0 90 -66l414 -801l414 801q33 66 90 66h78q23 0 39 -16.5t16 -39.5v-1323q0 -23 -16.5 -39t-38.5 -16h-84q-23 0 -39.5 16.5t-16.5 38.5v971l-319 -616q-16 -33 -35.5 -49.5t-48.5 -16.5h-78q-29 0 -48 16.5t-36 49.5 l-319 616v-971q0 -23 -16.5 -39t-39.5 -16h-84q-23 0 -39 16.5t-16 38.5z" />
<glyph unicode="N" horiz-adv-x="1421" d="M176 55v1323q0 23 16.5 39.5t38.5 16.5h72q27 0 45.5 -16.5t36.5 -45.5l666 -1001v1007q0 23 16 39.5t39 16.5h84q23 0 39 -16.5t16 -39.5v-1323q0 -23 -16.5 -39t-38.5 -16h-72q-26 0 -44.5 16.5t-37.5 44.5l-665 1002v-1008q0 -23 -16.5 -39t-39.5 -16h-84 q-23 0 -39 16.5t-16 38.5z" />
<glyph unicode="O" horiz-adv-x="1376" d="M121 717q0 121 2 182q4 156 70.5 282t193.5 199.5t301 73.5t301 -73.5t193.5 -199.5t70.5 -282q4 -123 4 -182t-4 -182q-6 -156 -72.5 -282t-192.5 -199.5t-300 -73.5t-300 73.5t-192.5 199.5t-72.5 282q-2 61 -2 182zM315 717q0 -111 2 -172q6 -188 106.5 -284.5 t264.5 -96.5t264.5 96t106.5 285q4 123 4 172t-4 172q-6 188 -106.5 284.5t-264.5 96.5t-264 -96.5t-107 -284.5q-2 -61 -2 -172z" />
<glyph unicode="P" horiz-adv-x="1310" d="M176 55v1323q0 23 16.5 39.5t38.5 16.5h517q213 0 353 -111t140 -324q0 -143 -66.5 -243.5t-178 -149.5t-248.5 -49h-377v-502q0 -23 -16.5 -39t-39.5 -16h-84q-23 0 -39 16.5t-16 38.5zM371 741h366q150 0 230 64.5t80 193.5q0 250 -310 250h-366v-508z" />
<glyph unicode="Q" horiz-adv-x="1376" d="M121 717q0 121 2 182q4 156 70.5 282t193.5 199.5t301 73.5t301 -73.5t193.5 -199.5t70.5 -282q4 -123 4 -182t-4 -182q-4 -119 -44 -221.5t-113 -176.5l151 -207q6 -12 6 -20q0 -18 -11 -30.5t-30 -12.5h-96q-33 0 -52.5 13.5t-33.5 33.5l-86 117q-113 -51 -256 -51 q-174 0 -300 73.5t-192.5 199.5t-72.5 282q-2 61 -2 182zM315 717q0 -111 2 -172q6 -188 106.5 -284.5t264.5 -96.5t264.5 96t106.5 285q4 123 4 172t-4 172q-6 188 -106.5 284.5t-264.5 96.5t-264 -96.5t-107 -284.5q-2 -61 -2 -172z" />
<glyph unicode="R" horiz-adv-x="1333" d="M176 55v1323q0 23 16.5 39.5t38.5 16.5h496q215 0 354.5 -105.5t139.5 -318.5q0 -160 -80 -260.5t-215 -143.5l309 -538q6 -12 6 -23q0 -18 -13.5 -31.5t-31.5 -13.5h-88q-57 0 -88 55l-297 523h-352v-523q0 -23 -16.5 -39t-39.5 -16h-84q-23 0 -39 16.5t-16 38.5z M371 762h346q309 0 309 248q0 127 -78 183t-231 56h-346v-487z" />
<glyph unicode="S" horiz-adv-x="1265" d="M78 360q0 18 13 32t32 14h84q23 0 37 -9.5t26 -36.5q33 -74 120 -135t237 -61t253 64.5t103 168.5q0 68 -54.5 114t-148.5 78t-276 79q-199 51 -287 148t-88 241q0 106 55.5 196t166 145.5t265.5 55.5q156 0 273 -60.5t180.5 -148.5t67.5 -162q2 -18 -12.5 -31.5 t-32.5 -13.5h-84q-25 0 -37.5 9.5t-26.5 35.5q-33 63 -113.5 125t-214.5 62q-123 0 -207.5 -55.5t-84.5 -157.5q0 -70 42 -114t127 -75.5t257 -76.5q233 -61 330.5 -150.5t97.5 -243.5q0 -123 -69 -217t-193.5 -147t-288.5 -53q-152 0 -277 57t-196.5 146t-75.5 177z" />
<glyph unicode="T" horiz-adv-x="1165" d="M47 1305v73q0 23 16.5 39.5t38.5 16.5h961q22 0 38.5 -16.5t16.5 -39.5v-73q0 -23 -16.5 -39.5t-38.5 -16.5h-383v-1194q0 -23 -16.5 -39t-38.5 -16h-84q-23 0 -39.5 16.5t-16.5 38.5v1194h-383q-23 0 -39 16.5t-16 39.5z" />
<glyph unicode="U" horiz-adv-x="1429" d="M164 559v819q0 23 16.5 39.5t38.5 16.5h84q23 0 39 -16.5t16 -39.5v-829q0 -197 93.5 -296t263.5 -99t264 99t94 296v829q0 23 16.5 39.5t38.5 16.5h82q23 0 39.5 -16.5t16.5 -39.5v-819q0 -266 -136.5 -422.5t-414.5 -156.5q-283 0 -417 156.5t-134 422.5z" />
<glyph unicode="V" horiz-adv-x="1325" d="M66 1389q0 18 13 31.5t32 13.5h75q61 0 80 -52l396 -1177l395 1177q19 52 80 52h75q18 0 31.5 -13.5t13.5 -31.5q0 -10 -4 -21l-442 -1286q-12 -39 -40 -60.5t-69 -21.5h-81q-80 0 -107 82l-444 1286q-4 10 -4 21z" />
<glyph unicode="W" horiz-adv-x="1622" d="M82 1389q0 18 13.5 31.5t31.5 13.5h82q23 0 40 -13.5t23 -42.5l209 -1132l226 811q4 20 20 39.5t49 19.5h70q33 0 49 -19.5t20 -39.5l226 -811l209 1132q6 29 23.5 42.5t39.5 13.5h82q18 0 31.5 -13.5t13.5 -31.5l-2 -17l-252 -1266q-12 -55 -32.5 -80.5t-67.5 -25.5h-82 q-45 0 -67.5 27.5t-37.5 78.5l-188 685l-188 -685q-14 -51 -37 -78.5t-68 -27.5h-82q-47 0 -67.5 25.5t-32.5 80.5l-252 1266z" />
<glyph unicode="X" horiz-adv-x="1306" d="M47 45q0 12 6 23l484 663l-463 635q-6 12 -6 23q0 18 13 31.5t32 13.5h96q35 0 52.5 -14.5t33.5 -37.5l364 -499l357 497q16 23 33.5 38.5t52.5 15.5h88q18 0 31.5 -13.5t13.5 -31.5q0 -10 -6 -23l-457 -639l481 -659q6 -10 7 -23q0 -18 -13.5 -31.5t-32.5 -13.5h-96 q-35 0 -51 12.5t-33 34.5l-385 528l-385 -528q-16 -23 -32.5 -35t-51.5 -12h-88q-18 0 -31.5 13.5t-13.5 31.5z" />
<glyph unicode="Y" horiz-adv-x="1316" d="M61 1389q0 18 13.5 31.5t31.5 13.5h89q37 0 54 -13.5t32 -38.5l376 -651l379 651q14 25 31.5 38.5t54.5 13.5h88q18 0 31.5 -13.5t13.5 -31.5q0 -10 -10 -29l-489 -825v-480q0 -22 -16.5 -38.5t-39.5 -16.5h-84q-23 0 -39 16.5t-16 38.5v480l-489 825q-10 18 -11 29z" />
<glyph unicode="Z" horiz-adv-x="1224" d="M80 55v74q0 29 14.5 49.5t16.5 22.5l759 1048h-714q-23 0 -39.5 16.5t-16.5 39.5v73q0 23 16.5 39.5t39.5 16.5h913q23 0 39 -16.5t16 -39.5v-73q0 -33 -26 -68l-764 -1053h756q22 0 38.5 -16t16.5 -39v-74q0 -23 -16.5 -39t-38.5 -16h-955q-23 0 -39 16.5t-16 38.5z" />
<glyph unicode="[" horiz-adv-x="706" d="M147 -270v1804q0 23 16.5 39t39.5 16h395q23 0 39 -16.5t16 -38.5v-66q0 -23 -16 -39t-39 -16h-264v-1563h264q23 0 39 -16t16 -39v-65q0 -23 -16 -39.5t-39 -16.5h-395q-23 0 -39.5 16.5t-16.5 39.5z" />
<glyph unicode="\" horiz-adv-x="995" d="M51 1565q0 18 13.5 31.5t31.5 13.5h68q63 0 90 -62l686 -1657q4 -10 4 -18q0 -18 -13 -31.5t-32 -13.5h-61q-66 0 -90 61l-693 1657q-4 10 -4 19z" />
<glyph unicode="]" horiz-adv-x="706" d="M53 -205q0 23 16.5 39t39.5 16h264v1563h-264q-23 0 -39.5 16.5t-16.5 38.5v66q0 23 16.5 39t39.5 16h395q23 0 39 -16.5t16 -38.5v-1804q0 -23 -16.5 -39.5t-38.5 -16.5h-395q-23 0 -39.5 16.5t-16.5 39.5v65z" />
<glyph unicode="^" horiz-adv-x="839" d="M125 1251q0 16 10 27l189 188q20 23 36.5 31t38.5 8h41q23 0 39.5 -8t36.5 -31l189 -188q10 -10 10 -27q0 -33 -33 -32h-43q-18 0 -30.5 5t-33.5 17l-155 105l-156 -105q-20 -12 -32.5 -17t-30.5 -5h-43q-33 0 -33 32z" />
<glyph unicode="_" horiz-adv-x="1529" d="M121 -33v66q0 23 16.5 39t38.5 16h1178q23 0 39 -16.5t16 -38.5v-66q0 -23 -16.5 -39t-38.5 -16h-1178q-22 0 -38.5 16.5t-16.5 38.5z" />
<glyph unicode="`" horiz-adv-x="677" d="M133 1464q0 18 10.5 29.5t28.5 11.5h152q25 0 39 -7t36 -32l156 -188q10 -11 10 -27q0 -33 -33 -32h-75q-29 0 -46.5 8t-39.5 26l-228 187q-10 10 -10 24z" />
<glyph unicode="a" horiz-adv-x="1118" d="M78 268q0 154 114.5 241t305.5 118l288 47v26q0 100 -66.5 154.5t-172.5 54.5q-82 0 -128 -27.5t-87 -82.5q-12 -16 -26.5 -22.5t-39.5 -6.5h-61q-23 0 -40.5 16.5t-14.5 38.5q6 61 60 122t144 99.5t193 38.5q190 0 308 -106.5t118 -298.5v-625q0 -23 -16.5 -39 t-38.5 -16h-76q-23 0 -39.5 16.5t-16.5 38.5v84q-33 -74 -139 -116.5t-213 -42.5q-104 0 -186 37.5t-126 103t-44 147.5zM264 289q0 -51 47 -92t144 -41q147 0 239 84t92 219v51l-241 -39q-133 -20 -207 -66.5t-74 -115.5z" />
<glyph unicode="b" horiz-adv-x="1224" d="M154 55v1344q0 23 16 39t39 16h76q23 0 39 -16.5t16 -38.5v-453q45 59 124 99t193 40q129 0 231.5 -59t165 -168.5t68.5 -257.5q2 -20 2 -65q0 -47 -2 -68q-6 -147 -68.5 -258t-166 -170t-230.5 -59q-213 0 -317 139v-64q0 -23 -16.5 -39t-38.5 -16h-76q-23 0 -39 16.5 t-16 38.5zM338 526q0 -61 2 -82q10 -133 91 -210.5t206 -77.5q133 0 211 85t88 234q2 20 2 57q0 174 -79 275.5t-222 101.5q-129 0 -207 -79.5t-90 -223.5q-2 -20 -2 -80z" />
<glyph unicode="c" horiz-adv-x="1136" d="M102 545q0 49 2 69q18 209 141.5 340t338.5 131q141 0 244.5 -54t157.5 -133t58 -148q2 -23 -15 -39.5t-40 -16.5h-61q-25 0 -39.5 12.5t-28.5 43.5q-72 159 -273 159h-3q-113 0 -197 -75.5t-96 -229.5q-2 -23 -2 -74q0 -47 2 -69q14 -154 97 -229.5t196 -75.5h3 q202 0 273 159q14 31 28.5 43.5t39.5 12.5h61q23 0 39 -15.5t16 -36.5q0 -70 -55 -149.5t-159.5 -134.5t-245.5 -55q-145 0 -252 61t-164 168.5t-64 241.5q-2 25 -2 94z" />
<glyph unicode="d" horiz-adv-x="1224" d="M100 535l2 65q6 147 68.5 257t165 169t231.5 59q115 0 194 -39.5t124 -99.5v453q0 23 16.5 39t38.5 16h76q23 0 39 -16.5t16 -38.5v-1344q0 -23 -16.5 -39t-38.5 -16h-76q-23 0 -39 16.5t-16 38.5v64q-104 -139 -318 -139q-127 0 -230.5 59t-165.5 169.5t-69 258.5z M287 532l2 -57q8 -147 87 -233t212 -86q127 0 209 78.5t88 209.5q2 20 2 82q0 59 -2 80q-6 144 -86 223.5t-211 79.5q-133 0 -212 -86t-87 -233z" />
<glyph unicode="e" d="M100 541q0 33 4 94q12 127 73 229.5t162 161.5t234 59q220 0 347 -139t127 -379v-55q0 -23 -16.5 -39t-39.5 -16h-704v-13q4 -135 83 -211.5t203 -76.5q102 0 158.5 26.5t102.5 75.5q16 16 29.5 22.5t35.5 6.5h62q25 0 41 -16.5t14 -39.5q-8 -55 -60.5 -113.5t-149.5 -98 t-233 -39.5q-131 0 -233 60t-162.5 166.5t-73.5 239.5q-4 61 -4 95zM287 629h575v6q0 125 -78.5 199.5t-210.5 74.5q-119 0 -201.5 -75.5t-84.5 -198.5v-6z" />
<glyph unicode="f" horiz-adv-x="798" d="M39 944v66q0 23 16.5 39t38.5 16h172v102q0 176 82 262.5t256 86.5h129q23 0 39 -16.5t16 -39.5v-65q0 -23 -16 -39.5t-39 -16.5h-108q-100 0 -136 -47t-36 -135v-92h260q23 0 39 -16.5t16 -38.5v-66q0 -23 -16.5 -39t-38.5 -16h-260v-834q0 -23 -16.5 -39t-39.5 -16h-75 q-23 0 -39.5 16.5t-16.5 38.5v834h-172q-23 0 -39 16.5t-16 38.5z" />
<glyph unicode="g" horiz-adv-x="1224" d="M100 532l2 68q6 147 68.5 257t165 169t231.5 59q115 0 194 -39.5t124 -99.5v64q0 23 16.5 39t38.5 16h76q23 0 39 -16.5t16 -38.5v-996q0 -217 -123 -341t-360 -124q-154 0 -258.5 47.5t-154.5 117t-54 141.5q-2 23 15.5 39t39.5 16h62q25 0 39 -12.5t28 -42.5 q20 -47 77.5 -88t184.5 -41q317 0 318 264v129q-104 -139 -318 -139q-127 0 -230.5 59t-165.5 168.5t-69 257.5zM287 532l2 -57q8 -147 87 -233t212 -86q131 0 211 80.5t86 222.5q2 20 2 73t-2 74q-6 143 -86 223t-211 80q-133 0 -212 -86t-87 -233z" />
<glyph unicode="h" horiz-adv-x="1243" d="M154 55v1344q0 23 16 39t39 16h76q23 0 39 -16.5t16 -38.5v-453q45 59 124 99t193 40q129 0 229.5 -55t157 -158.5t56.5 -244.5v-572q0 -22 -16.5 -38.5t-39.5 -16.5h-75q-23 0 -39.5 16.5t-16.5 38.5v541q0 154 -75.5 233.5t-210.5 79.5q-133 0 -210 -79.5t-77 -233.5 v-541q0 -23 -16.5 -39t-38.5 -16h-76q-23 0 -39 16.5t-16 38.5z" />
<glyph unicode="i" horiz-adv-x="493" d="M133 1282v117q0 23 16.5 39t38.5 16h117q23 0 39 -16.5t16 -38.5v-117q0 -22 -16 -38.5t-39 -16.5h-117q-23 0 -39 16.5t-16 38.5zM154 55v955q0 23 16 39t39 16h76q23 0 39 -16.5t16 -38.5v-955q0 -22 -16.5 -38.5t-38.5 -16.5h-76q-23 0 -39 16.5t-16 38.5z" />
<glyph unicode="j" horiz-adv-x="512" d="M-74 -268q0 23 16.5 39t39.5 16h18q100 0 136 47t36 135v1041q0 22 16.5 38.5t38.5 16.5h76q23 0 39 -16.5t16 -38.5v-1041q0 -176 -81.5 -267t-256.5 -91h-38q-23 0 -39.5 16.5t-16.5 38.5v66zM152 1282v117q0 23 16 39t39 16h117q23 0 39 -16.5t16 -38.5v-117 q0 -22 -16.5 -38.5t-38.5 -16.5h-117q-23 0 -39 16.5t-16 38.5z" />
<glyph unicode="k" horiz-adv-x="1046" d="M154 55v1344q0 23 16 39t39 16h76q23 0 39 -16.5t16 -38.5v-678l399 309q23 16 39.5 25.5t40.5 9.5h103q20 0 34.5 -14.5t14.5 -34.5q0 -23 -23 -41l-493 -385l544 -502q20 -20 21 -39q0 -20 -14.5 -34.5t-34.5 -14.5h-97q-43 0 -83 35l-451 416v-396q0 -23 -16.5 -39 t-38.5 -16h-76q-23 0 -39 16.5t-16 38.5z" />
<glyph unicode="l" horiz-adv-x="493" d="M154 55v1344q0 23 16 39t39 16h76q23 0 39 -16.5t16 -38.5v-1344q0 -22 -16.5 -38.5t-38.5 -16.5h-76q-23 0 -39 16.5t-16 38.5z" />
<glyph unicode="m" horiz-adv-x="1822" d="M154 55v955q0 23 16 39t39 16h76q23 0 39 -16.5t16 -38.5v-64q49 64 110.5 101.5t163.5 37.5q240 0 336 -178q59 86 135 132t199 46q201 0 298 -120.5t97 -341.5v-568q0 -23 -16 -39t-39 -16h-76q-23 0 -39 16.5t-16 38.5v547q0 307 -242 307q-111 0 -176 -73.5 t-65 -219.5v-561q0 -23 -16.5 -39t-39.5 -16h-75q-23 0 -39.5 16.5t-16.5 38.5v547q0 307 -241 307q-111 0 -176.5 -73.5t-65.5 -219.5v-561q0 -23 -16.5 -39t-38.5 -16h-76q-23 0 -39 16.5t-16 38.5z" />
<glyph unicode="n" horiz-adv-x="1243" d="M154 55v955q0 23 16 39t39 16h76q23 0 39 -16.5t16 -38.5v-64q45 59 124 99t193 40q129 0 229.5 -55t157 -158.5t56.5 -244.5v-572q0 -22 -16.5 -38.5t-39.5 -16.5h-75q-23 0 -39.5 16.5t-16.5 38.5v541q0 154 -75.5 233.5t-210.5 79.5q-133 0 -210 -79.5t-77 -233.5 v-541q0 -23 -16.5 -39t-38.5 -16h-76q-23 0 -39 16.5t-16 38.5z" />
<glyph unicode="o" horiz-adv-x="1181" d="M102 530q0 76 2 99q16 209 143.5 332.5t342.5 123.5t342 -123.5t143 -332.5q4 -46 4 -99q0 -49 -4 -94q-18 -209 -144 -332.5t-341 -123.5t-341 123.5t-145 332.5q-2 23 -2 94zM289 530q0 -61 2 -84q12 -131 87 -210.5t212 -79.5t212 79.5t87 210.5q4 45 4 84t-4 88 q-12 132 -87 211.5t-212 79.5t-212 -79.5t-87 -211.5q-2 -25 -2 -88z" />
<glyph unicode="p" horiz-adv-x="1224" d="M154 -334v1344q0 23 16 39t39 16h76q23 0 39 -16.5t16 -38.5v-64q104 139 317 139q127 0 230.5 -59t166 -170t68.5 -258q2 -20 2 -66q0 -47 -2 -67q-6 -147 -68.5 -257t-165 -169t-231.5 -59q-115 0 -193.5 39.5t-123.5 99.5v-453q0 -23 -16.5 -39t-38.5 -16h-76 q-23 0 -39 16.5t-16 38.5zM338 541l2 -82q6 -144 86 -223.5t211 -79.5q133 0 212 86t87 233q2 20 2 57t-2 58q-8 147 -87 233t-212 86q-127 0 -209 -78.5t-88 -209.5z" />
<glyph unicode="q" horiz-adv-x="1224" d="M100 532l2 66q6 147 68.5 258t166 170t230.5 59q213 0 318 -139v64q0 23 16.5 39t38.5 16h76q23 0 39 -16.5t16 -38.5v-1344q0 -23 -16.5 -39t-38.5 -16h-76q-23 0 -39 16.5t-16 38.5v453q-45 -59 -124 -99t-194 -40q-129 0 -231.5 59t-164.5 168.5t-69 257.5zM287 532 l2 -57q8 -147 87 -233t212 -86q131 0 211 79.5t86 223.5q2 20 2 82q0 59 -2 80q-6 131 -88 209.5t-209 78.5q-133 0 -212 -86t-87 -233z" />
<glyph unicode="r" horiz-adv-x="774" d="M154 55v955q0 23 16 39t39 16h76q23 0 39 -16.5t16 -38.5v-64q41 61 98.5 90t149.5 29h106q23 0 39.5 -16.5t16.5 -38.5v-66q0 -23 -16.5 -39t-39.5 -16h-119q-115 0 -175 -60.5t-60 -175.5v-598q0 -23 -16.5 -39t-38.5 -16h-76q-23 0 -39 16.5t-16 38.5z" />
<glyph unicode="s" horiz-adv-x="1036" d="M90 225q0 20 16.5 35.5t38.5 15.5h74q18 0 32.5 -4t27.5 -22q68 -94 239 -94q96 0 169 40t73 99q0 49 -36 78.5t-103.5 49t-210.5 50.5q-299 63 -299 305q0 84 45 153.5t134 111.5t218 42q127 0 219 -36.5t140 -92t48 -106.5q0 -20 -16 -35.5t-39 -15.5h-67q-39 0 -62 28 q-63 82 -223 82q-94 0 -152.5 -34.5t-58.5 -96.5q0 -51 28.5 -77.5t86 -43t202.5 -49.5q180 -39 256 -118.5t76 -194.5q0 -84 -52 -155.5t-149.5 -115.5t-226.5 -44q-127 0 -224 39.5t-150.5 97t-53.5 108.5z" />
<glyph unicode="t" horiz-adv-x="819" d="M39 944v66q0 23 16.5 39t38.5 16h152v334q0 23 16.5 39t38.5 16h76q23 0 39 -16.5t16 -38.5v-334h260q23 0 39.5 -16.5t16.5 -38.5v-66q0 -23 -16.5 -39t-39.5 -16h-260v-531q0 -88 36 -135t136 -47h109q23 0 39 -16.5t16 -38.5v-66q0 -23 -16.5 -39t-38.5 -16h-129 q-174 0 -256 91t-82 267v531h-152q-23 0 -39 16.5t-16 38.5z" />
<glyph unicode="u" horiz-adv-x="1222" d="M143 438v572q0 22 16.5 38.5t39.5 16.5h75q23 0 39.5 -16.5t16.5 -38.5v-541q0 -156 70.5 -234.5t205.5 -78.5q131 0 204 79.5t73 233.5v541q0 23 16 39t39 16h76q23 0 39 -16.5t16 -38.5v-955q0 -23 -16.5 -39t-38.5 -16h-76q-23 0 -39 16.5t-16 38.5v64 q-106 -139 -308 -139q-197 0 -314.5 122.5t-117.5 335.5z" />
<glyph unicode="v" horiz-adv-x="1146" d="M63 1016q0 -8 3 -15l407 -950q20 -51 64 -51h75q42 0 62 51l407 950q2 6 2 15q0 20 -14 34.5t-35 14.5h-84q-41 0 -59 -49l-318 -744l-317 744q-18 49 -68 49h-75q-20 0 -35 -14.5t-15 -34.5z" />
<glyph unicode="w" horiz-adv-x="1646" d="M76 1016q0 20 14 34.5t35 14.5h68q51 0 69 -49l230 -684l245 684q18 49 64 49h45q45 0 63 -49l246 -684l229 684q18 49 70 49h68q20 0 34.5 -14.5t14.5 -34.5l-2 -17l-314 -942q-18 -57 -61 -57h-64q-25 0 -39 15.5t-24 41.5l-244 680l-243 -680q-10 -27 -24.5 -42 t-39.5 -15h-63q-43 0 -62 57l-313 942z" />
<glyph unicode="x" horiz-adv-x="1122" d="M59 47q0 16 9 29l374 469l-354 444q-8 12 -8 29q0 18 14.5 32.5t34.5 14.5h98q23 0 37.5 -11.5t28.5 -27.5l272 -342l271 342q14 16 28.5 27.5t36.5 11.5h94q20 0 34.5 -14.5t14.5 -32.5q0 -16 -8 -29l-356 -448l371 -465q8 -12 8 -29q0 -18 -14.5 -32.5t-34.5 -14.5h-99 q-23 0 -37 11.5t-28 27.5l-289 362l-289 -362q-14 -16 -28.5 -27.5t-36.5 -11.5h-94q-20 0 -35 14.5t-15 32.5z" />
<glyph unicode="y" d="M66 1016q0 20 14 34.5t35 14.5h84q41 0 59 -49l315 -697l320 697q18 49 59 49h84q20 0 34.5 -14.5t14.5 -34.5q0 -8 -2 -15l-616 -1341q-18 -49 -59 -49h-84q-20 0 -35 14.5t-15 34.5q0 8 2 14l197 428l-405 899q-2 6 -2 15z" />
<glyph unicode="z" horiz-adv-x="1046" d="M86 55v80q0 25 29 60l563 694h-516q-23 0 -39.5 16.5t-16.5 38.5v66q0 23 16.5 39t39.5 16h712q23 0 39.5 -16.5t16.5 -38.5v-80q0 -20 -12.5 -36.5t-16.5 -23.5l-567 -694h581q23 0 39.5 -16.5t16.5 -38.5v-66q0 -23 -16.5 -39t-39.5 -16h-774q-23 0 -39 16.5t-16 38.5z " />
<glyph unicode="{" horiz-adv-x="778" d="M47 608v47q0 25 17.5 46.5t48.5 35.5q66 31 87 92.5t21 176.5q0 270 120 426.5t331 156.5q23 0 39 -16.5t16 -38.5v-66q0 -23 -16.5 -39t-38.5 -16q-133 0 -198.5 -106.5t-65.5 -354.5q0 -115 -37 -198.5t-109 -120.5q72 -35 109 -121t37 -203q0 -248 65.5 -354.5 t198.5 -106.5q22 0 38.5 -16t16.5 -39v-65q0 -23 -16.5 -39.5t-38.5 -16.5q-211 0 -331 157t-120 427q0 115 -21.5 177.5t-86.5 92.5q-31 14 -48.5 36t-17.5 46z" />
<glyph unicode="|" horiz-adv-x="485" d="M150 -371v2151q0 23 16 39t39 16h76q23 0 39 -16.5t16 -38.5v-2151q0 -22 -16.5 -38.5t-38.5 -16.5h-76q-23 0 -39 16.5t-16 38.5z" />
<glyph unicode="}" horiz-adv-x="778" d="M51 -207q0 23 16.5 39t38.5 16q133 0 199 106.5t66 354.5q0 117 36.5 203t108.5 121q-72 37 -108.5 121t-36.5 198q0 248 -65.5 354.5t-199.5 106.5q-23 0 -39 16.5t-16 38.5v66q0 23 16.5 39t38.5 16q211 0 331 -156.5t120 -426.5q0 -115 21.5 -176.5t87.5 -92.5 q31 -14 48 -35.5t17 -46.5v-47q0 -25 -17.5 -46t-47.5 -36q-66 -31 -87.5 -93t-21.5 -177q0 -270 -120 -427t-331 -157q-23 0 -39 16.5t-16 39.5v65z" />
<glyph unicode="~" horiz-adv-x="1148" d="M145 553v49q0 55 57.5 96t157.5 41q68 0 115 -9t105 -28q55 -18 97 -27t105 -9q43 0 81 15t57 32q20 16 41 18q27 0 36 -14.5t9 -40.5v-49q0 -55 -62.5 -96.5t-163.5 -41.5q-68 0 -115 9.5t-104 27.5q-55 18 -97 27.5t-106 9.5q-74 0 -127 -47q-20 -16 -41 -18 q-27 0 -36 14t-9 41z" />
<glyph unicode="&#xa1;" horiz-adv-x="481" d="M127 893v117q0 22 16.5 38.5t38.5 16.5h117q23 0 39 -16.5t16 -38.5v-117q0 -23 -16 -39t-39 -16h-117q-23 0 -39 16t-16 39zM147 -313v972q0 23 16.5 39.5t39.5 16.5h76q23 0 39 -16.5t16 -39.5v-972q0 -23 -16.5 -39.5t-38.5 -16.5h-76q-23 0 -39.5 16.5t-16.5 39.5z " />
<glyph unicode="&#xa2;" horiz-adv-x="1150" d="M111 545q0 49 2 69q14 180 110 306.5t266 156.5v117q0 23 16.5 39t39.5 16h73q23 0 39.5 -16t16.5 -39v-115q115 -16 199.5 -70.5t130 -125t49.5 -133.5q2 -23 -15.5 -39.5t-40.5 -16.5h-61q-25 0 -39 12.5t-29 43.5q-72 160 -276 159q-113 0 -197 -75.5t-96 -229.5 q-2 -23 -2 -74q0 -47 2 -69q14 -154 97 -229.5t196 -75.5q204 -1 276 159q14 31 28.5 43.5t39.5 12.5h61q23 0 40.5 -16.5t15.5 -39.5q-4 -63 -49.5 -133.5t-130.5 -126t-199 -69.5v-136q0 -23 -16.5 -39t-39.5 -16h-73q-23 0 -39.5 16.5t-16.5 38.5v138q-172 31 -270 156.5 t-106 306.5q-2 25 -2 94z" />
<glyph unicode="&#xa3;" horiz-adv-x="1388" d="M94 680v53q0 20 12.5 32.5t32.5 12.5h137q-6 53 -6 111q0 254 129 409.5t365 155.5q172 0 283.5 -73.5t162 -180t54.5 -209.5q0 -18 -13.5 -31.5t-31.5 -13.5h-95q-18 0 -33.5 12.5t-19.5 32.5q-29 125 -99.5 202t-207.5 77q-150 0 -224.5 -101.5t-74.5 -279.5 q0 -61 8 -111h410q20 0 32.5 -12t12.5 -33v-53q0 -20 -12.5 -32.5t-32.5 -12.5h-385q35 -158 37 -254q57 -14 104 -44t109 -79q68 -51 110.5 -74.5t89.5 -23.5q127 0 146 170q2 20 18 32.5t35 12.5h94q18 0 31.5 -13.5t13.5 -31.5q-6 -150 -88 -251.5t-250 -101.5 q-90 0 -157.5 35t-157.5 103q-68 51 -109 74.5t-88 23.5q-127 0 -145 -168q-2 -20 -18.5 -32.5t-34.5 -12.5h-95q-18 0 -31.5 13.5t-13.5 31.5q4 125 63.5 218t178.5 120q-2 76 -17.5 155.5t-19.5 96.5h-164q-20 0 -32.5 12t-12.5 33z" />
<glyph unicode="&#xa4;" horiz-adv-x="1208" d="M127 246q0 25 14 39l84 84q-72 115 -71 245q0 135 73 248l-84 82q-14 16 -14 39q0 25 14 39l54 55q20 16 39 17q23 0 38 -17l84 -86q113 74 246 74q135 0 244 -74l86 86q16 16 39 17q23 0 39 -17l53 -55q16 -16 16 -39q0 -18 -16 -39l-84 -82q74 -113 74 -248 q0 -133 -74 -245l86 -84q16 -16 16 -39q0 -18 -16 -39l-55 -53q-14 -14 -39 -15q-23 0 -39 15l-82 84q-113 -74 -248 -74q-139 0 -248 74l-82 -84q-14 -14 -38 -15q-25 0 -39 15l-56 53q-14 16 -14 39zM340 614q0 -72 36 -132t96 -96t132 -36t132.5 36t96 96.5t35.5 131.5 q0 72 -35.5 132.5t-96 96.5t-132.5 36t-132 -36t-96 -96.5t-36 -132.5z" />
<glyph unicode="&#xa5;" horiz-adv-x="1265" d="M61 1389q0 18 13.5 31.5t31.5 13.5h89q37 0 51 -12.5t35 -39.5l352 -598l352 598q20 27 34.5 39.5t51.5 12.5h88q18 0 31.5 -13.5t13.5 -31.5q0 -10 -10 -29l-432 -729h270q20 0 32.5 -12.5t12.5 -32.5v-54q0 -20 -12 -32.5t-33 -12.5h-303v-102h303q20 0 32.5 -12.5 t12.5 -32.5v-53q0 -20 -12 -32.5t-33 -12.5h-303v-187q0 -23 -16.5 -39t-38.5 -16h-82q-23 0 -39 16.5t-16 38.5v187h-304q-20 0 -32.5 12t-12.5 33v53q0 20 12.5 32.5t32.5 12.5h304v102h-304q-20 0 -32.5 12.5t-12.5 32.5v54q0 20 12.5 32.5t32.5 12.5h271l-432 729 q-10 18 -11 29z" />
<glyph unicode="&#xa6;" horiz-adv-x="497" d="M156 55v615q0 23 16 39t39 16h76q23 0 39 -16.5t16 -38.5v-615q0 -22 -16.5 -38.5t-38.5 -16.5h-76q-23 0 -39 16.5t-16 38.5zM156 1028v614q0 23 16 39.5t39 16.5h76q23 0 39 -16.5t16 -39.5v-614q0 -22 -16.5 -38.5t-38.5 -16.5h-76q-23 0 -39 16.5t-16 38.5z" />
<glyph unicode="&#xa7;" horiz-adv-x="1163" d="M86 662q0 197 152 288q-43 66 -43 166q0 86 47 164t138 126t218 48q135 0 231.5 -46t144.5 -111.5t48 -122.5q0 -20 -16.5 -36t-38.5 -16h-64q-39 0 -55 23q-51 68 -102.5 100.5t-147.5 32.5q-94 0 -155.5 -43t-61.5 -119q0 -41 26.5 -72.5t105.5 -72.5t235 -97 q195 -70 262 -156.5t67 -211.5q0 -100 -38 -171t-115 -120q45 -66 45 -164q0 -86 -47.5 -163.5t-138.5 -126t-218 -48.5q-135 0 -231 46t-144.5 112t-48.5 123q0 20 16.5 35.5t39.5 15.5h67q39 0 55 -22q35 -45 63 -72t72 -44.5t111 -17.5q94 0 155.5 43t61.5 119 q0 41 -26.5 73t-105.5 73t-234 96q-195 70 -262.5 157t-67.5 212zM272 664q0 -51 26 -90t96.5 -78t205.5 -84q113 -41 174 -72q117 61 117 164q0 51 -25.5 90t-96.5 78t-206 84q-96 31 -174 71q-117 -66 -117 -163z" />
<glyph unicode="&#xa8;" horiz-adv-x="864" d="M133 1284v117q0 23 16.5 39t38.5 16h117q23 0 39 -16.5t16 -38.5v-117q0 -22 -16 -38.5t-39 -16.5h-117q-23 0 -39 16.5t-16 38.5zM504 1284v117q0 23 16.5 39t38.5 16h117q23 0 39 -16.5t16 -38.5v-117q0 -22 -16.5 -38.5t-38.5 -16.5h-117q-23 0 -39 16.5t-16 38.5z " />
<glyph unicode="&#xa9;" horiz-adv-x="1683" d="M104 717q0 201 99.5 369.5t268.5 268t370 99.5q200 0 369 -99.5t268.5 -268t99.5 -369.5t-99.5 -370t-268.5 -268t-369 -99q-201 0 -370 99t-268.5 268t-99.5 370zM258 717q0 -162 78 -298t211 -216t295 -80t295 80t210.5 216t77.5 298t-77.5 298t-210.5 216t-295 80 t-295 -80t-211 -216t-78 -298zM502 719l2 69q4 150 93 238t245 88q106 0 182 -38t116 -94t40 -108q0 -20 -12.5 -32.5t-32.5 -12.5h-88q-14 0 -22.5 8.5t-14.5 18.5t-11 16q-27 43 -64.5 61.5t-92.5 18.5q-158 0 -166 -164l-2 -69l2 -70q8 -164 166 -164q55 0 93 18.5 t64 61.5q4 6 10.5 18.5t15.5 18.5t22 6h88q20 0 32.5 -12t12.5 -33q0 -51 -40 -107.5t-116 -94t-182 -37.5q-156 0 -245 88t-93 237z" />
<glyph unicode="&#xaa;" horiz-adv-x="747" d="M100 1040q0 78 70 128.5t172 64.5l125 18q0 25 -18.5 46.5t-73.5 21.5q-27 0 -43.5 -6t-34.5 -19q-25 -16 -45 -16h-64q-45 0 -45 31q0 23 30 54.5t84 56t126 24.5q111 0 171 -55.5t60 -153.5v-301q0 -20 -12 -32.5t-33 -12.5h-57q-20 0 -32.5 12t-12.5 33v14 q-16 -29 -66.5 -49t-105.5 -20q-86 0 -140.5 49t-54.5 112zM264 1047q0 -45 60 -46q68 0 105.5 41t37.5 95l-92 -15q-66 -10 -88.5 -29.5t-22.5 -45.5z" />
<glyph unicode="&#xab;" horiz-adv-x="1216" d="M92 616v115q0 32 29 57l403 392q12 10 29 10q18 0 31.5 -13.5t13.5 -31.5v-94q0 -35 -8 -53.5t-29 -39.5l-297 -284l297 -285q20 -20 28.5 -38.5t8.5 -53.5v-94q0 -18 -13.5 -31.5t-31.5 -13.5q-16 0 -29 10l-403 391q-29 25 -29 57zM598 616v115q0 32 29 57l403 392 q12 10 29 10q18 0 31.5 -13.5t13.5 -31.5v-94q0 -35 -8.5 -53.5t-28.5 -39.5l-297 -284l297 -285q20 -20 28.5 -38.5t8.5 -53.5v-94q0 -18 -13.5 -31.5t-31.5 -13.5q-16 0 -29 10l-403 391q-29 25 -29 57z" />
<glyph unicode="&#xac;" horiz-adv-x="1191" d="M139 596v66q0 23 16.5 39t39.5 16h788q23 0 39 -16.5t16 -38.5v-326q0 -23 -16 -39t-39 -16h-76q-23 0 -39 16t-16 39v205h-657q-23 0 -39.5 16t-16.5 39z" />
<glyph unicode="&#xad;" horiz-adv-x="993" d="M139 582v65q0 23 16.5 39t39.5 16h604q23 0 39 -16t16 -39v-65q0 -23 -16.5 -39.5t-38.5 -16.5h-604q-23 0 -39.5 16.5t-16.5 39.5z" />
<glyph unicode="&#xae;" horiz-adv-x="1683" d="M104 717q0 201 99.5 369.5t268.5 268t370 99.5q200 0 369 -99.5t268.5 -268t99.5 -369.5t-99.5 -370t-268.5 -268t-369 -99q-201 0 -370 99t-268.5 268t-99.5 370zM258 717q0 -162 78 -298t211 -216t295 -80t295 80t210.5 216t77.5 298t-77.5 298t-210.5 216t-295 80 t-295 -80t-211 -216t-78 -298zM551 389v660q0 20 12 32.5t33 12.5h285q283 0 282 -248q0 -162 -121 -217l123 -211q8 -12 9 -29q0 -18 -11.5 -31.5t-34.5 -13.5h-84q-37 0 -59 39l-123 215h-139v-209q0 -20 -12.5 -32.5t-32.5 -12.5h-82q-21 0 -33 12.5t-12 32.5zM723 760 h158q57 0 83.5 20.5t26.5 65.5t-26.5 65.5t-83.5 20.5h-158v-172z" />
<glyph unicode="&#xaf;" horiz-adv-x="825" d="M133 1294v66q0 23 16.5 39t38.5 16h449q23 0 39 -16.5t16 -38.5v-66q0 -23 -16.5 -39t-38.5 -16h-449q-22 0 -38.5 16.5t-16.5 38.5z" />
<glyph unicode="&#xb0;" horiz-adv-x="802" d="M92 1157q0 84 42 152.5t112.5 107.5t154.5 39t155 -39t113 -107.5t42 -152.5t-42 -152.5t-113 -107.5t-155 -39t-154.5 39t-112.5 107.5t-42 152.5zM246 1157q0 -70 43 -113t112 -43q70 0 113 43t43 113t-43 113t-113 43t-112.5 -43t-42.5 -113z" />
<glyph unicode="&#xb1;" horiz-adv-x="1118" d="M111 791v63q0 23 16 39t39 16h299v299q0 23 16.5 39.5t38.5 16.5h76q23 0 39 -16.5t16 -39.5v-299h301q23 0 39.5 -16t16.5 -39v-63q0 -23 -16.5 -39.5t-39.5 -16.5h-301v-305q0 -23 -16.5 -39t-38.5 -16h-76q-23 0 -39 16.5t-16 38.5v305h-299q-23 0 -39 16.5t-16 39.5z M152 55v66q0 23 16 39t39 16h704q23 0 39.5 -16.5t16.5 -38.5v-66q0 -23 -16.5 -39t-39.5 -16h-704q-23 0 -39 16.5t-16 38.5z" />
<glyph unicode="&#xb2;" horiz-adv-x="708" d="M57 762v49q0 18 8.5 34.5t36.5 35.5q154 98 222.5 147t102.5 92t34 95q0 37 -25.5 59t-81.5 22q-76 0 -110 -63q-12 -23 -22.5 -30t-26.5 -7h-70q-18 0 -28.5 10.5t-8.5 28.5q6 47 38 95t90 81t138 33q115 0 188.5 -66.5t73.5 -162.5q0 -98 -61 -172t-223 -179h270 q20 0 32.5 -12t12.5 -33v-57q0 -20 -12 -32.5t-33 -12.5h-500q-20 0 -32.5 12t-12.5 33z" />
<glyph unicode="&#xb3;" horiz-adv-x="704" d="M51 879v6q0 14 11.5 23.5t23.5 9.5h100q23 0 41 -25q29 -39 117 -39q131 0 131 82q0 37 -31.5 56.5t-91.5 19.5h-96q-20 0 -32.5 12t-12.5 33v33q0 25 25 49l147 147h-244q-20 0 -32.5 12.5t-12.5 32.5v58q0 20 12.5 32.5t32.5 12.5h424q20 0 32.5 -12.5t12.5 -32.5v-43 q0 -25 -6 -40.5t-27 -35.5l-124 -129q96 -18 139 -67.5t43 -137.5q0 -102 -74 -165.5t-213 -63.5q-121 0 -203 50t-92 122z" />
<glyph unicode="&#xb4;" horiz-adv-x="677" d="M133 1251q0 16 10 27l156 188q23 25 37 32t39 7h151q18 0 28.5 -11t10.5 -30q0 -14 -10 -24l-227 -187q-23 -18 -40.5 -26t-45.5 -8h-76q-33 0 -33 32z" />
<glyph unicode="&#xb5;" horiz-adv-x="1234" d="M145 -354v1364q0 23 16.5 39t39.5 16h75q23 0 39.5 -16.5t16.5 -38.5v-541q0 -154 76.5 -233.5t209.5 -79.5t210 79.5t77 233.5v541q0 23 16.5 39t39.5 16h75q23 0 39.5 -16.5t16.5 -38.5v-955q0 -23 -16.5 -39t-39.5 -16h-75q-23 0 -39.5 16.5t-16.5 38.5v64 q-49 -63 -112.5 -101t-174.5 -38t-174 37.5t-112 101.5v-473q0 -23 -16.5 -39.5t-39.5 -16.5h-75q-23 0 -39.5 16.5t-16.5 39.5z" />
<glyph unicode="&#xb6;" horiz-adv-x="1120" d="M59 1061q0 100 50.5 186t136.5 136.5t186 50.5h479q23 0 39.5 -16.5t16.5 -39.5v-1528q0 -23 -16.5 -39t-39.5 -16h-75q-23 0 -39.5 16.5t-16.5 38.5v1407h-162v-1407q0 -23 -16 -39t-39 -16h-76q-23 0 -39 16.5t-16 38.5v838q-100 0 -186 50t-136.5 136.5t-50.5 186.5z " />
<glyph unicode="&#xb7;" horiz-adv-x="675" d="M113 614q0 94 65.5 160t159.5 66t159.5 -65.5t65.5 -160.5q0 -94 -65.5 -159.5t-159.5 -65.5t-159.5 65.5t-65.5 159.5z" />
<glyph unicode="&#xb8;" horiz-adv-x="636" d="M137 -365q0 10 8 19l29 27q16 12 27 12q10 0 38.5 -19.5t63.5 -19.5q88 0 88 72t-88 71q-27 0 -51.5 -9t-32.5 -9q-12 0 -26 14l-35 37q-8 8 -8 20q0 16 12 41l71 164h125l-79 -170q27 16 71 17q68 0 112 -49.5t44 -122.5q0 -80 -50 -130.5t-153 -50.5q-59 0 -112.5 29 t-53.5 57z" />
<glyph unicode="&#xb9;" horiz-adv-x="507" d="M31 1223q0 20 18 35l219 161q20 14 47 15h54q20 0 32.5 -12.5t12.5 -32.5v-627q0 -21 -12.5 -33t-32.5 -12h-68q-20 0 -32.5 12t-12.5 33v457l-113 -84q-10 -8 -26 -9q-20 0 -37 19l-39 49q-10 14 -10 29z" />
<glyph unicode="&#xba;" horiz-adv-x="729" d="M106 1161l3 56q6 109 78.5 168t177.5 59q104 0 176.5 -59.5t79.5 -167.5q2 -10 2 -56q0 -45 -2 -55q-6 -111 -76 -169t-180 -58q-111 0 -180.5 58t-75.5 169zM262 1161l2 -45q6 -106 101 -106q94 0 100 106q2 10 2 45t-2 45q-2 51 -29.5 79t-70.5 28t-71 -28t-30 -79z " />
<glyph unicode="&#xbb;" horiz-adv-x="1216" d="M113 203v94q0 35 8 53.5t29 38.5l296 285l-296 284q-20 20 -28.5 39t-8.5 54v94q0 18 13 31.5t32 13.5q16 0 28 -10l404 -392q29 -25 28 -57v-115q1 -32 -28 -57l-404 -391q-12 -10 -28 -10q-18 0 -31.5 13t-13.5 32zM618 203v94q0 35 8.5 53.5t28.5 38.5l297 285 l-297 284q-20 20 -28.5 39t-8.5 54v94q0 18 13.5 31.5t32.5 13.5q16 0 28 -10l404 -392q29 -25 28 -57v-115q1 -32 -28 -57l-404 -391q-12 -10 -28 -10q-18 0 -32 13t-14 32z" />
<glyph unicode="&#xbc;" horiz-adv-x="1464" d="M80 1223q0 20 18 35l219 161q20 14 47 15h54q20 0 32.5 -12.5t12.5 -32.5v-627q0 -21 -12.5 -33t-32.5 -12h-68q-20 0 -32.5 12t-12.5 33v457l-113 -84q-10 -8 -26 -9q-20 0 -37 19l-39 49q-10 14 -10 29zM104 41q0 12 9 22l1011 1332q17 20 32 29.5t42 9.5h78 q23 0 36 -11.5t13 -29.5q0 -12 -8 -23l-1012 -1331q-16 -20 -31.5 -29.5t-42.5 -9.5h-77q-23 0 -36.5 11.5t-13.5 29.5zM756 188v51q0 29 25 62l274 379q27 37 62 37h98q20 0 32.5 -12.5t12.5 -32.5v-381h72q20 0 32.5 -12.5t12.5 -32.5v-58q0 -20 -12.5 -32.5t-32.5 -12.5 h-72v-98q0 -20 -12.5 -32.5t-32.5 -12.5h-68q-20 0 -32.5 12t-12.5 33v98h-301q-20 0 -32.5 12.5t-12.5 32.5zM947 291h155v219z" />
<glyph unicode="&#xbd;" horiz-adv-x="1527" d="M80 1223q0 20 18 35l219 161q20 14 47 15h54q20 0 32.5 -12.5t12.5 -32.5v-627q0 -21 -12.5 -33t-32.5 -12h-68q-20 0 -32.5 12t-12.5 33v457l-113 -84q-10 -8 -26 -9q-20 0 -37 19l-39 49q-10 14 -10 29zM104 41q0 12 9 22l1011 1332q17 20 32 29.5t42 9.5h78 q23 0 36 -11.5t13 -29.5q0 -12 -8 -23l-1012 -1331q-16 -20 -31.5 -29.5t-42.5 -9.5h-77q-23 0 -36.5 11.5t-13.5 29.5zM852 45v49q0 18 8.5 34.5t36.5 35.5q154 98 222.5 147t102.5 92t34 95q0 37 -25.5 59t-81.5 22q-76 0 -110 -63q-12 -23 -22.5 -30t-26.5 -7h-70 q-18 0 -28.5 10.5t-8.5 28.5q6 47 38 95t90 81t138 33q115 0 188.5 -66.5t73.5 -162.5q0 -98 -61 -172t-223 -179h270q20 0 32.5 -12t12.5 -33v-57q0 -20 -12 -32.5t-33 -12.5h-500q-20 0 -32.5 12t-12.5 33z" />
<glyph unicode="&#xbe;" horiz-adv-x="1617" d="M78 879v6q0 14 11.5 23.5t23.5 9.5h100q23 0 41 -25q29 -39 117 -39q131 0 131 82q0 37 -31.5 56.5t-91.5 19.5h-96q-20 0 -32.5 12t-12.5 33v33q0 25 25 49l147 147h-244q-20 0 -32.5 12.5t-12.5 32.5v58q0 20 12.5 32.5t32.5 12.5h424q20 0 32.5 -12.5t12.5 -32.5v-43 q0 -25 -6 -40.5t-27 -35.5l-124 -129q96 -18 139 -67.5t43 -137.5q0 -102 -74 -165.5t-213 -63.5q-121 0 -203 50t-92 122zM260 41q0 12 9 22l1011 1332q17 20 32 29.5t42 9.5h78q23 0 36 -11.5t13 -29.5q0 -12 -8 -23l-1012 -1331q-16 -20 -31.5 -29.5t-42.5 -9.5h-77 q-23 0 -36.5 11.5t-13.5 29.5zM911 188v51q0 29 25 62l274 379q27 37 62 37h98q20 0 32.5 -12.5t12.5 -32.5v-381h72q20 0 32.5 -12.5t12.5 -32.5v-58q0 -20 -12.5 -32.5t-32.5 -12.5h-72v-98q0 -20 -12.5 -32.5t-32.5 -12.5h-68q-20 0 -32.5 12t-12.5 33v98h-301 q-20 0 -32.5 12.5t-12.5 32.5zM1102 291h155v219z" />
<glyph unicode="&#xbf;" horiz-adv-x="1060" d="M66 -2q0 82 27.5 144.5t67.5 106.5t105 99q88 76 131 135.5t43 147.5v28q0 23 16.5 39.5t39.5 16.5h75q23 0 39.5 -16.5t16.5 -39.5v-43q0 -82 -29 -144t-69 -105t-107 -105q-86 -74 -128 -130t-42 -134q0 -98 82 -155.5t196 -57.5q111 0 184.5 55.5t102.5 169.5 q4 20 19.5 32.5t33.5 12.5h88q18 0 33 -13t13 -32q-6 -96 -60.5 -188t-160 -151.5t-253.5 -59.5q-133 0 -238.5 50t-165.5 139t-60 198zM420 893v117q0 22 16.5 38.5t38.5 16.5h117q23 0 39 -16.5t16 -38.5v-117q0 -23 -16.5 -39t-38.5 -16h-117q-23 0 -39 16t-16 39z" />
<glyph unicode="&#xc0;" horiz-adv-x="1392" d="M33 45q0 10 8 29l502 1292q27 68 92 68h123q66 0 92 -68l500 -1292q8 -18 8 -29q0 -18 -13.5 -31.5t-31.5 -13.5h-76q-61 0 -80 51l-106 273h-711l-107 -273q-18 -51 -79 -51h-76q-18 0 -31.5 13.5t-13.5 31.5zM351 1782q0 18 10 29.5t29 11.5h161q25 0 39.5 -7.5 t36.5 -31.5l156 -189q10 -10 10 -26q0 -33 -33 -33h-86q-29 0 -46 8t-40 27l-227 186q-10 10 -10 25zM412 508h567l-283 731z" />
<glyph unicode="&#xc1;" horiz-adv-x="1392" d="M33 45q0 10 8 29l502 1292q27 68 92 68h123q66 0 92 -68l500 -1292q8 -18 8 -29q0 -18 -13.5 -31.5t-31.5 -13.5h-76q-61 0 -80 51l-106 273h-711l-107 -273q-18 -51 -79 -51h-76q-18 0 -31.5 13.5t-13.5 31.5zM412 508h567l-283 731zM596 1569q0 16 10 26l156 189 q22 24 36.5 31.5t38.5 7.5h162q18 0 28.5 -11.5t10.5 -29.5q0 -14 -10 -25l-228 -186q-23 -18 -40 -26.5t-46 -8.5h-86q-33 0 -32 33z" />
<glyph unicode="&#xc2;" horiz-adv-x="1392" d="M33 45q0 10 8 29l502 1292q27 68 92 68h123q66 0 92 -68l500 -1292q8 -18 8 -29q0 -18 -13.5 -31.5t-31.5 -13.5h-76q-61 0 -80 51l-106 273h-711l-107 -273q-18 -51 -79 -51h-76q-18 0 -31.5 13.5t-13.5 31.5zM391 1569q0 16 10 26l189 189q20 23 36.5 31t39.5 8h61 q23 0 39 -8.5t37 -30.5l188 -189q10 -10 10 -26q0 -33 -32 -33h-54q-18 0 -30.5 5t-32.5 18l-156 104l-155 -104q-20 -12 -32.5 -17.5t-31.5 -5.5h-53q-33 0 -33 33zM412 508h567l-283 731z" />
<glyph unicode="&#xc3;" horiz-adv-x="1392" d="M33 45q0 10 8 29l502 1292q27 68 92 68h123q66 0 92 -68l500 -1292q8 -18 8 -29q0 -18 -13.5 -31.5t-31.5 -13.5h-76q-61 0 -80 51l-106 273h-711l-107 -273q-18 -51 -79 -51h-76q-18 0 -31.5 13.5t-13.5 31.5zM391 1575q0 37 19.5 83t58.5 80t98 34q47 0 78 -10.5 t70 -28.5q25 -14 44 -20.5t42 -6.5t34 8t19 23q8 12 15 18t20 6h76q18 0 28 -11t10 -28q0 -37 -19 -83t-58 -79.5t-99 -33.5q-47 0 -79.5 10t-69.5 29q-20 10 -42 18t-42 8q-23 0 -34 -8t-19 -22q-8 -12 -15.5 -18.5t-19.5 -6.5h-76q-18 0 -28.5 11.5t-10.5 27.5zM412 508 h567l-283 731z" />
<glyph unicode="&#xc4;" horiz-adv-x="1392" d="M33 45q0 10 8 29l502 1292q27 68 92 68h123q66 0 92 -68l500 -1292q8 -18 8 -29q0 -18 -13.5 -31.5t-31.5 -13.5h-76q-61 0 -80 51l-106 273h-711l-107 -273q-18 -51 -79 -51h-76q-18 0 -31.5 13.5t-13.5 31.5zM366 1591v117q0 23 16.5 39t38.5 16h117q23 0 39 -16 t16 -39v-117q0 -22 -16 -38.5t-39 -16.5h-117q-23 0 -39 16.5t-16 38.5zM412 508h567l-283 731zM798 1591v117q0 23 16.5 39t39.5 16h116q23 0 39.5 -16t16.5 -39v-117q0 -22 -16.5 -38.5t-39.5 -16.5h-116q-23 0 -39.5 16.5t-16.5 38.5z" />
<glyph unicode="&#xc5;" horiz-adv-x="1392" d="M33 45q0 10 8 29l502 1292q27 68 92 68h123q66 0 92 -68l500 -1292q8 -18 8 -29q0 -18 -13.5 -31.5t-31.5 -13.5h-76q-61 0 -80 51l-106 273h-711l-107 -273q-18 -51 -79 -51h-76q-18 0 -31.5 13.5t-13.5 31.5zM412 508h567l-283 731zM522 1679q0 72 50 118t124 46 t124 -46t50 -118t-50 -117.5t-124 -45.5t-124 46t-50 117zM635 1679q0 -27 17.5 -44t43.5 -17q27 0 44.5 17.5t17.5 43.5q0 27 -17.5 44.5t-44.5 17.5t-44 -17.5t-17 -44.5z" />
<glyph unicode="&#xc6;" horiz-adv-x="1964" d="M2 45q0 10 8 25l766 1296q18 33 36.5 50.5t55.5 17.5h926q23 0 39 -16.5t16 -39.5v-73q0 -23 -16 -39.5t-39 -16.5h-672v-432h627q23 0 39 -16.5t16 -38.5v-74q0 -23 -16 -39t-39 -16h-627v-449h688q23 0 39.5 -16t16.5 -39v-74q0 -23 -16.5 -39t-39.5 -16h-827 q-23 0 -39 16.5t-16 38.5v269h-549l-160 -273q-31 -51 -80 -51h-92q-18 0 -31.5 13.5t-13.5 31.5zM489 508h439v741z" />
<glyph unicode="&#xc7;" horiz-adv-x="1366" d="M121 717q0 121 2 182q6 160 76.5 286t199.5 197.5t301 71.5q190 0 318.5 -73.5t190 -181t65.5 -208.5q0 -18 -13.5 -31.5t-31.5 -13.5h-94q-18 0 -34 12.5t-20 32.5q-29 123 -114.5 201t-266.5 78q-178 0 -277 -103.5t-106 -277.5q-2 -61 -2 -172t2 -172 q7 -174 106 -277.5t277 -103.5q180 0 266.5 77.5t114.5 200.5q4 20 19.5 32.5t34.5 12.5h94q18 0 31.5 -13t13.5 -32q-4 -98 -64.5 -204.5t-186.5 -181t-312 -76.5l-43 -95q27 16 71 17q68 0 112 -49.5t44 -122.5q0 -80 -50 -130.5t-153 -50.5q-59 0 -112.5 29t-53.5 57 q0 10 9 19l28 27q16 12 27 12q10 0 38.5 -19.5t63.5 -19.5q88 0 88 72t-88 71q-27 0 -51.5 -9t-32.5 -9q-12 0 -26 14l-35 37q-8 8 -8 20q0 16 12 41l41 97q-213 33 -338 181t-131 366q-2 61 -2 182z" />
<glyph unicode="&#xc8;" horiz-adv-x="1212" d="M176 55q0 -23 16.5 -39t38.5 -16h828q23 0 39 16.5t16 38.5v74q0 23 -16.5 39t-38.5 16h-688v449h626q23 0 39.5 16.5t16.5 38.5v74q0 23 -16.5 39t-39.5 16h-626v432h671q23 0 39.5 16.5t16.5 39.5v73q0 23 -16.5 39.5t-39.5 16.5h-811q-23 0 -39 -16.5t-16 -39.5v-1323 zM301 1782q0 18 10 29.5t29 11.5h161q25 0 39.5 -7.5t36.5 -31.5l156 -189q10 -10 10 -26q0 -33 -33 -33h-86q-29 0 -46 8t-40 27l-227 186q-10 10 -10 25z" />
<glyph unicode="&#xc9;" horiz-adv-x="1212" d="M176 55q0 -23 16.5 -39t38.5 -16h828q23 0 39 16.5t16 38.5v74q0 23 -16.5 39t-38.5 16h-688v449h626q23 0 39.5 16.5t16.5 38.5v74q0 23 -16.5 39t-39.5 16h-626v432h671q23 0 39.5 16.5t16.5 39.5v73q0 23 -16.5 39.5t-39.5 16.5h-811q-23 0 -39 -16.5t-16 -39.5v-1323 zM512 1569q0 16 10 26l156 189q22 24 36.5 31.5t38.5 7.5h162q18 0 28.5 -11.5t10.5 -29.5q0 -14 -10 -25l-228 -186q-23 -18 -40 -26.5t-46 -8.5h-86q-33 0 -32 33z" />
<glyph unicode="&#xca;" horiz-adv-x="1212" d="M176 55q0 -23 16.5 -39t38.5 -16h828q23 0 39 16.5t16 38.5v74q0 23 -16.5 39t-38.5 16h-688v449h626q23 0 39.5 16.5t16.5 38.5v74q0 23 -16.5 39t-39.5 16h-626v432h671q23 0 39.5 16.5t16.5 39.5v73q0 23 -16.5 39.5t-39.5 16.5h-811q-23 0 -39 -16.5t-16 -39.5v-1323 zM340 1569q0 16 10 26l189 189q20 23 36.5 31t39.5 8h61q23 0 39 -8.5t37 -30.5l188 -189q10 -10 10 -26q0 -33 -32 -33h-54q-18 0 -30.5 5t-32.5 18l-156 104l-155 -104q-20 -12 -32.5 -17.5t-31.5 -5.5h-53q-33 0 -33 33z" />
<glyph unicode="&#xcb;" horiz-adv-x="1212" d="M176 55q0 -23 16.5 -39t38.5 -16h828q23 0 39 16.5t16 38.5v74q0 23 -16.5 39t-38.5 16h-688v449h626q23 0 39.5 16.5t16.5 38.5v74q0 23 -16.5 39t-39.5 16h-626v432h671q23 0 39.5 16.5t16.5 39.5v73q0 23 -16.5 39.5t-39.5 16.5h-811q-23 0 -39 -16.5t-16 -39.5v-1323 zM315 1591v117q0 23 16.5 39t38.5 16h117q23 0 39 -16t16 -39v-117q0 -22 -16 -38.5t-39 -16.5h-117q-23 0 -39 16.5t-16 38.5zM747 1591v117q0 23 16.5 39t39.5 16h116q23 0 39.5 -16t16.5 -39v-117q0 -22 -16.5 -38.5t-39.5 -16.5h-116q-23 0 -39.5 16.5t-16.5 38.5z" />
<glyph unicode="&#xcc;" horiz-adv-x="546" d="M-75 1782q0 18 10 29.5t29 11.5h161q25 0 39.5 -7.5t36.5 -31.5l156 -189q10 -10 10 -26q0 -33 -33 -33h-86q-29 0 -46 8t-40 27l-227 186q-10 10 -10 25zM176 55v1323q0 23 16.5 39.5t38.5 16.5h84q23 0 39.5 -16.5t16.5 -39.5v-1323q0 -23 -16.5 -39t-39.5 -16h-84 q-22 0 -38.5 16.5t-16.5 38.5z" />
<glyph unicode="&#xcd;" horiz-adv-x="546" d="M174 1569q0 16 10 26l156 189q22 24 36.5 31.5t38.5 7.5h162q18 0 28.5 -11.5t10.5 -29.5q0 -14 -10 -25l-228 -186q-23 -18 -40 -26.5t-46 -8.5h-86q-33 0 -32 33zM176 55v1323q0 23 16.5 39.5t38.5 16.5h84q23 0 39.5 -16.5t16.5 -39.5v-1323q0 -23 -16.5 -39 t-39.5 -16h-84q-22 0 -38.5 16.5t-16.5 38.5z" />
<glyph unicode="&#xce;" horiz-adv-x="546" d="M-33 1569q0 16 10 26l189 189q20 23 36.5 31t39.5 8h61q23 0 39 -8.5t37 -30.5l188 -189q10 -10 10 -26q0 -33 -32 -33h-54q-18 0 -30.5 5t-32.5 18l-156 104l-155 -104q-20 -12 -32.5 -17.5t-31.5 -5.5h-53q-33 0 -33 33zM176 55v1323q0 23 16.5 39.5t38.5 16.5h84 q23 0 39.5 -16.5t16.5 -39.5v-1323q0 -23 -16.5 -39t-39.5 -16h-84q-22 0 -38.5 16.5t-16.5 38.5z" />
<glyph unicode="&#xcf;" horiz-adv-x="546" d="M-57 1591v117q0 23 16.5 39t38.5 16h117q23 0 39 -16t16 -39v-117q0 -22 -16 -38.5t-39 -16.5h-117q-23 0 -39 16.5t-16 38.5zM176 55v1323q0 23 16.5 39.5t38.5 16.5h84q23 0 39.5 -16.5t16.5 -39.5v-1323q0 -23 -16.5 -39t-39.5 -16h-84q-22 0 -38.5 16.5t-16.5 38.5z M375 1591v117q0 23 16.5 39t39.5 16h116q23 0 39.5 -16t16.5 -39v-117q0 -22 -16.5 -38.5t-39.5 -16.5h-116q-23 0 -39.5 16.5t-16.5 38.5z" />
<glyph unicode="&#xd0;" horiz-adv-x="1437" d="M31 694v64q0 23 16 39t39 16h119v565q0 23 16.5 39.5t38.5 16.5h469q170 0 302 -67t208 -192.5t78 -295.5q2 -61 2 -162q0 -100 -2 -162q-2 -170 -76 -296t-203 -192.5t-297 -66.5h-481q-23 0 -39 16.5t-16 38.5v584h-119q-23 0 -39 16.5t-16 38.5zM399 184h332 q205 0 296 106.5t95 274.5q2 61 2 152q0 90 -2 151q-4 166 -100 273.5t-301 107.5h-322v-436h277q23 0 39 -16.5t16 -38.5v-64q0 -23 -16.5 -39t-38.5 -16h-277v-455z" />
<glyph unicode="&#xd1;" horiz-adv-x="1421" d="M176 55v1323q0 23 16.5 39.5t38.5 16.5h72q27 0 45.5 -16.5t36.5 -45.5l666 -1001v1007q0 23 16 39.5t39 16.5h84q23 0 39 -16.5t16 -39.5v-1323q0 -23 -16.5 -39t-38.5 -16h-72q-26 0 -44.5 16.5t-37.5 44.5l-665 1002v-1008q0 -23 -16.5 -39t-39.5 -16h-84 q-23 0 -39 16.5t-16 38.5zM405 1575q0 37 19.5 83t58.5 80t98 34q47 0 78 -10.5t70 -28.5q25 -14 44 -20.5t42 -6.5t34 8t19 23q8 12 15 18t20 6h76q18 0 28 -11t10 -28q0 -37 -19 -83t-58 -79.5t-99 -33.5q-47 0 -79.5 10t-69.5 29q-20 10 -42 18t-42 8q-23 0 -34 -8 t-19 -22q-8 -12 -15.5 -18.5t-19.5 -6.5h-76q-18 0 -28.5 11.5t-10.5 27.5z" />
<glyph unicode="&#xd2;" horiz-adv-x="1376" d="M121 717q0 121 2 182q4 156 70.5 282t193.5 199.5t301 73.5t301 -73.5t193.5 -199.5t70.5 -282q4 -123 4 -182t-4 -182q-6 -156 -72.5 -282t-192.5 -199.5t-300 -73.5t-300 73.5t-192.5 199.5t-72.5 282q-2 61 -2 182zM315 717q0 -111 2 -172q6 -188 106.5 -284.5 t264.5 -96.5t264.5 96t106.5 285q4 123 4 172t-4 172q-6 188 -106.5 284.5t-264.5 96.5t-264 -96.5t-107 -284.5q-2 -61 -2 -172zM344 1782q0 18 10 29.5t29 11.5h161q25 0 39.5 -7.5t36.5 -31.5l156 -189q10 -10 10 -26q0 -33 -33 -33h-86q-29 0 -46 8t-40 27l-227 186 q-10 10 -10 25z" />
<glyph unicode="&#xd3;" horiz-adv-x="1376" d="M121 717q0 121 2 182q4 156 70.5 282t193.5 199.5t301 73.5t301 -73.5t193.5 -199.5t70.5 -282q4 -123 4 -182t-4 -182q-6 -156 -72.5 -282t-192.5 -199.5t-300 -73.5t-300 73.5t-192.5 199.5t-72.5 282q-2 61 -2 182zM315 717q0 -111 2 -172q6 -188 106.5 -284.5 t264.5 -96.5t264.5 96t106.5 285q4 123 4 172t-4 172q-6 188 -106.5 284.5t-264.5 96.5t-264 -96.5t-107 -284.5q-2 -61 -2 -172zM596 1569q0 16 10 26l156 189q22 24 36.5 31.5t38.5 7.5h162q18 0 28.5 -11.5t10.5 -29.5q0 -14 -10 -25l-228 -186q-23 -18 -40 -26.5 t-46 -8.5h-86q-33 0 -32 33z" />
<glyph unicode="&#xd4;" horiz-adv-x="1376" d="M121 717q0 121 2 182q4 156 70.5 282t193.5 199.5t301 73.5t301 -73.5t193.5 -199.5t70.5 -282q4 -123 4 -182t-4 -182q-6 -156 -72.5 -282t-192.5 -199.5t-300 -73.5t-300 73.5t-192.5 199.5t-72.5 282q-2 61 -2 182zM315 717q0 -111 2 -172q6 -188 106.5 -284.5 t264.5 -96.5t264.5 96t106.5 285q4 123 4 172t-4 172q-6 188 -106.5 284.5t-264.5 96.5t-264 -96.5t-107 -284.5q-2 -61 -2 -172zM383 1569q0 16 10 26l189 189q20 23 36.5 31t39.5 8h61q23 0 39 -8.5t37 -30.5l188 -189q10 -10 10 -26q0 -33 -32 -33h-54q-18 0 -30.5 5 t-32.5 18l-156 104l-155 -104q-20 -12 -32.5 -17.5t-31.5 -5.5h-53q-33 0 -33 33z" />
<glyph unicode="&#xd5;" horiz-adv-x="1376" d="M121 717q0 121 2 182q4 156 70.5 282t193.5 199.5t301 73.5t301 -73.5t193.5 -199.5t70.5 -282q4 -123 4 -182t-4 -182q-6 -156 -72.5 -282t-192.5 -199.5t-300 -73.5t-300 73.5t-192.5 199.5t-72.5 282q-2 61 -2 182zM315 717q0 -111 2 -172q6 -188 106.5 -284.5 t264.5 -96.5t264.5 96t106.5 285q4 123 4 172t-4 172q-6 188 -106.5 284.5t-264.5 96.5t-264 -96.5t-107 -284.5q-2 -61 -2 -172zM383 1575q0 37 19.5 83t58.5 80t98 34q47 0 78 -10.5t70 -28.5q25 -14 44 -20.5t42 -6.5t34 8t19 23q8 12 15 18t20 6h76q18 0 28 -11t10 -28 q0 -37 -19 -83t-58 -79.5t-99 -33.5q-47 0 -79.5 10t-69.5 29q-20 10 -42 18t-42 8q-23 0 -34 -8t-19 -22q-8 -12 -15.5 -18.5t-19.5 -6.5h-76q-18 0 -28.5 11.5t-10.5 27.5z" />
<glyph unicode="&#xd6;" horiz-adv-x="1376" d="M121 717q0 121 2 182q4 156 70.5 282t193.5 199.5t301 73.5t301 -73.5t193.5 -199.5t70.5 -282q4 -123 4 -182t-4 -182q-6 -156 -72.5 -282t-192.5 -199.5t-300 -73.5t-300 73.5t-192.5 199.5t-72.5 282q-2 61 -2 182zM315 717q0 -111 2 -172q6 -188 106.5 -284.5 t264.5 -96.5t264.5 96t106.5 285q4 123 4 172t-4 172q-6 188 -106.5 284.5t-264.5 96.5t-264 -96.5t-107 -284.5q-2 -61 -2 -172zM358 1591v117q0 23 16.5 39t38.5 16h117q23 0 39 -16t16 -39v-117q0 -22 -16 -38.5t-39 -16.5h-117q-23 0 -39 16.5t-16 38.5zM790 1591v117 q0 23 16.5 39t39.5 16h116q23 0 39.5 -16t16.5 -39v-117q0 -22 -16.5 -38.5t-39.5 -16.5h-116q-23 0 -39.5 16.5t-16.5 38.5z" />
<glyph unicode="&#xd7;" horiz-adv-x="1136" d="M121 342q0 23 16 39l299 299l-299 301q-16 16 -16 39t16 39l53 53q16 16 39 16q25 0 39 -16l299 -301l301 301q14 16 39 16t39 -16l53 -53q16 -14 17 -39q0 -25 -17 -39l-301 -301l301 -299q16 -14 17 -39q0 -23 -17 -39l-53 -53q-16 -16 -39 -17q-23 0 -39 17l-301 299 l-299 -299q-16 -16 -39 -17q-18 0 -39 17l-53 53q-16 20 -16 39z" />
<glyph unicode="&#xd8;" horiz-adv-x="1411" d="M16 424v57q0 29 10.5 44.5t34.5 23.5l78 31l-2 127q0 51 4 182q4 162 71 290t192.5 201.5t302.5 73.5q225 0 368.5 -120t181.5 -316l70 26q14 6 23 7q18 0 30.5 -12.5t12.5 -30.5v-58q0 -27 -10.5 -42t-34.5 -25l-76 -29q4 -106 4 -154q0 -45 -4 -155q-6 -162 -72.5 -290 t-192.5 -201.5t-300 -73.5q-225 0 -367.5 118.5t-183.5 317.5l-74 -29q-14 -6 -23 -6q-18 0 -30.5 12.5t-12.5 30.5zM332 655l741 289q-20 160 -118.5 243t-247.5 83q-164 0 -264.5 -96.5t-106.5 -284.5q-4 -84 -4 -234zM340 487q18 -160 116.5 -241.5t250.5 -81.5 q164 0 264 96t106 285q2 59 2 166v67z" />
<glyph unicode="&#xd9;" horiz-adv-x="1429" d="M164 559v819q0 23 16.5 39.5t38.5 16.5h84q23 0 39 -16.5t16 -39.5v-829q0 -197 93.5 -296t263.5 -99t264 99t94 296v829q0 23 16.5 39.5t38.5 16.5h82q23 0 39.5 -16.5t16.5 -39.5v-819q0 -266 -136.5 -422.5t-414.5 -156.5q-283 0 -417 156.5t-134 422.5zM379 1782 q0 18 10 29.5t29 11.5h161q25 0 39.5 -7.5t36.5 -31.5l156 -189q10 -10 10 -26q0 -33 -33 -33h-86q-29 0 -46 8t-40 27l-227 186q-10 10 -10 25z" />
<glyph unicode="&#xda;" horiz-adv-x="1429" d="M164 559v819q0 23 16.5 39.5t38.5 16.5h84q23 0 39 -16.5t16 -39.5v-829q0 -197 93.5 -296t263.5 -99t264 99t94 296v829q0 23 16.5 39.5t38.5 16.5h82q23 0 39.5 -16.5t16.5 -39.5v-819q0 -266 -136.5 -422.5t-414.5 -156.5q-283 0 -417 156.5t-134 422.5zM619 1569 q0 16 10 26l156 189q22 24 36.5 31.5t38.5 7.5h162q18 0 28.5 -11.5t10.5 -29.5q0 -14 -10 -25l-228 -186q-23 -18 -40 -26.5t-46 -8.5h-86q-33 0 -32 33z" />
<glyph unicode="&#xdb;" horiz-adv-x="1429" d="M164 559v819q0 23 16.5 39.5t38.5 16.5h84q23 0 39 -16.5t16 -39.5v-829q0 -197 93.5 -296t263.5 -99t264 99t94 296v829q0 23 16.5 39.5t38.5 16.5h82q23 0 39.5 -16.5t16.5 -39.5v-819q0 -266 -136.5 -422.5t-414.5 -156.5q-283 0 -417 156.5t-134 422.5zM409 1569 q0 16 10 26l189 189q20 23 36.5 31t39.5 8h61q23 0 39 -8.5t37 -30.5l188 -189q10 -10 10 -26q0 -33 -32 -33h-54q-18 0 -30.5 5t-32.5 18l-156 104l-155 -104q-20 -12 -32.5 -17.5t-31.5 -5.5h-53q-33 0 -33 33z" />
<glyph unicode="&#xdc;" horiz-adv-x="1429" d="M164 559v819q0 23 16.5 39.5t38.5 16.5h84q23 0 39 -16.5t16 -39.5v-829q0 -197 93.5 -296t263.5 -99t264 99t94 296v829q0 23 16.5 39.5t38.5 16.5h82q23 0 39.5 -16.5t16.5 -39.5v-819q0 -266 -136.5 -422.5t-414.5 -156.5q-283 0 -417 156.5t-134 422.5zM385 1591v117 q0 23 16.5 39t38.5 16h117q23 0 39 -16t16 -39v-117q0 -22 -16 -38.5t-39 -16.5h-117q-23 0 -39 16.5t-16 38.5zM817 1591v117q0 23 16.5 39t39.5 16h116q23 0 39.5 -16t16.5 -39v-117q0 -22 -16.5 -38.5t-39.5 -16.5h-116q-23 0 -39.5 16.5t-16.5 38.5z" />
<glyph unicode="&#xdd;" horiz-adv-x="1316" d="M61 1389q0 18 13.5 31.5t31.5 13.5h89q37 0 54 -13.5t32 -38.5l376 -651l379 651q14 25 31.5 38.5t54.5 13.5h88q18 0 31.5 -13.5t13.5 -31.5q0 -10 -10 -29l-489 -825v-480q0 -22 -16.5 -38.5t-39.5 -16.5h-84q-23 0 -39 16.5t-16 38.5v480l-489 825q-10 18 -11 29z M555 1569q0 16 10 26l156 189q22 24 36.5 31.5t38.5 7.5h162q18 0 28.5 -11.5t10.5 -29.5q0 -14 -10 -25l-228 -186q-23 -18 -40 -26.5t-46 -8.5h-86q-33 0 -32 33z" />
<glyph unicode="&#xde;" horiz-adv-x="1318" d="M176 55v1323q0 23 16.5 39.5t38.5 16.5h84q23 0 39.5 -16.5t16.5 -39.5v-227h377q213 0 353 -110.5t140 -323.5q0 -143 -66.5 -243.5t-178 -150t-248.5 -49.5h-377v-219q0 -23 -16.5 -39t-39.5 -16h-84q-23 0 -39 16.5t-16 38.5zM371 459h366q150 0 230 64.5t80 193.5 q0 250 -310 250h-366v-508z" />
<glyph unicode="&#xdf;" horiz-adv-x="1200" d="M154 55v930q0 135 56 242.5t157.5 167t232.5 59.5q129 0 230.5 -53t159 -140t57.5 -186q0 -184 -132 -295q94 -63 139.5 -147t45.5 -195q0 -203 -110.5 -320.5t-360.5 -117.5h-111q-23 0 -39 16.5t-16 38.5v66q0 23 16.5 39t38.5 16h103q292 0 292 252q0 115 -68.5 183.5 t-223.5 68.5h-113q-20 0 -32.5 12.5t-12.5 32.5v86q0 20 12 32.5t33 12.5h102q129 0 189.5 58.5t60.5 150.5q0 94 -69.5 153.5t-190.5 59.5q-125 0 -192.5 -80t-67.5 -233v-910q0 -23 -16.5 -39t-38.5 -16h-76q-23 0 -39 16.5t-16 38.5z" />
<glyph unicode="&#xe0;" horiz-adv-x="1118" d="M78 268q0 154 114.5 241t305.5 118l288 47v26q0 100 -66.5 154.5t-172.5 54.5q-82 0 -128 -27.5t-87 -82.5q-12 -16 -26.5 -22.5t-39.5 -6.5h-61q-23 0 -40.5 16.5t-14.5 38.5q6 61 60 122t144 99.5t193 38.5q190 0 308 -106.5t118 -298.5v-625q0 -23 -16.5 -39 t-38.5 -16h-76q-23 0 -39.5 16.5t-16.5 38.5v84q-33 -74 -139 -116.5t-213 -42.5q-104 0 -186 37.5t-126 103t-44 147.5zM217 1464q0 18 10.5 29.5t28.5 11.5h152q25 0 39 -7t36 -32l156 -188q10 -11 10 -27q0 -33 -33 -32h-75q-29 0 -46.5 8t-39.5 26l-228 187 q-10 10 -10 24zM264 289q0 -51 47 -92t144 -41q147 0 239 84t92 219v51l-241 -39q-133 -20 -207 -66.5t-74 -115.5z" />
<glyph unicode="&#xe1;" horiz-adv-x="1118" d="M78 268q0 154 114.5 241t305.5 118l288 47v26q0 100 -66.5 154.5t-172.5 54.5q-82 0 -128 -27.5t-87 -82.5q-12 -16 -26.5 -22.5t-39.5 -6.5h-61q-23 0 -40.5 16.5t-14.5 38.5q6 61 60 122t144 99.5t193 38.5q190 0 308 -106.5t118 -298.5v-625q0 -23 -16.5 -39 t-38.5 -16h-76q-23 0 -39.5 16.5t-16.5 38.5v84q-33 -74 -139 -116.5t-213 -42.5q-104 0 -186 37.5t-126 103t-44 147.5zM264 289q0 -51 47 -92t144 -41q147 0 239 84t92 219v51l-241 -39q-133 -20 -207 -66.5t-74 -115.5zM444 1251q0 16 10 27l156 188q23 25 37 32t39 7 h151q18 0 28.5 -11t10.5 -30q0 -14 -10 -24l-227 -187q-23 -18 -40.5 -26t-45.5 -8h-76q-33 0 -33 32z" />
<glyph unicode="&#xe2;" horiz-adv-x="1118" d="M78 268q0 154 114.5 241t305.5 118l288 47v26q0 100 -66.5 154.5t-172.5 54.5q-82 0 -128 -27.5t-87 -82.5q-12 -16 -26.5 -22.5t-39.5 -6.5h-61q-23 0 -40.5 16.5t-14.5 38.5q6 61 60 122t144 99.5t193 38.5q190 0 308 -106.5t118 -298.5v-625q0 -23 -16.5 -39 t-38.5 -16h-76q-23 0 -39.5 16.5t-16.5 38.5v84q-33 -74 -139 -116.5t-213 -42.5q-104 0 -186 37.5t-126 103t-44 147.5zM249 1251q0 16 11 27l188 188q20 23 36.5 31t39.5 8h41q22 0 38.5 -8t37.5 -31l188 -188q10 -10 10 -27q0 -33 -33 -32h-43q-18 0 -30.5 5t-32.5 17 l-156 105l-155 -105q-20 -12 -32.5 -17t-31.5 -5h-43q-33 0 -33 32zM264 289q0 -51 47 -92t144 -41q147 0 239 84t92 219v51l-241 -39q-133 -20 -207 -66.5t-74 -115.5z" />
<glyph unicode="&#xe3;" horiz-adv-x="1118" d="M78 268q0 154 114.5 241t305.5 118l288 47v26q0 100 -66.5 154.5t-172.5 54.5q-82 0 -128 -27.5t-87 -82.5q-12 -16 -26.5 -22.5t-39.5 -6.5h-61q-23 0 -40.5 16.5t-14.5 38.5q6 61 60 122t144 99.5t193 38.5q190 0 308 -106.5t118 -298.5v-625q0 -23 -16.5 -39 t-38.5 -16h-76q-23 0 -39.5 16.5t-16.5 38.5v84q-33 -74 -139 -116.5t-213 -42.5q-104 0 -186 37.5t-126 103t-44 147.5zM246 1257q0 37 19.5 83t58.5 80t98 34q45 0 76 -10t66 -29q18 -10 38.5 -18t40.5 -8q23 0 34 8t20 22q8 12 15 18.5t19 6.5h76q18 0 28.5 -11.5 t10.5 -27.5q0 -37 -19.5 -83t-58.5 -80t-98 -34q-45 0 -74.5 10.5t-70.5 30.5q-18 10 -38 17.5t-38 7.5q-23 0 -34 -8.5t-19 -22.5q-8 -12 -15.5 -18t-19.5 -6h-76q-18 0 -28.5 11t-10.5 27zM264 289q0 -51 47 -92t144 -41q147 0 239 84t92 219v51l-241 -39 q-133 -20 -207 -66.5t-74 -115.5z" />
<glyph unicode="&#xe4;" horiz-adv-x="1118" d="M78 268q0 154 114.5 241t305.5 118l288 47v26q0 100 -66.5 154.5t-172.5 54.5q-82 0 -128 -27.5t-87 -82.5q-12 -16 -26.5 -22.5t-39.5 -6.5h-61q-23 0 -40.5 16.5t-14.5 38.5q6 61 60 122t144 99.5t193 38.5q190 0 308 -106.5t118 -298.5v-625q0 -23 -16.5 -39 t-38.5 -16h-76q-23 0 -39.5 16.5t-16.5 38.5v84q-33 -74 -139 -116.5t-213 -42.5q-104 0 -186 37.5t-126 103t-44 147.5zM246 1284v117q0 23 16.5 39t38.5 16h117q23 0 39 -16.5t16 -38.5v-117q0 -22 -16 -38.5t-39 -16.5h-117q-23 0 -39 16.5t-16 38.5zM264 289 q0 -51 47 -92t144 -41q147 0 239 84t92 219v51l-241 -39q-133 -20 -207 -66.5t-74 -115.5zM617 1284v117q0 23 16.5 39t38.5 16h117q23 0 39 -16.5t16 -38.5v-117q0 -22 -16.5 -38.5t-38.5 -16.5h-117q-23 0 -39 16.5t-16 38.5z" />
<glyph unicode="&#xe5;" horiz-adv-x="1118" d="M78 268q0 154 114.5 241t305.5 118l288 47v26q0 100 -66.5 154.5t-172.5 54.5q-82 0 -128 -27.5t-87 -82.5q-12 -16 -26.5 -22.5t-39.5 -6.5h-61q-23 0 -40.5 16.5t-14.5 38.5q6 61 60 122t144 99.5t193 38.5q190 0 308 -106.5t118 -298.5v-625q0 -23 -16.5 -39 t-38.5 -16h-76q-23 0 -39.5 16.5t-16.5 38.5v84q-33 -74 -139 -116.5t-213 -42.5q-104 0 -186 37.5t-126 103t-44 147.5zM264 289q0 -51 47 -92t144 -41q147 0 239 84t92 219v51l-241 -39q-133 -20 -207 -66.5t-74 -115.5zM371 1372q0 72 50 118t124 46t124 -46t50 -118 t-50 -118t-124 -46t-124 46t-50 118zM484 1372q0 -27 17.5 -44t43.5 -17q27 0 44.5 17.5t17.5 43.5q0 27 -17.5 44.5t-44.5 17.5t-44 -17.5t-17 -44.5z" />
<glyph unicode="&#xe6;" horiz-adv-x="1828" d="M78 268q0 154 114.5 241t305.5 118l288 47v26q0 100 -66.5 154.5t-172.5 54.5q-82 0 -128 -27.5t-87 -82.5q-12 -16 -26.5 -22.5t-39.5 -6.5h-61q-23 0 -40.5 16.5t-14.5 38.5q6 61 60 122t144 99.5t193 38.5q117 0 210 -42t148 -121q61 78 152.5 120.5t204.5 42.5 q219 0 346 -139t127 -379v-55q0 -23 -16.5 -39t-39.5 -16h-704v-13q4 -135 83 -211.5t204 -76.5q102 0 158.5 26.5t101.5 75.5q16 16 29.5 22.5t35.5 6.5h62q25 0 41 -16.5t14 -39.5q-8 -55 -60.5 -113.5t-149.5 -98t-232 -39.5q-125 0 -223.5 54t-161.5 152 q-78 -102 -181.5 -154t-261.5 -52q-104 0 -186 37.5t-126 103t-44 147.5zM264 289q0 -51 47 -92t144 -41q147 0 239 84t92 219v51l-241 -39q-133 -20 -207 -66.5t-74 -115.5zM975 629h575v6q0 125 -78.5 199.5t-209.5 74.5q-119 0 -202 -75.5t-85 -198.5v-6z" />
<glyph unicode="&#xe7;" horiz-adv-x="1136" d="M102 545q0 49 2 69q18 209 141.5 340t338.5 131q141 0 244.5 -54t157.5 -133t58 -148q2 -23 -15 -39.5t-40 -16.5h-61q-25 0 -39.5 12.5t-28.5 43.5q-72 160 -276 159q-113 0 -197 -75.5t-96 -229.5q-2 -23 -2 -74q0 -47 2 -69q14 -154 97 -229.5t196 -75.5 q204 -1 276 159q14 31 28.5 43.5t39.5 12.5h61q23 0 39 -15.5t16 -36.5q0 -70 -53 -147.5t-154.5 -132.5t-238.5 -59l-43 -95q27 16 72 17q68 0 111.5 -49.5t43.5 -122.5q0 -80 -50 -130.5t-152 -50.5q-59 0 -112.5 29t-53.5 57q0 10 8 19l29 27q16 12 26 12t39 -19.5 t64 -19.5q88 0 88 72t-88 71q-27 0 -51.5 -9t-32.5 -9q-12 0 -27 14l-35 37q-8 8 -8 20q0 16 12 41l41 97q-172 31 -269 156.5t-106 306.5q-2 25 -2 94z" />
<glyph unicode="&#xe8;" d="M100 541q0 33 4 94q12 127 73 229.5t162 161.5t234 59q220 0 347 -139t127 -379v-55q0 -23 -16.5 -39t-39.5 -16h-704v-13q4 -135 83 -211.5t203 -76.5q102 0 158.5 26.5t102.5 75.5q16 16 29.5 22.5t35.5 6.5h62q25 0 41 -16.5t14 -39.5q-8 -55 -60.5 -113.5t-149.5 -98 t-233 -39.5q-131 0 -233 60t-162.5 166.5t-73.5 239.5q-4 61 -4 95zM250 1464q0 18 10.5 29.5t28.5 11.5h152q25 0 39 -7t36 -32l156 -188q10 -11 10 -27q0 -33 -33 -32h-75q-29 0 -46.5 8t-39.5 26l-228 187q-10 10 -10 24zM287 629h575v6q0 125 -78.5 199.5t-210.5 74.5 q-119 0 -201.5 -75.5t-84.5 -198.5v-6z" />
<glyph unicode="&#xe9;" d="M100 541q0 33 4 94q12 127 73 229.5t162 161.5t234 59q220 0 347 -139t127 -379v-55q0 -23 -16.5 -39t-39.5 -16h-704v-13q4 -135 83 -211.5t203 -76.5q102 0 158.5 26.5t102.5 75.5q16 16 29.5 22.5t35.5 6.5h62q25 0 41 -16.5t14 -39.5q-8 -55 -60.5 -113.5t-149.5 -98 t-233 -39.5q-131 0 -233 60t-162.5 166.5t-73.5 239.5q-4 61 -4 95zM287 629h575v6q0 125 -78.5 199.5t-210.5 74.5q-119 0 -201.5 -75.5t-84.5 -198.5v-6zM471 1251q0 16 10 27l156 188q23 25 37 32t39 7h151q18 0 28.5 -11t10.5 -30q0 -14 -10 -24l-227 -187 q-23 -18 -40.5 -26t-45.5 -8h-76q-33 0 -33 32z" />
<glyph unicode="&#xea;" d="M100 541q0 33 4 94q12 127 73 229.5t162 161.5t234 59q220 0 347 -139t127 -379v-55q0 -23 -16.5 -39t-39.5 -16h-704v-13q4 -135 83 -211.5t203 -76.5q102 0 158.5 26.5t102.5 75.5q16 16 29.5 22.5t35.5 6.5h62q25 0 41 -16.5t14 -39.5q-8 -55 -60.5 -113.5t-149.5 -98 t-233 -39.5q-131 0 -233 60t-162.5 166.5t-73.5 239.5q-4 61 -4 95zM276 1251q0 16 11 27l188 188q20 23 36.5 31t39.5 8h41q22 0 38.5 -8t37.5 -31l188 -188q10 -10 10 -27q0 -33 -33 -32h-43q-18 0 -30.5 5t-32.5 17l-156 105l-155 -105q-20 -12 -32.5 -17t-31.5 -5h-43 q-33 0 -33 32zM287 629h575v6q0 125 -78.5 199.5t-210.5 74.5q-119 0 -201.5 -75.5t-84.5 -198.5v-6z" />
<glyph unicode="&#xeb;" d="M100 541q0 33 4 94q12 127 73 229.5t162 161.5t234 59q220 0 347 -139t127 -379v-55q0 -23 -16.5 -39t-39.5 -16h-704v-13q4 -135 83 -211.5t203 -76.5q102 0 158.5 26.5t102.5 75.5q16 16 29.5 22.5t35.5 6.5h62q25 0 41 -16.5t14 -39.5q-8 -55 -60.5 -113.5t-149.5 -98 t-233 -39.5q-131 0 -233 60t-162.5 166.5t-73.5 239.5q-4 61 -4 95zM272 1284v117q0 23 16.5 39t38.5 16h117q23 0 39 -16.5t16 -38.5v-117q0 -22 -16 -38.5t-39 -16.5h-117q-23 0 -39 16.5t-16 38.5zM287 629h575v6q0 125 -78.5 199.5t-210.5 74.5q-119 0 -201.5 -75.5 t-84.5 -198.5v-6zM643 1284v117q0 23 16.5 39t38.5 16h117q23 0 39 -16.5t16 -38.5v-117q0 -22 -16.5 -38.5t-38.5 -16.5h-117q-23 0 -39 16.5t-16 38.5z" />
<glyph unicode="&#xec;" horiz-adv-x="493" d="M-86 1464q0 18 10.5 29.5t28.5 11.5h152q25 0 39 -7t36 -32l156 -188q10 -11 10 -27q0 -33 -33 -32h-75q-29 0 -46.5 8t-39.5 26l-228 187q-10 10 -10 24zM154 55v955q0 23 16 39t39 16h76q23 0 39 -16.5t16 -38.5v-955q0 -22 -16.5 -38.5t-38.5 -16.5h-76 q-23 0 -39 16.5t-16 38.5z" />
<glyph unicode="&#xed;" horiz-adv-x="493" d="M141 1251q0 16 10 27l156 188q23 25 37 32t39 7h151q18 0 28.5 -11t10.5 -30q0 -14 -10 -24l-227 -187q-23 -18 -40.5 -26t-45.5 -8h-76q-33 0 -33 32zM154 55v955q0 23 16 39t39 16h76q23 0 39 -16.5t16 -38.5v-955q0 -22 -16.5 -38.5t-38.5 -16.5h-76q-23 0 -39 16.5 t-16 38.5z" />
<glyph unicode="&#xee;" horiz-adv-x="493" d="M-50 1251q0 16 11 27l188 188q20 23 36.5 31t39.5 8h41q22 0 38.5 -8t37.5 -31l188 -188q10 -10 10 -27q0 -33 -33 -32h-43q-18 0 -30.5 5t-32.5 17l-156 105l-155 -105q-20 -12 -32.5 -17t-31.5 -5h-43q-33 0 -33 32zM154 55v955q0 23 16 39t39 16h76q23 0 39 -16.5 t16 -38.5v-955q0 -22 -16.5 -38.5t-38.5 -16.5h-76q-23 0 -39 16.5t-16 38.5z" />
<glyph unicode="&#xef;" horiz-adv-x="493" d="M-53 1284v117q0 23 16.5 39t38.5 16h117q23 0 39 -16.5t16 -38.5v-117q0 -22 -16 -38.5t-39 -16.5h-117q-23 0 -39 16.5t-16 38.5zM154 55v955q0 23 16 39t39 16h76q23 0 39 -16.5t16 -38.5v-955q0 -22 -16.5 -38.5t-38.5 -16.5h-76q-23 0 -39 16.5t-16 38.5zM318 1284 v117q0 23 16.5 39t38.5 16h117q23 0 39 -16.5t16 -38.5v-117q0 -22 -16.5 -38.5t-38.5 -16.5h-117q-23 0 -39 16.5t-16 38.5z" />
<glyph unicode="&#xf0;" horiz-adv-x="1144" d="M96 471q0 152 59.5 263.5t166 170t243.5 58.5q119 0 223 -50q-38 105 -112 197l-187 -74q-14 -6 -22 -6q-18 0 -30.5 12.5t-12.5 30.5v57q0 29 10 44.5t35 23.5l92 35q-86 78 -131 115q-35 27 -35 45t11.5 29.5t29.5 11.5h107q41 0 73 -27q82 -74 115 -107l207 82 q16 6 23 7q18 0 30.5 -12.5t12.5 -30.5v-58q0 -27 -10.5 -42t-35.5 -25l-114 -45q96 -125 143 -289t47 -416q0 -143 -60.5 -255t-167 -174t-241.5 -62t-241.5 62t-167 174t-60.5 255zM283 471q0 -145 71.5 -230t210.5 -85t211 85t72 230t-71.5 230t-211.5 85 q-139 0 -210.5 -85t-71.5 -230z" />
<glyph unicode="&#xf1;" horiz-adv-x="1243" d="M154 55v955q0 23 16 39t39 16h76q23 0 39 -16.5t16 -38.5v-64q45 59 124 99t193 40q129 0 229.5 -55t157 -158.5t56.5 -244.5v-572q0 -22 -16.5 -38.5t-39.5 -16.5h-75q-23 0 -39.5 16.5t-16.5 38.5v541q0 154 -75.5 233.5t-210.5 79.5q-133 0 -210 -79.5t-77 -233.5 v-541q0 -23 -16.5 -39t-38.5 -16h-76q-23 0 -39 16.5t-16 38.5zM328 1257q0 37 19.5 83t58.5 80t98 34q45 0 76 -10t66 -29q18 -10 38.5 -18t40.5 -8q23 0 34 8t20 22q8 12 15 18.5t19 6.5h76q18 0 28.5 -11.5t10.5 -27.5q0 -37 -19.5 -83t-58.5 -80t-98 -34 q-45 0 -74.5 10.5t-70.5 30.5q-18 10 -38 17.5t-38 7.5q-23 0 -34 -8.5t-19 -22.5q-8 -12 -15.5 -18t-19.5 -6h-76q-18 0 -28.5 11t-10.5 27z" />
<glyph unicode="&#xf2;" horiz-adv-x="1181" d="M102 530q0 76 2 99q16 209 143.5 332.5t342.5 123.5t342 -123.5t143 -332.5q4 -46 4 -99q0 -49 -4 -94q-18 -209 -144 -332.5t-341 -123.5t-341 123.5t-145 332.5q-2 23 -2 94zM262 1464q0 18 10.5 29.5t28.5 11.5h152q25 0 39 -7t36 -32l156 -188q10 -11 10 -27 q0 -33 -33 -32h-75q-29 0 -46.5 8t-39.5 26l-228 187q-10 10 -10 24zM289 530q0 -61 2 -84q12 -131 87 -210.5t212 -79.5t212 79.5t87 210.5q4 45 4 84t-4 88q-12 132 -87 211.5t-212 79.5t-212 -79.5t-87 -211.5q-2 -25 -2 -88z" />
<glyph unicode="&#xf3;" horiz-adv-x="1181" d="M102 530q0 76 2 99q16 209 143.5 332.5t342.5 123.5t342 -123.5t143 -332.5q4 -46 4 -99q0 -49 -4 -94q-18 -209 -144 -332.5t-341 -123.5t-341 123.5t-145 332.5q-2 23 -2 94zM289 530q0 -61 2 -84q12 -131 87 -210.5t212 -79.5t212 79.5t87 210.5q4 45 4 84t-4 88 q-12 132 -87 211.5t-212 79.5t-212 -79.5t-87 -211.5q-2 -25 -2 -88zM485 1251q0 16 10 27l156 188q23 25 37 32t39 7h151q18 0 28.5 -11t10.5 -30q0 -14 -10 -24l-227 -187q-23 -18 -40.5 -26t-45.5 -8h-76q-33 0 -33 32z" />
<glyph unicode="&#xf4;" horiz-adv-x="1181" d="M102 530q0 76 2 99q16 209 143.5 332.5t342.5 123.5t342 -123.5t143 -332.5q4 -46 4 -99q0 -49 -4 -94q-18 -209 -144 -332.5t-341 -123.5t-341 123.5t-145 332.5q-2 23 -2 94zM289 530q0 -61 2 -84q12 -131 87 -210.5t212 -79.5t212 79.5t87 210.5q4 45 4 84t-4 88 q-12 132 -87 211.5t-212 79.5t-212 -79.5t-87 -211.5q-2 -25 -2 -88zM295 1251q0 16 11 27l188 188q20 23 36.5 31t39.5 8h41q22 0 38.5 -8t37.5 -31l188 -188q10 -10 10 -27q0 -33 -33 -32h-43q-18 0 -30.5 5t-32.5 17l-156 105l-155 -105q-20 -12 -32.5 -17t-31.5 -5h-43 q-33 0 -33 32z" />
<glyph unicode="&#xf5;" horiz-adv-x="1181" d="M102 530q0 76 2 99q16 209 143.5 332.5t342.5 123.5t342 -123.5t143 -332.5q4 -46 4 -99q0 -49 -4 -94q-18 -209 -144 -332.5t-341 -123.5t-341 123.5t-145 332.5q-2 23 -2 94zM289 530q0 -61 2 -84q12 -131 87 -210.5t212 -79.5t212 79.5t87 210.5q4 45 4 84t-4 88 q-12 132 -87 211.5t-212 79.5t-212 -79.5t-87 -211.5q-2 -25 -2 -88zM291 1257q0 37 19.5 83t58.5 80t98 34q45 0 76 -10t66 -29q18 -10 38.5 -18t40.5 -8q23 0 34 8t20 22q8 12 15 18.5t19 6.5h76q18 0 28.5 -11.5t10.5 -27.5q0 -37 -19.5 -83t-58.5 -80t-98 -34 q-45 0 -74.5 10.5t-70.5 30.5q-18 10 -38 17.5t-38 7.5q-23 0 -34 -8.5t-19 -22.5q-8 -12 -15.5 -18t-19.5 -6h-76q-18 0 -28.5 11t-10.5 27z" />
<glyph unicode="&#xf6;" horiz-adv-x="1181" d="M102 530q0 76 2 99q16 209 143.5 332.5t342.5 123.5t342 -123.5t143 -332.5q4 -46 4 -99q0 -49 -4 -94q-18 -209 -144 -332.5t-341 -123.5t-341 123.5t-145 332.5q-2 23 -2 94zM289 530q0 -61 2 -84q12 -131 87 -210.5t212 -79.5t212 79.5t87 210.5q4 45 4 84t-4 88 q-12 132 -87 211.5t-212 79.5t-212 -79.5t-87 -211.5q-2 -25 -2 -88zM291 1284v117q0 23 16.5 39t38.5 16h117q23 0 39 -16.5t16 -38.5v-117q0 -22 -16 -38.5t-39 -16.5h-117q-23 0 -39 16.5t-16 38.5zM662 1284v117q0 23 16.5 39t38.5 16h117q23 0 39 -16.5t16 -38.5v-117 q0 -22 -16.5 -38.5t-38.5 -16.5h-117q-23 0 -39 16.5t-16 38.5z" />
<glyph unicode="&#xf7;" horiz-adv-x="1095" d="M109 582v65q0 23 16 39t39 16h768q23 0 39 -16t16 -39v-65q0 -23 -16.5 -39.5t-38.5 -16.5h-768q-23 0 -39 16.5t-16 39.5zM424 188v138q0 23 16.5 39t38.5 16h137q23 0 39.5 -16.5t16.5 -38.5v-138q0 -23 -16.5 -39t-39.5 -16h-137q-23 0 -39 16.5t-16 38.5zM424 905 v137q0 23 16.5 39.5t38.5 16.5h137q23 0 39.5 -16.5t16.5 -39.5v-137q0 -23 -16.5 -39t-39.5 -16h-137q-23 0 -39 16.5t-16 38.5z" />
<glyph unicode="&#xf8;" horiz-adv-x="1243" d="M25 276v58q0 29 10 44t35 23l67 27v8q-2 23 -2 94q0 76 2 99q16 209 143.5 332.5t342.5 123.5q166 0 281.5 -77.5t166.5 -214.5l82 32q16 6 23 6q18 0 30.5 -12t12.5 -31v-57q0 -27 -10.5 -42t-34.5 -25l-68 -27l2 -8q4 -45 4 -99q0 -49 -4 -94q-18 -209 -144 -332.5 t-341 -123.5q-168 0 -284 76.5t-167 215.5l-82 -32q-16 -6 -22 -7q-18 0 -30.5 12.5t-12.5 30.5zM319 500l580 225q-33 86 -102.5 135t-173.5 49q-137 0 -212 -79.5t-87 -211.5q-4 -33 -5 -118zM346 340q31 -86 100.5 -135t176.5 -49q137 0 211.5 79.5t87.5 210.5 q4 68 2 119z" />
<glyph unicode="&#xf9;" horiz-adv-x="1222" d="M143 438v572q0 22 16.5 38.5t39.5 16.5h75q23 0 39.5 -16.5t16.5 -38.5v-541q0 -156 70.5 -234.5t205.5 -78.5q131 0 204 79.5t73 233.5v541q0 23 16 39t39 16h76q23 0 39 -16.5t16 -38.5v-955q0 -23 -16.5 -39t-38.5 -16h-76q-23 0 -39 16.5t-16 38.5v64 q-106 -139 -308 -139q-197 0 -314.5 122.5t-117.5 335.5zM274 1464q0 18 10.5 29.5t28.5 11.5h152q25 0 39 -7t36 -32l156 -188q10 -11 10 -27q0 -33 -33 -32h-75q-29 0 -46.5 8t-39.5 26l-228 187q-10 10 -10 24z" />
<glyph unicode="&#xfa;" horiz-adv-x="1222" d="M143 438v572q0 22 16.5 38.5t39.5 16.5h75q23 0 39.5 -16.5t16.5 -38.5v-541q0 -156 70.5 -234.5t205.5 -78.5q131 0 204 79.5t73 233.5v541q0 23 16 39t39 16h76q23 0 39 -16.5t16 -38.5v-955q0 -23 -16.5 -39t-38.5 -16h-76q-23 0 -39 16.5t-16 38.5v64 q-106 -139 -308 -139q-197 0 -314.5 122.5t-117.5 335.5zM493 1251q0 16 10 27l156 188q23 25 37 32t39 7h151q18 0 28.5 -11t10.5 -30q0 -14 -10 -24l-227 -187q-23 -18 -40.5 -26t-45.5 -8h-76q-33 0 -33 32z" />
<glyph unicode="&#xfb;" horiz-adv-x="1222" d="M143 438v572q0 22 16.5 38.5t39.5 16.5h75q23 0 39.5 -16.5t16.5 -38.5v-541q0 -156 70.5 -234.5t205.5 -78.5q131 0 204 79.5t73 233.5v541q0 23 16 39t39 16h76q23 0 39 -16.5t16 -38.5v-955q0 -23 -16.5 -39t-38.5 -16h-76q-23 0 -39 16.5t-16 38.5v64 q-106 -139 -308 -139q-197 0 -314.5 122.5t-117.5 335.5zM311 1251q0 16 11 27l188 188q20 23 36.5 31t39.5 8h41q22 0 38.5 -8t37.5 -31l188 -188q10 -10 10 -27q0 -33 -33 -32h-43q-18 0 -30.5 5t-32.5 17l-156 105l-155 -105q-20 -12 -32.5 -17t-31.5 -5h-43 q-33 0 -33 32z" />
<glyph unicode="&#xfc;" horiz-adv-x="1222" d="M143 438v572q0 22 16.5 38.5t39.5 16.5h75q23 0 39.5 -16.5t16.5 -38.5v-541q0 -156 70.5 -234.5t205.5 -78.5q131 0 204 79.5t73 233.5v541q0 23 16 39t39 16h76q23 0 39 -16.5t16 -38.5v-955q0 -23 -16.5 -39t-38.5 -16h-76q-23 0 -39 16.5t-16 38.5v64 q-106 -139 -308 -139q-197 0 -314.5 122.5t-117.5 335.5zM307 1284v117q0 23 16.5 39t38.5 16h117q23 0 39 -16.5t16 -38.5v-117q0 -22 -16 -38.5t-39 -16.5h-117q-23 0 -39 16.5t-16 38.5zM678 1284v117q0 23 16.5 39t38.5 16h117q23 0 39 -16.5t16 -38.5v-117 q0 -22 -16.5 -38.5t-38.5 -16.5h-117q-23 0 -39 16.5t-16 38.5z" />
<glyph unicode="&#xfd;" d="M66 1016q0 20 14 34.5t35 14.5h84q41 0 59 -49l315 -697l320 697q18 49 59 49h84q20 0 34.5 -14.5t14.5 -34.5q0 -8 -2 -15l-616 -1341q-18 -49 -59 -49h-84q-20 0 -35 14.5t-15 34.5q0 8 2 14l197 428l-405 899q-2 6 -2 15zM465 1251q0 16 10 27l156 188q23 25 37 32 t39 7h151q18 0 28.5 -11t10.5 -30q0 -14 -10 -24l-227 -187q-23 -18 -40.5 -26t-45.5 -8h-76q-33 0 -33 32z" />
<glyph unicode="&#xfe;" horiz-adv-x="1226" d="M156 -334v1733q0 23 16 39t39 16h76q23 0 39 -16.5t16 -38.5v-453q104 139 317 139q127 0 230.5 -59t166 -170t68.5 -258q2 -20 2 -66q0 -47 -2 -67q-6 -147 -68.5 -257t-165 -169t-231.5 -59q-115 0 -193.5 39.5t-123.5 99.5v-453q0 -23 -16.5 -39t-38.5 -16h-76 q-23 0 -39 16.5t-16 38.5zM340 541l2 -82q6 -144 86 -223.5t211 -79.5q133 0 212 86t87 233q2 20 2 57t-2 58q-8 147 -87 233t-212 86q-127 0 -209 -78.5t-88 -209.5z" />
<glyph unicode="&#xff;" d="M66 1016q0 20 14 34.5t35 14.5h84q41 0 59 -49l315 -697l320 697q18 49 59 49h84q20 0 34.5 -14.5t14.5 -34.5q0 -8 -2 -15l-616 -1341q-18 -49 -59 -49h-84q-20 0 -35 14.5t-15 34.5q0 8 2 14l197 428l-405 899q-2 6 -2 15zM274 1284v117q0 23 16.5 39t38.5 16h117 q23 0 39 -16.5t16 -38.5v-117q0 -22 -16 -38.5t-39 -16.5h-117q-23 0 -39 16.5t-16 38.5zM645 1284v117q0 23 16.5 39t38.5 16h117q23 0 39 -16.5t16 -38.5v-117q0 -22 -16.5 -38.5t-38.5 -16.5h-117q-23 0 -39 16.5t-16 38.5z" />
<glyph unicode="&#x100;" horiz-adv-x="1392" d="M33 45q0 10 8 29l502 1292q27 68 92 68h123q66 0 92 -68l500 -1292q8 -18 8 -29q0 -18 -13.5 -31.5t-31.5 -13.5h-76q-61 0 -80 51l-106 273h-711l-107 -273q-18 -51 -79 -51h-76q-18 0 -31.5 13.5t-13.5 31.5zM407 1591v74q0 23 16.5 39t38.5 16h469q23 0 39.5 -16 t16.5 -39v-74q0 -23 -16.5 -39t-39.5 -16h-469q-22 0 -38.5 16.5t-16.5 38.5zM412 508h567l-283 731z" />
<glyph unicode="&#x101;" horiz-adv-x="1118" d="M78 268q0 154 114.5 241t305.5 118l288 47v26q0 100 -66.5 154.5t-172.5 54.5q-82 0 -128 -27.5t-87 -82.5q-12 -16 -26.5 -22.5t-39.5 -6.5h-61q-23 0 -40.5 16.5t-14.5 38.5q6 61 60 122t144 99.5t193 38.5q190 0 308 -106.5t118 -298.5v-625q0 -23 -16.5 -39 t-38.5 -16h-76q-23 0 -39.5 16.5t-16.5 38.5v84q-33 -74 -139 -116.5t-213 -42.5q-104 0 -186 37.5t-126 103t-44 147.5zM264 289q0 -51 47 -92t144 -41q147 0 239 84t92 219v51l-241 -39q-133 -20 -207 -66.5t-74 -115.5zM266 1294v66q0 23 16.5 39t38.5 16h449 q23 0 39 -16.5t16 -38.5v-66q0 -23 -16.5 -39t-38.5 -16h-449q-22 0 -38.5 16.5t-16.5 38.5z" />
<glyph unicode="&#x102;" horiz-adv-x="1392" d="M33 45q0 10 8 29l502 1292q27 68 92 68h123q66 0 92 -68l500 -1292q8 -18 8 -29q0 -18 -13.5 -31.5t-31.5 -13.5h-76q-61 0 -80 51l-106 273h-711l-107 -273q-18 -51 -79 -51h-76q-18 0 -31.5 13.5t-13.5 31.5zM412 508h567l-283 731zM432 1784q0 16 10.5 27.5t28.5 11.5 h66q18 0 28 -11.5t10 -27.5q0 -53 33 -88t88 -35t88 35t33 88q0 16 10.5 27.5t28.5 11.5h66q18 0 28.5 -11.5t10.5 -27.5q0 -104 -68 -181t-197 -77t-196.5 76.5t-67.5 181.5z" />
<glyph unicode="&#x103;" horiz-adv-x="1118" d="M78 268q0 154 114.5 241t305.5 118l288 47v26q0 100 -66.5 154.5t-172.5 54.5q-82 0 -128 -27.5t-87 -82.5q-12 -16 -26.5 -22.5t-39.5 -6.5h-61q-23 0 -40.5 16.5t-14.5 38.5q6 61 60 122t144 99.5t193 38.5q190 0 308 -106.5t118 -298.5v-625q0 -23 -16.5 -39 t-38.5 -16h-76q-23 0 -39.5 16.5t-16.5 38.5v84q-33 -74 -139 -116.5t-213 -42.5q-104 0 -186 37.5t-126 103t-44 147.5zM264 289q0 -51 47 -92t144 -41q147 0 239 84t92 219v51l-241 -39q-133 -20 -207 -66.5t-74 -115.5zM291 1466q0 17 10.5 28t28.5 11h66q18 0 28 -11 t10 -28q0 -53 30 -88t81 -35t81 35t30 88q0 16 10 27.5t29 11.5h65q18 0 28.5 -11t10.5 -28q0 -102 -65.5 -180t-188.5 -78t-188.5 78t-65.5 180z" />
<glyph unicode="&#x104;" horiz-adv-x="1392" d="M33 45q0 10 8 29l502 1292q27 68 92 68h123q66 0 92 -68l500 -1292q8 -18 8 -29q0 -18 -13.5 -31.5t-31.5 -13.5h-58q-68 0 -101.5 -37t-33.5 -115t34 -114.5t101 -36.5h31q20 0 32.5 -12.5t12.5 -32.5v-58q0 -20 -12 -32.5t-33 -12.5h-39q-129 0 -211 79t-82 220 q0 104 46.5 175t125.5 104l-75 197h-711l-107 -273q-18 -51 -79 -51h-76q-18 0 -31.5 13.5t-13.5 31.5zM412 508h567l-283 731z" />
<glyph unicode="&#x105;" horiz-adv-x="1118" d="M78 268q0 154 114.5 241t305.5 118l288 47v26q0 100 -66.5 154.5t-172.5 54.5q-82 0 -128 -27.5t-87 -82.5q-12 -16 -26.5 -22.5t-39.5 -6.5h-61q-23 0 -40.5 16.5t-14.5 38.5q6 61 60 122t144 99.5t193 38.5q190 0 308 -106.5t118 -298.5v-639q0 -25 -19 -41 q-18 -14 -49 -35q-51 -33 -75.5 -61.5t-24.5 -75.5q0 -63 28.5 -97t79.5 -34h13q20 0 32.5 -12.5t12.5 -32.5v-58q0 -20 -12.5 -32.5t-32.5 -12.5h-21q-125 0 -195.5 74t-70.5 205q0 78 44 136.5t103 96.5v78q-33 -74 -139 -116.5t-213 -42.5q-104 0 -186 37.5t-126 103 t-44 147.5zM264 289q0 -51 47 -92t144 -41q147 0 239 84t92 219v51l-241 -39q-133 -20 -207 -66.5t-74 -115.5z" />
<glyph unicode="&#x106;" horiz-adv-x="1366" d="M121 717q0 121 2 182q6 160 76.5 286t199.5 197.5t301 71.5q190 0 318.5 -73.5t190 -181t65.5 -208.5q0 -18 -13.5 -31.5t-31.5 -13.5h-94q-18 0 -34 12.5t-20 32.5q-29 123 -114.5 201t-266.5 78q-178 0 -277 -103.5t-106 -277.5q-2 -61 -2 -172t2 -172 q7 -174 106 -277.5t277 -103.5q180 0 266.5 77.5t114.5 200.5q4 20 19.5 32.5t34.5 12.5h94q18 0 31.5 -13t13.5 -32q-4 -100 -65.5 -207.5t-189.5 -181t-319 -73.5q-172 0 -301 71.5t-199.5 197.5t-76.5 286q-2 61 -2 182zM584 1569q0 16 10 26l156 189q22 24 36.5 31.5 t38.5 7.5h162q18 0 28.5 -11.5t10.5 -29.5q0 -14 -10 -25l-228 -186q-23 -18 -40 -26.5t-46 -8.5h-86q-33 0 -32 33z" />
<glyph unicode="&#x107;" horiz-adv-x="1136" d="M102 545q0 49 2 69q18 209 141.5 340t338.5 131q141 0 244.5 -54t157.5 -133t58 -148q2 -23 -15 -39.5t-40 -16.5h-61q-25 0 -39.5 12.5t-28.5 43.5q-72 160 -276 159q-113 0 -197 -75.5t-96 -229.5q-2 -23 -2 -74q0 -47 2 -69q14 -154 97 -229.5t196 -75.5 q204 -1 276 159q14 31 28.5 43.5t39.5 12.5h61q23 0 39 -15.5t16 -36.5q0 -70 -55 -149.5t-159.5 -134.5t-245.5 -55q-145 0 -252 61t-164 168.5t-64 241.5q-2 25 -2 94zM479 1251q0 16 10 27l156 188q23 25 37 32t39 7h151q18 0 28.5 -11t10.5 -30q0 -14 -10 -24l-227 -187 q-23 -18 -40.5 -26t-45.5 -8h-76q-33 0 -33 32z" />
<glyph unicode="&#x108;" horiz-adv-x="1366" d="M121 717q0 121 2 182q6 160 76.5 286t199.5 197.5t301 71.5q190 0 318.5 -73.5t190 -181t65.5 -208.5q0 -18 -13.5 -31.5t-31.5 -13.5h-94q-18 0 -34 12.5t-20 32.5q-29 123 -114.5 201t-266.5 78q-178 0 -277 -103.5t-106 -277.5q-2 -61 -2 -172t2 -172 q7 -174 106 -277.5t277 -103.5q180 0 266.5 77.5t114.5 200.5q4 20 19.5 32.5t34.5 12.5h94q18 0 31.5 -13t13.5 -32q-4 -100 -65.5 -207.5t-189.5 -181t-319 -73.5q-172 0 -301 71.5t-199.5 197.5t-76.5 286q-2 61 -2 182zM391 1569q0 16 10 26l189 189q20 23 36.5 31 t39.5 8h61q23 0 39 -8.5t37 -30.5l188 -189q10 -10 10 -26q0 -33 -32 -33h-54q-18 0 -30.5 5t-32.5 18l-156 104l-155 -104q-20 -12 -32.5 -17.5t-31.5 -5.5h-53q-33 0 -33 33z" />
<glyph unicode="&#x109;" horiz-adv-x="1136" d="M102 545q0 49 2 69q18 209 141.5 340t338.5 131q141 0 244.5 -54t157.5 -133t58 -148q2 -23 -15 -39.5t-40 -16.5h-61q-25 0 -39.5 12.5t-28.5 43.5q-72 160 -276 159q-113 0 -197 -75.5t-96 -229.5q-2 -23 -2 -74q0 -47 2 -69q14 -154 97 -229.5t196 -75.5 q204 -1 276 159q14 31 28.5 43.5t39.5 12.5h61q23 0 39 -15.5t16 -36.5q0 -70 -55 -149.5t-159.5 -134.5t-245.5 -55q-145 0 -252 61t-164 168.5t-64 241.5q-2 25 -2 94zM278 1251q0 16 11 27l188 188q20 23 36.5 31t39.5 8h41q22 0 38.5 -8t37.5 -31l188 -188 q10 -10 10 -27q0 -33 -33 -32h-43q-18 0 -30.5 5t-32.5 17l-156 105l-155 -105q-20 -12 -32.5 -17t-31.5 -5h-43q-33 0 -33 32z" />
<glyph unicode="&#x10a;" horiz-adv-x="1366" d="M121 717q0 121 2 182q6 160 76.5 286t199.5 197.5t301 71.5q190 0 318.5 -73.5t190 -181t65.5 -208.5q0 -18 -13.5 -31.5t-31.5 -13.5h-94q-18 0 -34 12.5t-20 32.5q-29 123 -114.5 201t-266.5 78q-178 0 -277 -103.5t-106 -277.5q-2 -61 -2 -172t2 -172 q7 -174 106 -277.5t277 -103.5q180 0 266.5 77.5t114.5 200.5q4 20 19.5 32.5t34.5 12.5h94q18 0 31.5 -13t13.5 -32q-4 -100 -65.5 -207.5t-189.5 -181t-319 -73.5q-172 0 -301 71.5t-199.5 197.5t-76.5 286q-2 61 -2 182zM571 1591v117q0 23 16.5 39t38.5 16h117 q23 0 39 -16t16 -39v-117q0 -22 -16 -38.5t-39 -16.5h-117q-23 0 -39 16.5t-16 38.5z" />
<glyph unicode="&#x10b;" horiz-adv-x="1136" d="M102 545q0 49 2 69q18 209 141.5 340t338.5 131q141 0 244.5 -54t157.5 -133t58 -148q2 -23 -15 -39.5t-40 -16.5h-61q-25 0 -39.5 12.5t-28.5 43.5q-72 160 -276 159q-113 0 -197 -75.5t-96 -229.5q-2 -23 -2 -74q0 -47 2 -69q14 -154 97 -229.5t196 -75.5 q204 -1 276 159q14 31 28.5 43.5t39.5 12.5h61q23 0 39 -15.5t16 -36.5q0 -70 -55 -149.5t-159.5 -134.5t-245.5 -55q-145 0 -252 61t-164 168.5t-64 241.5q-2 25 -2 94zM461 1284v117q0 23 16.5 39t38.5 16h117q23 0 39 -16.5t16 -38.5v-117q0 -22 -16 -38.5t-39 -16.5 h-117q-23 0 -39 16.5t-16 38.5z" />
<glyph unicode="&#x10c;" horiz-adv-x="1366" d="M121 717q0 121 2 182q6 160 76.5 286t199.5 197.5t301 71.5q190 0 318.5 -73.5t190 -181t65.5 -208.5q0 -18 -13.5 -31.5t-31.5 -13.5h-94q-18 0 -34 12.5t-20 32.5q-29 123 -114.5 201t-266.5 78q-178 0 -277 -103.5t-106 -277.5q-2 -61 -2 -172t2 -172 q7 -174 106 -277.5t277 -103.5q180 0 266.5 77.5t114.5 200.5q4 20 19.5 32.5t34.5 12.5h94q18 0 31.5 -13t13.5 -32q-4 -100 -65.5 -207.5t-189.5 -181t-319 -73.5q-172 0 -301 71.5t-199.5 197.5t-76.5 286q-2 61 -2 182zM391 1790q0 33 33 33h53q18 0 30.5 -5.5 t33.5 -17.5l155 -104l156 104q20 12 32.5 17.5t30.5 5.5h54q33 0 32 -33q0 -16 -10 -27l-188 -188q-20 -23 -36.5 -31t-39.5 -8h-61q-23 0 -39.5 8t-36.5 31l-189 188q-10 10 -10 27z" />
<glyph unicode="&#x10d;" horiz-adv-x="1136" d="M102 545q0 49 2 69q18 209 141.5 340t338.5 131q141 0 244.5 -54t157.5 -133t58 -148q2 -23 -15 -39.5t-40 -16.5h-61q-25 0 -39.5 12.5t-28.5 43.5q-72 160 -276 159q-113 0 -197 -75.5t-96 -229.5q-2 -23 -2 -74q0 -47 2 -69q14 -154 97 -229.5t196 -75.5 q204 -1 276 159q14 31 28.5 43.5t39.5 12.5h61q23 0 39 -15.5t16 -36.5q0 -70 -55 -149.5t-159.5 -134.5t-245.5 -55q-145 0 -252 61t-164 168.5t-64 241.5q-2 25 -2 94zM278 1473q0 33 33 32h43q18 0 30.5 -5t32.5 -17l156 -105l156 105q20 12 32.5 17t30.5 5h43 q33 0 33 -32q0 -16 -10 -27l-189 -189q-20 -23 -36.5 -30.5t-38.5 -7.5h-41q-23 0 -39.5 8t-36.5 30l-189 189q-10 10 -10 27z" />
<glyph unicode="&#x10e;" horiz-adv-x="1409" d="M176 55v1323q0 23 16.5 39.5t38.5 16.5h469q170 0 302.5 -67t208 -192.5t77.5 -295.5q2 -61 2 -162q0 -100 -2 -162q-2 -170 -75.5 -296t-202.5 -192.5t-297 -66.5h-482q-23 0 -39 16.5t-16 38.5zM366 1790q0 33 33 33h53q18 0 30.5 -5.5t33.5 -17.5l155 -104l156 104 q20 12 32.5 17.5t30.5 5.5h54q33 0 32 -33q0 -16 -10 -27l-188 -188q-20 -23 -36.5 -31t-39.5 -8h-61q-23 0 -39.5 8t-36.5 31l-189 188q-10 10 -10 27zM371 184h331q205 0 296.5 106.5t95.5 274.5q2 61 2 152q0 90 -2 151q-4 166 -100.5 273.5t-301.5 107.5h-321v-1065z " />
<glyph unicode="&#x10f;" horiz-adv-x="1343" d="M100 535l2 65q6 147 68.5 257t165 169t231.5 59q115 0 194 -39.5t124 -99.5v453q0 23 16.5 39t38.5 16h76q23 0 39 -16.5t16 -38.5v-1344q0 -23 -16.5 -39t-38.5 -16h-76q-23 0 -39 16.5t-16 38.5v64q-104 -139 -318 -139q-127 0 -230.5 59t-165.5 169.5t-69 258.5z M287 532l2 -57q8 -147 87 -233t212 -86q127 0 209 78.5t88 209.5q2 20 2 82q0 59 -2 80q-6 144 -86 223.5t-211 79.5q-133 0 -212 -86t-87 -233zM1180 1089v4l43 281q6 32 27.5 56t60.5 24h107q18 0 31.5 -13.5t13.5 -31.5q0 -8 -2 -15l-111 -284q-25 -66 -88 -66h-37 q-18 0 -31.5 13.5t-13.5 31.5z" />
<glyph unicode="&#x110;" horiz-adv-x="1437" d="M31 694v64q0 23 16 39t39 16h119v565q0 23 16.5 39.5t38.5 16.5h469q170 0 302 -67t208 -192.5t78 -295.5q2 -61 2 -162q0 -100 -2 -162q-2 -170 -76 -296t-203 -192.5t-297 -66.5h-481q-23 0 -39 16.5t-16 38.5v584h-119q-23 0 -39 16.5t-16 38.5zM399 184h332 q205 0 296 106.5t95 274.5q2 61 2 152q0 90 -2 151q-4 166 -100 273.5t-301 107.5h-322v-436h277q23 0 39 -16.5t16 -38.5v-64q0 -23 -16.5 -39t-38.5 -16h-277v-455z" />
<glyph unicode="&#x111;" horiz-adv-x="1224" d="M100 535l2 65q6 147 68.5 257t165 169t231.5 59q115 0 194 -39.5t124 -99.5v211h-119q-20 0 -32.5 12.5t-12.5 32.5v53q0 20 12 32.5t33 12.5h119v99q0 23 16.5 39t38.5 16h76q23 0 39 -16.5t16 -38.5v-99h119q20 0 32.5 -12t12.5 -33v-53q0 -20 -12.5 -32.5t-32.5 -12.5 h-119v-1102q0 -23 -16.5 -39t-38.5 -16h-76q-23 0 -39 16.5t-16 38.5v64q-104 -139 -318 -139q-127 0 -230.5 59t-165.5 169.5t-69 258.5zM287 532l2 -57q8 -147 87 -233t212 -86q127 0 209 78.5t88 209.5q2 20 2 82q0 59 -2 80q-6 144 -86 223.5t-211 79.5q-133 0 -212 -86 t-87 -233z" />
<glyph unicode="&#x112;" horiz-adv-x="1212" d="M176 55q0 -23 16.5 -39t38.5 -16h828q23 0 39 16.5t16 38.5v74q0 23 -16.5 39t-38.5 16h-688v449h626q23 0 39.5 16.5t16.5 38.5v74q0 23 -16.5 39t-39.5 16h-626v432h671q23 0 39.5 16.5t16.5 39.5v73q0 23 -16.5 39.5t-39.5 16.5h-811q-23 0 -39 -16.5t-16 -39.5v-1323 zM356 1591v74q0 23 16.5 39t38.5 16h469q23 0 39.5 -16t16.5 -39v-74q0 -23 -16.5 -39t-39.5 -16h-469q-22 0 -38.5 16.5t-16.5 38.5z" />
<glyph unicode="&#x113;" d="M100 541q0 33 4 94q12 127 73 229.5t162 161.5t234 59q220 0 347 -139t127 -379v-55q0 -23 -16.5 -39t-39.5 -16h-704v-13q4 -135 83 -211.5t203 -76.5q102 0 158.5 26.5t102.5 75.5q16 16 29.5 22.5t35.5 6.5h62q25 0 41 -16.5t14 -39.5q-8 -55 -60.5 -113.5t-149.5 -98 t-233 -39.5q-131 0 -233 60t-162.5 166.5t-73.5 239.5q-4 61 -4 95zM287 629h575v6q0 125 -78.5 199.5t-210.5 74.5q-119 0 -201.5 -75.5t-84.5 -198.5v-6zM293 1294v66q0 23 16.5 39t38.5 16h449q23 0 39 -16.5t16 -38.5v-66q0 -23 -16.5 -39t-38.5 -16h-449 q-22 0 -38.5 16.5t-16.5 38.5z" />
<glyph unicode="&#x114;" horiz-adv-x="1212" d="M176 55q0 -23 16.5 -39t38.5 -16h828q23 0 39 16.5t16 38.5v74q0 23 -16.5 39t-38.5 16h-688v449h626q23 0 39.5 16.5t16.5 38.5v74q0 23 -16.5 39t-39.5 16h-626v432h671q23 0 39.5 16.5t16.5 39.5v73q0 23 -16.5 39.5t-39.5 16.5h-811q-23 0 -39 -16.5t-16 -39.5v-1323 zM381 1784q0 16 10.5 27.5t28.5 11.5h66q18 0 28 -11.5t10 -27.5q0 -53 33 -88t88 -35t88 35t33 88q0 16 10.5 27.5t28.5 11.5h66q18 0 28.5 -11.5t10.5 -27.5q0 -104 -68 -181t-197 -77t-196.5 76.5t-67.5 181.5z" />
<glyph unicode="&#x115;" d="M100 541q0 33 4 94q12 127 73 229.5t162 161.5t234 59q220 0 347 -139t127 -379v-55q0 -23 -16.5 -39t-39.5 -16h-704v-13q4 -135 83 -211.5t203 -76.5q102 0 158.5 26.5t102.5 75.5q16 16 29.5 22.5t35.5 6.5h62q25 0 41 -16.5t14 -39.5q-8 -55 -60.5 -113.5t-149.5 -98 t-233 -39.5q-131 0 -233 60t-162.5 166.5t-73.5 239.5q-4 61 -4 95zM287 629h575v6q0 125 -78.5 199.5t-210.5 74.5q-119 0 -201.5 -75.5t-84.5 -198.5v-6zM317 1466q0 17 10.5 28t28.5 11h66q18 0 28 -11t10 -28q0 -53 30 -88t81 -35t81 35t30 88q0 16 10 27.5t29 11.5h65 q18 0 28.5 -11t10.5 -28q0 -102 -65.5 -180t-188.5 -78t-188.5 78t-65.5 180z" />
<glyph unicode="&#x116;" horiz-adv-x="1212" d="M176 55q0 -23 16.5 -39t38.5 -16h828q23 0 39 16.5t16 38.5v74q0 23 -16.5 39t-38.5 16h-688v449h626q23 0 39.5 16.5t16.5 38.5v74q0 23 -16.5 39t-39.5 16h-626v432h671q23 0 39.5 16.5t16.5 39.5v73q0 23 -16.5 39.5t-39.5 16.5h-811q-23 0 -39 -16.5t-16 -39.5v-1323 zM532 1591v117q0 23 16.5 39t38.5 16h117q23 0 39 -16t16 -39v-117q0 -22 -16 -38.5t-39 -16.5h-117q-23 0 -39 16.5t-16 38.5z" />
<glyph unicode="&#x117;" d="M100 541q0 33 4 94q12 127 73 229.5t162 161.5t234 59q220 0 347 -139t127 -379v-55q0 -23 -16.5 -39t-39.5 -16h-704v-13q4 -135 83 -211.5t203 -76.5q102 0 158.5 26.5t102.5 75.5q16 16 29.5 22.5t35.5 6.5h62q25 0 41 -16.5t14 -39.5q-8 -55 -60.5 -113.5t-149.5 -98 t-233 -39.5q-131 0 -233 60t-162.5 166.5t-73.5 239.5q-4 61 -4 95zM287 629h575v6q0 125 -78.5 199.5t-210.5 74.5q-119 0 -201.5 -75.5t-84.5 -198.5v-6zM459 1284v117q0 23 16.5 39t38.5 16h117q23 0 39 -16.5t16 -38.5v-117q0 -22 -16 -38.5t-39 -16.5h-117 q-23 0 -39 16.5t-16 38.5z" />
<glyph unicode="&#x118;" horiz-adv-x="1212" d="M176 55v1323q0 23 16.5 39.5t38.5 16.5h811q23 0 39.5 -16.5t16.5 -39.5v-73q0 -23 -16.5 -39.5t-39.5 -16.5h-671v-432h626q23 0 39.5 -16.5t16.5 -38.5v-74q0 -23 -16.5 -39t-39.5 -16h-626v-449h688q23 0 39 -16t16 -39v-74q0 -23 -16.5 -39t-38.5 -16h-21 q-68 0 -101.5 -37t-33.5 -115t34 -114.5t101 -36.5h31q20 0 32.5 -12.5t12.5 -32.5v-58q0 -20 -12 -32.5t-33 -12.5h-39q-129 0 -211 79t-82 220q0 90 31 152h-537q-23 0 -39 16.5t-16 38.5z" />
<glyph unicode="&#x119;" d="M100 541q0 33 4 94q12 127 73 229.5t162 161.5t234 59q220 0 347 -139t127 -379v-55q0 -23 -16.5 -39t-39.5 -16h-704v-13q4 -135 83 -211.5t203 -76.5q102 0 158.5 26.5t102.5 75.5q16 16 29.5 22.5t35.5 6.5h62q25 0 41 -16.5t14 -39.5q-8 -49 -52 -103t-126 -94 t-197 -50q-66 -12 -95.5 -40t-29.5 -96q0 -78 34 -114.5t101 -36.5h31q20 0 32.5 -12.5t12.5 -32.5v-58q0 -20 -12.5 -32.5t-32.5 -12.5h-39q-129 0 -211 79t-82 220q0 94 39 166q-121 49 -195.5 165t-89.5 267q-4 61 -4 95zM287 629h575v6q0 125 -78.5 199.5t-210.5 74.5 q-119 0 -201.5 -75.5t-84.5 -198.5v-6z" />
<glyph unicode="&#x11a;" horiz-adv-x="1212" d="M176 55q0 -23 16.5 -39t38.5 -16h828q23 0 39 16.5t16 38.5v74q0 23 -16.5 39t-38.5 16h-688v449h626q23 0 39.5 16.5t16.5 38.5v74q0 23 -16.5 39t-39.5 16h-626v432h671q23 0 39.5 16.5t16.5 39.5v73q0 23 -16.5 39.5t-39.5 16.5h-811q-23 0 -39 -16.5t-16 -39.5v-1323 zM340 1790q0 33 33 33h53q18 0 30.5 -5.5t33.5 -17.5l155 -104l156 104q20 12 32.5 17.5t30.5 5.5h54q33 0 32 -33q0 -16 -10 -27l-188 -188q-20 -23 -36.5 -31t-39.5 -8h-61q-23 0 -39.5 8t-36.5 31l-189 188q-10 10 -10 27z" />
<glyph unicode="&#x11b;" d="M100 541q0 33 4 94q12 127 73 229.5t162 161.5t234 59q220 0 347 -139t127 -379v-55q0 -23 -16.5 -39t-39.5 -16h-704v-13q4 -135 83 -211.5t203 -76.5q102 0 158.5 26.5t102.5 75.5q16 16 29.5 22.5t35.5 6.5h62q25 0 41 -16.5t14 -39.5q-8 -55 -60.5 -113.5t-149.5 -98 t-233 -39.5q-131 0 -233 60t-162.5 166.5t-73.5 239.5q-4 61 -4 95zM276 1473q0 33 33 32h43q18 0 30.5 -5t32.5 -17l156 -105l156 105q20 12 32.5 17t30.5 5h43q33 0 33 -32q0 -16 -10 -27l-189 -189q-20 -23 -36.5 -30.5t-38.5 -7.5h-41q-23 0 -39.5 8t-36.5 30l-189 189 q-10 10 -10 27zM287 629h575v6q0 125 -78.5 199.5t-210.5 74.5q-119 0 -201.5 -75.5t-84.5 -198.5v-6z" />
<glyph unicode="&#x11c;" horiz-adv-x="1400" d="M121 723q0 119 2 180q6 158 70.5 282t194.5 196.5t321 72.5q174 0 301 -64.5t193.5 -157.5t70.5 -173q2 -18 -12.5 -31.5t-32.5 -13.5h-84q-47 0 -60 22q-59 115 -142 174.5t-234 59.5q-172 0 -278.5 -97.5t-113.5 -279.5q-2 -61 -2 -170t2 -170q6 -193 112 -291t280 -98 q178 0 284.5 93t106.5 294v57h-295q-23 0 -39 16.5t-16 39.5v73q0 23 16 39.5t39 16.5h434q23 0 39 -16.5t16 -39.5v-194q0 -164 -69.5 -292t-201.5 -199.5t-314 -71.5q-283 0 -430.5 156.5t-155.5 406.5q-2 61 -2 180zM401 1569q0 16 10 26l189 189q20 23 36.5 31t39.5 8 h61q23 0 39 -8.5t37 -30.5l188 -189q10 -10 10 -26q0 -33 -32 -33h-54q-18 0 -30.5 5t-32.5 18l-156 104l-155 -104q-20 -12 -32.5 -17.5t-31.5 -5.5h-53q-33 0 -33 33z" />
<glyph unicode="&#x11d;" horiz-adv-x="1224" d="M100 532l2 68q6 147 68.5 257t165 169t231.5 59q115 0 194 -39.5t124 -99.5v64q0 23 16.5 39t38.5 16h76q23 0 39 -16.5t16 -38.5v-996q0 -217 -123 -341t-360 -124q-154 0 -258.5 47.5t-154.5 117t-54 141.5q-2 23 15.5 39t39.5 16h62q25 0 39 -12.5t28 -42.5 q20 -47 77.5 -88t184.5 -41q317 0 318 264v129q-104 -139 -318 -139q-127 0 -230.5 59t-165.5 168.5t-69 257.5zM287 532l2 -57q8 -147 87 -233t212 -86q131 0 211 80.5t86 222.5q2 20 2 73t-2 74q-6 143 -86 223t-211 80q-133 0 -212 -86t-87 -233zM290 1251q0 16 11 27 l188 188q20 23 36.5 31t39.5 8h41q22 0 38.5 -8t37.5 -31l188 -188q10 -10 10 -27q0 -33 -33 -32h-43q-18 0 -30.5 5t-32.5 17l-156 105l-155 -105q-20 -12 -32.5 -17t-31.5 -5h-43q-33 0 -33 32z" />
<glyph unicode="&#x11e;" horiz-adv-x="1400" d="M121 723q0 119 2 180q6 158 70.5 282t194.5 196.5t321 72.5q174 0 301 -64.5t193.5 -157.5t70.5 -173q2 -18 -12.5 -31.5t-32.5 -13.5h-84q-47 0 -60 22q-59 115 -142 174.5t-234 59.5q-172 0 -278.5 -97.5t-113.5 -279.5q-2 -61 -2 -170t2 -170q6 -193 112 -291t280 -98 q178 0 284.5 93t106.5 294v57h-295q-23 0 -39 16.5t-16 39.5v73q0 23 16 39.5t39 16.5h434q23 0 39 -16.5t16 -39.5v-194q0 -164 -69.5 -292t-201.5 -199.5t-314 -71.5q-283 0 -430.5 156.5t-155.5 406.5q-2 61 -2 180zM442 1784q0 16 10.5 27.5t28.5 11.5h66q18 0 28 -11.5 t10 -27.5q0 -53 33 -88t88 -35t88 35t33 88q0 16 10.5 27.5t28.5 11.5h66q18 0 28.5 -11.5t10.5 -27.5q0 -104 -68 -181t-197 -77t-196.5 76.5t-67.5 181.5z" />
<glyph unicode="&#x11f;" horiz-adv-x="1224" d="M100 532l2 68q6 147 68.5 257t165 169t231.5 59q115 0 194 -39.5t124 -99.5v64q0 23 16.5 39t38.5 16h76q23 0 39 -16.5t16 -38.5v-996q0 -217 -123 -341t-360 -124q-154 0 -258.5 47.5t-154.5 117t-54 141.5q-2 23 15.5 39t39.5 16h62q25 0 39 -12.5t28 -42.5 q20 -47 77.5 -88t184.5 -41q317 0 318 264v129q-104 -139 -318 -139q-127 0 -230.5 59t-165.5 168.5t-69 257.5zM287 532l2 -57q8 -147 87 -233t212 -86q131 0 211 80.5t86 222.5q2 20 2 73t-2 74q-6 143 -86 223t-211 80q-133 0 -212 -86t-87 -233zM332 1466q0 17 10.5 28 t28.5 11h66q18 0 28 -11t10 -28q0 -53 30 -88t81 -35t81 35t30 88q0 16 10 27.5t29 11.5h65q18 0 28.5 -11t10.5 -28q0 -102 -65.5 -180t-188.5 -78t-188.5 78t-65.5 180z" />
<glyph unicode="&#x120;" horiz-adv-x="1400" d="M121 723q0 119 2 180q6 158 70.5 282t194.5 196.5t321 72.5q174 0 301 -64.5t193.5 -157.5t70.5 -173q2 -18 -12.5 -31.5t-32.5 -13.5h-84q-47 0 -60 22q-59 115 -142 174.5t-234 59.5q-172 0 -278.5 -97.5t-113.5 -279.5q-2 -61 -2 -170t2 -170q6 -193 112 -291t280 -98 q178 0 284.5 93t106.5 294v57h-295q-23 0 -39 16.5t-16 39.5v73q0 23 16 39.5t39 16.5h434q23 0 39 -16.5t16 -39.5v-194q0 -164 -69.5 -292t-201.5 -199.5t-314 -71.5q-283 0 -430.5 156.5t-155.5 406.5q-2 61 -2 180zM594 1591v117q0 23 16.5 39t38.5 16h117q23 0 39 -16 t16 -39v-117q0 -22 -16 -38.5t-39 -16.5h-117q-23 0 -39 16.5t-16 38.5z" />
<glyph unicode="&#x121;" horiz-adv-x="1224" d="M100 532l2 68q6 147 68.5 257t165 169t231.5 59q115 0 194 -39.5t124 -99.5v64q0 23 16.5 39t38.5 16h76q23 0 39 -16.5t16 -38.5v-996q0 -217 -123 -341t-360 -124q-154 0 -258.5 47.5t-154.5 117t-54 141.5q-2 23 15.5 39t39.5 16h62q25 0 39 -12.5t28 -42.5 q20 -47 77.5 -88t184.5 -41q317 0 318 264v129q-104 -139 -318 -139q-127 0 -230.5 59t-165.5 168.5t-69 257.5zM287 532l2 -57q8 -147 87 -233t212 -86q131 0 211 80.5t86 222.5q2 20 2 73t-2 74q-6 143 -86 223t-211 80q-133 0 -212 -86t-87 -233zM473 1284v117 q0 23 16.5 39t38.5 16h117q23 0 39 -16.5t16 -38.5v-117q0 -22 -16 -38.5t-39 -16.5h-117q-23 0 -39 16.5t-16 38.5z" />
<glyph unicode="&#x122;" horiz-adv-x="1400" d="M121 723q0 119 2 180q6 158 70.5 282t194.5 196.5t321 72.5q174 0 301 -64.5t193.5 -157.5t70.5 -173q2 -18 -12.5 -31.5t-32.5 -13.5h-84q-47 0 -60 22q-59 115 -142 174.5t-234 59.5q-172 0 -278.5 -97.5t-113.5 -279.5q-2 -61 -2 -170t2 -170q6 -193 112 -291t280 -98 q178 0 284.5 93t106.5 294v57h-295q-23 0 -39 16.5t-16 39.5v73q0 23 16 39.5t39 16.5h434q23 0 39 -16.5t16 -39.5v-194q0 -164 -69.5 -292t-201.5 -199.5t-314 -71.5q-283 0 -430.5 156.5t-155.5 406.5q-2 61 -2 180zM530 -463l43 281q6 32 27.5 56t60.5 24h119 q18 0 31.5 -13.5t13.5 -31.5q0 -8 -2 -15l-111 -284q-25 -66 -88 -66h-49q-18 0 -31.5 13.5t-13.5 31.5v4z" />
<glyph unicode="&#x123;" horiz-adv-x="1224" d="M100 532l2 68q6 147 68.5 257t165 169t231.5 59q115 0 194 -39.5t124 -99.5v64q0 23 16.5 39t38.5 16h76q23 0 39 -16.5t16 -38.5v-996q0 -217 -123 -341t-360 -124q-154 0 -258.5 47.5t-154.5 117t-54 141.5q-2 23 15.5 39t39.5 16h62q25 0 39 -12.5t28 -42.5 q20 -47 77.5 -88t184.5 -41q317 0 318 264v129q-104 -139 -318 -139q-127 0 -230.5 59t-165.5 168.5t-69 257.5zM287 532l2 -57q8 -147 87 -233t212 -86q131 0 211 80.5t86 222.5q2 20 2 73t-2 74q-6 143 -86 223t-211 80q-133 0 -212 -86t-87 -233zM479 1264q0 8 2 14 l111 285q25 66 88 65h37q18 0 31.5 -13t13.5 -32v-4l-43 -281q-6 -32 -27.5 -55.5t-60.5 -23.5h-107q-18 0 -31.5 13t-13.5 32z" />
<glyph unicode="&#x124;" horiz-adv-x="1462" d="M176 55v1323q0 23 16.5 39.5t38.5 16.5h84q23 0 39.5 -16.5t16.5 -39.5v-561h721v561q0 23 16 39.5t39 16.5h84q22 0 38.5 -16.5t16.5 -39.5v-1323q0 -23 -16.5 -39t-38.5 -16h-84q-23 0 -39 16.5t-16 38.5v578h-721v-578q0 -23 -16.5 -39t-39.5 -16h-84q-23 0 -39 15.5 t-16 39.5zM426 1569q0 16 10 26l189 189q20 23 36.5 31t39.5 8h61q23 0 39 -8.5t37 -30.5l188 -189q10 -10 10 -26q0 -33 -32 -33h-54q-18 0 -30.5 5t-32.5 18l-156 104l-155 -104q-20 -12 -32.5 -17.5t-31.5 -5.5h-53q-33 0 -33 33z" />
<glyph unicode="&#x125;" horiz-adv-x="1243" d="M154 55v1344q0 23 16 39t39 16h76q23 0 39 -16.5t16 -38.5v-453q45 59 124 99t193 40q129 0 229.5 -55t157 -158.5t56.5 -244.5v-572q0 -22 -16.5 -38.5t-39.5 -16.5h-75q-23 0 -39.5 16.5t-16.5 38.5v541q0 154 -75.5 233.5t-210.5 79.5q-133 0 -210 -79.5t-77 -233.5 v-541q0 -23 -16.5 -39t-38.5 -16h-76q-23 0 -39 16.5t-16 38.5zM331 1568q0 16 11 27l188 188q20 23 36.5 31t39.5 8h41q22 0 38.5 -8t37.5 -31l188 -188q10 -10 10 -27q0 -33 -33 -32h-43q-18 0 -30.5 5t-32.5 17l-156 105l-155 -105q-20 -12 -32.5 -17t-31.5 -5h-43 q-33 0 -33 32z" />
<glyph unicode="&#x126;" horiz-adv-x="1490" d="M47 1087v74q0 23 16.5 39.5t38.5 16.5h88v161q0 23 16.5 39.5t39.5 16.5h84q23 0 39 -16.5t16 -39.5v-161h721v161q0 23 16.5 39.5t38.5 16.5h84q23 0 39 -16.5t16 -39.5v-161h89q23 0 39 -16.5t16 -39.5v-74q0 -23 -16.5 -39t-38.5 -16h-89v-977q0 -23 -16 -39t-39 -16 h-84q-23 0 -39 16.5t-16 38.5v578h-721v-578q0 -23 -16.5 -39t-38.5 -16h-84q-23 0 -39.5 15.5t-16.5 39.5v977h-88q-23 0 -39 16.5t-16 38.5zM385 817h721v215h-721v-215z" />
<glyph unicode="&#x127;" horiz-adv-x="1243" d="M-10 1202v53q0 20 12 32.5t33 12.5h119v99q0 23 16 39t39 16h76q23 0 39 -16.5t16 -38.5v-99h119q20 0 32.5 -12t12.5 -33v-53q0 -20 -12.5 -32.5t-32.5 -12.5h-119v-211q45 59 124 99t193 40q129 0 229.5 -55t157 -158.5t56.5 -244.5v-572q0 -22 -16.5 -38.5 t-39.5 -16.5h-75q-23 0 -39.5 16.5t-16.5 38.5v541q0 154 -75.5 233.5t-210.5 79.5q-133 0 -210 -79.5t-77 -233.5v-541q0 -23 -16.5 -39t-38.5 -16h-76q-23 0 -39 16.5t-16 38.5v1102h-119q-20 0 -32.5 12.5t-12.5 32.5z" />
<glyph unicode="&#x128;" horiz-adv-x="546" d="M-33 1575q0 37 19.5 83t58.5 80t98 34q47 0 78 -10.5t70 -28.5q25 -14 44 -20.5t42 -6.5t34 8t19 23q8 12 15 18t20 6h76q18 0 28 -11t10 -28q0 -37 -19 -83t-58 -79.5t-99 -33.5q-47 0 -79.5 10t-69.5 29q-20 10 -42 18t-42 8q-23 0 -34 -8t-19 -22q-8 -12 -15.5 -18.5 t-19.5 -6.5h-76q-18 0 -28.5 11.5t-10.5 27.5zM176 55v1323q0 23 16.5 39.5t38.5 16.5h84q23 0 39.5 -16.5t16.5 -39.5v-1323q0 -23 -16.5 -39t-39.5 -16h-84q-22 0 -38.5 16.5t-16.5 38.5z" />
<glyph unicode="&#x129;" horiz-adv-x="493" d="M-53 1257q0 37 19.5 83t58.5 80t98 34q45 0 76 -10t66 -29q18 -10 38.5 -18t40.5 -8q23 0 34 8t20 22q8 12 15 18.5t19 6.5h76q18 0 28.5 -11.5t10.5 -27.5q0 -37 -19.5 -83t-58.5 -80t-98 -34q-45 0 -74.5 10.5t-70.5 30.5q-18 10 -38 17.5t-38 7.5q-23 0 -34 -8.5 t-19 -22.5q-8 -12 -15.5 -18t-19.5 -6h-76q-18 0 -28.5 11t-10.5 27zM154 55v955q0 23 16 39t39 16h76q23 0 39 -16.5t16 -38.5v-955q0 -22 -16.5 -38.5t-38.5 -16.5h-76q-23 0 -39 16.5t-16 38.5z" />
<glyph unicode="&#x12a;" horiz-adv-x="546" d="M-17 1591v74q0 23 16.5 39t38.5 16h469q23 0 39.5 -16t16.5 -39v-74q0 -23 -16.5 -39t-39.5 -16h-469q-22 0 -38.5 16.5t-16.5 38.5zM176 55v1323q0 23 16.5 39.5t38.5 16.5h84q23 0 39.5 -16.5t16.5 -39.5v-1323q0 -23 -16.5 -39t-39.5 -16h-84q-22 0 -38.5 16.5 t-16.5 38.5z" />
<glyph unicode="&#x12b;" horiz-adv-x="493" d="M-33 1294v66q0 23 16.5 39t38.5 16h449q23 0 39 -16.5t16 -38.5v-66q0 -23 -16.5 -39t-38.5 -16h-449q-22 0 -38.5 16.5t-16.5 38.5zM154 55v955q0 23 16 39t39 16h76q23 0 39 -16.5t16 -38.5v-955q0 -22 -16.5 -38.5t-38.5 -16.5h-76q-23 0 -39 16.5t-16 38.5z" />
<glyph unicode="&#x12c;" horiz-adv-x="546" d="M8 1784q0 16 10.5 27.5t28.5 11.5h66q18 0 28 -11.5t10 -27.5q0 -53 33 -88t88 -35t88 35t33 88q0 16 10.5 27.5t28.5 11.5h66q18 0 28.5 -11.5t10.5 -27.5q0 -104 -68 -181t-197 -77t-196.5 76.5t-67.5 181.5zM176 55v1323q0 23 16.5 39.5t38.5 16.5h84q23 0 39.5 -16.5 t16.5 -39.5v-1323q0 -23 -16.5 -39t-39.5 -16h-84q-22 0 -38.5 16.5t-16.5 38.5z" />
<glyph unicode="&#x12d;" horiz-adv-x="493" d="M-8 1466q0 17 10.5 28t28.5 11h66q18 0 28 -11t10 -28q0 -53 30 -88t81 -35t81 35t30 88q0 16 10 27.5t29 11.5h65q18 0 28.5 -11t10.5 -28q0 -102 -65.5 -180t-188.5 -78t-188.5 78t-65.5 180zM154 55v955q0 23 16 39t39 16h76q23 0 39 -16.5t16 -38.5v-955 q0 -22 -16.5 -38.5t-38.5 -16.5h-76q-23 0 -39 16.5t-16 38.5z" />
<glyph unicode="&#x12e;" horiz-adv-x="583" d="M31 -152q0 109 49 180.5t133 100.5v1249q0 23 16.5 39.5t38.5 16.5h84q23 0 39.5 -16.5t16.5 -39.5v-1323q0 -23 -16.5 -39t-39.5 -16h-35q-120 -7 -120 -152q0 -78 33.5 -114.5t101.5 -36.5h30q20 0 33 -12.5t13 -32.5v-58q0 -20 -12.5 -32.5t-33.5 -12.5h-38 q-129 0 -211 79t-82 220z" />
<glyph unicode="&#x12f;" horiz-adv-x="548" d="M18 -152q0 111 51.5 184.5t139.5 100.5v877q0 23 16.5 39t38.5 16h76q23 0 39 -16.5t16 -38.5v-955q0 -22 -16.5 -38.5t-38.5 -16.5h-35q-121 -6 -121 -152q0 -78 34 -114.5t101 -36.5h31q20 0 32.5 -12.5t12.5 -32.5v-58q0 -20 -12 -32.5t-33 -12.5h-39q-129 0 -211 79 t-82 220zM182 1282v117q0 23 16.5 39t39.5 16h116q23 0 39.5 -16.5t16.5 -38.5v-117q0 -22 -16.5 -38.5t-39.5 -16.5h-116q-23 0 -39.5 16.5t-16.5 38.5z" />
<glyph unicode="&#x130;" horiz-adv-x="546" d="M160 1591v117q0 23 16.5 39t38.5 16h117q23 0 39 -16t16 -39v-117q0 -22 -16 -38.5t-39 -16.5h-117q-23 0 -39 16.5t-16 38.5zM176 55v1323q0 23 16.5 39.5t38.5 16.5h84q23 0 39.5 -16.5t16.5 -39.5v-1323q0 -23 -16.5 -39t-39.5 -16h-84q-22 0 -38.5 16.5t-16.5 38.5z " />
<glyph unicode="&#x131;" horiz-adv-x="493" d="M154 55v955q0 23 16 39t39 16h76q23 0 39 -16.5t16 -38.5v-955q0 -22 -16.5 -38.5t-38.5 -16.5h-76q-23 0 -39 16.5t-16 38.5z" />
<glyph unicode="&#x132;" horiz-adv-x="1280" d="M176 55v1323q0 23 16.5 39.5t38.5 16.5h84q23 0 39.5 -16.5t16.5 -39.5v-1323q0 -23 -16.5 -39t-39.5 -16h-84q-22 0 -38.5 16.5t-16.5 38.5zM535 35v74q0 23 16 39t39 16q172 0 251 91t81 267v856q0 23 16 39.5t39 16.5h84q23 0 39 -16.5t16 -39.5v-876 q0 -238 -137 -380t-389 -142q-23 0 -39 16t-16 39z" />
<glyph unicode="&#x133;" horiz-adv-x="1005" d="M133 1282v117q0 23 16.5 39t38.5 16h117q23 0 39 -16.5t16 -38.5v-117q0 -22 -16 -38.5t-39 -16.5h-117q-23 0 -39 16.5t-16 38.5zM154 55v955q0 23 16 39t39 16h76q23 0 39 -16.5t16 -38.5v-955q0 -22 -16.5 -38.5t-38.5 -16.5h-76q-23 0 -39 16.5t-16 38.5zM420 -268 q0 23 16.5 39t39.5 16h18q100 0 136 47t36 135v1041q0 22 16.5 38.5t38.5 16.5h76q23 0 39 -16.5t16 -38.5v-1041q0 -176 -81.5 -267t-256.5 -91h-38q-23 0 -39.5 16.5t-16.5 38.5v66zM646 1282v117q0 23 16 39t39 16h117q23 0 39 -16.5t16 -38.5v-117q0 -22 -16.5 -38.5 t-38.5 -16.5h-117q-23 0 -39 16.5t-16 38.5z" />
<glyph unicode="&#x134;" horiz-adv-x="1288" d="M70 422q0 18 13 31.5t32 13.5h104q35 0 45 -45q23 -115 104 -186.5t230 -71.5q174 0 253 92t79 268v725h-707q-23 0 -39 16.5t-16 39.5v73q0 23 16.5 39.5t38.5 16.5h846q23 0 39 -16.5t16 -39.5v-876q0 -238 -137 -380t-389 -142q-160 0 -278.5 61t-182 162.5 t-67.5 218.5zM358 1569q0 16 10 26l189 189q20 23 36.5 31t39.5 8h61q23 0 39 -8.5t37 -30.5l188 -189q10 -10 10 -26q0 -33 -32 -33h-54q-18 0 -30.5 5t-32.5 18l-156 104l-155 -104q-20 -12 -32.5 -17.5t-31.5 -5.5h-53q-33 0 -33 33z" />
<glyph unicode="&#x135;" horiz-adv-x="604" d="M-31 1251q0 16 11 27l188 188q20 23 36.5 31t39.5 8h41q22 0 38.5 -8t37.5 -31l188 -188q10 -10 10 -27q0 -33 -33 -32h-43q-18 0 -30.5 5t-32.5 17l-156 105l-155 -105q-20 -12 -32.5 -17t-31.5 -5h-43q-33 0 -33 32zM18 -268q0 23 16.5 39t39.5 16h18q100 0 136 47 t36 135v920h-170q-23 0 -39 16.5t-16 38.5v66q0 23 16.5 39t38.5 16h301q23 0 39.5 -16.5t16.5 -38.5v-1041q0 -176 -82 -267t-256 -91h-39q-23 0 -39.5 16.5t-16.5 38.5v66z" />
<glyph unicode="&#x136;" horiz-adv-x="1226" d="M176 55v1323q0 23 16.5 39.5t38.5 16.5h84q23 0 39.5 -16.5t16.5 -39.5v-477l547 502q31 31 73 31h119q18 0 31.5 -13.5t13.5 -31.5q0 -16 -20 -37l-658 -604l699 -666q20 -20 20 -37q0 -18 -13.5 -31.5t-31.5 -13.5h-127q-43 0 -74 31l-579 553v-529q0 -23 -16.5 -39 t-39.5 -16h-84q-23 0 -39 16.5t-16 38.5zM428 -463l43 281q6 32 27.5 56t60.5 24h119q18 0 31.5 -13.5t13.5 -31.5q0 -8 -2 -15l-111 -284q-25 -66 -88 -66h-49q-18 0 -31.5 13.5t-13.5 31.5v4z" />
<glyph unicode="&#x137;" horiz-adv-x="1046" d="M154 55v1344q0 23 16 39t39 16h76q23 0 39 -16.5t16 -38.5v-678l399 309q23 16 39.5 25.5t40.5 9.5h103q20 0 34.5 -14.5t14.5 -34.5q0 -23 -23 -41l-493 -385l544 -502q20 -20 21 -39q0 -20 -14.5 -34.5t-34.5 -14.5h-97q-43 0 -83 35l-451 416v-396q0 -23 -16.5 -39 t-38.5 -16h-76q-23 0 -39 16.5t-16 38.5zM379 -463l43 281q6 32 27.5 56t60.5 24h107q18 0 31.5 -13.5t13.5 -31.5q0 -8 -2 -15l-111 -284q-25 -66 -88 -66h-37q-18 0 -31.5 13.5t-13.5 31.5v4z" />
<glyph unicode="&#x138;" horiz-adv-x="1048" d="M154 55v955q0 23 16 39t39 16h76q23 0 39 -16.5t16 -38.5v-340l416 360q39 35 80 35h88q20 0 34.5 -14.5t14.5 -34.5q0 -23 -23 -41l-495 -434l546 -453q20 -16 21 -39q0 -20 -14.5 -34.5t-34.5 -14.5h-109q-43 0 -84 35l-440 364v-344q0 -23 -16.5 -39t-38.5 -16h-76 q-23 0 -39 16.5t-16 38.5z" />
<glyph unicode="&#x139;" horiz-adv-x="1159" d="M172 1569q0 16 10 26l156 189q22 24 36.5 31.5t38.5 7.5h162q18 0 28.5 -11.5t10.5 -29.5q0 -14 -10 -25l-228 -186q-23 -18 -40 -26.5t-46 -8.5h-86q-33 0 -32 33zM176 55v1323q0 23 16.5 39.5t38.5 16.5h84q23 0 39.5 -16.5t16.5 -39.5v-1194h694q22 0 38.5 -16 t16.5 -39v-74q0 -23 -16.5 -39t-38.5 -16h-834q-23 0 -39 16.5t-16 38.5z" />
<glyph unicode="&#x13a;" horiz-adv-x="493" d="M153 1568q0 16 10 27l156 188q23 25 37 32t39 7h151q18 0 28.5 -11t10.5 -30q0 -14 -10 -24l-227 -187q-23 -18 -40.5 -26t-45.5 -8h-76q-33 0 -33 32zM154 55v1344q0 23 16 39t39 16h76q23 0 39 -16.5t16 -38.5v-1344q0 -22 -16.5 -38.5t-38.5 -16.5h-76q-23 0 -39 16.5 t-16 38.5z" />
<glyph unicode="&#x13b;" horiz-adv-x="1159" d="M176 55v1323q0 23 16.5 39.5t38.5 16.5h84q23 0 39.5 -16.5t16.5 -39.5v-1194h694q22 0 38.5 -16t16.5 -39v-74q0 -23 -16.5 -39t-38.5 -16h-834q-23 0 -39 16.5t-16 38.5zM483 -463l43 281q6 32 27.5 56t60.5 24h119q18 0 31.5 -13.5t13.5 -31.5q0 -8 -2 -15l-111 -284 q-25 -66 -88 -66h-49q-18 0 -31.5 13.5t-13.5 31.5v4z" />
<glyph unicode="&#x13c;" horiz-adv-x="493" d="M67 -463l43 281q6 32 27.5 56t60.5 24h107q18 0 31.5 -13.5t13.5 -31.5q0 -8 -2 -15l-111 -284q-25 -66 -88 -66h-37q-18 0 -31.5 13.5t-13.5 31.5v4zM154 55v1344q0 23 16 39t39 16h76q23 0 39 -16.5t16 -38.5v-1344q0 -22 -16.5 -38.5t-38.5 -16.5h-76q-23 0 -39 16.5 t-16 38.5z" />
<glyph unicode="&#x13d;" horiz-adv-x="1159" d="M176 55v1323q0 23 16.5 39.5t38.5 16.5h84q23 0 39.5 -16.5t16.5 -39.5v-1194h694q22 0 38.5 -16t16.5 -39v-74q0 -23 -16.5 -39t-38.5 -16h-834q-23 0 -39 16.5t-16 38.5zM614 1087v4l43 281q6 32 27.5 56t60.5 24h119q18 0 31.5 -13.5t13.5 -31.5q0 -8 -2 -15 l-111 -284q-25 -66 -88 -66h-49q-18 0 -31.5 13.5t-13.5 31.5z" />
<glyph unicode="&#x13e;" horiz-adv-x="610" d="M154 55v1344q0 23 16 39t39 16h76q23 0 39 -16.5t16 -38.5v-1344q0 -22 -16.5 -38.5t-38.5 -16.5h-76q-23 0 -39 16.5t-16 38.5zM448 1092v4l43 281q6 32 27.5 56t60.5 24h107q18 0 31.5 -13.5t13.5 -31.5q0 -8 -2 -15l-111 -284q-25 -66 -88 -66h-37q-18 0 -31.5 13.5 t-13.5 31.5z" />
<glyph unicode="&#x13f;" horiz-adv-x="1159" d="M176 55v1323q0 23 16.5 39.5t38.5 16.5h84q23 0 39.5 -16.5t16.5 -39.5v-1194h694q22 0 38.5 -16t16.5 -39v-74q0 -23 -16.5 -39t-38.5 -16h-834q-23 0 -39 16.5t-16 38.5zM608 680v117q0 23 16.5 39t38.5 16h117q23 0 39 -16.5t16 -38.5v-117q0 -22 -16 -38.5t-39 -16.5 h-117q-23 0 -39 16.5t-16 38.5z" />
<glyph unicode="&#x140;" horiz-adv-x="618" d="M154 55v1344q0 23 16 39t39 16h76q23 0 39 -16.5t16 -38.5v-1344q0 -22 -16.5 -38.5t-38.5 -16.5h-76q-23 0 -39 16.5t-16 38.5zM442 682v117q0 23 16.5 39t38.5 16h117q23 0 39 -16.5t16 -38.5v-117q0 -22 -16 -38.5t-39 -16.5h-117q-23 0 -39 16.5t-16 38.5z" />
<glyph unicode="&#x141;" horiz-adv-x="1185" d="M39 551v57q0 29 10 44.5t35 23.5l119 45v657q0 23 16.5 39.5t38.5 16.5h84q23 0 39 -16.5t16 -39.5v-581l312 123q14 6 22 6q18 0 30.5 -12.5t12.5 -30.5v-58q0 -27 -10 -42t-35 -25l-332 -131v-443h695q22 0 38.5 -16t16.5 -39v-74q0 -23 -16.5 -39t-38.5 -16h-834 q-23 0 -39 16.5t-16 38.5v496l-99 -37q-14 -6 -22 -6q-18 0 -30.5 12t-12.5 31z" />
<glyph unicode="&#x142;" horiz-adv-x="530" d="M49 623v57q0 29 10.5 44t34.5 24l78 30v621q0 23 16.5 39t38.5 16h76q23 0 39 -16.5t16 -38.5v-547l58 22q14 6 22 7q18 0 30.5 -12.5t12.5 -30.5v-58q0 -27 -10 -42t-35 -25l-78 -31v-627q0 -23 -16 -39t-39 -16h-76q-23 0 -39 16.5t-16 38.5v553l-57 -22q-16 -6 -23 -6 q-18 0 -30.5 12t-12.5 31z" />
<glyph unicode="&#x143;" horiz-adv-x="1421" d="M176 55v1323q0 23 16.5 39.5t38.5 16.5h72q27 0 45.5 -16.5t36.5 -45.5l666 -1001v1007q0 23 16 39.5t39 16.5h84q23 0 39 -16.5t16 -39.5v-1323q0 -23 -16.5 -39t-38.5 -16h-72q-26 0 -44.5 16.5t-37.5 44.5l-665 1002v-1008q0 -23 -16.5 -39t-39.5 -16h-84 q-23 0 -39 16.5t-16 38.5zM613 1569q0 16 10 26l156 189q22 24 36.5 31.5t38.5 7.5h162q18 0 28.5 -11.5t10.5 -29.5q0 -14 -10 -25l-228 -186q-23 -18 -40 -26.5t-46 -8.5h-86q-33 0 -32 33z" />
<glyph unicode="&#x144;" horiz-adv-x="1243" d="M154 55v955q0 23 16 39t39 16h76q23 0 39 -16.5t16 -38.5v-64q45 59 124 99t193 40q129 0 229.5 -55t157 -158.5t56.5 -244.5v-572q0 -22 -16.5 -38.5t-39.5 -16.5h-75q-23 0 -39.5 16.5t-16.5 38.5v541q0 154 -75.5 233.5t-210.5 79.5q-133 0 -210 -79.5t-77 -233.5 v-541q0 -23 -16.5 -39t-38.5 -16h-76q-23 0 -39 16.5t-16 38.5zM526 1251q0 16 10 27l156 188q23 25 37 32t39 7h151q18 0 28.5 -11t10.5 -30q0 -14 -10 -24l-227 -187q-23 -18 -40.5 -26t-45.5 -8h-76q-33 0 -33 32z" />
<glyph unicode="&#x145;" horiz-adv-x="1421" d="M176 55v1323q0 23 16.5 39.5t38.5 16.5h72q27 0 45.5 -16.5t36.5 -45.5l666 -1001v1007q0 23 16 39.5t39 16.5h84q23 0 39 -16.5t16 -39.5v-1323q0 -23 -16.5 -39t-38.5 -16h-72q-26 0 -44.5 16.5t-37.5 44.5l-665 1002v-1008q0 -23 -16.5 -39t-39.5 -16h-84 q-23 0 -39 16.5t-16 38.5zM545 -463l43 281q6 32 27.5 56t60.5 24h119q18 0 31.5 -13.5t13.5 -31.5q0 -8 -2 -15l-111 -284q-25 -66 -88 -66h-49q-18 0 -31.5 13.5t-13.5 31.5v4z" />
<glyph unicode="&#x146;" horiz-adv-x="1243" d="M154 55v955q0 23 16 39t39 16h76q23 0 39 -16.5t16 -38.5v-64q45 59 124 99t193 40q129 0 229.5 -55t157 -158.5t56.5 -244.5v-572q0 -22 -16.5 -38.5t-39.5 -16.5h-75q-23 0 -39.5 16.5t-16.5 38.5v541q0 154 -75.5 233.5t-210.5 79.5q-133 0 -210 -79.5t-77 -233.5 v-541q0 -23 -16.5 -39t-38.5 -16h-76q-23 0 -39 16.5t-16 38.5zM448 -463l43 281q6 32 27.5 56t60.5 24h107q18 0 31.5 -13.5t13.5 -31.5q0 -8 -2 -15l-111 -284q-25 -66 -88 -66h-37q-18 0 -31.5 13.5t-13.5 31.5v4z" />
<glyph unicode="&#x147;" horiz-adv-x="1421" d="M176 55v1323q0 23 16.5 39.5t38.5 16.5h72q27 0 45.5 -16.5t36.5 -45.5l666 -1001v1007q0 23 16 39.5t39 16.5h84q23 0 39 -16.5t16 -39.5v-1323q0 -23 -16.5 -39t-38.5 -16h-72q-26 0 -44.5 16.5t-37.5 44.5l-665 1002v-1008q0 -23 -16.5 -39t-39.5 -16h-84 q-23 0 -39 16.5t-16 38.5zM405 1790q0 33 33 33h53q18 0 30.5 -5.5t33.5 -17.5l155 -104l156 104q20 12 32.5 17.5t30.5 5.5h54q33 0 32 -33q0 -16 -10 -27l-188 -188q-20 -23 -36.5 -31t-39.5 -8h-61q-23 0 -39.5 8t-36.5 31l-189 188q-10 10 -10 27z" />
<glyph unicode="&#x148;" horiz-adv-x="1243" d="M154 55v955q0 23 16 39t39 16h76q23 0 39 -16.5t16 -38.5v-64q45 59 124 99t193 40q129 0 229.5 -55t157 -158.5t56.5 -244.5v-572q0 -22 -16.5 -38.5t-39.5 -16.5h-75q-23 0 -39.5 16.5t-16.5 38.5v541q0 154 -75.5 233.5t-210.5 79.5q-133 0 -210 -79.5t-77 -233.5 v-541q0 -23 -16.5 -39t-38.5 -16h-76q-23 0 -39 16.5t-16 38.5zM332 1473q0 33 33 32h43q18 0 30.5 -5t32.5 -17l156 -105l156 105q20 12 32.5 17t30.5 5h43q33 0 33 -32q0 -16 -10 -27l-189 -189q-20 -23 -36.5 -30.5t-38.5 -7.5h-41q-23 0 -39.5 8t-36.5 30l-189 189 q-10 10 -10 27z" />
<glyph unicode="&#x149;" horiz-adv-x="1243" d="M154 55v955q0 23 16 39t39 16h76q23 0 39 -16.5t16 -38.5v-64q45 59 124 99t193 40q129 0 229.5 -55t157 -158.5t56.5 -244.5v-572q0 -22 -16.5 -38.5t-39.5 -16.5h-75q-23 0 -39.5 16.5t-16.5 38.5v541q0 154 -75.5 233.5t-210.5 79.5q-133 0 -210 -79.5t-77 -233.5 v-541q0 -23 -16.5 -39t-38.5 -16h-76q-23 0 -39 16.5t-16 38.5zM176 1264v4l43 281q6 32 27.5 56t60.5 24h107q18 0 31.5 -13.5t13.5 -31.5q0 -8 -2 -15l-111 -284q-25 -66 -88 -66h-37q-18 0 -31.5 13.5t-13.5 31.5z" />
<glyph unicode="&#x14a;" horiz-adv-x="1421" d="M176 55v1323q0 23 16.5 39.5t38.5 16.5h72q27 0 45.5 -16.5t36.5 -45.5l666 -1001v1007q0 23 16 39.5t39 16.5h84q23 0 39 -16.5t16 -39.5v-1472q0 -182 -82 -274.5t-256 -92.5h-47q-23 0 -39 16.5t-16 38.5v74q0 23 16.5 39.5t38.5 16.5h19q100 0 136 47t36 135v133 l-680 1024v-1008q0 -23 -16.5 -39t-39.5 -16h-84q-23 0 -39 16.5t-16 38.5z" />
<glyph unicode="&#x14b;" horiz-adv-x="1243" d="M154 55v955q0 23 16 39t39 16h76q23 0 39 -16.5t16 -38.5v-64q45 59 124 99t193 40q129 0 229.5 -55t157 -158.5t56.5 -244.5v-729q0 -177 -82 -268t-256 -91h-39q-23 0 -39 16.5t-16 38.5v66q0 23 16 39t39 16h18q100 0 136 47.5t36 135.5v698q0 154 -75.5 233.5 t-210.5 79.5q-133 0 -210 -79.5t-77 -233.5v-541q0 -23 -16.5 -39t-38.5 -16h-76q-23 0 -39 16.5t-16 38.5z" />
<glyph unicode="&#x14c;" horiz-adv-x="1376" d="M121 717q0 121 2 182q4 156 70.5 282t193.5 199.5t301 73.5t301 -73.5t193.5 -199.5t70.5 -282q4 -123 4 -182t-4 -182q-6 -156 -72.5 -282t-192.5 -199.5t-300 -73.5t-300 73.5t-192.5 199.5t-72.5 282q-2 61 -2 182zM315 717q0 -111 2 -172q6 -188 106.5 -284.5 t264.5 -96.5t264.5 96t106.5 285q4 123 4 172t-4 172q-6 188 -106.5 284.5t-264.5 96.5t-264 -96.5t-107 -284.5q-2 -61 -2 -172zM399 1591v74q0 23 16.5 39t38.5 16h469q23 0 39.5 -16t16.5 -39v-74q0 -23 -16.5 -39t-39.5 -16h-469q-22 0 -38.5 16.5t-16.5 38.5z" />
<glyph unicode="&#x14d;" horiz-adv-x="1181" d="M102 530q0 76 2 99q16 209 143.5 332.5t342.5 123.5t342 -123.5t143 -332.5q4 -46 4 -99q0 -49 -4 -94q-18 -209 -144 -332.5t-341 -123.5t-341 123.5t-145 332.5q-2 23 -2 94zM289 530q0 -61 2 -84q12 -131 87 -210.5t212 -79.5t212 79.5t87 210.5q4 45 4 84t-4 88 q-12 132 -87 211.5t-212 79.5t-212 -79.5t-87 -211.5q-2 -25 -2 -88zM311 1294v66q0 23 16.5 39t38.5 16h449q23 0 39 -16.5t16 -38.5v-66q0 -23 -16.5 -39t-38.5 -16h-449q-22 0 -38.5 16.5t-16.5 38.5z" />
<glyph unicode="&#x14e;" horiz-adv-x="1376" d="M121 717q0 121 2 182q4 156 70.5 282t193.5 199.5t301 73.5t301 -73.5t193.5 -199.5t70.5 -282q4 -123 4 -182t-4 -182q-6 -156 -72.5 -282t-192.5 -199.5t-300 -73.5t-300 73.5t-192.5 199.5t-72.5 282q-2 61 -2 182zM315 717q0 -111 2 -172q6 -188 106.5 -284.5 t264.5 -96.5t264.5 96t106.5 285q4 123 4 172t-4 172q-6 188 -106.5 284.5t-264.5 96.5t-264 -96.5t-107 -284.5q-2 -61 -2 -172zM424 1784q0 16 10.5 27.5t28.5 11.5h66q18 0 28 -11.5t10 -27.5q0 -53 33 -88t88 -35t88 35t33 88q0 16 10.5 27.5t28.5 11.5h66 q18 0 28.5 -11.5t10.5 -27.5q0 -104 -68 -181t-197 -77t-196.5 76.5t-67.5 181.5z" />
<glyph unicode="&#x14f;" horiz-adv-x="1181" d="M102 530q0 76 2 99q16 209 143.5 332.5t342.5 123.5t342 -123.5t143 -332.5q4 -46 4 -99q0 -49 -4 -94q-18 -209 -144 -332.5t-341 -123.5t-341 123.5t-145 332.5q-2 23 -2 94zM289 530q0 -61 2 -84q12 -131 87 -210.5t212 -79.5t212 79.5t87 210.5q4 45 4 84t-4 88 q-12 132 -87 211.5t-212 79.5t-212 -79.5t-87 -211.5q-2 -25 -2 -88zM336 1466q0 17 10.5 28t28.5 11h66q18 0 28 -11t10 -28q0 -53 30 -88t81 -35t81 35t30 88q0 16 10 27.5t29 11.5h65q18 0 28.5 -11t10.5 -28q0 -102 -65.5 -180t-188.5 -78t-188.5 78t-65.5 180z" />
<glyph unicode="&#x150;" horiz-adv-x="1376" d="M121 717q0 121 2 182q4 156 70.5 282t193.5 199.5t301 73.5t301 -73.5t193.5 -199.5t70.5 -282q4 -123 4 -182t-4 -182q-6 -156 -72.5 -282t-192.5 -199.5t-300 -73.5t-300 73.5t-192.5 199.5t-72.5 282q-2 61 -2 182zM315 717q0 -111 2 -172q6 -188 106.5 -284.5 t264.5 -96.5t264.5 96t106.5 285q4 123 4 172t-4 172q-6 188 -106.5 284.5t-264.5 96.5t-264 -96.5t-107 -284.5q-2 -61 -2 -172zM403 1569q0 10 10 30l82 185q11 20 28 29.5t48 9.5h152q18 0 29.5 -10.5t11.5 -28.5q0 -14 -13 -27l-178 -192q-25 -29 -70 -29h-67 q-33 0 -33 33zM776 1569q0 10 10 30l82 185q10 20 27.5 29.5t48.5 9.5h151q18 0 29.5 -10.5t11.5 -28.5q0 -14 -12 -27l-178 -192q-25 -29 -70 -29h-67q-33 0 -33 33z" />
<glyph unicode="&#x151;" horiz-adv-x="1181" d="M102 530q0 76 2 99q16 209 143.5 332.5t342.5 123.5t342 -123.5t143 -332.5q4 -46 4 -99q0 -49 -4 -94q-18 -209 -144 -332.5t-341 -123.5t-341 123.5t-145 332.5q-2 23 -2 94zM289 530q0 -61 2 -84q12 -131 87 -210.5t212 -79.5t212 79.5t87 210.5q4 45 4 84t-4 88 q-12 132 -87 211.5t-212 79.5t-212 -79.5t-87 -211.5q-2 -25 -2 -88zM313 1251q0 10 10 31l82 184q11 21 28 30t48 9h141q18 0 29.5 -10t11.5 -29q0 -14 -12 -26l-178 -193q-25 -29 -70 -28h-57q-33 0 -33 32zM676 1251q0 10 10 31l82 184q10 21 27.5 30t48.5 9h141 q18 0 29.5 -10t11.5 -29q0 -14 -12 -26l-179 -193q-25 -29 -69 -28h-58q-33 0 -32 32z" />
<glyph unicode="&#x152;" horiz-adv-x="1884" d="M119 717l2 162q2 170 77.5 295.5t208 192.5t302.5 67h1005q23 0 39 -16.5t16 -39.5v-73q0 -23 -16 -39.5t-39 -16.5h-672v-432h627q23 0 39 -16.5t16 -38.5v-74q0 -23 -16 -39t-39 -16h-627v-449h689q22 0 38.5 -16t16.5 -39v-74q0 -23 -16.5 -39t-38.5 -16h-1035 q-168 0 -297 66.5t-202.5 192.5t-75.5 296zM313 717l2 -152q4 -168 95.5 -274.5t296.5 -106.5h141v1065h-131q-205 0 -301.5 -107.5t-100.5 -273.5z" />
<glyph unicode="&#x153;" horiz-adv-x="1935" d="M102 530q0 76 2 99q16 209 143.5 332.5t342.5 123.5q133 0 234.5 -50t162.5 -142q64 90 160 141t219 51q219 0 346 -139t127 -379v-55q0 -23 -16.5 -39t-38.5 -16h-705v-13q4 -135 83 -211.5t204 -76.5q102 0 158.5 26.5t101.5 75.5q16 16 29.5 22.5t36.5 6.5h61 q25 0 41 -16.5t14 -39.5q-8 -55 -60 -113.5t-149.5 -98t-232.5 -39.5q-121 0 -218 51t-159 143q-63 -92 -163.5 -143t-235.5 -51q-215 0 -341 123.5t-145 332.5q-2 23 -2 94zM289 530q0 -61 2 -84q12 -131 87 -210.5t212 -79.5t212 79.5t87 210.5q4 45 4 84t-4 88 q-12 132 -87 211.5t-212 79.5t-212 -79.5t-87 -211.5q-2 -25 -2 -88zM1079 629h576v6q0 125 -79 199.5t-210 74.5q-119 0 -202 -75.5t-85 -198.5v-6z" />
<glyph unicode="&#x154;" horiz-adv-x="1333" d="M176 55v1323q0 23 16.5 39.5t38.5 16.5h496q215 0 354.5 -105.5t139.5 -318.5q0 -160 -80 -260.5t-215 -143.5l309 -538q6 -12 6 -23q0 -18 -13.5 -31.5t-31.5 -13.5h-88q-57 0 -88 55l-297 523h-352v-523q0 -23 -16.5 -39t-39.5 -16h-84q-23 0 -39 16.5t-16 38.5z M371 762h346q309 0 309 248q0 127 -78 183t-231 56h-346v-487zM492 1569q0 16 10 26l156 189q22 24 36.5 31.5t38.5 7.5h162q18 0 28.5 -11.5t10.5 -29.5q0 -14 -10 -25l-228 -186q-23 -18 -40 -26.5t-46 -8.5h-86q-33 0 -32 33z" />
<glyph unicode="&#x155;" horiz-adv-x="774" d="M154 55v955q0 23 16 39t39 16h76q23 0 39 -16.5t16 -38.5v-64q41 61 98.5 90t149.5 29h106q23 0 39.5 -16.5t16.5 -38.5v-66q0 -23 -16.5 -39t-39.5 -16h-119q-115 0 -175 -60.5t-60 -175.5v-598q0 -23 -16.5 -39t-38.5 -16h-76q-23 0 -39 16.5t-16 38.5zM321 1251 q0 16 10 27l156 188q23 25 37 32t39 7h151q18 0 28.5 -11t10.5 -30q0 -14 -10 -24l-227 -187q-23 -18 -40.5 -26t-45.5 -8h-76q-33 0 -33 32z" />
<glyph unicode="&#x156;" horiz-adv-x="1333" d="M176 55v1323q0 23 16.5 39.5t38.5 16.5h496q215 0 354.5 -105.5t139.5 -318.5q0 -160 -80 -260.5t-215 -143.5l309 -538q6 -12 6 -23q0 -18 -13.5 -31.5t-31.5 -13.5h-88q-57 0 -88 55l-297 523h-352v-523q0 -23 -16.5 -39t-39.5 -16h-84q-23 0 -39 16.5t-16 38.5z M371 762h346q309 0 309 248q0 127 -78 183t-231 56h-346v-487zM483 -463l43 281q6 32 27.5 56t60.5 24h119q18 0 31.5 -13.5t13.5 -31.5q0 -8 -2 -15l-111 -284q-25 -66 -88 -66h-49q-18 0 -31.5 13.5t-13.5 31.5v4z" />
<glyph unicode="&#x157;" horiz-adv-x="774" d="M80 -463l43 281q6 32 27.5 56t60.5 24h107q18 0 31.5 -13.5t13.5 -31.5q0 -8 -2 -15l-111 -284q-25 -66 -88 -66h-37q-18 0 -31.5 13.5t-13.5 31.5v4zM154 55v955q0 23 16 39t39 16h76q23 0 39 -16.5t16 -38.5v-64q41 61 98.5 90t149.5 29h106q23 0 39.5 -16.5 t16.5 -38.5v-66q0 -23 -16.5 -39t-39.5 -16h-119q-115 0 -175 -60.5t-60 -175.5v-598q0 -23 -16.5 -39t-38.5 -16h-76q-23 0 -39 16.5t-16 38.5z" />
<glyph unicode="&#x158;" horiz-adv-x="1333" d="M176 55v1323q0 23 16.5 39.5t38.5 16.5h496q215 0 354.5 -105.5t139.5 -318.5q0 -160 -80 -260.5t-215 -143.5l309 -538q6 -12 6 -23q0 -18 -13.5 -31.5t-31.5 -13.5h-88q-57 0 -88 55l-297 523h-352v-523q0 -23 -16.5 -39t-39.5 -16h-84q-23 0 -39 16.5t-16 38.5z M330 1790q0 33 33 33h53q18 0 30.5 -5.5t33.5 -17.5l155 -104l156 104q20 12 32.5 17.5t30.5 5.5h54q33 0 32 -33q0 -16 -10 -27l-188 -188q-20 -23 -36.5 -31t-39.5 -8h-61q-23 0 -39.5 8t-36.5 31l-189 188q-10 10 -10 27zM371 762h346q309 0 309 248q0 127 -78 183 t-231 56h-346v-487z" />
<glyph unicode="&#x159;" horiz-adv-x="774" d="M121 1473q0 33 33 32h43q18 0 30.5 -5t32.5 -17l156 -105l156 105q20 12 32.5 17t30.5 5h43q33 0 33 -32q0 -16 -10 -27l-189 -189q-20 -23 -36.5 -30.5t-38.5 -7.5h-41q-23 0 -39.5 8t-36.5 30l-189 189q-10 10 -10 27zM154 55v955q0 23 16 39t39 16h76q23 0 39 -16.5 t16 -38.5v-64q41 61 98.5 90t149.5 29h106q23 0 39.5 -16.5t16.5 -38.5v-66q0 -23 -16.5 -39t-39.5 -16h-119q-115 0 -175 -60.5t-60 -175.5v-598q0 -23 -16.5 -39t-38.5 -16h-76q-23 0 -39 16.5t-16 38.5z" />
<glyph unicode="&#x15a;" horiz-adv-x="1265" d="M78 360q0 18 13 32t32 14h84q23 0 37 -9.5t26 -36.5q33 -74 120 -135t237 -61t253 64.5t103 168.5q0 68 -54.5 114t-148.5 78t-276 79q-199 51 -287 148t-88 241q0 106 55.5 196t166 145.5t265.5 55.5q156 0 273 -60.5t180.5 -148.5t67.5 -162q2 -18 -12.5 -31.5 t-32.5 -13.5h-84q-25 0 -37.5 9.5t-26.5 35.5q-33 63 -113.5 125t-214.5 62q-123 0 -207.5 -55.5t-84.5 -157.5q0 -70 42 -114t127 -75.5t257 -76.5q233 -61 330.5 -150.5t97.5 -243.5q0 -123 -69 -217t-193.5 -147t-288.5 -53q-152 0 -277 57t-196.5 146t-75.5 177z M529 1569q0 16 10 26l156 189q22 24 36.5 31.5t38.5 7.5h162q18 0 28.5 -11.5t10.5 -29.5q0 -14 -10 -25l-228 -186q-23 -18 -40 -26.5t-46 -8.5h-86q-33 0 -32 33z" />
<glyph unicode="&#x15b;" horiz-adv-x="1036" d="M90 225q0 20 16.5 35.5t38.5 15.5h74q18 0 32.5 -4t27.5 -22q68 -94 239 -94q96 0 169 40t73 99q0 49 -36 78.5t-103.5 49t-210.5 50.5q-299 63 -299 305q0 84 45 153.5t134 111.5t218 42q127 0 219 -36.5t140 -92t48 -106.5q0 -20 -16 -35.5t-39 -15.5h-67q-39 0 -62 28 q-63 82 -223 82q-94 0 -152.5 -34.5t-58.5 -96.5q0 -51 28.5 -77.5t86 -43t202.5 -49.5q180 -39 256 -118.5t76 -194.5q0 -84 -52 -155.5t-149.5 -115.5t-226.5 -44q-127 0 -224 39.5t-150.5 97t-53.5 108.5zM428 1251q0 16 10 27l156 188q23 25 37 32t39 7h151 q18 0 28.5 -11t10.5 -30q0 -14 -10 -24l-227 -187q-23 -18 -40.5 -26t-45.5 -8h-76q-33 0 -33 32z" />
<glyph unicode="&#x15c;" horiz-adv-x="1265" d="M78 360q0 18 13 32t32 14h84q23 0 37 -9.5t26 -36.5q33 -74 120 -135t237 -61t253 64.5t103 168.5q0 68 -54.5 114t-148.5 78t-276 79q-199 51 -287 148t-88 241q0 106 55.5 196t166 145.5t265.5 55.5q156 0 273 -60.5t180.5 -148.5t67.5 -162q2 -18 -12.5 -31.5 t-32.5 -13.5h-84q-25 0 -37.5 9.5t-26.5 35.5q-33 63 -113.5 125t-214.5 62q-123 0 -207.5 -55.5t-84.5 -157.5q0 -70 42 -114t127 -75.5t257 -76.5q233 -61 330.5 -150.5t97.5 -243.5q0 -123 -69 -217t-193.5 -147t-288.5 -53q-152 0 -277 57t-196.5 146t-75.5 177z M321 1569q0 16 10 26l189 189q20 23 36.5 31t39.5 8h61q23 0 39 -8.5t37 -30.5l188 -189q10 -10 10 -26q0 -33 -32 -33h-54q-18 0 -30.5 5t-32.5 18l-156 104l-155 -104q-20 -12 -32.5 -17.5t-31.5 -5.5h-53q-33 0 -33 33z" />
<glyph unicode="&#x15d;" horiz-adv-x="1036" d="M90 225q0 20 16.5 35.5t38.5 15.5h74q18 0 32.5 -4t27.5 -22q68 -94 239 -94q96 0 169 40t73 99q0 49 -36 78.5t-103.5 49t-210.5 50.5q-299 63 -299 305q0 84 45 153.5t134 111.5t218 42q127 0 219 -36.5t140 -92t48 -106.5q0 -20 -16 -35.5t-39 -15.5h-67q-39 0 -62 28 q-63 82 -223 82q-94 0 -152.5 -34.5t-58.5 -96.5q0 -51 28.5 -77.5t86 -43t202.5 -49.5q180 -39 256 -118.5t76 -194.5q0 -84 -52 -155.5t-149.5 -115.5t-226.5 -44q-127 0 -224 39.5t-150.5 97t-53.5 108.5zM221 1251q0 16 11 27l188 188q20 23 36.5 31t39.5 8h41 q22 0 38.5 -8t37.5 -31l188 -188q10 -10 10 -27q0 -33 -33 -32h-43q-18 0 -30.5 5t-32.5 17l-156 105l-155 -105q-20 -12 -32.5 -17t-31.5 -5h-43q-33 0 -33 32z" />
<glyph unicode="&#x15e;" horiz-adv-x="1265" d="M78 360q0 18 13 32t32 14h84q23 0 37 -9.5t26 -36.5q33 -74 120 -135t237 -61t253 64.5t103 168.5q0 68 -54.5 114t-148.5 78t-276 79q-199 51 -287 148t-88 241q0 106 55.5 196t166 145.5t265.5 55.5q156 0 273 -60.5t180.5 -148.5t67.5 -162q2 -18 -12.5 -31.5 t-32.5 -13.5h-84q-25 0 -37.5 9.5t-26.5 35.5q-33 63 -113.5 125t-214.5 62q-123 0 -207.5 -55.5t-84.5 -157.5q0 -70 42 -114t127 -75.5t257 -76.5q233 -61 330.5 -150.5t97.5 -243.5q0 -121 -68 -215t-191.5 -148t-285.5 -54l-43 -95q27 16 72 17q68 0 111.5 -49.5 t43.5 -122.5q0 -80 -50 -130.5t-153 -50.5q-59 0 -112 29t-53 57q0 10 8 19l28 27q16 12 27 12q10 0 39 -19.5t63 -19.5q88 0 88 72t-88 71q-27 0 -51 -9t-33 -9q-12 0 -26 14l-35 37q-8 8 -8 20q0 16 12 41l41 99q-123 18 -222 77.5t-155.5 138.5t-58.5 154z" />
<glyph unicode="&#x15f;" horiz-adv-x="1034" d="M90 225q0 20 16.5 35.5t38.5 15.5h74q18 0 32.5 -4t27.5 -22q68 -94 239 -94q96 0 169 40t73 99q0 49 -36 78.5t-103.5 49t-210.5 50.5q-299 63 -299 305q0 84 45 153.5t134 111.5t218 42q127 0 219 -36.5t140 -92t48 -106.5q0 -20 -16 -35.5t-39 -15.5h-67q-39 0 -62 28 q-63 82 -223 82q-94 0 -152.5 -34.5t-58.5 -96.5q0 -51 28.5 -77.5t86 -43t202.5 -49.5q180 -39 256 -118.5t76 -194.5q0 -80 -50 -151.5t-144.5 -116.5t-216.5 -47l-43 -95q27 16 71 17q68 0 112 -49.5t44 -122.5q0 -80 -50.5 -130.5t-152.5 -50.5q-59 0 -112.5 29 t-53.5 57q0 10 8 19l29 27q16 12 27 12q10 0 38.5 -19.5t63.5 -19.5q88 0 88 72t-88 71q-27 0 -51.5 -9t-32.5 -9q-12 0 -26 14l-35 37q-8 8 -9 20q0 16 13 41l41 97q-96 14 -171 53t-115 89t-40 95z" />
<glyph unicode="&#x160;" horiz-adv-x="1265" d="M78 360q0 18 13 32t32 14h84q23 0 37 -9.5t26 -36.5q33 -74 120 -135t237 -61t253 64.5t103 168.5q0 68 -54.5 114t-148.5 78t-276 79q-199 51 -287 148t-88 241q0 106 55.5 196t166 145.5t265.5 55.5q156 0 273 -60.5t180.5 -148.5t67.5 -162q2 -18 -12.5 -31.5 t-32.5 -13.5h-84q-25 0 -37.5 9.5t-26.5 35.5q-33 63 -113.5 125t-214.5 62q-123 0 -207.5 -55.5t-84.5 -157.5q0 -70 42 -114t127 -75.5t257 -76.5q233 -61 330.5 -150.5t97.5 -243.5q0 -123 -69 -217t-193.5 -147t-288.5 -53q-152 0 -277 57t-196.5 146t-75.5 177z M321 1790q0 33 33 33h53q18 0 30.5 -5.5t33.5 -17.5l155 -104l156 104q20 12 32.5 17.5t30.5 5.5h54q33 0 32 -33q0 -16 -10 -27l-188 -188q-20 -23 -36.5 -31t-39.5 -8h-61q-23 0 -39.5 8t-36.5 31l-189 188q-10 10 -10 27z" />
<glyph unicode="&#x161;" horiz-adv-x="1036" d="M90 225q0 20 16.5 35.5t38.5 15.5h74q18 0 32.5 -4t27.5 -22q68 -94 239 -94q96 0 169 40t73 99q0 49 -36 78.5t-103.5 49t-210.5 50.5q-299 63 -299 305q0 84 45 153.5t134 111.5t218 42q127 0 219 -36.5t140 -92t48 -106.5q0 -20 -16 -35.5t-39 -15.5h-67q-39 0 -62 28 q-63 82 -223 82q-94 0 -152.5 -34.5t-58.5 -96.5q0 -51 28.5 -77.5t86 -43t202.5 -49.5q180 -39 256 -118.5t76 -194.5q0 -84 -52 -155.5t-149.5 -115.5t-226.5 -44q-127 0 -224 39.5t-150.5 97t-53.5 108.5zM221 1473q0 33 33 32h43q18 0 30.5 -5t32.5 -17l156 -105 l156 105q20 12 32.5 17t30.5 5h43q33 0 33 -32q0 -16 -10 -27l-189 -189q-20 -23 -36.5 -30.5t-38.5 -7.5h-41q-23 0 -39.5 8t-36.5 30l-189 189q-10 10 -10 27z" />
<glyph unicode="&#x164;" horiz-adv-x="1165" d="M47 1305v73q0 23 16.5 39.5t38.5 16.5h961q22 0 38.5 -16.5t16.5 -39.5v-73q0 -23 -16.5 -39.5t-38.5 -16.5h-383v-1194q0 -23 -16.5 -39t-38.5 -16h-84q-23 0 -39.5 16.5t-16.5 38.5v1194h-383q-23 0 -39 16.5t-16 39.5zM276 1790q0 33 33 33h53q18 0 30.5 -5.5 t33.5 -17.5l155 -104l156 104q20 12 32.5 17.5t30.5 5.5h54q33 0 32 -33q0 -16 -10 -27l-188 -188q-20 -23 -36.5 -31t-39.5 -8h-61q-23 0 -39.5 8t-36.5 31l-189 188q-10 10 -10 27z" />
<glyph unicode="&#x165;" horiz-adv-x="884" d="M39 944v66q0 23 16.5 39t38.5 16h152v334q0 23 16.5 39t38.5 16h76q23 0 39 -16.5t16 -38.5v-334h260q23 0 39.5 -16.5t16.5 -38.5v-66q0 -23 -16.5 -39t-39.5 -16h-260v-531q0 -88 36 -135t136 -47h109q23 0 39 -16.5t16 -38.5v-66q0 -23 -16.5 -39t-38.5 -16h-129 q-174 0 -256 91t-82 267v531h-152q-23 0 -39 16.5t-16 38.5zM788 1089v4l43 281q6 32 27.5 56t60.5 24h107q18 0 31.5 -13.5t13.5 -31.5q0 -8 -2 -15l-111 -284q-25 -66 -88 -66h-37q-18 0 -31.5 13.5t-13.5 31.5z" />
<glyph unicode="&#x166;" horiz-adv-x="1185" d="M57 1305v73q0 23 16.5 39.5t39.5 16.5h960q23 0 39 -16.5t16 -39.5v-73q0 -23 -16 -39.5t-39 -16.5h-383v-403h219q23 0 39.5 -16.5t16.5 -38.5v-64q0 -23 -16.5 -39t-39.5 -16h-219v-617q0 -23 -16.5 -39t-38.5 -16h-84q-23 0 -39 16.5t-16 38.5v617h-220 q-23 0 -39 16.5t-16 38.5v64q0 23 16.5 39t38.5 16h220v403h-383q-23 0 -39.5 16.5t-16.5 39.5z" />
<glyph unicode="&#x167;" horiz-adv-x="831" d="M47 645v66q0 23 16.5 39t38.5 16h152v123h-152q-23 0 -39 16.5t-16 38.5v66q0 23 16.5 39t38.5 16h152v334q0 23 16.5 39t38.5 16h76q23 0 39 -16.5t16 -38.5v-334h260q23 0 39.5 -16.5t16.5 -38.5v-66q0 -23 -16.5 -39t-39.5 -16h-260v-123h260q23 0 39.5 -16.5 t16.5 -38.5v-66q0 -23 -16.5 -39t-39.5 -16h-260v-232q0 -88 36 -135t136 -47h109q23 0 39 -16.5t16 -38.5v-66q0 -23 -16.5 -39t-38.5 -16h-129q-174 0 -256 91t-82 267v232h-152q-23 0 -39 16.5t-16 38.5z" />
<glyph unicode="&#x168;" horiz-adv-x="1429" d="M164 559v819q0 23 16.5 39.5t38.5 16.5h84q23 0 39 -16.5t16 -39.5v-829q0 -197 93.5 -296t263.5 -99t264 99t94 296v829q0 23 16.5 39.5t38.5 16.5h82q23 0 39.5 -16.5t16.5 -39.5v-819q0 -266 -136.5 -422.5t-414.5 -156.5q-283 0 -417 156.5t-134 422.5zM409 1575 q0 37 19.5 83t58.5 80t98 34q47 0 78 -10.5t70 -28.5q25 -14 44 -20.5t42 -6.5t34 8t19 23q8 12 15 18t20 6h76q18 0 28 -11t10 -28q0 -37 -19 -83t-58 -79.5t-99 -33.5q-47 0 -79.5 10t-69.5 29q-20 10 -42 18t-42 8q-23 0 -34 -8t-19 -22q-8 -12 -15.5 -18.5t-19.5 -6.5 h-76q-18 0 -28.5 11.5t-10.5 27.5z" />
<glyph unicode="&#x169;" horiz-adv-x="1222" d="M143 438v572q0 22 16.5 38.5t39.5 16.5h75q23 0 39.5 -16.5t16.5 -38.5v-541q0 -156 70.5 -234.5t205.5 -78.5q131 0 204 79.5t73 233.5v541q0 23 16 39t39 16h76q23 0 39 -16.5t16 -38.5v-955q0 -23 -16.5 -39t-38.5 -16h-76q-23 0 -39 16.5t-16 38.5v64 q-106 -139 -308 -139q-197 0 -314.5 122.5t-117.5 335.5zM307 1257q0 37 19.5 83t58.5 80t98 34q45 0 76 -10t66 -29q18 -10 38.5 -18t40.5 -8q23 0 34 8t20 22q8 12 15 18.5t19 6.5h76q18 0 28.5 -11.5t10.5 -27.5q0 -37 -19.5 -83t-58.5 -80t-98 -34q-45 0 -74.5 10.5 t-70.5 30.5q-18 10 -38 17.5t-38 7.5q-23 0 -34 -8.5t-19 -22.5q-8 -12 -15.5 -18t-19.5 -6h-76q-18 0 -28.5 11t-10.5 27z" />
<glyph unicode="&#x16a;" horiz-adv-x="1429" d="M164 559v819q0 23 16.5 39.5t38.5 16.5h84q23 0 39 -16.5t16 -39.5v-829q0 -197 93.5 -296t263.5 -99t264 99t94 296v829q0 23 16.5 39.5t38.5 16.5h82q23 0 39.5 -16.5t16.5 -39.5v-819q0 -266 -136.5 -422.5t-414.5 -156.5q-283 0 -417 156.5t-134 422.5zM426 1591v74 q0 23 16.5 39t38.5 16h469q23 0 39.5 -16t16.5 -39v-74q0 -23 -16.5 -39t-39.5 -16h-469q-22 0 -38.5 16.5t-16.5 38.5z" />
<glyph unicode="&#x16b;" horiz-adv-x="1222" d="M143 438v572q0 22 16.5 38.5t39.5 16.5h75q23 0 39.5 -16.5t16.5 -38.5v-541q0 -156 70.5 -234.5t205.5 -78.5q131 0 204 79.5t73 233.5v541q0 23 16 39t39 16h76q23 0 39 -16.5t16 -38.5v-955q0 -23 -16.5 -39t-38.5 -16h-76q-23 0 -39 16.5t-16 38.5v64 q-106 -139 -308 -139q-197 0 -314.5 122.5t-117.5 335.5zM328 1294v66q0 23 16.5 39t38.5 16h449q23 0 39 -16.5t16 -38.5v-66q0 -23 -16.5 -39t-38.5 -16h-449q-22 0 -38.5 16.5t-16.5 38.5z" />
<glyph unicode="&#x16c;" horiz-adv-x="1429" d="M164 559v819q0 23 16.5 39.5t38.5 16.5h84q23 0 39 -16.5t16 -39.5v-829q0 -197 93.5 -296t263.5 -99t264 99t94 296v829q0 23 16.5 39.5t38.5 16.5h82q23 0 39.5 -16.5t16.5 -39.5v-819q0 -266 -136.5 -422.5t-414.5 -156.5q-283 0 -417 156.5t-134 422.5zM450 1784 q0 16 10.5 27.5t28.5 11.5h66q18 0 28 -11.5t10 -27.5q0 -53 33 -88t88 -35t88 35t33 88q0 16 10.5 27.5t28.5 11.5h66q18 0 28.5 -11.5t10.5 -27.5q0 -104 -68 -181t-197 -77t-196.5 76.5t-67.5 181.5z" />
<glyph unicode="&#x16d;" horiz-adv-x="1222" d="M143 438v572q0 22 16.5 38.5t39.5 16.5h75q23 0 39.5 -16.5t16.5 -38.5v-541q0 -156 70.5 -234.5t205.5 -78.5q131 0 204 79.5t73 233.5v541q0 23 16 39t39 16h76q23 0 39 -16.5t16 -38.5v-955q0 -23 -16.5 -39t-38.5 -16h-76q-23 0 -39 16.5t-16 38.5v64 q-106 -139 -308 -139q-197 0 -314.5 122.5t-117.5 335.5zM352 1466q0 17 10.5 28t28.5 11h66q18 0 28 -11t10 -28q0 -53 30 -88t81 -35t81 35t30 88q0 16 10 27.5t29 11.5h65q18 0 28.5 -11t10.5 -28q0 -102 -65.5 -180t-188.5 -78t-188.5 78t-65.5 180z" />
<glyph unicode="&#x16e;" horiz-adv-x="1429" d="M164 559v819q0 23 16.5 39.5t38.5 16.5h84q23 0 39 -16.5t16 -39.5v-829q0 -197 93.5 -296t263.5 -99t264 99t94 296v829q0 23 16.5 39.5t38.5 16.5h82q23 0 39.5 -16.5t16.5 -39.5v-819q0 -266 -136.5 -422.5t-414.5 -156.5q-283 0 -417 156.5t-134 422.5zM541 1679 q0 72 50 118t124 46t124 -46t50 -118t-50 -117.5t-124 -45.5t-124 46t-50 117zM654 1679q0 -27 17.5 -44t43.5 -17q27 0 44.5 17.5t17.5 43.5q0 27 -17.5 44.5t-44.5 17.5t-44 -17.5t-17 -44.5z" />
<glyph unicode="&#x16f;" horiz-adv-x="1222" d="M143 438v572q0 22 16.5 38.5t39.5 16.5h75q23 0 39.5 -16.5t16.5 -38.5v-541q0 -156 70.5 -234.5t205.5 -78.5q131 0 204 79.5t73 233.5v541q0 23 16 39t39 16h76q23 0 39 -16.5t16 -38.5v-955q0 -23 -16.5 -39t-38.5 -16h-76q-23 0 -39 16.5t-16 38.5v64 q-106 -139 -308 -139q-197 0 -314.5 122.5t-117.5 335.5zM432 1372q0 72 50 118t124 46t124 -46t50 -118t-50 -118t-124 -46t-124 46t-50 118zM545 1372q0 -27 17.5 -44t43.5 -17q27 0 44.5 17.5t17.5 43.5q0 27 -17.5 44.5t-44.5 17.5t-44 -17.5t-17 -44.5z" />
<glyph unicode="&#x170;" horiz-adv-x="1429" d="M164 559v819q0 23 16.5 39.5t38.5 16.5h84q23 0 39 -16.5t16 -39.5v-829q0 -197 93.5 -296t263.5 -99t264 99t94 296v829q0 23 16.5 39.5t38.5 16.5h82q23 0 39.5 -16.5t16.5 -39.5v-819q0 -266 -136.5 -422.5t-414.5 -156.5q-283 0 -417 156.5t-134 422.5zM414 1569 q0 10 10 30l82 185q11 20 28 29.5t48 9.5h152q18 0 29.5 -10.5t11.5 -28.5q0 -14 -13 -27l-178 -192q-25 -29 -70 -29h-67q-33 0 -33 33zM787 1569q0 10 10 30l82 185q10 20 27.5 29.5t48.5 9.5h151q18 0 29.5 -10.5t11.5 -28.5q0 -14 -12 -27l-178 -192q-25 -29 -70 -29 h-67q-33 0 -33 33z" />
<glyph unicode="&#x171;" horiz-adv-x="1222" d="M143 438v572q0 22 16.5 38.5t39.5 16.5h75q23 0 39.5 -16.5t16.5 -38.5v-541q0 -156 70.5 -234.5t205.5 -78.5q131 0 204 79.5t73 233.5v541q0 23 16 39t39 16h76q23 0 39 -16.5t16 -38.5v-955q0 -23 -16.5 -39t-38.5 -16h-76q-23 0 -39 16.5t-16 38.5v64 q-106 -139 -308 -139q-197 0 -314.5 122.5t-117.5 335.5zM336 1251q0 10 10 31l82 184q11 21 28 30t48 9h141q18 0 29.5 -10t11.5 -29q0 -14 -12 -26l-178 -193q-25 -29 -70 -28h-57q-33 0 -33 32zM699 1251q0 10 10 31l82 184q10 21 27.5 30t48.5 9h141q18 0 29.5 -10 t11.5 -29q0 -14 -12 -26l-179 -193q-25 -29 -69 -28h-58q-33 0 -32 32z" />
<glyph unicode="&#x172;" horiz-adv-x="1429" d="M164 559v819q0 23 16.5 39.5t38.5 16.5h84q23 0 39 -16.5t16 -39.5v-829q0 -197 93.5 -296t263.5 -99t264 99t94 296v829q0 23 16.5 39.5t38.5 16.5h82q23 0 39.5 -16.5t16.5 -39.5v-819q0 -229 -104.5 -379.5t-313.5 -187.5q-63 -10 -92 -43t-29 -101q0 -78 34 -114.5 t101 -36.5h31q20 0 32.5 -12.5t12.5 -32.5v-58q0 -20 -12.5 -32.5t-32.5 -12.5h-39q-129 0 -211 79t-82 220q0 74 27 142q-217 35 -320.5 185.5t-103.5 383.5z" />
<glyph unicode="&#x173;" horiz-adv-x="1222" d="M143 438v572q0 22 16.5 38.5t39.5 16.5h75q23 0 39.5 -16.5t16.5 -38.5v-541q0 -156 70.5 -234.5t205.5 -78.5q131 0 204 79.5t73 233.5v541q0 23 16 39t39 16h76q23 0 39 -16.5t16 -38.5v-969q0 -23 -18 -41q-16 -14 -54 -39q-47 -29 -70.5 -56.5t-23.5 -76.5 q0 -63 29 -97t80 -34h12q20 0 32.5 -12.5t12.5 -32.5v-58q0 -20 -12.5 -32.5t-32.5 -12.5h-20q-125 0 -196 74t-71 205t146 231v60q-106 -139 -308 -139q-197 0 -314.5 122.5t-117.5 335.5z" />
<glyph unicode="&#x174;" horiz-adv-x="1622" d="M82 1389q0 18 13.5 31.5t31.5 13.5h82q23 0 40 -13.5t23 -42.5l209 -1132l226 811q4 20 20 39.5t49 19.5h70q33 0 49 -19.5t20 -39.5l226 -811l209 1132q6 29 23.5 42.5t39.5 13.5h82q18 0 31.5 -13.5t13.5 -31.5l-2 -17l-252 -1266q-12 -55 -32.5 -80.5t-67.5 -25.5h-82 q-45 0 -67.5 27.5t-37.5 78.5l-188 685l-188 -685q-14 -51 -37 -78.5t-68 -27.5h-82q-47 0 -67.5 25.5t-32.5 80.5l-252 1266zM506 1569q0 16 10 26l189 189q20 23 36.5 31t39.5 8h61q23 0 39 -8.5t37 -30.5l188 -189q10 -10 10 -26q0 -33 -32 -33h-54q-18 0 -30.5 5 t-32.5 18l-156 104l-155 -104q-20 -12 -32.5 -17.5t-31.5 -5.5h-53q-33 0 -33 33z" />
<glyph unicode="&#x175;" horiz-adv-x="1646" d="M76 1016q0 20 14 34.5t35 14.5h68q51 0 69 -49l230 -684l245 684q18 49 64 49h45q45 0 63 -49l246 -684l229 684q18 49 70 49h68q20 0 34.5 -14.5t14.5 -34.5l-2 -17l-314 -942q-18 -57 -61 -57h-64q-25 0 -39 15.5t-24 41.5l-244 680l-243 -680q-10 -27 -24.5 -42 t-39.5 -15h-63q-43 0 -62 57l-313 942zM528 1251q0 16 11 27l188 188q20 23 36.5 31t39.5 8h41q22 0 38.5 -8t37.5 -31l188 -188q10 -10 10 -27q0 -33 -33 -32h-43q-18 0 -30.5 5t-32.5 17l-156 105l-155 -105q-20 -12 -32.5 -17t-31.5 -5h-43q-33 0 -33 32z" />
<glyph unicode="&#x176;" horiz-adv-x="1316" d="M61 1389q0 18 13.5 31.5t31.5 13.5h89q37 0 54 -13.5t32 -38.5l376 -651l379 651q14 25 31.5 38.5t54.5 13.5h88q18 0 31.5 -13.5t13.5 -31.5q0 -10 -10 -29l-489 -825v-480q0 -22 -16.5 -38.5t-39.5 -16.5h-84q-23 0 -39 16.5t-16 38.5v480l-489 825q-10 18 -11 29z M352 1569q0 16 10 26l189 189q20 23 36.5 31t39.5 8h61q23 0 39 -8.5t37 -30.5l188 -189q10 -10 10 -26q0 -33 -32 -33h-54q-18 0 -30.5 5t-32.5 18l-156 104l-155 -104q-20 -12 -32.5 -17.5t-31.5 -5.5h-53q-33 0 -33 33z" />
<glyph unicode="&#x177;" d="M66 1016q0 20 14 34.5t35 14.5h84q41 0 59 -49l315 -697l320 697q18 49 59 49h84q20 0 34.5 -14.5t14.5 -34.5q0 -8 -2 -15l-616 -1341q-18 -49 -59 -49h-84q-20 0 -35 14.5t-15 34.5q0 8 2 14l197 428l-405 899q-2 6 -2 15zM278 1251q0 16 11 27l188 188q20 23 36.5 31 t39.5 8h41q22 0 38.5 -8t37.5 -31l188 -188q10 -10 10 -27q0 -33 -33 -32h-43q-18 0 -30.5 5t-32.5 17l-156 105l-155 -105q-20 -12 -32.5 -17t-31.5 -5h-43q-33 0 -33 32z" />
<glyph unicode="&#x178;" horiz-adv-x="1316" d="M61 1389q0 18 13.5 31.5t31.5 13.5h89q37 0 54 -13.5t32 -38.5l376 -651l379 651q14 25 31.5 38.5t54.5 13.5h88q18 0 31.5 -13.5t13.5 -31.5q0 -10 -10 -29l-489 -825v-480q0 -22 -16.5 -38.5t-39.5 -16.5h-84q-23 0 -39 16.5t-16 38.5v480l-489 825q-10 18 -11 29z M328 1591v117q0 23 16.5 39t38.5 16h117q23 0 39 -16t16 -39v-117q0 -22 -16 -38.5t-39 -16.5h-117q-23 0 -39 16.5t-16 38.5zM760 1591v117q0 23 16.5 39t39.5 16h116q23 0 39.5 -16t16.5 -39v-117q0 -22 -16.5 -38.5t-39.5 -16.5h-116q-23 0 -39.5 16.5t-16.5 38.5z" />
<glyph unicode="&#x179;" horiz-adv-x="1224" d="M80 55v74q0 29 14.5 49.5t16.5 22.5l759 1048h-714q-23 0 -39.5 16.5t-16.5 39.5v73q0 23 16.5 39.5t39.5 16.5h913q23 0 39 -16.5t16 -39.5v-73q0 -33 -26 -68l-764 -1053h756q22 0 38.5 -16t16.5 -39v-74q0 -23 -16.5 -39t-38.5 -16h-955q-23 0 -39 16.5t-16 38.5z M510 1569q0 16 10 26l156 189q22 24 36.5 31.5t38.5 7.5h162q18 0 28.5 -11.5t10.5 -29.5q0 -14 -10 -25l-228 -186q-23 -18 -40 -26.5t-46 -8.5h-86q-33 0 -32 33z" />
<glyph unicode="&#x17a;" horiz-adv-x="1046" d="M86 55v80q0 25 29 60l563 694h-516q-23 0 -39.5 16.5t-16.5 38.5v66q0 23 16.5 39t39.5 16h712q23 0 39.5 -16.5t16.5 -38.5v-80q0 -20 -12.5 -36.5t-16.5 -23.5l-567 -694h581q23 0 39.5 -16.5t16.5 -38.5v-66q0 -23 -16.5 -39t-39.5 -16h-774q-23 0 -39 16.5t-16 38.5z M426 1251q0 16 10 27l156 188q23 25 37 32t39 7h151q18 0 28.5 -11t10.5 -30q0 -14 -10 -24l-227 -187q-23 -18 -40.5 -26t-45.5 -8h-76q-33 0 -33 32z" />
<glyph unicode="&#x17b;" horiz-adv-x="1224" d="M80 55v74q0 29 14.5 49.5t16.5 22.5l759 1048h-714q-23 0 -39.5 16.5t-16.5 39.5v73q0 23 16.5 39.5t39.5 16.5h913q23 0 39 -16.5t16 -39.5v-73q0 -33 -26 -68l-764 -1053h756q22 0 38.5 -16t16.5 -39v-74q0 -23 -16.5 -39t-38.5 -16h-955q-23 0 -39 16.5t-16 38.5z M500 1591v117q0 23 16.5 39t38.5 16h117q23 0 39 -16t16 -39v-117q0 -22 -16 -38.5t-39 -16.5h-117q-23 0 -39 16.5t-16 38.5z" />
<glyph unicode="&#x17c;" horiz-adv-x="1046" d="M86 55v80q0 25 29 60l563 694h-516q-23 0 -39.5 16.5t-16.5 38.5v66q0 23 16.5 39t39.5 16h712q23 0 39.5 -16.5t16.5 -38.5v-80q0 -20 -12.5 -36.5t-16.5 -23.5l-567 -694h581q23 0 39.5 -16.5t16.5 -38.5v-66q0 -23 -16.5 -39t-39.5 -16h-774q-23 0 -39 16.5t-16 38.5z M416 1284v117q0 23 16.5 39t38.5 16h117q23 0 39 -16.5t16 -38.5v-117q0 -22 -16 -38.5t-39 -16.5h-117q-23 0 -39 16.5t-16 38.5z" />
<glyph unicode="&#x17d;" horiz-adv-x="1224" d="M80 55v74q0 29 14.5 49.5t16.5 22.5l759 1048h-714q-23 0 -39.5 16.5t-16.5 39.5v73q0 23 16.5 39.5t39.5 16.5h913q23 0 39 -16.5t16 -39.5v-73q0 -33 -26 -68l-764 -1053h756q22 0 38.5 -16t16.5 -39v-74q0 -23 -16.5 -39t-38.5 -16h-955q-23 0 -39 16.5t-16 38.5z M307 1790q0 33 33 33h53q18 0 30.5 -5.5t33.5 -17.5l155 -104l156 104q20 12 32.5 17.5t30.5 5.5h54q33 0 32 -33q0 -16 -10 -27l-188 -188q-20 -23 -36.5 -31t-39.5 -8h-61q-23 0 -39.5 8t-36.5 31l-189 188q-10 10 -10 27z" />
<glyph unicode="&#x17e;" horiz-adv-x="1046" d="M86 55v80q0 25 29 60l563 694h-516q-23 0 -39.5 16.5t-16.5 38.5v66q0 23 16.5 39t39.5 16h712q23 0 39.5 -16.5t16.5 -38.5v-80q0 -20 -12.5 -36.5t-16.5 -23.5l-567 -694h581q23 0 39.5 -16.5t16.5 -38.5v-66q0 -23 -16.5 -39t-39.5 -16h-774q-23 0 -39 16.5t-16 38.5z M233 1473q0 33 33 32h43q18 0 30.5 -5t32.5 -17l156 -105l156 105q20 12 32.5 17t30.5 5h43q33 0 33 -32q0 -16 -10 -27l-189 -189q-20 -23 -36.5 -30.5t-38.5 -7.5h-41q-23 0 -39.5 8t-36.5 30l-189 189q-10 10 -10 27z" />
<glyph unicode="&#x17f;" horiz-adv-x="606" d="M39 944v66q0 23 16.5 39t38.5 16h172v102q0 176 82 262.5t256 86.5h129q23 0 39 -16.5t16 -39.5v-65q0 -23 -16 -39.5t-39 -16.5h-108q-100 0 -136 -47t-36 -135v-1102q0 -22 -16.5 -38.5t-39.5 -16.5h-75q-23 0 -39.5 16.5t-16.5 38.5v834h-172q-23 0 -39 16.5t-16 38.5 z" />
<glyph unicode="&#x192;" horiz-adv-x="851" d="M31 -340q0 23 16 39t39 16h29q100 0 136 47.5t36 135.5v991h-172q-23 0 -39.5 16.5t-16.5 38.5v66q0 23 16.5 39t39.5 16h172v102q0 176 82 262.5t256 86.5h129q23 0 39 -16.5t16 -39.5v-65q0 -23 -16.5 -39.5t-38.5 -16.5h-109q-100 0 -136 -47t-36 -135v-92h260 q23 0 39 -16.5t16 -38.5v-66q0 -23 -16 -39t-39 -16h-260v-991q0 -176 -82 -267.5t-256 -91.5h-49q-23 0 -39 16.5t-16 38.5v66z" />
<glyph unicode="&#x1fc;" horiz-adv-x="1964" d="M2 45q0 10 8 25l766 1296q18 33 36.5 50.5t55.5 17.5h926q23 0 39 -16.5t16 -39.5v-73q0 -23 -16 -39.5t-39 -16.5h-672v-432h627q23 0 39 -16.5t16 -38.5v-74q0 -23 -16 -39t-39 -16h-627v-449h688q23 0 39.5 -16t16.5 -39v-74q0 -23 -16.5 -39t-39.5 -16h-827 q-23 0 -39 16.5t-16 38.5v269h-549l-160 -273q-31 -51 -80 -51h-92q-18 0 -31.5 13.5t-13.5 31.5zM489 508h439v741zM916 1569q0 16 10 26l156 189q22 24 36.5 31.5t38.5 7.5h162q18 0 28.5 -11.5t10.5 -29.5q0 -14 -10 -25l-228 -186q-23 -18 -40 -26.5t-46 -8.5h-86 q-33 0 -32 33z" />
<glyph unicode="&#x1fd;" horiz-adv-x="1828" d="M78 268q0 154 114.5 241t305.5 118l288 47v26q0 100 -66.5 154.5t-172.5 54.5q-82 0 -128 -27.5t-87 -82.5q-12 -16 -26.5 -22.5t-39.5 -6.5h-61q-23 0 -40.5 16.5t-14.5 38.5q6 61 60 122t144 99.5t193 38.5q117 0 210 -42t148 -121q61 78 152.5 120.5t204.5 42.5 q219 0 346 -139t127 -379v-55q0 -23 -16.5 -39t-39.5 -16h-704v-13q4 -135 83 -211.5t204 -76.5q102 0 158.5 26.5t101.5 75.5q16 16 29.5 22.5t35.5 6.5h62q25 0 41 -16.5t14 -39.5q-8 -55 -60.5 -113.5t-149.5 -98t-232 -39.5q-125 0 -223.5 54t-161.5 152 q-78 -102 -181.5 -154t-261.5 -52q-104 0 -186 37.5t-126 103t-44 147.5zM264 289q0 -51 47 -92t144 -41q147 0 239 84t92 219v51l-241 -39q-133 -20 -207 -66.5t-74 -115.5zM805 1251q0 16 10 27l156 188q23 25 37 32t39 7h151q18 0 28.5 -11t10.5 -30q0 -14 -10 -24 l-227 -187q-23 -18 -40.5 -26t-45.5 -8h-76q-33 0 -33 32zM975 629h575v6q0 125 -78.5 199.5t-209.5 74.5q-119 0 -202 -75.5t-85 -198.5v-6z" />
<glyph unicode="&#x1fe;" horiz-adv-x="1411" d="M16 424v57q0 29 10.5 44.5t34.5 23.5l78 31l-2 127q0 51 4 182q4 162 71 290t192.5 201.5t302.5 73.5q225 0 368.5 -120t181.5 -316l70 26q14 6 23 7q18 0 30.5 -12.5t12.5 -30.5v-58q0 -27 -10.5 -42t-34.5 -25l-76 -29q4 -106 4 -154q0 -45 -4 -155q-6 -162 -72.5 -290 t-192.5 -201.5t-300 -73.5q-225 0 -367.5 118.5t-183.5 317.5l-74 -29q-14 -6 -23 -6q-18 0 -30.5 12.5t-12.5 30.5zM332 655l741 289q-20 160 -118.5 243t-247.5 83q-164 0 -264.5 -96.5t-106.5 -284.5q-4 -84 -4 -234zM340 487q18 -160 116.5 -241.5t250.5 -81.5 q164 0 264 96t106 285q2 59 2 166v67zM598 1569q0 16 10 26l156 189q22 24 36.5 31.5t38.5 7.5h162q18 0 28.5 -11.5t10.5 -29.5q0 -14 -10 -25l-228 -186q-23 -18 -40 -26.5t-46 -8.5h-86q-33 0 -32 33z" />
<glyph unicode="&#x1ff;" horiz-adv-x="1243" d="M25 276v58q0 29 10 44t35 23l67 27v8q-2 23 -2 94q0 76 2 99q16 209 143.5 332.5t342.5 123.5q166 0 281.5 -77.5t166.5 -214.5l82 32q16 6 23 6q18 0 30.5 -12t12.5 -31v-57q0 -27 -10.5 -42t-34.5 -25l-68 -27l2 -8q4 -45 4 -99q0 -49 -4 -94q-18 -209 -144 -332.5 t-341 -123.5q-168 0 -284 76.5t-167 215.5l-82 -32q-16 -6 -22 -7q-18 0 -30.5 12.5t-12.5 30.5zM319 500l580 225q-33 86 -102.5 135t-173.5 49q-137 0 -212 -79.5t-87 -211.5q-4 -33 -5 -118zM346 340q31 -86 100.5 -135t176.5 -49q137 0 211.5 79.5t87.5 210.5 q4 68 2 119zM522 1251q0 16 10 27l156 188q23 25 37 32t39 7h151q18 0 28.5 -11t10.5 -30q0 -14 -10 -24l-227 -187q-23 -18 -40.5 -26t-45.5 -8h-76q-33 0 -33 32z" />
<glyph unicode="&#x218;" horiz-adv-x="1265" d="M78 360q0 18 13 32t32 14h84q23 0 37 -9.5t26 -36.5q33 -74 120 -135t237 -61t253 64.5t103 168.5q0 68 -54.5 114t-148.5 78t-276 79q-199 51 -287 148t-88 241q0 106 55.5 196t166 145.5t265.5 55.5q156 0 273 -60.5t180.5 -148.5t67.5 -162q2 -18 -12.5 -31.5 t-32.5 -13.5h-84q-25 0 -37.5 9.5t-26.5 35.5q-33 63 -113.5 125t-214.5 62q-123 0 -207.5 -55.5t-84.5 -157.5q0 -70 42 -114t127 -75.5t257 -76.5q233 -61 330.5 -150.5t97.5 -243.5q0 -123 -69 -217t-193.5 -147t-288.5 -53q-152 0 -277 57t-196.5 146t-75.5 177z M454 -463l43 281q6 32 27.5 56t60.5 24h119q18 0 31.5 -13.5t13.5 -31.5q0 -8 -2 -15l-111 -284q-25 -66 -88 -66h-49q-18 0 -31.5 13.5t-13.5 31.5v4z" />
<glyph unicode="&#x219;" horiz-adv-x="1036" d="M90 225q0 20 16.5 35.5t38.5 15.5h74q18 0 32.5 -4t27.5 -22q68 -94 239 -94q96 0 169 40t73 99q0 49 -36 78.5t-103.5 49t-210.5 50.5q-299 63 -299 305q0 84 45 153.5t134 111.5t218 42q127 0 219 -36.5t140 -92t48 -106.5q0 -20 -16 -35.5t-39 -15.5h-67q-39 0 -62 28 q-63 82 -223 82q-94 0 -152.5 -34.5t-58.5 -96.5q0 -51 28.5 -77.5t86 -43t202.5 -49.5q180 -39 256 -118.5t76 -194.5q0 -84 -52 -155.5t-149.5 -115.5t-226.5 -44q-127 0 -224 39.5t-150.5 97t-53.5 108.5zM336 -463l43 281q6 32 27.5 56t60.5 24h107q18 0 31.5 -13.5 t13.5 -31.5q0 -8 -2 -15l-111 -284q-25 -66 -88 -66h-37q-18 0 -31.5 13.5t-13.5 31.5v4z" />
<glyph unicode="&#x21a;" horiz-adv-x="1165" d="M47 1305v73q0 23 16.5 39.5t38.5 16.5h961q22 0 38.5 -16.5t16.5 -39.5v-73q0 -23 -16.5 -39.5t-38.5 -16.5h-383v-1194q0 -23 -16.5 -39t-38.5 -16h-84q-23 0 -39.5 16.5t-16.5 38.5v1194h-383q-23 0 -39 16.5t-16 39.5zM409 -463l43 281q6 32 27.5 56t60.5 24h119 q18 0 31.5 -13.5t13.5 -31.5q0 -8 -2 -15l-111 -284q-25 -66 -88 -66h-49q-18 0 -31.5 13.5t-13.5 31.5v4z" />
<glyph unicode="&#x21b;" horiz-adv-x="819" d="M39 944v66q0 23 16.5 39t38.5 16h152v334q0 23 16.5 39t38.5 16h76q23 0 39 -16.5t16 -38.5v-334h260q23 0 39.5 -16.5t16.5 -38.5v-66q0 -23 -16.5 -39t-39.5 -16h-260v-531q0 -88 36 -135t136 -47h109q23 0 39 -16.5t16 -38.5v-66q0 -23 -16.5 -39t-38.5 -16h-129 q-174 0 -256 91t-82 267v531h-152q-23 0 -39 16.5t-16 38.5zM205 -463l43 281q6 32 27.5 56t60.5 24h107q18 0 31.5 -13.5t13.5 -31.5q0 -8 -2 -15l-111 -284q-25 -66 -88 -66h-37q-18 0 -31.5 13.5t-13.5 31.5v4z" />
<glyph unicode="&#x2c6;" horiz-adv-x="876" d="M143 1251q0 16 11 27l188 188q20 23 36.5 31t39.5 8h41q22 0 38.5 -8t37.5 -31l188 -188q10 -10 10 -27q0 -33 -33 -32h-43q-18 0 -30.5 5t-32.5 17l-156 105l-155 -105q-20 -12 -32.5 -17t-31.5 -5h-43q-33 0 -33 32z" />
<glyph unicode="&#x2c7;" horiz-adv-x="856" d="M133 1473q0 33 33 32h43q18 0 30.5 -5t32.5 -17l156 -105l156 105q20 12 32.5 17t30.5 5h43q33 0 33 -32q0 -16 -10 -27l-189 -189q-20 -23 -36.5 -30.5t-38.5 -7.5h-41q-23 0 -39.5 8t-36.5 30l-189 189q-10 10 -10 27z" />
<glyph unicode="&#x2d8;" horiz-adv-x="774" d="M133 1466q0 17 10.5 28t28.5 11h66q18 0 28 -11t10 -28q0 -53 30 -88t81 -35t81 35t30 88q0 16 10 27.5t29 11.5h65q18 0 28.5 -11t10.5 -28q0 -102 -65.5 -180t-188.5 -78t-188.5 78t-65.5 180z" />
<glyph unicode="&#x2d9;" horiz-adv-x="493" d="M131 1284v117q0 23 16.5 39t38.5 16h117q23 0 39 -16.5t16 -38.5v-117q0 -22 -16 -38.5t-39 -16.5h-117q-23 0 -39 16.5t-16 38.5z" />
<glyph unicode="&#x2da;" horiz-adv-x="614" d="M133 1372q0 72 50 118t124 46t124 -46t50 -118t-50 -118t-124 -46t-124 46t-50 118zM246 1372q0 -27 17.5 -44t43.5 -17q27 0 44.5 17.5t17.5 43.5q0 27 -17.5 44.5t-44.5 17.5t-44 -17.5t-17 -44.5z" />
<glyph unicode="&#x2db;" horiz-adv-x="643" d="M133 -152q0 -141 82 -220t211 -79h39q20 0 32.5 12.5t12.5 32.5v58q0 20 -12.5 32.5t-32.5 12.5h-31q-68 0 -101.5 37t-33.5 114q0 78 34 115t101 37h31q20 0 32.5 12.5t12.5 32.5v57q0 20 -12.5 32.5t-32.5 12.5h-39q-129 0 -211 -78.5t-82 -220.5z" />
<glyph unicode="&#x2dc;" horiz-adv-x="866" d="M133 1257q0 37 19.5 83t58.5 80t98 34q45 0 76 -10t66 -29q18 -10 38.5 -18t40.5 -8q23 0 34 8t20 22q8 12 15 18.5t19 6.5h76q18 0 28.5 -11.5t10.5 -27.5q0 -37 -19.5 -83t-58.5 -80t-98 -34q-45 0 -74.5 10.5t-70.5 30.5q-18 10 -38 17.5t-38 7.5q-23 0 -34 -8.5 t-19 -22.5q-8 -12 -15.5 -18t-19.5 -6h-76q-18 0 -28.5 11t-10.5 27z" />
<glyph unicode="&#x2dd;" horiz-adv-x="978" d="M133 1251q0 10 10 31l82 184q11 21 28 30t48 9h141q18 0 29.5 -10t11.5 -29q0 -14 -12 -26l-178 -193q-25 -29 -70 -28h-57q-33 0 -33 32zM496 1251q0 10 10 31l82 184q10 21 27.5 30t48.5 9h141q18 0 29.5 -10t11.5 -29q0 -14 -12 -26l-179 -193q-25 -29 -69 -28h-58 q-33 0 -32 32z" />
<glyph unicode="&#x400;" horiz-adv-x="1212" d="M176 55q0 -23 16.5 -39t38.5 -16h828q23 0 39 16.5t16 38.5v74q0 23 -16.5 39t-38.5 16h-688v449h626q23 0 39.5 16.5t16.5 38.5v74q0 23 -16.5 39t-39.5 16h-626v432h671q23 0 39.5 16.5t16.5 39.5v73q0 23 -16.5 39.5t-39.5 16.5h-811q-23 0 -39 -16.5t-16 -39.5v-1323 zM312 1782q0 18 10 29.5t29 11.5h161q25 0 39.5 -7.5t36.5 -31.5l156 -189q10 -10 10 -26q0 -33 -33 -33h-86q-29 0 -46 8t-40 27l-227 186q-10 10 -10 25z" />
<glyph unicode="&#x401;" horiz-adv-x="1212" d="M176 55q0 -23 16.5 -39t38.5 -16h828q23 0 39 16.5t16 38.5v74q0 23 -16.5 39t-38.5 16h-688v449h626q23 0 39.5 16.5t16.5 38.5v74q0 23 -16.5 39t-39.5 16h-626v432h671q23 0 39.5 16.5t16.5 39.5v73q0 23 -16.5 39.5t-39.5 16.5h-811q-23 0 -39 -16.5t-16 -39.5v-1323 zM315 1591v117q0 23 16.5 39t38.5 16h117q23 0 39 -16t16 -39v-117q0 -22 -16 -38.5t-39 -16.5h-117q-23 0 -39 16.5t-16 38.5zM747 1591v117q0 23 16.5 39t39.5 16h116q23 0 39.5 -16t16.5 -39v-117q0 -22 -16.5 -38.5t-39.5 -16.5h-116q-23 0 -39.5 16.5t-16.5 38.5z" />
<glyph unicode="&#x402;" horiz-adv-x="1492" d="M43 1305v73q0 23 16.5 39.5t38.5 16.5h731q23 0 39.5 -16.5t16.5 -39.5v-73q0 -23 -16.5 -39.5t-39.5 -16.5h-274v-225h369q463 0 462 -461v-657q0 -182 -81.5 -274.5t-255.5 -92.5h-48q-23 0 -39 16.5t-16 38.5v74q0 23 16.5 39.5t38.5 16.5h19q100 0 136 47t36 135v647 q0 149 -72.5 218t-214.5 69h-350v-785q0 -23 -16.5 -39t-38.5 -16h-84q-23 0 -39.5 16.5t-16.5 38.5v1194h-262q-23 0 -39 16.5t-16 39.5z" />
<glyph unicode="&#x403;" horiz-adv-x="1144" d="M176 55v1323q0 23 16.5 39.5t38.5 16.5h824q22 0 38.5 -16.5t16.5 -39.5v-73q0 -23 -16.5 -39.5t-38.5 -16.5h-684v-1194q0 -23 -16.5 -39t-39.5 -16h-84q-23 0 -39 16.5t-16 38.5zM551 1569q0 16 10 26l156 189q22 24 36.5 31.5t38.5 7.5h162q18 0 28.5 -11.5 t10.5 -29.5q0 -14 -10 -25l-228 -186q-23 -18 -40 -26.5t-46 -8.5h-86q-33 0 -32 33z" />
<glyph unicode="&#x404;" horiz-adv-x="1302" d="M115 717l2 94l2 47q8 180 77.5 314.5t192.5 208t287 73.5q170 0 289.5 -62.5t179 -151.5t63.5 -167q2 -18 -12 -31.5t-33 -13.5h-94q-16 0 -30.5 12.5t-22.5 32.5q-29 82 -114 139.5t-226 57.5q-190 0 -277.5 -134.5t-87.5 -322.5h486q23 0 39 -16.5t16 -38.5v-74 q0 -23 -16.5 -39t-38.5 -16h-486q4 -209 92.5 -337t272.5 -128q141 0 226 57.5t114 138.5q8 21 22.5 33.5t30.5 12.5h94q18 0 32.5 -13.5t12.5 -32.5q-4 -78 -63.5 -167t-179 -151t-289.5 -62q-164 0 -287 73.5t-192.5 207.5t-77.5 314l-2 52q-2 37 -2 90z" />
<glyph unicode="&#x405;" horiz-adv-x="1265" d="M78 360q0 18 13 32t32 14h84q23 0 37 -9.5t26 -36.5q33 -74 120 -135t237 -61t253 64.5t103 168.5q0 68 -54.5 114t-148.5 78t-276 79q-199 51 -287 148t-88 241q0 106 55.5 196t166 145.5t265.5 55.5q156 0 273 -60.5t180.5 -148.5t67.5 -162q2 -18 -12.5 -31.5 t-32.5 -13.5h-84q-25 0 -37.5 9.5t-26.5 35.5q-33 63 -113.5 125t-214.5 62q-123 0 -207.5 -55.5t-84.5 -157.5q0 -70 42 -114t127 -75.5t257 -76.5q233 -61 330.5 -150.5t97.5 -243.5q0 -123 -69 -217t-193.5 -147t-288.5 -53q-152 0 -277 57t-196.5 146t-75.5 177z" />
<glyph unicode="&#x406;" horiz-adv-x="546" d="M176 55v1323q0 23 16.5 39.5t38.5 16.5h84q23 0 39.5 -16.5t16.5 -39.5v-1323q0 -23 -16.5 -39t-39.5 -16h-84q-22 0 -38.5 16.5t-16.5 38.5z" />
<glyph unicode="&#x407;" horiz-adv-x="546" d="M-57 1591v117q0 23 16.5 39t38.5 16h117q23 0 39 -16t16 -39v-117q0 -22 -16 -38.5t-39 -16.5h-117q-23 0 -39 16.5t-16 38.5zM176 55v1323q0 23 16.5 39.5t38.5 16.5h84q23 0 39.5 -16.5t16.5 -39.5v-1323q0 -23 -16.5 -39t-39.5 -16h-84q-22 0 -38.5 16.5t-16.5 38.5z M375 1591v117q0 23 16.5 39t39.5 16h116q23 0 39.5 -16t16.5 -39v-117q0 -22 -16.5 -38.5t-39.5 -16.5h-116q-23 0 -39.5 16.5t-16.5 38.5z" />
<glyph unicode="&#x408;" horiz-adv-x="1288" d="M70 422q0 18 13 31.5t32 13.5h104q35 0 45 -45q23 -115 104 -186.5t230 -71.5q174 0 253 92t79 268v725h-707q-23 0 -39 16.5t-16 39.5v73q0 23 16.5 39.5t38.5 16.5h846q23 0 39 -16.5t16 -39.5v-876q0 -238 -137 -380t-389 -142q-160 0 -278.5 61t-182 162.5 t-67.5 218.5z" />
<glyph unicode="&#x409;" horiz-adv-x="2025" d="M29 35v74q0 23 16 39t39 16h16q195 0 195 213v1001q0 23 16.5 39.5t38.5 16.5h688q23 0 39.5 -16.5t16.5 -39.5v-510h428q135 0 233 -57t149.5 -156.5t51.5 -220.5t-51.5 -220t-149.5 -156.5t-233 -57.5h-568q-23 0 -39 16.5t-16 38.5v1194h-410v-880q0 -166 -94 -277.5 t-286 -111.5h-25q-23 0 -39 16t-16 39zM1094 184h397q129 0 199.5 71t70.5 179q0 109 -70.5 179.5t-199.5 70.5h-397v-500z" />
<glyph unicode="&#x40a;" horiz-adv-x="1988" d="M176 55v1323q0 23 16.5 39.5t38.5 16.5h84q23 0 39.5 -16.5t16.5 -39.5v-561h491v561q0 23 15.5 39.5t37.5 16.5h89q23 0 38 -16.5t15 -39.5v-510h428q135 0 233.5 -57t149.5 -156.5t51 -220.5t-51 -220t-149.5 -156.5t-233.5 -57.5h-567q-23 0 -39.5 16.5t-16.5 38.5 v578h-491v-578q0 -23 -16.5 -39t-39.5 -16h-84q-23 0 -39 15.5t-16 39.5zM1057 184h397q129 0 199.5 71t70.5 179q0 109 -70.5 179.5t-199.5 70.5h-397v-500z" />
<glyph unicode="&#x40b;" horiz-adv-x="1492" d="M43 1305v73q0 23 16.5 39.5t38.5 16.5h731q23 0 39.5 -16.5t16.5 -39.5v-73q0 -23 -16.5 -39.5t-39.5 -16.5h-274v-225h369q463 0 462 -461v-508q0 -23 -16 -39t-39 -16h-84q-23 0 -39 16.5t-16 38.5v498q0 150 -72.5 218.5t-214.5 68.5h-350v-785q0 -23 -16.5 -39 t-38.5 -16h-84q-23 0 -39.5 16.5t-16.5 38.5v1194h-262q-23 0 -39 16.5t-16 39.5z" />
<glyph unicode="&#x40c;" horiz-adv-x="1226" d="M176 55v1323q0 23 16.5 39.5t38.5 16.5h84q23 0 39.5 -16.5t16.5 -39.5v-477l547 502q31 31 73 31h119q18 0 31.5 -13.5t13.5 -31.5q0 -16 -20 -37l-658 -604l699 -666q20 -20 20 -37q0 -18 -13.5 -31.5t-31.5 -13.5h-127q-43 0 -74 31l-579 553v-529q0 -23 -16.5 -39 t-39.5 -16h-84q-23 0 -39 16.5t-16 38.5zM535 1569q0 16 10 26l156 189q22 24 36.5 31.5t38.5 7.5h162q18 0 28.5 -11.5t10.5 -29.5q0 -14 -10 -25l-228 -186q-23 -18 -40 -26.5t-46 -8.5h-86q-33 0 -32 33z" />
<glyph unicode="&#x40d;" horiz-adv-x="1421" d="M176 55v1323q0 23 16.5 39.5t38.5 16.5h84q23 0 39.5 -16.5t16.5 -39.5v-1007l665 1001q18 29 37 45.5t45 16.5h72q23 0 39 -16.5t16 -39.5v-1323q0 -23 -16.5 -39t-38.5 -16h-84q-23 0 -39 16.5t-16 38.5v1008l-666 -1002q-18 -29 -36.5 -45t-45.5 -16h-72 q-23 0 -39 16.5t-16 38.5zM354 1782q0 18 10.5 29.5t28.5 11.5h162q25 0 39 -7.5t37 -31.5l155 -189q11 -10 11 -26q0 -33 -33 -33h-86q-29 0 -46.5 8t-39.5 27l-227 186q-10 10 -11 25z" />
<glyph unicode="&#x40e;" horiz-adv-x="1234" d="M49 1389q0 18 13.5 31.5t31.5 13.5h88q37 0 54.5 -13.5t31.5 -38.5l369 -710l371 710q14 25 31.5 38.5t54.5 13.5h88q18 0 31.5 -13.5t13.5 -31.5q0 -12 -10 -31l-492 -942q-76 -139 -128 -218t-130 -138.5t-180 -59.5h-107q-23 0 -39 16.5t-16 38.5v74q0 23 16.5 39 t38.5 16h88q51 0 94.5 38t74 86t89.5 155l-467 895q-10 19 -10 31zM373 1784q0 16 10.5 27.5t28.5 11.5h66q18 0 28 -11.5t10 -27.5q0 -53 33 -88t88 -35t88 35t33 88q0 16 10.5 27.5t28.5 11.5h66q18 0 28.5 -11.5t10.5 -27.5q0 -104 -68 -181t-197 -77t-196.5 76.5 t-67.5 181.5z" />
<glyph unicode="&#x40f;" horiz-adv-x="1361" d="M176 55v1323q0 23 16.5 39.5t38.5 16.5h84q23 0 39.5 -16.5t16.5 -39.5v-1194h620v1194q0 23 16.5 39.5t39.5 16.5h83q23 0 39.5 -16.5t16.5 -39.5v-1323q0 -23 -16.5 -39t-39.5 -16h-352v-170q0 -23 -16.5 -39t-38.5 -16h-84q-23 0 -39 16t-16 39v170h-353 q-23 0 -39 16.5t-16 38.5z" />
<glyph unicode="&#x410;" horiz-adv-x="1392" d="M33 45q0 10 8 29l502 1292q27 68 92 68h123q66 0 92 -68l500 -1292q8 -18 8 -29q0 -18 -13.5 -31.5t-31.5 -13.5h-76q-61 0 -80 51l-106 273h-711l-107 -273q-18 -51 -79 -51h-76q-18 0 -31.5 13.5t-13.5 31.5zM412 508h567l-283 731z" />
<glyph unicode="&#x411;" horiz-adv-x="1316" d="M176 55v1323q0 23 16.5 39.5t38.5 16.5h856q23 0 38.5 -16.5t15.5 -39.5v-73q0 -23 -15.5 -39.5t-38.5 -16.5h-716v-381h428q135 0 233 -57t149.5 -156.5t51.5 -220.5t-51.5 -220t-149.5 -156.5t-233 -57.5h-568q-23 0 -39 16.5t-16 38.5zM371 184h397q129 0 199.5 71 t70.5 179q0 109 -70.5 179.5t-199.5 70.5h-397v-500z" />
<glyph unicode="&#x412;" horiz-adv-x="1368" d="M176 55v1323q0 23 16.5 39.5t38.5 16.5h549q162 0 262.5 -62.5t143.5 -150.5t43 -172q0 -115 -55.5 -185.5t-108.5 -103.5q86 -57 140.5 -146.5t54.5 -197.5q0 -106 -52.5 -201.5t-155 -155t-243.5 -59.5h-578q-23 0 -39 16.5t-16 38.5zM371 184h417q131 0 204 66.5 t73 165.5q0 100 -69.5 167.5t-207.5 67.5h-417v-467zM371 836h389q135 0 204.5 53t69.5 153t-69.5 153.5t-204.5 53.5h-389v-413z" />
<glyph unicode="&#x413;" horiz-adv-x="1144" d="M176 55v1323q0 23 16.5 39.5t38.5 16.5h824q22 0 38.5 -16.5t16.5 -39.5v-73q0 -23 -16.5 -39.5t-38.5 -16.5h-684v-1194q0 -23 -16.5 -39t-39.5 -16h-84q-23 0 -39 16.5t-16 38.5z" />
<glyph unicode="&#x414;" horiz-adv-x="1443" d="M33 129q0 23 16.5 39t38.5 16h33q90 0 127 51.5t37 192.5v950q0 23 16 39.5t39 16.5h844q23 0 39 -16.5t16 -39.5v-1194h47q23 0 39 -16t16 -39v-299q0 -23 -16 -39t-39 -16h-84q-23 0 -39 16t-16 39v170h-920v-170q0 -23 -16 -39t-39 -16h-84q-23 0 -39 16t-16 39v299z M434 184h610v1065h-565v-856q0 -152 -45 -209z" />
<glyph unicode="&#x415;" horiz-adv-x="1212" d="M176 55q0 -23 16.5 -39t38.5 -16h828q23 0 39 16.5t16 38.5v74q0 23 -16.5 39t-38.5 16h-688v449h626q23 0 39.5 16.5t16.5 38.5v74q0 23 -16.5 39t-39.5 16h-626v432h671q23 0 39.5 16.5t16.5 39.5v73q0 23 -16.5 39.5t-39.5 16.5h-811q-23 0 -39 -16.5t-16 -39.5v-1323 z" />
<glyph unicode="&#x416;" horiz-adv-x="1452" d="M47 45q0 12 6 23l484 663l-463 635q-6 12 -6 23q0 18 13 31.5t32 13.5h96q35 0 52.5 -14.5t33.5 -37.5l334 -458v454q0 23 16.5 39.5t38.5 16.5h84q23 0 39 -16.5t16 -39.5v-454l334 458q16 23 33.5 37.5t52.5 14.5h96q18 0 31.5 -13.5t13.5 -31.5q0 -10 -6 -23 l-463 -635l484 -663q6 -10 6 -23q0 -18 -13.5 -31.5t-31.5 -13.5h-88q-35 0 -51.5 12.5t-32.5 34.5l-365 500v-492q0 -23 -16 -39t-39 -16h-84q-23 0 -39 16.5t-16 38.5v492l-365 -500q-16 -23 -32.5 -35t-51.5 -12h-88q-18 0 -31.5 13.5t-13.5 31.5z" />
<glyph unicode="&#x417;" horiz-adv-x="1300" d="M76 360q-2 18 12 32t33 14h94q16 0 30.5 -12.5t22.5 -33.5q27 -80 123 -138t238 -58q158 0 264 64.5t106 177.5q0 111 -100 174t-254 67h-121q-23 0 -39 16.5t-16 38.5v74q0 23 16.5 39t38.5 16h107q141 0 234 58.5t93 161.5q0 102 -93 160.5t-234 58.5 q-127 0 -210 -57.5t-110 -139.5q-8 -20 -22.5 -32.5t-30.5 -12.5h-94q-18 0 -32.5 13.5t-12.5 31.5q4 76 62.5 166t173 152.5t276.5 62.5q147 0 266 -47t187.5 -137t68.5 -219q0 -99 -42 -175.5t-118 -130.5q94 -55 147.5 -141t53.5 -198q0 -133 -75 -229.5t-203 -146.5 t-287 -50q-172 0 -296 63t-188.5 152.5t-68.5 164.5z" />
<glyph unicode="&#x418;" horiz-adv-x="1421" d="M176 55v1323q0 23 16.5 39.5t38.5 16.5h84q23 0 39.5 -16.5t16.5 -39.5v-1007l665 1001q18 29 37 45.5t45 16.5h72q23 0 39 -16.5t16 -39.5v-1323q0 -23 -16.5 -39t-38.5 -16h-84q-23 0 -39 16.5t-16 38.5v1008l-666 -1002q-18 -29 -36.5 -45t-45.5 -16h-72 q-23 0 -39 16.5t-16 38.5z" />
<glyph unicode="&#x419;" horiz-adv-x="1421" d="M176 55v1323q0 23 16.5 39.5t38.5 16.5h84q23 0 39.5 -16.5t16.5 -39.5v-1007l665 1001q18 29 37 45.5t45 16.5h72q23 0 39 -16.5t16 -39.5v-1323q0 -23 -16.5 -39t-38.5 -16h-84q-23 0 -39 16.5t-16 38.5v1008l-666 -1002q-18 -29 -36.5 -45t-45.5 -16h-72 q-23 0 -39 16.5t-16 38.5zM446 1784q0 16 10.5 27.5t28.5 11.5h66q18 0 28.5 -11.5t10.5 -27.5q0 -53 32.5 -88t88.5 -35q55 0 87.5 35t32.5 88q0 16 10.5 27.5t28.5 11.5h66q18 0 28.5 -11.5t10.5 -27.5q0 -104 -67.5 -181t-196.5 -77t-197 76.5t-68 181.5z" />
<glyph unicode="&#x41a;" horiz-adv-x="1226" d="M176 55v1323q0 23 16.5 39.5t38.5 16.5h84q23 0 39.5 -16.5t16.5 -39.5v-477l547 502q31 31 73 31h119q18 0 31.5 -13.5t13.5 -31.5q0 -16 -20 -37l-658 -604l699 -666q20 -20 20 -37q0 -18 -13.5 -31.5t-31.5 -13.5h-127q-43 0 -74 31l-579 553v-529q0 -23 -16.5 -39 t-39.5 -16h-84q-23 0 -39 16.5t-16 38.5z" />
<glyph unicode="&#x41b;" horiz-adv-x="1429" d="M29 35v74q0 23 16 39t39 16h16q195 0 195 213v1001q0 23 16.5 39.5t38.5 16.5h848q23 0 39 -16.5t16 -39.5v-1323q0 -23 -16 -39t-39 -16h-84q-23 0 -39 16.5t-16 38.5v1194h-570v-880q0 -166 -94 -277.5t-286 -111.5h-25q-23 0 -39 16t-16 39z" />
<glyph unicode="&#x41c;" horiz-adv-x="1626" d="M176 55v1323q0 23 16.5 39.5t38.5 16.5h78q57 0 90 -66l414 -801l414 801q33 66 90 66h78q23 0 39 -16.5t16 -39.5v-1323q0 -23 -16.5 -39t-38.5 -16h-84q-23 0 -39.5 16.5t-16.5 38.5v971l-319 -616q-16 -33 -35.5 -49.5t-48.5 -16.5h-78q-29 0 -48 16.5t-36 49.5 l-319 616v-971q0 -23 -16.5 -39t-39.5 -16h-84q-23 0 -39 16.5t-16 38.5z" />
<glyph unicode="&#x41d;" horiz-adv-x="1462" d="M176 55v1323q0 23 16.5 39.5t38.5 16.5h84q23 0 39.5 -16.5t16.5 -39.5v-561h721v561q0 23 16 39.5t39 16.5h84q22 0 38.5 -16.5t16.5 -39.5v-1323q0 -23 -16.5 -39t-38.5 -16h-84q-23 0 -39 16.5t-16 38.5v578h-721v-578q0 -23 -16.5 -39t-39.5 -16h-84q-23 0 -39 15.5 t-16 39.5z" />
<glyph unicode="&#x41e;" horiz-adv-x="1376" d="M121 717q0 121 2 182q4 156 70.5 282t193.5 199.5t301 73.5t301 -73.5t193.5 -199.5t70.5 -282q4 -123 4 -182t-4 -182q-6 -156 -72.5 -282t-192.5 -199.5t-300 -73.5t-300 73.5t-192.5 199.5t-72.5 282q-2 61 -2 182zM315 717q0 -111 2 -172q6 -188 106.5 -284.5 t264.5 -96.5t264.5 96t106.5 285q4 123 4 172t-4 172q-6 188 -106.5 284.5t-264.5 96.5t-264 -96.5t-107 -284.5q-2 -61 -2 -172z" />
<glyph unicode="&#x41f;" horiz-adv-x="1462" d="M176 55v1323q0 23 16.5 39.5t38.5 16.5h1000q22 0 38.5 -16.5t16.5 -39.5v-1323q0 -23 -16.5 -39t-38.5 -16h-84q-23 0 -39 16.5t-16 38.5v1194h-721v-1194q0 -23 -16.5 -39t-39.5 -16h-84q-23 0 -39 16.5t-16 38.5z" />
<glyph unicode="&#x420;" horiz-adv-x="1310" d="M176 55v1323q0 23 16.5 39.5t38.5 16.5h517q213 0 353 -111t140 -324q0 -143 -66.5 -243.5t-178 -149.5t-248.5 -49h-377v-502q0 -23 -16.5 -39t-39.5 -16h-84q-23 0 -39 16.5t-16 38.5zM371 741h366q150 0 230 64.5t80 193.5q0 250 -310 250h-366v-508z" />
<glyph unicode="&#x421;" horiz-adv-x="1366" d="M121 717q0 121 2 182q6 160 76.5 286t199.5 197.5t301 71.5q190 0 318.5 -73.5t190 -181t65.5 -208.5q0 -18 -13.5 -31.5t-31.5 -13.5h-94q-18 0 -34 12.5t-20 32.5q-29 123 -114.5 201t-266.5 78q-178 0 -277 -103.5t-106 -277.5q-2 -61 -2 -172t2 -172 q7 -174 106 -277.5t277 -103.5q180 0 266.5 77.5t114.5 200.5q4 20 19.5 32.5t34.5 12.5h94q18 0 31.5 -13t13.5 -32q-4 -100 -65.5 -207.5t-189.5 -181t-319 -73.5q-172 0 -301 71.5t-199.5 197.5t-76.5 286q-2 61 -2 182z" />
<glyph unicode="&#x422;" horiz-adv-x="1165" d="M47 1305v73q0 23 16.5 39.5t38.5 16.5h961q22 0 38.5 -16.5t16.5 -39.5v-73q0 -23 -16.5 -39.5t-38.5 -16.5h-383v-1194q0 -23 -16.5 -39t-38.5 -16h-84q-23 0 -39.5 16.5t-16.5 38.5v1194h-383q-23 0 -39 16.5t-16 39.5z" />
<glyph unicode="&#x423;" horiz-adv-x="1234" d="M49 1389q0 18 13.5 31.5t31.5 13.5h88q37 0 54.5 -13.5t31.5 -38.5l369 -710l371 710q14 25 31.5 38.5t54.5 13.5h88q18 0 31.5 -13.5t13.5 -31.5q0 -12 -10 -31l-492 -942q-76 -139 -128 -218t-130 -138.5t-180 -59.5h-107q-23 0 -39 16.5t-16 38.5v74q0 23 16.5 39 t38.5 16h88q51 0 94.5 38t74 86t89.5 155l-467 895q-10 19 -10 31z" />
<glyph unicode="&#x424;" horiz-adv-x="1529" d="M59 717q0 137 82 253.5t222.5 187.5t304.5 77v184q0 23 16 39.5t39 16.5h84q22 0 38.5 -16.5t16.5 -39.5v-184q164 -6 304.5 -77t222 -187.5t81.5 -253.5t-81.5 -254t-222 -187.5t-304.5 -76.5v-185q0 -23 -16.5 -39t-38.5 -16h-84q-23 0 -39 16.5t-16 38.5v185 q-164 6 -304.5 76.5t-222.5 187.5t-82 254zM254 717q0 -90 53 -164t147.5 -119t213.5 -51v668q-119 -6 -213.5 -51.5t-147.5 -119t-53 -163.5zM862 383q119 6 213 51t147.5 119t53.5 164t-53.5 163.5t-147.5 118.5t-213 52v-668z" />
<glyph unicode="&#x425;" horiz-adv-x="1306" d="M47 45q0 12 6 23l484 663l-463 635q-6 12 -6 23q0 18 13 31.5t32 13.5h96q35 0 52.5 -14.5t33.5 -37.5l364 -499l357 497q16 23 33.5 38.5t52.5 15.5h88q18 0 31.5 -13.5t13.5 -31.5q0 -10 -6 -23l-457 -639l481 -659q6 -10 7 -23q0 -18 -13.5 -31.5t-32.5 -13.5h-96 q-35 0 -51 12.5t-33 34.5l-385 528l-385 -528q-16 -23 -32.5 -35t-51.5 -12h-88q-18 0 -31.5 13.5t-13.5 31.5z" />
<glyph unicode="&#x426;" horiz-adv-x="1480" d="M176 55v1323q0 23 16.5 39.5t38.5 16.5h84q23 0 39.5 -16.5t16.5 -39.5v-1194h700v1194q0 23 16.5 39.5t38.5 16.5h84q23 0 39.5 -16.5t16.5 -39.5v-1194h63q23 0 39 -16t16 -39v-299q0 -23 -16 -39t-39 -16h-84q-23 0 -39 16t-16 39v170h-959q-23 0 -39 16.5t-16 38.5z " />
<glyph unicode="&#x427;" horiz-adv-x="1294" d="M92 1010v368q0 23 16.5 39.5t38.5 16.5h84q23 0 39.5 -16.5t16.5 -39.5v-358q0 -150 72.5 -218.5t213.5 -68.5h351v645q0 23 16 39.5t39 16.5h84q23 0 39 -16.5t16 -39.5v-1323q0 -23 -16.5 -39t-38.5 -16h-84q-23 0 -39 16.5t-16 38.5v494h-369q-463 0 -463 461z" />
<glyph unicode="&#x428;" horiz-adv-x="1820" d="M176 55v1323q0 23 16.5 39.5t38.5 16.5h84q23 0 39.5 -16.5t16.5 -39.5v-1194h442v1194q0 23 16.5 39.5t38.5 16.5h84q23 0 39.5 -16.5t16.5 -39.5v-1194h442v1194q0 23 16.5 39.5t38.5 16.5h84q23 0 39.5 -16.5t16.5 -39.5v-1323q0 -23 -16.5 -39t-39.5 -16h-1358 q-22 0 -38.5 16.5t-16.5 38.5z" />
<glyph unicode="&#x429;" horiz-adv-x="1859" d="M176 55v1323q0 23 16.5 39.5t38.5 16.5h84q23 0 39.5 -16.5t16.5 -39.5v-1194h442v1194q0 23 16.5 39.5t38.5 16.5h84q23 0 39.5 -16.5t16.5 -39.5v-1194h442v1194q0 23 16.5 39.5t38.5 16.5h84q23 0 39.5 -16.5t16.5 -39.5v-1194h63q23 0 39 -16t16 -39v-299 q0 -23 -16 -39t-39 -16h-84q-23 0 -39 16t-16 39v170h-1338q-23 0 -39 16.5t-16 38.5z" />
<glyph unicode="&#x42a;" horiz-adv-x="1413" d="M41 1305v73q0 23 15.5 39.5t37.5 16.5h334q23 0 38 -16.5t15 -39.5v-510h428q135 0 233.5 -57t149.5 -156.5t51 -220.5t-51 -220t-149.5 -156.5t-233.5 -57.5h-567q-23 0 -39 16.5t-16 38.5v1194h-193q-23 0 -38 16.5t-15 39.5zM481 184h398q129 0 199.5 71t70.5 179 q0 109 -70.5 179.5t-199.5 70.5h-398v-500z" />
<glyph unicode="&#x42b;" horiz-adv-x="1685" d="M176 55v1323q0 23 15.5 39.5t37.5 16.5h88q23 0 38.5 -16.5t15.5 -39.5v-510h428q135 0 233 -57t149.5 -156.5t51.5 -220.5t-51.5 -220t-149.5 -156.5t-233 -57.5h-568q-23 0 -39 16.5t-16 38.5zM371 184h397q129 0 199.5 71t70.5 179q0 109 -70.5 179.5t-199.5 70.5 h-397v-500zM1315 55v1323q0 23 16.5 39.5t38.5 16.5h84q23 0 39 -16.5t16 -39.5v-1323q0 -23 -16 -39t-39 -16h-84q-23 0 -39 16.5t-16 38.5z" />
<glyph unicode="&#x42c;" horiz-adv-x="1302" d="M176 55v1323q0 23 15.5 39.5t37.5 16.5h88q23 0 38.5 -16.5t15.5 -39.5v-510h428q135 0 233 -57t149.5 -156.5t51.5 -220.5t-51.5 -220t-149.5 -156.5t-233 -57.5h-568q-23 0 -39 16.5t-16 38.5zM371 184h397q129 0 199.5 71t70.5 179q0 109 -70.5 179.5t-199.5 70.5 h-397v-500z" />
<glyph unicode="&#x42d;" horiz-adv-x="1302" d="M94 360q-2 18 12.5 32t32.5 14h94q16 0 31 -12.5t23 -33.5q29 -82 113.5 -139t226.5 -57q184 0 272 128t92 337h-485q-23 0 -39 16.5t-16 38.5v74q0 23 16 39t39 16h485q0 188 -87 322.5t-277 134.5q-141 0 -226.5 -57.5t-113.5 -139.5q-8 -20 -22.5 -32.5t-31.5 -12.5 h-94q-18 0 -32.5 13.5t-12.5 31.5q4 78 63.5 167t179.5 151.5t290 62.5q164 0 286.5 -73.5t192.5 -208t78 -314.5q4 -61 4 -141q0 -78 -4 -142q-8 -180 -78 -314t-192.5 -207.5t-286.5 -73.5q-170 0 -290 62t-179.5 151.5t-63.5 166.5z" />
<glyph unicode="&#x42e;" horiz-adv-x="1943" d="M176 55v1323q0 23 16.5 39.5t38.5 16.5h74q23 0 39 -16.5t16 -39.5v-561h328q0 55 2 82q4 156 70.5 282t193.5 199.5t301 73.5q175 0 301.5 -73.5t193.5 -199.5t71 -282q4 -123 4 -182t-4 -182q-6 -156 -73 -282t-192.5 -199.5t-300.5 -73.5q-174 0 -300 73.5 t-192.5 199.5t-72.5 282q-4 66 -4 98h-326v-578q0 -23 -16 -39t-39 -16h-74q-23 0 -39 16.5t-16 38.5zM883 717q0 -111 2 -172q6 -188 106.5 -284.5t263.5 -96.5q164 0 264.5 96t106.5 285q4 123 4 172t-4 172q-6 188 -106.5 284.5t-264.5 96.5q-163 0 -263.5 -96.5 t-106.5 -284.5q-2 -61 -2 -172z" />
<glyph unicode="&#x42f;" horiz-adv-x="1333" d="M92 45q0 10 6 23l310 538q-135 43 -215 143.5t-80 260.5q0 213 139 318.5t354 105.5h496q23 0 39 -16.5t16 -39.5v-1323q0 -23 -16.5 -39t-38.5 -16h-84q-23 0 -39 16.5t-16 38.5v523h-353l-297 -523q-31 -55 -88 -55h-88q-18 0 -31.5 13.5t-13.5 31.5zM307 1010 q0 -248 309 -248h347v487h-347q-154 0 -231.5 -56t-77.5 -183z" />
<glyph unicode="&#x430;" horiz-adv-x="1118" d="M78 268q0 154 114.5 241t305.5 118l288 47v26q0 100 -66.5 154.5t-172.5 54.5q-82 0 -128 -27.5t-87 -82.5q-12 -16 -26.5 -22.5t-39.5 -6.5h-61q-23 0 -40.5 16.5t-14.5 38.5q6 61 60 122t144 99.5t193 38.5q190 0 308 -106.5t118 -298.5v-625q0 -23 -16.5 -39 t-38.5 -16h-76q-23 0 -39.5 16.5t-16.5 38.5v84q-33 -74 -139 -116.5t-213 -42.5q-104 0 -186 37.5t-126 103t-44 147.5zM264 289q0 -51 47 -92t144 -41q147 0 239 84t92 219v51l-241 -39q-133 -20 -207 -66.5t-74 -115.5z" />
<glyph unicode="&#x431;" horiz-adv-x="1134" d="M100 471q0 182 50.5 318.5t120 223.5t171.5 185q84 82 122 133t38 109q0 23 16.5 39t38.5 16h76q23 0 39 -16.5t16 -38.5q0 -90 -48 -163t-150 -179q-74 -74 -133 -148q53 13 112 13q137 0 244 -58.5t166 -170t59 -263.5q0 -143 -60 -255t-166.5 -174t-242.5 -62 q-135 0 -241.5 62t-167 174t-60.5 255zM287 471q0 -145 71.5 -230t210.5 -85t211 85t72 230t-71.5 230t-211.5 85q-139 0 -210.5 -85t-71.5 -230z" />
<glyph unicode="&#x432;" horiz-adv-x="1204" d="M154 41v983q0 16 12 28.5t29 12.5h507q174 0 273.5 -78t99.5 -207q0 -84 -32.5 -134t-90.5 -93q80 -45 113 -105.5t33 -144.5q0 -143 -100.5 -223t-272.5 -80h-530q-16 0 -28.5 12.5t-12.5 28.5zM340 178h346q225 0 225 137q0 74 -55 104t-164 30h-352v-271zM340 627h336 q106 0 159.5 29.5t53.5 103.5t-55.5 100.5t-167.5 26.5h-326v-260z" />
<glyph unicode="&#x433;" horiz-adv-x="1015" d="M154 55v955q0 23 16 39t39 16h727q22 0 38.5 -16.5t16.5 -38.5v-66q0 -23 -16.5 -39t-38.5 -16h-596v-834q0 -23 -16.5 -39t-38.5 -16h-76q-23 0 -39 16.5t-16 38.5z" />
<glyph unicode="&#x434;" horiz-adv-x="1118" d="M43 121q0 23 16.5 39t38.5 16h47q61 0 82 53.5t21 149.5v631q0 22 15.5 38.5t37.5 16.5h571q23 0 39.5 -16.5t16.5 -38.5v-834h39q23 0 39 -16.5t16 -38.5v-291q0 -23 -16.5 -39t-38.5 -16h-76q-23 0 -39 16t-16 39v170h-607v-170q0 -23 -16 -39t-39 -16h-76 q-23 0 -39 16t-16 39v291zM395 176h346v713h-307v-543q0 -113 -39 -170z" />
<glyph unicode="&#x435;" d="M100 541q0 33 4 94q12 127 73 229.5t162 161.5t234 59q220 0 347 -139t127 -379v-55q0 -23 -16.5 -39t-39.5 -16h-704v-13q4 -135 83 -211.5t203 -76.5q102 0 158.5 26.5t102.5 75.5q16 16 29.5 22.5t35.5 6.5h62q25 0 41 -16.5t14 -39.5q-8 -55 -60.5 -113.5t-149.5 -98 t-233 -39.5q-131 0 -233 60t-162.5 166.5t-73.5 239.5q-4 61 -4 95zM287 629h575v6q0 125 -78.5 199.5t-210.5 74.5q-119 0 -201.5 -75.5t-84.5 -198.5v-6z" />
<glyph unicode="&#x436;" horiz-adv-x="1300" d="M59 47q0 16 9 29l374 469l-354 444q-8 12 -8 29q0 18 14.5 32.5t34.5 14.5h98q23 0 37.5 -11.5t28.5 -27.5l264 -332v316q0 23 16.5 39t38.5 16h76q23 0 39 -16.5t16 -38.5v-316l265 332q14 16 28.5 27.5t36.5 11.5h98q20 0 35 -14.5t15 -32.5q0 -16 -9 -29l-354 -444 l375 -469q8 -12 8 -29q0 -18 -14.5 -32.5t-34.5 -14.5h-94q-23 0 -37 11.5t-29 27.5l-289 362v-346q0 -23 -16 -39t-39 -16h-76q-23 0 -39 16.5t-16 38.5v346l-289 -362q-14 -16 -28.5 -27.5t-36.5 -11.5h-94q-20 0 -35 14.5t-15 32.5z" />
<glyph unicode="&#x437;" horiz-adv-x="1050" d="M84 254q-2 23 15.5 39t39.5 16h62q23 0 37 -11t30 -44q31 -59 90.5 -78.5t155.5 -19.5q244 0 244 145q0 74 -62.5 109.5t-165.5 35.5h-159q-23 0 -39.5 16.5t-16.5 39.5v65q0 23 16.5 39.5t39.5 16.5h161q90 0 148.5 36.5t58.5 106.5q0 72 -62.5 107.5t-162.5 35.5 q-92 0 -143.5 -27.5t-81.5 -90.5q-27 -55 -68 -56h-61q-23 0 -40.5 16.5t-15.5 39.5q4 78 52.5 145.5t140.5 108t217 40.5q180 0 296 -81.5t116 -237.5q0 -137 -97 -223q115 -84 115 -242q0 -170 -117.5 -245.5t-312.5 -75.5q-203 0 -313.5 78.5t-116.5 195.5z" />
<glyph unicode="&#x438;" horiz-adv-x="1257" d="M154 55v955q0 23 16 39t39 16h76q23 0 39 -16.5t16 -38.5v-693l596 725q10 12 19.5 17.5t25.5 5.5h68q23 0 39 -16.5t16 -38.5v-955q0 -23 -16.5 -39t-38.5 -16h-76q-23 0 -39 16.5t-16 38.5v686l-596 -718q-16 -23 -46 -23h-69q-23 0 -38 16.5t-15 38.5z" />
<glyph unicode="&#x439;" horiz-adv-x="1257" d="M154 55v955q0 23 16 39t39 16h76q23 0 39 -16.5t16 -38.5v-693l596 725q10 12 19.5 17.5t25.5 5.5h68q23 0 39 -16.5t16 -38.5v-955q0 -23 -16.5 -39t-38.5 -16h-76q-23 0 -39 16.5t-16 38.5v686l-596 -718q-16 -23 -46 -23h-69q-23 0 -38 16.5t-15 38.5zM375 1466 q0 17 10.5 28t28.5 11h66q18 0 28 -11t10 -28q0 -53 30 -88t81 -35t81 35t30 88q0 16 10 27.5t29 11.5h65q18 0 28.5 -11t10.5 -28q0 -102 -65.5 -180t-188.5 -78t-188.5 78t-65.5 180z" />
<glyph unicode="&#x43a;" horiz-adv-x="1069" d="M154 55v955q0 23 16 39t39 16h76q23 0 39 -16.5t16 -38.5v-355l426 375q39 35 80 35h98q20 0 34.5 -14.5t14.5 -34.5q0 -23 -22 -41l-496 -434l545 -453q20 -16 20 -39q0 -20 -14 -34.5t-35 -14.5h-106q-43 0 -84 35l-461 383v-363q0 -23 -16.5 -39t-38.5 -16h-76 q-23 0 -39 16.5t-16 38.5z" />
<glyph unicode="&#x43b;" horiz-adv-x="1226" d="M37 35v65q0 23 16.5 39.5t38.5 16.5h25q90 0 122.5 50t32.5 150v654q0 23 16.5 39t39.5 16h690q23 0 39 -16.5t16 -38.5v-955q0 -23 -16.5 -39t-38.5 -16h-76q-23 0 -39 16.5t-16 38.5v834h-428v-535q0 -180 -79 -277t-263 -97h-25q-23 0 -39 16t-16 39z" />
<glyph unicode="&#x43c;" horiz-adv-x="1355" d="M154 55v955q0 23 16 39t39 16h67q31 0 49.5 -12.5t26.5 -28.5l326 -614l326 614q8 16 26.5 28.5t48.5 12.5h68q23 0 39 -16.5t16 -38.5v-955q0 -23 -16.5 -39t-38.5 -16h-76q-23 0 -39 16.5t-16 38.5v617l-242 -447q-25 -51 -72 -51h-49q-45 0 -71 51l-242 447v-617 q0 -23 -16.5 -39t-38.5 -16h-76q-23 0 -39 16.5t-16 38.5z" />
<glyph unicode="&#x43d;" horiz-adv-x="1257" d="M154 55v955q0 23 16 39t39 16h76q23 0 39 -16.5t16 -38.5v-379h578v379q0 23 16 39t39 16h76q22 0 38.5 -16.5t16.5 -38.5v-955q0 -23 -16.5 -39t-38.5 -16h-76q-23 0 -39 16.5t-16 38.5v400h-578v-400q0 -23 -16.5 -39t-38.5 -16h-76q-23 0 -39 15.5t-16 39.5z" />
<glyph unicode="&#x43e;" horiz-adv-x="1181" d="M102 530q0 76 2 99q16 209 143.5 332.5t342.5 123.5t342 -123.5t143 -332.5q4 -46 4 -99q0 -49 -4 -94q-18 -209 -144 -332.5t-341 -123.5t-341 123.5t-145 332.5q-2 23 -2 94zM289 530q0 -61 2 -84q12 -131 87 -210.5t212 -79.5t212 79.5t87 210.5q4 45 4 84t-4 88 q-12 132 -87 211.5t-212 79.5t-212 -79.5t-87 -211.5q-2 -25 -2 -88z" />
<glyph unicode="&#x43f;" horiz-adv-x="1257" d="M154 55v955q0 23 16 39t39 16h840q22 0 38.5 -16.5t16.5 -38.5v-955q0 -23 -16.5 -39t-38.5 -16h-76q-23 0 -39 16.5t-16 38.5v834h-578v-834q0 -23 -16.5 -39t-38.5 -16h-76q-23 0 -39 16.5t-16 38.5z" />
<glyph unicode="&#x440;" horiz-adv-x="1224" d="M154 -334v1344q0 23 16 39t39 16h76q23 0 39 -16.5t16 -38.5v-64q104 139 317 139q127 0 230.5 -59t166 -170t68.5 -258q2 -20 2 -66q0 -47 -2 -67q-6 -147 -68.5 -257t-165 -169t-231.5 -59q-115 0 -193.5 39.5t-123.5 99.5v-453q0 -23 -16.5 -39t-38.5 -16h-76 q-23 0 -39 16.5t-16 38.5zM338 541l2 -82q6 -144 86 -223.5t211 -79.5q133 0 212 86t87 233q2 20 2 57t-2 58q-8 147 -87 233t-212 86q-127 0 -209 -78.5t-88 -209.5z" />
<glyph unicode="&#x441;" horiz-adv-x="1136" d="M102 545q0 49 2 69q18 209 141.5 340t338.5 131q141 0 244.5 -54t157.5 -133t58 -148q2 -23 -15 -39.5t-40 -16.5h-61q-25 0 -39.5 12.5t-28.5 43.5q-72 160 -276 159q-113 0 -197 -75.5t-96 -229.5q-2 -23 -2 -74q0 -47 2 -69q14 -154 97 -229.5t196 -75.5 q204 -1 276 159q14 31 28.5 43.5t39.5 12.5h61q23 0 39 -15.5t16 -36.5q0 -70 -55 -149.5t-159.5 -134.5t-245.5 -55q-145 0 -252 61t-164 168.5t-64 241.5q-2 25 -2 94z" />
<glyph unicode="&#x442;" horiz-adv-x="1067" d="M31 944v66q0 23 16 39t39 16h895q23 0 39 -16.5t16 -38.5v-66q0 -23 -16 -39t-39 -16h-354v-834q0 -23 -16.5 -39t-39.5 -16h-75q-23 0 -39.5 16.5t-16.5 38.5v834h-354q-23 0 -39 16.5t-16 38.5z" />
<glyph unicode="&#x443;" horiz-adv-x="1202" d="M63 1016q0 20 14.5 34.5t35.5 14.5h84q37 0 59 -49l352 -742l350 742q23 49 60 49h84q20 0 34.5 -14.5t14.5 -34.5q0 -8 -2 -15l-432 -919q-16 -33 -45 -98q-55 -127 -97.5 -201t-104.5 -123t-151 -49h-83q-23 0 -39.5 16.5t-16.5 38.5v66q0 23 16.5 39t39.5 16h53 q45 0 76.5 25.5t54 66.5t59.5 121l29 63l-442 938q-3 7 -3 15z" />
<glyph unicode="&#x444;" horiz-adv-x="1839" d="M102 532l2 66q6 150 63.5 259.5t153 168.5t218.5 59q106 0 171.5 -36.5t114.5 -102.5v443q0 23 16.5 39t39.5 16h77q23 0 39.5 -16.5t16.5 -38.5v-443q49 66 114.5 102.5t171.5 36.5q123 0 218.5 -59t153 -168.5t63.5 -259.5q2 -20 2 -66q0 -47 -2 -67 q-6 -147 -63.5 -258t-153 -169t-218.5 -58q-106 0 -172.5 37.5t-113.5 101.5v-453q0 -23 -16.5 -39t-39.5 -16h-77q-23 0 -39.5 16.5t-16.5 38.5v453q-47 -63 -113.5 -101t-172.5 -38q-123 0 -218.5 58t-152.5 168.5t-64 258.5zM289 532q0 -377 270 -376q115 0 187.5 79.5 t78.5 223.5q2 20 2 82q0 59 -2 80q-6 133 -77.5 210.5t-188.5 77.5q-123 0 -191.5 -84t-76.5 -235zM1012 541l2 -82q6 -144 78.5 -223.5t187.5 -79.5q252 0 268 319q2 20 2 57q0 178 -67.5 277.5t-202.5 99.5q-117 0 -188.5 -77.5t-77.5 -210.5z" />
<glyph unicode="&#x445;" horiz-adv-x="1122" d="M59 47q0 16 9 29l374 469l-354 444q-8 12 -8 29q0 18 14.5 32.5t34.5 14.5h98q23 0 37.5 -11.5t28.5 -27.5l272 -342l271 342q14 16 28.5 27.5t36.5 11.5h94q20 0 34.5 -14.5t14.5 -32.5q0 -16 -8 -29l-356 -448l371 -465q8 -12 8 -29q0 -18 -14.5 -32.5t-34.5 -14.5h-99 q-23 0 -37 11.5t-28 27.5l-289 362l-289 -362q-14 -16 -28.5 -27.5t-36.5 -11.5h-94q-20 0 -35 14.5t-15 32.5z" />
<glyph unicode="&#x446;" horiz-adv-x="1284" d="M154 55v955q0 23 16 39t39 16h76q23 0 39 -16.5t16 -38.5v-834h557v834q0 23 16.5 39t38.5 16h76q23 0 39 -16.5t16 -38.5v-834h58q23 0 39 -16.5t16 -38.5v-291q0 -23 -16.5 -39t-38.5 -16h-76q-23 0 -39 16t-16 39v170h-801q-23 0 -39 16.5t-16 38.5z" />
<glyph unicode="&#x447;" horiz-adv-x="1179" d="M76 827v183q0 23 16.5 39t38.5 16h76q23 0 39 -16.5t16 -38.5v-172q0 -295 287 -295h291v467q0 23 16 39t39 16h76q23 0 39 -16.5t16 -38.5v-955q0 -23 -16.5 -39t-38.5 -16h-76q-23 0 -39 16.5t-16 38.5v312h-310q-215 0 -334.5 121.5t-119.5 338.5z" />
<glyph unicode="&#x448;" horiz-adv-x="1570" d="M154 55v955q0 23 16 39t39 16h76q22 0 38.5 -16.5t16.5 -38.5v-834h352v834q0 23 16.5 39t39.5 16h75q23 0 39.5 -16.5t16.5 -38.5v-834h352v834q0 23 16.5 39t38.5 16h76q23 0 39 -16.5t16 -38.5v-955q0 -23 -16.5 -39t-38.5 -16h-1153q-23 0 -39 16.5t-16 38.5z" />
<glyph unicode="&#x449;" horiz-adv-x="1617" d="M154 55v955q0 23 16 39t39 16h76q22 0 38.5 -16.5t16.5 -38.5v-834h352v834q0 23 16.5 39t39.5 16h75q23 0 39.5 -16.5t16.5 -38.5v-834h352v834q0 23 16.5 39t38.5 16h76q23 0 39 -16.5t16 -38.5v-834h58q23 0 39 -16.5t16 -38.5v-291q0 -23 -16.5 -39t-38.5 -16h-76 q-23 0 -39.5 16t-16.5 39v170h-1134q-23 0 -39 16.5t-16 38.5z" />
<glyph unicode="&#x44a;" horiz-adv-x="1206" d="M39 944v66q0 23 16.5 39t38.5 16h324q23 0 39 -16.5t16 -38.5v-207h221q129 0 230.5 -50.5t157 -141.5t55.5 -210t-55.5 -210t-157 -141t-230.5 -50h-352q-23 0 -39 16.5t-16 38.5v834h-193q-23 0 -39 16.5t-16 38.5zM473 176h193q133 0 209.5 53.5t76.5 171.5 q0 119 -76.5 172.5t-209.5 53.5h-193v-451z" />
<glyph unicode="&#x44b;" horiz-adv-x="1445" d="M154 55v955q0 23 16 39t39 16h76q23 0 39 -16.5t16 -38.5v-207h221q129 0 230.5 -50.5t157 -141.5t55.5 -210t-55.5 -210t-157 -141t-230.5 -50h-352q-23 0 -39 16.5t-16 38.5zM340 176h192q133 0 210 53.5t77 171.5q0 119 -76.5 172.5t-210.5 53.5h-192v-451zM1106 55 v955q0 23 16.5 39t38.5 16h76q23 0 39 -16.5t16 -38.5v-955q0 -22 -16 -38.5t-39 -16.5h-76q-23 0 -39 16.5t-16 38.5z" />
<glyph unicode="&#x44c;" horiz-adv-x="1073" d="M154 55v955q0 23 16 39t39 16h76q23 0 39 -16.5t16 -38.5v-207h221q129 0 230.5 -50.5t157 -141.5t55.5 -210t-55.5 -210t-157 -141t-230.5 -50h-352q-23 0 -39 16.5t-16 38.5zM340 176h192q133 0 210 53.5t77 171.5q0 119 -76.5 172.5t-210.5 53.5h-192v-451z" />
<glyph unicode="&#x44d;" horiz-adv-x="1136" d="M92 315q-2 23 15.5 39.5t39.5 16.5h62q25 0 39 -12.5t28 -43.5q72 -160 277 -159q109 0 191.5 72.5t99.5 217.5h-381q-23 0 -39 16.5t-16 39.5v65q0 23 16 39.5t39 16.5h381q-16 143 -99 214.5t-192 71.5q-205 0 -277 -159q-14 -31 -28.5 -43.5t-38.5 -12.5h-62 q-23 0 -39 15.5t-16 35.5q0 70 55.5 150t160 135t245.5 55q215 0 338 -131t141 -340q2 -20 2 -69q0 -70 -2 -94q-6 -133 -63.5 -241t-164 -169t-251.5 -61q-141 0 -244.5 54t-158 133t-58.5 148z" />
<glyph unicode="&#x44e;" horiz-adv-x="1742" d="M154 55v955q0 23 16 39t39 16h74q23 0 39 -16.5t16 -38.5v-389h330q12 213 140 338.5t345 125.5q215 0 342 -123.5t143 -332.5q4 -45 4 -99q0 -49 -4 -94q-18 -209 -144 -332.5t-341 -123.5t-343 125.5t-142 338.5h-330v-389q0 -23 -16.5 -39t-38.5 -16h-74 q-23 0 -39 16.5t-16 38.5zM852 530q0 -61 2 -84q12 -131 87 -210.5t212 -79.5t212 79.5t87 210.5q4 45 4 84t-4 88q-12 132 -87 211.5t-212 79.5t-212 -79.5t-87 -211.5q-2 -25 -2 -88z" />
<glyph unicode="&#x44f;" horiz-adv-x="1142" d="M94 47q0 16 8 29l238 297q-225 74 -225 332q0 178 108.5 269t308.5 91h402q22 0 38.5 -16.5t16.5 -38.5v-955q0 -23 -16.5 -39t-38.5 -16h-76q-23 0 -39 16.5t-16 38.5v291h-252l-244 -307q-14 -16 -28.5 -27.5t-36.5 -11.5h-99q-20 0 -34.5 14.5t-14.5 32.5zM299 705 q0 -100 58.5 -141.5t174.5 -41.5h271v367h-271q-115 0 -174 -42t-59 -142z" />
<glyph unicode="&#x450;" d="M100 541q0 33 4 94q12 127 73 229.5t162 161.5t234 59q220 0 347 -139t127 -379v-55q0 -23 -16.5 -39t-39.5 -16h-704v-13q4 -135 83 -211.5t203 -76.5q102 0 158.5 26.5t102.5 75.5q16 16 29.5 22.5t35.5 6.5h62q25 0 41 -16.5t14 -39.5q-8 -55 -60.5 -113.5t-149.5 -98 t-233 -39.5q-131 0 -233 60t-162.5 166.5t-73.5 239.5q-4 61 -4 95zM235 1464q0 18 10.5 29.5t28.5 11.5h152q25 0 39 -7t36 -32l156 -188q10 -11 10 -27q0 -33 -33 -32h-75q-29 0 -46.5 8t-39.5 26l-228 187q-10 10 -10 24zM287 629h575v6q0 125 -78.5 199.5t-210.5 74.5 q-119 0 -201.5 -75.5t-84.5 -198.5v-6z" />
<glyph unicode="&#x451;" d="M100 541q0 33 4 94q12 127 73 229.5t162 161.5t234 59q220 0 347 -139t127 -379v-55q0 -23 -16.5 -39t-39.5 -16h-704v-13q4 -135 83 -211.5t203 -76.5q102 0 158.5 26.5t102.5 75.5q16 16 29.5 22.5t35.5 6.5h62q25 0 41 -16.5t14 -39.5q-8 -55 -60.5 -113.5t-149.5 -98 t-233 -39.5q-131 0 -233 60t-162.5 166.5t-73.5 239.5q-4 61 -4 95zM272 1284v117q0 23 16.5 39t38.5 16h117q23 0 39 -16.5t16 -38.5v-117q0 -22 -16 -38.5t-39 -16.5h-117q-23 0 -39 16.5t-16 38.5zM287 629h575v6q0 125 -78.5 199.5t-210.5 74.5q-119 0 -201.5 -75.5 t-84.5 -198.5v-6zM643 1284v117q0 23 16.5 39t38.5 16h117q23 0 39 -16.5t16 -38.5v-117q0 -22 -16.5 -38.5t-38.5 -16.5h-117q-23 0 -39 16.5t-16 38.5z" />
<glyph unicode="&#x452;" horiz-adv-x="1243" d="M-10 1202v53q0 20 12 32.5t33 12.5h119v99q0 23 16 39t39 16h76q23 0 39 -16.5t16 -38.5v-99h119q20 0 32.5 -12t12.5 -33v-53q0 -20 -12.5 -32.5t-32.5 -12.5h-119v-211q45 59 124 99t193 40q129 0 229.5 -55t157 -158.5t56.5 -244.5v-729q0 -177 -82 -268t-256 -91h-39 q-23 0 -39 16.5t-16 38.5v66q0 23 16 39t39 16h18q100 0 136 47.5t36 135.5v698q0 154 -75.5 233.5t-210.5 79.5q-133 0 -210 -79.5t-77 -233.5v-541q0 -23 -16.5 -39t-38.5 -16h-76q-23 0 -39 16.5t-16 38.5v1102h-119q-20 0 -32.5 12.5t-12.5 32.5z" />
<glyph unicode="&#x453;" horiz-adv-x="1015" d="M154 55v955q0 23 16 39t39 16h727q22 0 38.5 -16.5t16.5 -38.5v-66q0 -23 -16.5 -39t-38.5 -16h-596v-834q0 -23 -16.5 -39t-38.5 -16h-76q-23 0 -39 16.5t-16 38.5zM375 1251q0 16 10 27l156 188q23 25 37 32t39 7h151q18 0 28.5 -11t10.5 -30q0 -14 -10 -24l-227 -187 q-23 -18 -40.5 -26t-45.5 -8h-76q-33 0 -33 32z" />
<glyph unicode="&#x454;" horiz-adv-x="1136" d="M102 545q0 49 2 69q18 209 141.5 340t338.5 131q141 0 244.5 -54t157.5 -133t58 -148q2 -23 -15 -39.5t-40 -16.5h-61q-25 0 -39.5 12.5t-28.5 43.5q-72 160 -276 159q-109 0 -192 -71.5t-99 -214.5h381q23 0 39 -16.5t16 -39.5v-65q0 -23 -16.5 -39.5t-38.5 -16.5h-381 q16 -145 99 -217.5t192 -72.5q205 0 276 159q14 31 28.5 43.5t39.5 12.5h61q23 0 39 -15.5t16 -36.5q0 -70 -55 -149.5t-159.5 -134.5t-245.5 -55q-145 0 -252 61t-164 168.5t-64 241.5q-2 25 -2 94z" />
<glyph unicode="&#x455;" horiz-adv-x="1036" d="M90 225q0 20 16.5 35.5t38.5 15.5h74q18 0 32.5 -4t27.5 -22q68 -94 239 -94q96 0 169 40t73 99q0 49 -36 78.5t-103.5 49t-210.5 50.5q-299 63 -299 305q0 84 45 153.5t134 111.5t218 42q127 0 219 -36.5t140 -92t48 -106.5q0 -20 -16 -35.5t-39 -15.5h-67q-39 0 -62 28 q-63 82 -223 82q-94 0 -152.5 -34.5t-58.5 -96.5q0 -51 28.5 -77.5t86 -43t202.5 -49.5q180 -39 256 -118.5t76 -194.5q0 -84 -52 -155.5t-149.5 -115.5t-226.5 -44q-127 0 -224 39.5t-150.5 97t-53.5 108.5z" />
<glyph unicode="&#x456;" horiz-adv-x="493" d="M133 1282v117q0 23 16.5 39t38.5 16h117q23 0 39 -16.5t16 -38.5v-117q0 -22 -16 -38.5t-39 -16.5h-117q-23 0 -39 16.5t-16 38.5zM154 55v955q0 23 16 39t39 16h76q23 0 39 -16.5t16 -38.5v-955q0 -22 -16.5 -38.5t-38.5 -16.5h-76q-23 0 -39 16.5t-16 38.5z" />
<glyph unicode="&#x457;" horiz-adv-x="493" d="M-53 1284v117q0 23 16.5 39t38.5 16h117q23 0 39 -16.5t16 -38.5v-117q0 -22 -16 -38.5t-39 -16.5h-117q-23 0 -39 16.5t-16 38.5zM154 55v955q0 23 16 39t39 16h76q23 0 39 -16.5t16 -38.5v-955q0 -22 -16.5 -38.5t-38.5 -16.5h-76q-23 0 -39 16.5t-16 38.5zM318 1284 v117q0 23 16.5 39t38.5 16h117q23 0 39 -16.5t16 -38.5v-117q0 -22 -16.5 -38.5t-38.5 -16.5h-117q-23 0 -39 16.5t-16 38.5z" />
<glyph unicode="&#x458;" horiz-adv-x="512" d="M-74 -268q0 23 16.5 39t39.5 16h18q100 0 136 47t36 135v1041q0 22 16.5 38.5t38.5 16.5h76q23 0 39 -16.5t16 -38.5v-1041q0 -176 -81.5 -267t-256.5 -91h-38q-23 0 -39.5 16.5t-16.5 38.5v66zM152 1282v117q0 23 16 39t39 16h117q23 0 39 -16.5t16 -38.5v-117 q0 -22 -16.5 -38.5t-38.5 -16.5h-117q-23 0 -39 16.5t-16 38.5z" />
<glyph unicode="&#x459;" horiz-adv-x="1705" d="M37 35v65q0 23 16.5 39.5t38.5 16.5h25q90 0 122.5 50t32.5 150v654q0 23 16.5 39t39.5 16h590q23 0 39 -16.5t16 -38.5v-207h221q129 0 230.5 -50.5t156.5 -141.5t55 -210t-55 -210t-156.5 -141t-230.5 -50h-352q-23 0 -39.5 16.5t-16.5 38.5v834h-327v-535 q0 -180 -79 -277t-263 -97h-25q-23 0 -39 16t-16 39zM973 176h192q133 0 210 53.5t77 171.5q0 119 -77 172.5t-210 53.5h-192v-451z" />
<glyph unicode="&#x45a;" horiz-adv-x="1669" d="M154 55v955q0 23 16 39t39 16h76q23 0 39 -16.5t16 -38.5v-379h410v379q0 22 16 38.5t39 16.5h76q23 0 39 -16.5t16 -38.5v-207h221q129 0 230.5 -50.5t156.5 -141.5t55 -210t-55 -210t-156.5 -141t-230.5 -50h-352q-23 0 -39 16.5t-16 38.5v400h-410v-400 q0 -23 -16.5 -39t-38.5 -16h-76q-23 0 -39 15.5t-16 39.5zM936 176h192q133 0 210 53.5t77 171.5q0 119 -76.5 172.5t-210.5 53.5h-192v-451z" />
<glyph unicode="&#x45b;" horiz-adv-x="1243" d="M-10 1202v53q0 20 12 32.5t33 12.5h119v99q0 23 16 39t39 16h76q23 0 39 -16.5t16 -38.5v-99h119q20 0 32.5 -12t12.5 -33v-53q0 -20 -12.5 -32.5t-32.5 -12.5h-119v-211q45 59 124 99t193 40q129 0 229.5 -55t157 -158.5t56.5 -244.5v-572q0 -22 -16.5 -38.5 t-39.5 -16.5h-75q-23 0 -39.5 16.5t-16.5 38.5v541q0 154 -75.5 233.5t-210.5 79.5q-133 0 -210 -79.5t-77 -233.5v-541q0 -23 -16.5 -39t-38.5 -16h-76q-23 0 -39 16.5t-16 38.5v1102h-119q-20 0 -32.5 12.5t-12.5 32.5z" />
<glyph unicode="&#x45c;" horiz-adv-x="1069" d="M154 55v955q0 23 16 39t39 16h76q23 0 39 -16.5t16 -38.5v-355l426 375q39 35 80 35h98q20 0 34.5 -14.5t14.5 -34.5q0 -23 -22 -41l-496 -434l545 -453q20 -16 20 -39q0 -20 -14 -34.5t-35 -14.5h-106q-43 0 -84 35l-461 383v-363q0 -23 -16.5 -39t-38.5 -16h-76 q-23 0 -39 16.5t-16 38.5zM414 1251q0 16 10 27l156 188q23 25 37 32t39 7h151q18 0 28.5 -11t10.5 -30q0 -14 -10 -24l-227 -187q-23 -18 -40.5 -26t-45.5 -8h-76q-33 0 -33 32z" />
<glyph unicode="&#x45d;" horiz-adv-x="1257" d="M154 55v955q0 23 16 39t39 16h76q23 0 39 -16.5t16 -38.5v-693l596 725q10 12 19.5 17.5t25.5 5.5h68q23 0 39 -16.5t16 -38.5v-955q0 -23 -16.5 -39t-38.5 -16h-76q-23 0 -39 16.5t-16 38.5v686l-596 -718q-16 -23 -46 -23h-69q-23 0 -38 16.5t-15 38.5zM295 1464 q0 18 10.5 29.5t28.5 11.5h152q25 0 39 -7t36 -32l156 -188q10 -11 10 -27q0 -33 -33 -32h-75q-29 0 -46.5 8t-39.5 26l-228 187q-10 10 -10 24z" />
<glyph unicode="&#x45e;" horiz-adv-x="1202" d="M63 1016q0 20 14.5 34.5t35.5 14.5h84q37 0 59 -49l352 -742l350 742q23 49 60 49h84q20 0 34.5 -14.5t14.5 -34.5q0 -8 -2 -15l-432 -919q-16 -33 -45 -98q-55 -127 -97.5 -201t-104.5 -123t-151 -49h-83q-23 0 -39.5 16.5t-16.5 38.5v66q0 23 16.5 39t39.5 16h53 q45 0 76.5 25.5t54 66.5t59.5 121l29 63l-442 938q-3 7 -3 15zM354 1466q0 17 10.5 28t28.5 11h66q18 0 28 -11t10 -28q0 -53 30 -88t81 -35t81 35t30 88q0 16 10 27.5t29 11.5h65q18 0 28.5 -11t10.5 -28q0 -102 -65.5 -180t-188.5 -78t-188.5 78t-65.5 180z" />
<glyph unicode="&#x45f;" horiz-adv-x="1196" d="M154 55v955q0 23 16 39t39 16h76q23 0 39 -16.5t16 -38.5v-834h516v834q0 23 16.5 39t38.5 16h76q23 0 39 -16.5t16 -38.5v-955q0 -23 -16 -39t-39 -16h-295v-170q0 -23 -16.5 -39t-38.5 -16h-76q-23 0 -39 16t-16 39v170h-297q-23 0 -39 16.5t-16 38.5z" />
<glyph unicode="&#x490;" horiz-adv-x="1146" d="M176 55v1323q0 23 16.5 39.5t38.5 16.5h684v170q0 23 16.5 39t39.5 16h84q23 0 39 -16.5t16 -38.5v-299q0 -23 -16.5 -39.5t-38.5 -16.5h-684v-1194q0 -23 -16.5 -39t-39.5 -16h-84q-23 0 -39 16.5t-16 38.5z" />
<glyph unicode="&#x491;" horiz-adv-x="1013" d="M154 55v955q0 23 16 39t39 16h592v170q0 23 16.5 39t38.5 16h76q23 0 39 -16.5t16 -38.5v-291q0 -23 -16.5 -39t-38.5 -16h-592v-834q0 -23 -16.5 -39t-38.5 -16h-76q-23 0 -39 16.5t-16 38.5z" />
<glyph unicode="&#x1e80;" horiz-adv-x="1622" d="M82 1389q0 18 13.5 31.5t31.5 13.5h82q23 0 40 -13.5t23 -42.5l209 -1132l226 811q4 20 20 39.5t49 19.5h70q33 0 49 -19.5t20 -39.5l226 -811l209 1132q6 29 23.5 42.5t39.5 13.5h82q18 0 31.5 -13.5t13.5 -31.5l-2 -17l-252 -1266q-12 -55 -32.5 -80.5t-67.5 -25.5h-82 q-45 0 -67.5 27.5t-37.5 78.5l-188 685l-188 -685q-14 -51 -37 -78.5t-68 -27.5h-82q-47 0 -67.5 25.5t-32.5 80.5l-252 1266zM465 1782q0 18 10 29.5t29 11.5h161q25 0 39.5 -7.5t36.5 -31.5l156 -189q10 -10 10 -26q0 -33 -33 -33h-86q-29 0 -46 8t-40 27l-227 186 q-10 10 -10 25z" />
<glyph unicode="&#x1e81;" horiz-adv-x="1646" d="M76 1016q0 20 14 34.5t35 14.5h68q51 0 69 -49l230 -684l245 684q18 49 64 49h45q45 0 63 -49l246 -684l229 684q18 49 70 49h68q20 0 34.5 -14.5t14.5 -34.5l-2 -17l-314 -942q-18 -57 -61 -57h-64q-25 0 -39 15.5t-24 41.5l-244 680l-243 -680q-10 -27 -24.5 -42 t-39.5 -15h-63q-43 0 -62 57l-313 942zM483 1464q0 18 10.5 29.5t28.5 11.5h152q25 0 39 -7t36 -32l156 -188q10 -11 10 -27q0 -33 -33 -32h-75q-29 0 -46.5 8t-39.5 26l-228 187q-10 10 -10 24z" />
<glyph unicode="&#x1e82;" horiz-adv-x="1622" d="M82 1389q0 18 13.5 31.5t31.5 13.5h82q23 0 40 -13.5t23 -42.5l209 -1132l226 811q4 20 20 39.5t49 19.5h70q33 0 49 -19.5t20 -39.5l226 -811l209 1132q6 29 23.5 42.5t39.5 13.5h82q18 0 31.5 -13.5t13.5 -31.5l-2 -17l-252 -1266q-12 -55 -32.5 -80.5t-67.5 -25.5h-82 q-45 0 -67.5 27.5t-37.5 78.5l-188 685l-188 -685q-14 -51 -37 -78.5t-68 -27.5h-82q-47 0 -67.5 25.5t-32.5 80.5l-252 1266zM713 1569q0 16 10 26l156 189q22 24 36.5 31.5t38.5 7.5h162q18 0 28.5 -11.5t10.5 -29.5q0 -14 -10 -25l-228 -186q-23 -18 -40 -26.5t-46 -8.5 h-86q-33 0 -32 33z" />
<glyph unicode="&#x1e83;" horiz-adv-x="1646" d="M76 1016q0 20 14 34.5t35 14.5h68q51 0 69 -49l230 -684l245 684q18 49 64 49h45q45 0 63 -49l246 -684l229 684q18 49 70 49h68q20 0 34.5 -14.5t14.5 -34.5l-2 -17l-314 -942q-18 -57 -61 -57h-64q-25 0 -39 15.5t-24 41.5l-244 680l-243 -680q-10 -27 -24.5 -42 t-39.5 -15h-63q-43 0 -62 57l-313 942zM725 1251q0 16 10 27l156 188q23 25 37 32t39 7h151q18 0 28.5 -11t10.5 -30q0 -14 -10 -24l-227 -187q-23 -18 -40.5 -26t-45.5 -8h-76q-33 0 -33 32z" />
<glyph unicode="&#x1e84;" horiz-adv-x="1622" d="M82 1389q0 18 13.5 31.5t31.5 13.5h82q23 0 40 -13.5t23 -42.5l209 -1132l226 811q4 20 20 39.5t49 19.5h70q33 0 49 -19.5t20 -39.5l226 -811l209 1132q6 29 23.5 42.5t39.5 13.5h82q18 0 31.5 -13.5t13.5 -31.5l-2 -17l-252 -1266q-12 -55 -32.5 -80.5t-67.5 -25.5h-82 q-45 0 -67.5 27.5t-37.5 78.5l-188 685l-188 -685q-14 -51 -37 -78.5t-68 -27.5h-82q-47 0 -67.5 25.5t-32.5 80.5l-252 1266zM481 1591v117q0 23 16.5 39t38.5 16h117q23 0 39 -16t16 -39v-117q0 -22 -16 -38.5t-39 -16.5h-117q-23 0 -39 16.5t-16 38.5zM913 1591v117 q0 23 16.5 39t39.5 16h116q23 0 39.5 -16t16.5 -39v-117q0 -22 -16.5 -38.5t-39.5 -16.5h-116q-23 0 -39.5 16.5t-16.5 38.5z" />
<glyph unicode="&#x1e85;" horiz-adv-x="1646" d="M76 1016q0 20 14 34.5t35 14.5h68q51 0 69 -49l230 -684l245 684q18 49 64 49h45q45 0 63 -49l246 -684l229 684q18 49 70 49h68q20 0 34.5 -14.5t14.5 -34.5l-2 -17l-314 -942q-18 -57 -61 -57h-64q-25 0 -39 15.5t-24 41.5l-244 680l-243 -680q-10 -27 -24.5 -42 t-39.5 -15h-63q-43 0 -62 57l-313 942zM524 1284v117q0 23 16.5 39t38.5 16h117q23 0 39 -16.5t16 -38.5v-117q0 -22 -16 -38.5t-39 -16.5h-117q-23 0 -39 16.5t-16 38.5zM895 1284v117q0 23 16.5 39t38.5 16h117q23 0 39 -16.5t16 -38.5v-117q0 -22 -16.5 -38.5 t-38.5 -16.5h-117q-23 0 -39 16.5t-16 38.5z" />
<glyph unicode="&#x1ef2;" horiz-adv-x="1316" d="M61 1389q0 18 13.5 31.5t31.5 13.5h89q37 0 54 -13.5t32 -38.5l376 -651l379 651q14 25 31.5 38.5t54.5 13.5h88q18 0 31.5 -13.5t13.5 -31.5q0 -10 -10 -29l-489 -825v-480q0 -22 -16.5 -38.5t-39.5 -16.5h-84q-23 0 -39 16.5t-16 38.5v480l-489 825q-10 18 -11 29z M314 1782q0 18 10 29.5t29 11.5h161q25 0 39.5 -7.5t36.5 -31.5l156 -189q10 -10 10 -26q0 -33 -33 -33h-86q-29 0 -46 8t-40 27l-227 186q-10 10 -10 25z" />
<glyph unicode="&#x1ef3;" d="M66 1016q0 20 14 34.5t35 14.5h84q41 0 59 -49l315 -697l320 697q18 49 59 49h84q20 0 34.5 -14.5t14.5 -34.5q0 -8 -2 -15l-616 -1341q-18 -49 -59 -49h-84q-20 0 -35 14.5t-15 34.5q0 8 2 14l197 428l-405 899q-2 6 -2 15zM242 1464q0 18 10.5 29.5t28.5 11.5h152 q25 0 39 -7t36 -32l156 -188q10 -11 10 -27q0 -33 -33 -32h-75q-29 0 -46.5 8t-39.5 26l-228 187q-10 10 -10 24z" />
<glyph unicode="&#x2000;" horiz-adv-x="921" />
<glyph unicode="&#x2001;" horiz-adv-x="1843" />
<glyph unicode="&#x2002;" horiz-adv-x="921" />
<glyph unicode="&#x2003;" horiz-adv-x="1843" />
<glyph unicode="&#x2004;" horiz-adv-x="614" />
<glyph unicode="&#x2005;" horiz-adv-x="460" />
<glyph unicode="&#x2006;" horiz-adv-x="307" />
<glyph unicode="&#x2007;" horiz-adv-x="307" />
<glyph unicode="&#x2008;" horiz-adv-x="230" />
<glyph unicode="&#x2009;" horiz-adv-x="368" />
<glyph unicode="&#x200a;" horiz-adv-x="102" />
<glyph unicode="&#x2010;" horiz-adv-x="993" d="M139 582v65q0 23 16.5 39t39.5 16h604q23 0 39 -16t16 -39v-65q0 -23 -16.5 -39.5t-38.5 -16.5h-604q-23 0 -39.5 16.5t-16.5 39.5z" />
<glyph unicode="&#x2011;" horiz-adv-x="993" d="M139 582v65q0 23 16.5 39t39.5 16h604q23 0 39 -16t16 -39v-65q0 -23 -16.5 -39.5t-38.5 -16.5h-604q-23 0 -39.5 16.5t-16.5 39.5z" />
<glyph unicode="&#x2012;" horiz-adv-x="993" d="M139 582v65q0 23 16.5 39t39.5 16h604q23 0 39 -16t16 -39v-65q0 -23 -16.5 -39.5t-38.5 -16.5h-604q-23 0 -39.5 16.5t-16.5 39.5z" />
<glyph unicode="&#x2013;" horiz-adv-x="1177" d="M139 582v65q0 23 16.5 39t39.5 16h788q23 0 39 -16t16 -39v-65q0 -23 -16 -39.5t-39 -16.5h-788q-23 0 -39.5 16.5t-16.5 39.5z" />
<glyph unicode="&#x2014;" horiz-adv-x="1579" d="M145 582v65q0 23 16.5 39t39.5 16h1177q23 0 39.5 -16t16.5 -39v-65q0 -23 -16.5 -39.5t-39.5 -16.5h-1177q-23 0 -39.5 16.5t-16.5 39.5z" />
<glyph unicode="&#x2018;" horiz-adv-x="493" d="M100 1098q0 8 2 14l107 277q25 66 88 65h51q18 0 31.5 -13.5t13.5 -31.5v-4l-41 -272q-6 -33 -27.5 -56.5t-60.5 -23.5h-119q-18 0 -31.5 13t-13.5 32z" />
<glyph unicode="&#x2019;" horiz-adv-x="483" d="M115 1098v4l41 272q6 33 27.5 56.5t60.5 23.5h118q18 0 32 -13.5t14 -31.5q0 -8 -2 -14l-107 -277q-25 -66 -88 -65h-51q-18 0 -31.5 13t-13.5 32z" />
<glyph unicode="&#x201a;" horiz-adv-x="514" d="M96 -104l41 272q6 33 27.5 56.5t60.5 23.5h119q18 0 31.5 -13.5t13.5 -31.5q0 -8 -2 -15l-106 -276q-25 -66 -88 -66h-52q-18 0 -31.5 13.5t-13.5 31.5v5z" />
<glyph unicode="&#x201c;" horiz-adv-x="841" d="M100 1098q0 8 2 14l107 277q25 66 88 65h51q18 0 31.5 -13.5t13.5 -31.5v-4l-41 -272q-6 -33 -27.5 -56.5t-60.5 -23.5h-119q-18 0 -31.5 13t-13.5 32zM449 1098q0 8 2 14l106 277q25 66 88 65h51q18 0 31.5 -13.5t13.5 -31.5v-4l-41 -272q-6 -33 -27.5 -56.5 t-60.5 -23.5h-118q-18 0 -31.5 13t-13.5 32z" />
</font>
</defs>
</svg>
